<?xml version="1.0" standalone="no"?>
<!DOCTYPE svg PUBLIC "-//W3C//DTD SVG 1.1//EN" "http://www.w3.org/Graphics/SVG/1.1/DTD/svg11.dtd" >
<svg xmlns="http://www.w3.org/2000/svg">
<metadata></metadata>
<defs>
<font id="coresansm55mediumuploadedfile" horiz-adv-x="1138" >
<font-face units-per-em="2048" ascent="1612" descent="-436" />
<missing-glyph horiz-adv-x="614" />
<glyph unicode="&#xfb01;" horiz-adv-x="1333" d="M59 -365l240 1233h-164q-33 0 -26 33l24 127q6 33 39 33h164l18 88q16 84 44 150.5t75 113.5t115.5 72.5t167.5 25.5q53 0 102 -8t84 -22q31 -10 25 -45l-21 -99q-6 -29 -39 -26q-27 4 -63.5 6t-79.5 2q-80 0 -117 -37t-53 -117l-21 -104h676q33 0 27 -33l-195 -997 q-6 -31 -37 -31h-174q-33 0 -26 31l164 837h-471l-240 -1233q-6 -31 -39 -30h-174q-31 0 -25 30zM1081 1249l35 183q6 33 37 32h186q31 0 25 -32l-2 -15q-4 -18 -13.5 -52t-24.5 -66.5t-36.5 -57t-48.5 -24.5h-133q-31 0 -25 32z" />
<glyph unicode="&#xfb02;" horiz-adv-x="1433" d="M59 -365l240 1233h-164q-33 0 -26 33l24 127q6 33 39 33h164l18 88q16 84 44 150.5t75 113.5t115.5 72.5t167.5 25.5q104 0 208.5 -4t194.5 -12h174q33 0 27 -33l-221 -1143q-16 -76 5 -109.5t99 -33.5q23 0 50.5 2t43.5 6q33 6 27 -26l-21 -109q-6 -29 -38 -37 q-43 -12 -94.5 -20t-92.5 -8q-78 0 -128 22.5t-75.5 64.5t-28.5 99t9 125l199 1018q-78 4 -163 5t-167 1q-80 0 -117 -37t-53 -117l-21 -104h285q33 0 27 -33l-25 -127q-6 -33 -39 -33h-284l-240 -1233q-6 -31 -39 -30h-174q-31 0 -25 30z" />
<glyph unicode="&#xfb03;" horiz-adv-x="2023" d="M59 -365l240 1233h-164q-33 0 -26 33l24 127q6 33 39 33h164l18 88q16 84 44 150.5t75 113.5t115.5 72.5t167.5 25.5q66 0 124 -7t99 -23q31 -10 25 -47l-21 -97q-6 -29 -39 -26q-41 4 -89 6t-91 2q-80 0 -117 -37t-53 -117l-21 -104h453l18 88q16 84 44 150.5t75 113.5 t116 72.5t167 25.5q53 0 102 -8t84 -22q31 -10 25 -45l-21 -99q-6 -29 -39 -26q-27 4 -63.5 6t-79.5 2q-80 0 -117 -37t-53 -117l-20 -104h675q33 0 27 -33l-194 -997q-6 -31 -37 -31h-174q-33 0 -27 31l164 837h-471l-240 -1233q-6 -31 -39 -30h-174q-31 0 -24 30l239 1233 h-452l-240 -1233q-6 -31 -39 -30h-174q-31 0 -25 30zM1772 1249l34 183q6 33 37 32h187q31 0 24 -32l-2 -15q-4 -18 -13 -52t-24.5 -66.5t-37 -57t-48.5 -24.5h-133q-31 0 -24 32z" />
<glyph unicode="&#xfb04;" horiz-adv-x="2123" d="M59 -365l240 1233h-164q-33 0 -26 33l24 127q6 33 39 33h164l18 88q16 84 44 150.5t75 113.5t115.5 72.5t167.5 25.5q66 0 124 -7t99 -23q31 -10 25 -47l-21 -97q-6 -29 -39 -26q-41 4 -89 6t-91 2q-80 0 -117 -37t-53 -117l-21 -104h453l18 88q16 84 44 150.5t75 113.5 t116 72.5t167 25.5q104 0 208.5 -4t194.5 -12h174q33 0 27 -33l-221 -1143q-16 -76 5 -109.5t99 -33.5q23 0 50.5 2t44.5 6q33 6 26 -26l-20 -109q-6 -29 -39 -37q-43 -12 -94.5 -20t-92.5 -8q-78 0 -128 22.5t-75.5 64.5t-28.5 99t9 125l199 1018q-78 4 -163 5t-167 1 q-80 0 -117 -37t-53 -117l-20 -104h284q33 0 27 -33l-25 -127q-6 -33 -39 -33h-284l-240 -1233q-6 -31 -39 -30h-174q-31 0 -24 30l239 1233h-452l-240 -1233q-6 -31 -39 -30h-174q-31 0 -25 30z" />
<glyph unicode="&#xd;" horiz-adv-x="485" />
<glyph horiz-adv-x="0" />
<glyph horiz-adv-x="0" />
<glyph unicode=" "  horiz-adv-x="614" />
<glyph unicode="&#x09;" horiz-adv-x="614" />
<glyph unicode="&#xa0;" horiz-adv-x="614" />
<glyph unicode="!" horiz-adv-x="557" d="M96 115q2 49 10 94l7 24q6 31 37 31h196q31 0 25 -31l-41 -204q-6 -29 -33 -29h-158q-39 0 -41 35q-4 31 -2 80zM182 416l94 651l64 334q6 33 39 33h194q29 0 23 -33l-64 -334l-159 -651q-10 -37 -43 -37h-121q-18 0 -23.5 9t-3.5 28z" />
<glyph unicode="&#x22;" horiz-adv-x="1085" d="M309 860l78 543q2 31 35 31h213q29 0 22 -31l-8 -39q-10 -45 -25.5 -105.5t-36 -127t-45 -136t-50.5 -135.5q-8 -23 -33 -22h-129q-25 0 -21 22zM733 860l78 543q2 31 35 31h213q29 0 22 -31l-8 -39q-10 -45 -25.5 -105.5t-36 -127t-45 -136t-51.5 -135.5q-8 -23 -32 -22 h-129q-25 0 -21 22z" />
<glyph unicode="#" horiz-adv-x="1409" d="M57 377l25 127q6 31 37 31h200l136 368h-183q-31 0 -24 33l24 127q6 31 37 31h215l115 309q12 31 43 31h156q33 0 18 -33l-113 -307h308l114 309q12 31 43 31h156q33 0 18 -33l-112 -307h168q33 0 26 -31l-24 -127q-6 -33 -39 -33h-201l-135 -368h182q33 0 27 -31 l-25 -127q-6 -33 -39 -33h-215l-114 -313q-12 -31 -41 -31h-156q-35 0 -20 33l112 311h-307l-115 -313q-12 -31 -41 -31h-155q-35 0 -21 33l113 311h-168q-31 0 -25 33zM539 535h307l135 368h-307z" />
<glyph unicode="$" horiz-adv-x="1126" d="M39 51l24 121q6 31 41 29q84 -10 172.5 -15.5t180.5 -5.5l88 459l-144 72q-113 57 -151.5 151t-11.5 228q35 174 145.5 265t321.5 101l28 148q6 35 39 34h70q33 0 26 -34l-28 -148q72 -4 147.5 -16.5t134.5 -28.5q27 -6 25 -31l-25 -118q-6 -31 -39 -29q-68 8 -140.5 13 t-143.5 7l-82 -428l135 -65q217 -109 162 -391q-16 -84 -50 -151.5t-89.5 -118t-134 -81t-187.5 -38.5l-29 -146q-6 -35 -41 -35h-69q-31 0 -25 35l27 141q-96 4 -188.5 15.5t-166.5 29.5q-25 6 -22 31zM485 1083q-12 -66 13.5 -113.5t95.5 -82.5l70 360q-152 -25 -179 -164 zM594 190q76 16 117 60.5t55 116.5t-9.5 122t-88.5 86z" />
<glyph unicode="%" horiz-adv-x="1845" d="M254 1051l10 53q35 170 140.5 258t265.5 88t232.5 -88t37.5 -258l-10 -53q-33 -170 -139.5 -258t-266.5 -88t-231.5 88t-38.5 258zM313.5 11.5q-4.5 11.5 8.5 27.5l1085 1368q10 12 22.5 19.5t32.5 7.5h164q16 0 19.5 -11.5t-9.5 -27.5l-1085 -1368q-10 -12 -21.5 -19.5 t-31.5 -7.5h-164q-16 0 -20.5 11.5zM455 1059q-16 -90 6 -134t98 -44t117 44t57 134l6 37q18 90 -5 134t-99 44t-116 -44t-58 -134zM1018 330l10 53q33 170 139.5 258t266.5 88t231.5 -88t38.5 -258l-10 -53q-35 -170 -140.5 -258t-265.5 -88t-232.5 88t-37.5 258zM1219 338 q-18 -90 5 -134t99 -44t116 44t58 134l6 37q16 90 -6 134t-98 44t-117 -44t-57 -134z" />
<glyph unicode="&#x26;" horiz-adv-x="1490" d="M121 360q27 137 125 245t264 192q-86 113 -115.5 194.5t-13.5 169.5q12 70 44 125t87 93t137 58.5t197 20.5q86 0 174 -13t149 -34q16 -4 20.5 -11t2.5 -20l-25 -123q-6 -33 -37 -26q-59 10 -141 16t-164 6q-102 0 -144 -23.5t-52 -72.5q-8 -41 2 -77t45 -89l356 -542 q84 121 133 284q10 27 37 21l119 -27q26 -6 20 -39q-47 -244 -190 -422l152 -229q10 -16 2.5 -26.5t-23.5 -10.5h-203q-45 0 -65 35l-45 65q-92 -59 -201 -92t-236 -33q-238 0 -342 106.5t-69 278.5zM371 367q-16 -86 38 -136.5t177 -50.5q150 0 274 88l-256 389 q-104 -66 -160.5 -135t-72.5 -155z" />
<glyph unicode="'" horiz-adv-x="649" d="M303 860l78 543q2 31 35 31h213q29 0 22 -31l-8 -39q-10 -45 -25.5 -105.5t-36 -127t-45 -136t-51.5 -135.5q-8 -23 -32 -22h-129q-25 0 -21 22z" />
<glyph unicode="(" horiz-adv-x="831" d="M191 269q5 165 40 349q37 184 96.5 349.5t147.5 292t209 206.5t281 95q33 2 26 -29l-22 -117q-6 -25 -37 -35q-74 -23 -139.5 -68.5t-122 -133.5t-103.5 -223.5t-86 -336.5t-44 -336t16.5 -223t68.5 -134t113 -68q27 -8 24 -35l-22 -117q-6 -31 -39 -29q-154 14 -244 94 t-129 207t-34 292z" />
<glyph unicode=")" horiz-adv-x="831" d="M-82 -295l21 117q2 25 36 35q74 23 139.5 68.5t121 133.5t102.5 223.5t86 335.5q39 201 45 336.5t-16.5 223.5t-68.5 134t-112 68q-31 8 -24 35l22 117q6 31 39 29q154 -14 243 -94.5t128 -207t35 -292t-41 -349.5q-35 -184 -94.5 -349t-148.5 -292t-210 -206.5 t-278 -94.5q-31 -2 -25 29z" />
<glyph unicode="*" horiz-adv-x="1245" d="M88 750l53 161q10 33 52 21q84 -29 196.5 -81t222.5 -126q-37 127 -52 251t-15 212q0 43 35 43h170q35 0 34 -43q0 -88 -16 -212t-53 -251q111 74 223.5 126t196.5 81q39 12 51 -21l53 -161q8 -33 -31 -45q-84 -29 -206.5 -51.5t-253.5 -26.5q104 -80 189 -171t136 -163 q25 -35 -2 -55l-137 -101q-29 -20 -55 15q-51 72 -110.5 182t-104.5 233q-45 -123 -104.5 -233.5t-110.5 -181.5q-27 -35 -56 -15l-137 101q-27 20 -2 55q51 72 136 163t190 171q-131 4 -254 26.5t-207 51.5q-39 12 -31 45z" />
<glyph unicode="+" horiz-adv-x="1277" d="M168 606v142q0 33 33 32h354v394q0 33 31 32h188q31 0 31 -32v-394h354q33 0 33 -32v-142q0 -31 -33 -31h-354v-393q0 -31 -31 -30h-188q-31 0 -31 30v393h-354q-33 0 -33 31z" />
<glyph unicode="," horiz-adv-x="569" d="M-12 -176q41 55 67.5 114.5t36.5 106.5q2 12 4 32.5t2 43.5t1 47.5t5 46.5l9 39q6 31 37 31h206q31 0 25 -31l-10 -51q-18 -96 -82 -219t-187 -238q-18 -16 -39 -2l-73 47q-16 10 -2 33z" />
<glyph unicode="-" horiz-adv-x="880" d="M160 598l30 158q6 33 39 32h562q33 0 26 -32l-31 -158q-6 -31 -38 -31h-562q-33 0 -26 31z" />
<glyph unicode="." horiz-adv-x="569" d="M96 137q2 53 10 94l7 23q6 31 37 31h206q31 0 25 -31l-45 -223q-6 -31 -35 -31h-162q-33 0 -41 41q-4 43 -2 96z" />
<glyph unicode="/" horiz-adv-x="1056" d="M-141.5 -210q-1.5 15 12.5 34l1169 1683q14 27 47 27h177q23 0 24.5 -15.5t-12.5 -33.5l-1170 -1684q-18 -27 -49 -26h-174q-23 0 -24.5 15z" />
<glyph unicode="0" d="M90 400.5q6 138.5 41 316.5t83 316t122 232.5t179.5 143.5t254.5 49q150 0 237 -49t123.5 -143.5t31.5 -232.5t-40 -316t-84 -316.5t-122.5 -232.5t-179 -143.5t-255.5 -49.5t-236.5 49.5t-123.5 143.5t-31 232.5zM343 464.5q-9 -102.5 7.5 -165.5t58.5 -91t113 -28 q72 0 125 28t93 91t72 165.5t60 252.5q29 150 37.5 252t-8 165.5t-58.5 91t-114 27.5t-125 -27.5t-93 -91t-70.5 -165.5t-59.5 -252t-38 -252.5z" />
<glyph unicode="1" d="M387 1245l21 113q6 29 34 35q86 18 196 29.5t208 11.5h84q29 0 22 -33l-266 -1370q-6 -31 -35 -31h-188q-33 0 -27 31l236 1204h-45q-57 0 -113.5 -5t-103.5 -11q-29 -4 -23 26z" />
<glyph unicode="2" d="M35 35l24 125q33 168 141.5 288.5t303.5 231.5q86 49 150.5 91t110.5 86t73.5 93t40.5 115q18 102 -32 145t-198 43q-82 0 -156.5 -7t-140.5 -15q-29 -4 -22 24l24 125q4 27 33 35q72 18 161 30.5t173 12.5q135 0 222 -23.5t135 -73.5t58.5 -126t-10.5 -180 q-31 -154 -130 -269.5t-279 -212.5q-360 -190 -391 -348l-4 -20h604q33 0 26 -33l-28 -141q-6 -31 -37 -31h-824q-37 0 -28 35z" />
<glyph unicode="3" d="M31 53l22 117q4 16 14.5 25.5t26.5 5.5q59 -10 134 -15.5t153 -5.5q158 0 251 55.5t116 170.5q23 121 -35 175t-197 54h-258q-33 0 -27 33l27 141q6 31 39 31h238q279 0 319 204q39 209 -231 209q-80 0 -150 -5t-141 -15q-37 -6 -31 29l25 118q2 25 28 31q74 23 165 35 t181 12q227 0 334 -109.5t70 -295.5q-16 -86 -70.5 -169t-165.5 -141q94 -53 123 -145t8 -192q-18 -96 -69 -176t-130 -136.5t-185.5 -87.5t-235.5 -31q-88 0 -175 10.5t-153 32.5q-29 8 -20 35z" />
<glyph unicode="4" d="M37 317l20 113q8 39 31 96q117 233 248 458.5t256 418.5q20 31 59 31h166q18 0 23.5 -13.5t-9.5 -34.5q-68 -104 -136 -216.5t-132.5 -228.5t-124 -230.5t-108.5 -223.5h358l80 416q6 33 37 33h188q31 0 25 -33l-80 -416h137q31 0 25 -32l-29 -142q-6 -31 -37 -30h-137 l-49 -252q-6 -31 -35 -31h-188q-33 0 -27 31l49 252h-584q-35 0 -26 34z" />
<glyph unicode="5" d="M72 53l22 117q4 16 14.5 25.5t26.5 5.5q23 -4 55.5 -7.5t68.5 -6.5t73 -5t67 -2q166 0 252 60.5t107 169.5l8 34q23 111 -31.5 163t-181.5 52h-262q-78 0 -55 82l170 637q14 55 73 56h676q33 0 25 -33l-27 -141q-6 -31 -39 -31h-520l-100 -367h137q225 0 322.5 -102.5 t58.5 -298.5l-11 -60q-18 -96 -67 -173.5t-126 -134t-182.5 -87.5t-238.5 -31q-70 0 -149.5 10t-145.5 33q-27 10 -20 35z" />
<glyph unicode="6" d="M111 446l86 443q25 121 72.5 225.5t121.5 181t175.5 119.5t232.5 43q82 0 165 -13t142 -36q27 -8 20 -33l-22 -114q-6 -37 -41 -31q-59 10 -129 16t-135 6q-82 0 -141.5 -24.5t-100.5 -69.5t-66.5 -109.5t-39.5 -142.5l-15 -65q59 23 135 35t146 12q115 0 190.5 -29 t116.5 -81t50 -125.5t-9 -161.5l-12 -64q-20 -109 -69.5 -192.5t-122.5 -142t-166 -88.5t-199 -30q-248 0 -338 126t-47 345zM358 438q-23 -117 11 -187.5t157 -70.5q121 0 187.5 64.5t89.5 183.5l8 41q20 104 -23 159.5t-174 55.5q-51 0 -107 -3t-104 -7z" />
<glyph unicode="7" d="M193 47q72 154 155.5 309.5t173.5 307t186.5 295t194.5 270.5h-622q-33 0 -27 31l27 141q8 33 41 33h845q33 0 27 -35l-23 -121q-8 -39 -20 -66.5t-43 -66.5q-88 -113 -176 -244t-174 -273.5t-167 -291t-151 -295.5q-18 -41 -55 -41h-172q-45 0 -20 47z" />
<glyph unicode="8" d="M53 381q49 256 289 367q-63 51 -95 127.5t-9 193.5q37 193 173 291t359 98q236 0 325 -102t52 -297q-20 -104 -75.5 -185t-170.5 -139q43 -27 80 -61.5t59.5 -77.5t30.5 -96.5t-4 -118.5q-41 -211 -181.5 -308.5t-404.5 -97.5q-260 0 -364.5 102.5t-63.5 303.5zM303 387 q-20 -109 32 -158t187 -49t204 47t91 158q8 45 -1 81t-45 67.5t-98.5 62.5t-158.5 68q-88 -49 -140.5 -114t-70.5 -163zM480 985q5 -33 31 -60.5t77 -54t133 -59.5q82 47 122 105.5t54 134.5q20 102 -17.5 152t-150.5 50t-170 -49t-76 -143q-8 -43 -3 -76z" />
<glyph unicode="9" d="M117 57l22 115q6 37 41 31q59 -10 129 -16.5t135 -6.5q82 0 141.5 24.5t100.5 69.5t66.5 110t40.5 142l14 66q-59 -23 -135 -35t-146 -12q-115 0 -190.5 28.5t-115.5 81t-49 126t7 161.5l12 64q20 109 69.5 192.5t122.5 142t165 88t201 29.5q248 0 338 -126t47 -345 l-86 -442q-25 -121 -73 -225.5t-122 -181.5t-175.5 -120t-232.5 -43q-82 0 -165 13.5t-142 36.5q-27 8 -20 32zM432 965q-20 -104 23 -159.5t174 -55.5q51 0 107.5 3t103.5 7l45 235q23 117 -11 187.5t-157 70.5q-121 0 -187.5 -64.5t-89.5 -182.5z" />
<glyph unicode=":" horiz-adv-x="569" d="M96 137q2 53 10 94l7 23q6 31 37 31h206q31 0 25 -31l-45 -223q-6 -31 -35 -31h-162q-33 0 -41 41q-4 43 -2 96zM223 825l43 224q6 31 37 30h162q33 0 39 -41q6 -43 3 -96t-11 -94l-4 -23q-6 -31 -37 -30h-207q-31 0 -25 30z" />
<glyph unicode=";" horiz-adv-x="569" d="M-12 -176q41 55 67.5 114.5t36.5 106.5q2 12 4 32.5t2 43.5t1 47.5t5 46.5l9 39q6 31 37 31h206q31 0 25 -31l-10 -51q-18 -96 -82 -219t-187 -238q-18 -16 -39 -2l-73 47q-16 10 -2 33zM223 825l43 224q6 31 37 30h162q33 0 39 -41q6 -43 3 -96t-11 -94l-4 -23 q-6 -31 -37 -30h-207q-31 0 -25 30z" />
<glyph unicode="&#x3c;" horiz-adv-x="1277" d="M168 629v102q0 23 9 36t32 28q186 117 412.5 221t468.5 190q37 12 51 -16l45 -84q14 -31 -12 -43l-773 -383l773 -383q27 -12 12 -43l-45 -84q-14 -29 -51 -16q-242 86 -468.5 190.5t-412.5 220.5q-23 14 -32 27.5t-9 36.5z" />
<glyph unicode="=" horiz-adv-x="1277" d="M168 365v141q0 33 33 33h958q33 0 33 -33v-141q0 -31 -33 -31h-958q-33 0 -33 31zM168 852v141q0 33 33 33h958q33 0 33 -33v-141q0 -31 -33 -31h-958q-33 0 -33 31z" />
<glyph unicode="&#x3e;" horiz-adv-x="1277" d="M176 254q-16 31 12 43l773 383l-773 383q-29 12 -12 43l45 84q14 29 51 16q242 -86 468.5 -190.5t412.5 -220.5q23 -14 32 -27.5t9 -36.5v-102q0 -23 -9 -36t-32 -28q-186 -117 -412.5 -221t-468.5 -190q-37 -12 -51 16z" />
<glyph unicode="?" horiz-adv-x="1009" d="M248 115q2 49 10 94l6 24q6 31 37 31h197q31 0 24 -31l-41 -204q-6 -29 -32 -29h-158q-39 0 -41 35q-4 31 -2 80zM256 1270l23 110q2 20 30 31q63 20 148.5 33.5t165.5 13.5q236 0 324.5 -99t51.5 -290q-20 -104 -96 -199.5t-219 -201.5q-59 -45 -90 -100.5t-45 -125.5 l-4 -30q-6 -33 -39 -33h-174q-31 0 -25 33l6 32q20 113 79 208.5t179 178.5q88 59 133.5 118t57.5 124q20 98 -35 144.5t-170 46.5q-84 0 -149.5 -4.5t-131.5 -14.5q-27 -4 -20 25z" />
<glyph unicode="@" horiz-adv-x="1783" d="M134.5 253q-21.5 157 12.5 335l19 88q37 195 120 348.5t200.5 261t268 164.5t326.5 57h78q166 0 289 -49t196.5 -137t97 -213t-4.5 -274l-105 -531q-8 -41 -30.5 -65.5t-59.5 -40.5q-53 -23 -115.5 -39.5t-126 -27.5t-126 -17.5t-117.5 -6.5h-37q-313 0 -427 124t-67 368 l15 70q18 98 63 180t111.5 141.5t153.5 92t190 32.5q178 0 257 -89t50 -239l-98 -507q57 6 110.5 17t102.5 28l102 522q25 129 1.5 226t-85 161.5t-157 97.5t-212.5 33h-65q-287 0 -481.5 -174t-264.5 -531l-10 -55q-35 -172 -15.5 -307t92.5 -229.5t201 -144.5t314 -50h68 q104 0 221 16.5t227 47.5q33 10 29 -19l-14 -74q-6 -25 -27 -32q-47 -18 -104.5 -34t-119 -27t-121 -16t-108.5 -5h-82q-233 0 -387.5 66.5t-240.5 183t-107.5 273.5zM741 598q-31 -164 39 -247t271 -83l96 498q33 162 -115 162q-100 0 -176 -64.5t-104 -214.5z" />
<glyph unicode="A" horiz-adv-x="1302" d="M-16 37l663 1354q20 43 66 43h270q25 0 34 -10.5t11 -32.5l139 -1354v-7q0 -30 -30 -30h-193q-35 0 -35 25l-24 286h-512l-135 -286q-10 -25 -43 -25h-193q-24 0 -24 17q0 8 6 20zM469 516h397l-59 713z" />
<glyph unicode="B" horiz-adv-x="1310" d="M115 123l231 1184q8 47 26.5 71.5t59.5 34.5q88 23 190.5 34t219.5 11q266 0 364 -106q72 -77 72 -199q0 -46 -10 -98q-39 -199 -217 -299q100 -42 136 -136q22 -57 22 -124q0 -43 -9 -90q-20 -106 -64 -187.5t-117 -134.5t-177.5 -81t-245.5 -28q-123 0 -236.5 10 t-199.5 33q-34 10 -44 35q-5 13 -5 31q0 17 4 39zM379 199q59 -10 115 -14.5t122 -4.5q82 0 140.5 13.5t97.5 42t61.5 72.5t34.5 104q6 32 6 60q0 58 -26 100q-38 62 -166 63h-299zM504 840h233q133 0 197.5 51t83.5 151q6 33 6 60q0 70 -42 104q-58 47 -212 47 q-100 0 -190 -22z" />
<glyph unicode="C" horiz-adv-x="1161" d="M141 385q-1 21 -1 43q0 113 26 248l14 80q31 162 88.5 292t146.5 221t211 140t285 49q98 0 178 -13t136 -32q20 -7 20 -26v-5l-24 -120q-6 -33 -35 -27q-49 8 -124 13t-147 5q-109 0 -189.5 -31.5t-138 -94t-96 -159t-63.5 -225.5l-10 -55q-23 -119 -23 -210v-14 q2 -95 36 -157.5t102.5 -94.5t177.5 -32q76 0 154.5 5t138.5 14q33 2 26 -27l-24 -125q-4 -12 -10.5 -19.5t-22.5 -11.5q-76 -18 -166 -29.5t-182 -11.5q-162 0 -265.5 49.5t-158 140.5t-60.5 220z" />
<glyph unicode="D" horiz-adv-x="1361" d="M116 55q-4 12 -5 28q0 19 6 44l229 1180q8 47 26.5 71.5t59.5 34.5q82 23 181.5 34t207.5 11q180 0 291 -50t165 -143.5t58 -224.5q0 -15 1 -31q0 -118 -27 -259l-15 -66q-31 -160 -86 -291t-144 -224t-220 -143.5t-312 -50.5q-109 0 -202.5 11.5t-169.5 33.5 q-34 10 -44 35zM381 201q35 -10 83 -15.5t101 -5.5q119 0 200 33t135 96.5t88 158.5t59 220l10 55q25 125 27 221q0 8 1 15q1 87 -27 145q-30 64 -98.5 96.5t-187.5 32.5q-53 0 -101 -5t-89 -15z" />
<glyph unicode="E" horiz-adv-x="1181" d="M132 132q-1 13 -1 28q0 48 12 112l174 889q16 82 43 139.5t73 92t114.5 50t169.5 15.5q129 0 255 -6t236 -18q24 -3 24 -25q0 -5 -1 -10l-23 -115q-6 -31 -37 -31h-477q-61 0 -91 -30.5t-42 -89.5l-57 -295h545q33 0 26 -33l-28 -141q-4 -31 -37 -31h-545l-66 -332 q-5 -22 -4 -41q-1 -30 11 -49q20 -31 81 -31h498q29 0 25 -30l-23 -115q-6 -31 -37 -35q-121 -14 -256 -19.5t-266 -5.5q-100 0 -162.5 15.5t-95.5 50.5t-38 91z" />
<glyph unicode="F" horiz-adv-x="1150" d="M96 29l221 1132q16 82 43 139.5t73 92t115 50t169 15.5q131 0 260 -7t252 -17q23 -3 23 -24q0 -5 -1 -11l-22 -115q-6 -31 -37 -31h-498q-61 0 -91 -30.5t-42 -89.5l-61 -312h544q33 0 27 -33l-27 -141q-6 -31 -38 -31h-545l-115 -587q-6 -29 -35 -29h-190q-26 0 -26 20 q0 4 1 9z" />
<glyph unicode="G" horiz-adv-x="1361" d="M141 392q-1 21 -1 43q0 113 26 247l14 70q31 164 89.5 295t150.5 222t222 140t306 49q102 0 201.5 -12t177.5 -33q22 -5 22 -24q0 -4 -1 -7l-25 -120q-6 -29 -37 -27q-78 8 -162 13t-174 5q-131 0 -220 -32.5t-147.5 -97t-94 -161t-60.5 -221.5l-10 -51 q-25 -125 -25 -220t33 -159.5t103.5 -97.5t191.5 -33q49 0 103.5 4t88.5 15l80 407h-248q-31 0 -24 31l27 141q8 33 36 33h467q31 0 25 -33l-127 -655q-16 -88 -86 -103q-104 -23 -207.5 -34t-226.5 -11q-166 0 -270.5 51.5t-158 143.5t-59.5 222z" />
<glyph unicode="H" horiz-adv-x="1388" d="M96 29l269 1374q4 31 34 31h191q29 0 24 -31l-110 -563h540l111 563q4 31 37 31h190q24 0 24 -24q0 -3 -1 -7l-268 -1374q-6 -29 -33 -29h-191q-33 0 -26 29l119 606h-541l-119 -606q-6 -29 -35 -29h-190q-26 0 -26 20q0 4 1 9z" />
<glyph unicode="I" horiz-adv-x="638" d="M117 31l266 1370q6 33 39 33h188q24 0 24 -23q0 -5 -1 -10l-266 -1370q-6 -31 -35 -31h-189q-27 0 -27 21q0 5 1 10z" />
<glyph unicode="J" horiz-adv-x="917" d="M-61 61l22 113q6 27 35 25q55 -8 130 -13.5t153 -5.5q55 0 92 17.5t60.5 51.5t38.5 83t28 112l186 959q4 31 35 31h190q25 0 25 -24v-7l-191 -979q-20 -104 -53 -187t-83 -141.5t-121 -89.5t-169 -31q-104 0 -194 11.5t-164 36.5q-21 6 -21 27q0 5 1 11z" />
<glyph unicode="K" horiz-adv-x="1259" d="M96 31l266 1370q6 33 39 33h189q29 0 22 -33l-118 -613l604 627q18 18 43 19h217q18 0 18 -15q0 -10 -10 -20l-629 -656l422 -708q6 -10 1 -22.5t-21 -12.5h-236q-29 0 -41 18l-385 680l-131 -667q-6 -31 -35 -31h-188q-28 0 -28 22q0 4 1 9z" />
<glyph unicode="L" horiz-adv-x="1099" d="M132 132q-1 13 -1 28q0 48 12 112l222 1131q4 31 34 31h191q29 0 24 -31l-215 -1102q-5 -24 -5 -43q0 -28 10 -47q18 -31 83 -31h519q25 0 25 -22q0 -4 -1 -8l-22 -115q-6 -35 -43 -37q-115 -10 -253.5 -16.5t-283.5 -6.5q-100 0 -162.5 15.5t-95.5 50.5t-38 91z" />
<glyph unicode="M" horiz-adv-x="1699" d="M96 29l269 1374q4 31 34 31h240q29 0 40 -10.5t17 -28.5l199 -731l485 731q12 18 28.5 28.5t45.5 10.5h240q23 0 23 -22q0 -4 -1 -9l-268 -1374q-6 -29 -33 -29h-192q-31 0 -25 29l201 1032l-420 -635q-27 -39 -72 -39h-131q-47 0 -55 39l-174 635l-201 -1032 q-6 -29 -33 -29h-192q-26 0 -26 20q0 4 1 9z" />
<glyph unicode="N" horiz-adv-x="1435" d="M96 29l269 1374q4 31 34 31h250q29 0 39 -9.5t17 -27.5l294 -1030l203 1038q6 29 35 29h193q23 0 23 -19q0 -5 -1 -10l-268 -1374q-4 -31 -33 -31h-250q-29 0 -40 9t-17 28l-295 1030l-203 -1038q-6 -29 -33 -29h-192q-26 0 -26 20q0 4 1 9z" />
<glyph unicode="O" horiz-adv-x="1417" d="M166 682l14 70q68 346 245 526t484 180t415 -180q66 -110 66 -283q0 -109 -26 -243l-14 -70q-68 -346 -245 -526.5t-484 -180.5q-307 1 -415 181q-66 111 -66 283q0 109 26 243zM418 690q-25 -127 -25 -221q0 -105 31 -168q59 -121 238 -121q178 0 282.5 121t157.5 389 l10 53q24 125 24 219q0 106 -31 170q-58 121 -237 121q-178 0 -283.5 -120.5t-156.5 -389.5z" />
<glyph unicode="P" horiz-adv-x="1253" d="M96 31l250 1278q8 45 26.5 69.5t59.5 34.5q86 23 195.5 34t214.5 11q444 0 444 -320q0 -52 -12 -112l-17 -88q-41 -207 -185 -319.5t-398 -112.5q-119 0 -232 12l-96 -487q-6 -31 -37 -31h-186q-28 0 -28 22q0 4 1 9zM481 721q41 -4 91.5 -7t91.5 -3q88 0 148 15t100 46 t62.5 77t35.5 109l10 48q8 42 8 76q0 73 -36 113q-54 58 -224 58q-47 0 -94 -5t-92 -15z" />
<glyph unicode="Q" horiz-adv-x="1417" d="M166 682l14 70q68 346 245 526t484 180t415 -180q66 -110 66 -283q0 -109 -26 -243l-14 -70q-41 -219 -127 -370.5t-222 -237.5l136 -262q14 -37 -33 -37h-180q-39 0 -52 26l-96 189q-70 -14 -155 -15q-307 0 -415 181q-66 110 -66 283q0 109 26 243zM418 690 q-25 -127 -25 -221q0 -104 31 -168q59 -121 238 -121q178 0 282.5 121t157.5 389l10 53q24 125 24 219q0 106 -31 170q-58 121 -237 121q-178 0 -283.5 -120.5t-156.5 -389.5z" />
<glyph unicode="R" horiz-adv-x="1310" d="M96 31l250 1278q8 43 26.5 68.5t59.5 35.5q90 23 198.5 34t217.5 11q137 0 228 -29.5t140.5 -85t61.5 -135.5q4 -30 4 -63q0 -55 -12 -117l-10 -55q-29 -143 -104 -241.5t-206 -145.5l189 -551q6 -16 -3.5 -25.5t-23.5 -9.5h-188q-45 0 -56 33l-163 510h-35 q-59 0 -113.5 2t-107.5 6l-103 -520q-6 -31 -35 -31h-188q-28 0 -28 22q0 4 1 9zM487 756q47 -4 97.5 -6t91.5 -2q86 0 144.5 15t97 45t60 74t34.5 101l6 35q8 42 8 76q0 14 -1 27q-5 44 -32.5 74t-81 44t-137.5 14q-53 0 -102 -5t-90 -15z" />
<glyph unicode="S" horiz-adv-x="1126" d="M39 49l24 123q6 31 41 29q90 -10 183.5 -15.5t189.5 -5.5q135 0 203 46t86 141q6 30 6 56q0 41 -16 72q-26 50 -101 89l-254 127q-113 57 -151 151q-23 55 -23 124q0 48 11 104q35 184 160.5 276t361.5 92q86 0 185 -12t179 -33q25 -6 23 -31l-25 -120q-6 -31 -39 -29 q-78 10 -163.5 15t-163.5 5q-125 0 -188.5 -38.5t-82.5 -131.5q-4 -21 -4 -39q-1 -42 19 -76q28 -48 100 -85l252 -123q173 -87 173 -284q0 -50 -11 -107q-18 -92 -56 -165t-105 -123t-163 -78t-227 -28q-106 0 -211 11.5t-191 31.5q-23 5 -23 22q0 4 1 9z" />
<glyph unicode="T" horiz-adv-x="1093" d="M190 1260l27 141q8 33 41 33h971q26 0 26 -20q0 -6 -2 -13l-26 -141q-6 -31 -39 -31h-361l-233 -1198q-6 -31 -37 -31h-184q-35 0 -29 31l234 1198h-361q-28 0 -28 22q0 4 1 9z" />
<glyph unicode="U" horiz-adv-x="1421" d="M188 369q0 129 33 299l144 735q4 31 34 31h191q29 0 24 -31l-141 -727q-25 -121 -29 -213q-1 -15 -1 -29q-1 -72 17 -126q20 -64 70 -96t134 -32t145 32t106.5 95.5t76 155.5t55.5 213l141 727q4 31 37 31h190q24 0 24 -24q0 -3 -1 -7l-144 -735q-33 -170 -83 -299 t-128.5 -217.5t-191 -132.5t-268.5 -44q-158 0 -252.5 44t-138.5 132.5t-44 217.5z" />
<glyph unicode="V" horiz-adv-x="1302" d="M248 1397v7q0 30 33 30h192q33 0 33 -25l102 -1204l570 1204q10 25 45 25h192q22 0 22 -17q0 -8 -5 -20l-664 -1354q-10 -23 -24.5 -33t-38.5 -10h-271q-45 0 -47 43z" />
<glyph unicode="W" horiz-adv-x="1880" d="M229 1393v8q0 33 33 33h174q35 0 33 -33l27 -1196l465 1192q14 37 55 37h241q39 0 39 -37l2 -1192l490 1196q14 33 49 33h174q22 0 22 -19q0 -9 -5 -22l-576 -1350q-16 -43 -63 -43h-269q-27 0 -36 9t-11 32l2 1079l-420 -1079q-8 -23 -20 -32t-39 -9h-268q-47 0 -47 43z " />
<glyph unicode="X" horiz-adv-x="1228" d="M-39 14q-1 3 -1 5q0 11 13 24l564 692l-279 658q-6 16 1 28.5t30 12.5h196q29 0 41 -29l191 -449l366 449q23 29 54 29h196q25 0 25 -16q0 -11 -10 -25l-537 -658l297 -692q6 -16 -1 -29.5t-30 -13.5h-194q-35 0 -43 27l-209 487l-398 -487q-20 -27 -51 -27h-194 q-23 0 -27 14z" />
<glyph unicode="Y" horiz-adv-x="1241" d="M233 1384q-4 10 -4 18q0 9 5 17q8 15 28 15h184q29 0 39 -31l197 -662l455 662q16 31 51 31h184q22 0 22 -17q0 -14 -14 -33l-620 -888l-92 -465q-6 -31 -35 -31h-187q-35 0 -28 31l92 465z" />
<glyph unicode="Z" horiz-adv-x="1189" d="M10 51l29 139q4 29 14 50.5t31 44.5l897 944h-668q-33 0 -26 31l26 141q8 33 41 33h879q27 0 34 -25q4 -13 4 -28q0 -12 -3 -25l-23 -113q-8 -55 -43 -94l-901 -944h729q33 0 27 -33l-29 -141q-6 -31 -37 -31h-938q-44 0 -44 38q0 6 1 13z" />
<glyph unicode="[" horiz-adv-x="841" d="M96 -293l355 1823q4 31 34 31h148q86 0 184 -5.5t170 -17.5q33 -6 27 -35l-23 -114q-4 -29 -33 -29h-290l-289 -1483h291q29 0 22 -29l-22 -114q-6 -29 -39 -35q-78 -12 -178.5 -17.5t-186.5 -5.5h-147q-29 0 -23 31z" />
<glyph unicode="\" horiz-adv-x="1056" d="M190 1485q-4 18 3.5 33.5t29.5 15.5h176q31 0 39 -27l516 -1683q4 -18 -3 -33.5t-29 -15.5h-177q-31 0 -36 26z" />
<glyph unicode="]" horiz-adv-x="841" d="M-96 -266l20 114q6 29 35 29h291l289 1483h-291q-29 0 -25 29l23 114q6 29 39 35q78 12 179 17.5t187 5.5h148q27 0 22 -31l-354 -1823q-6 -31 -35 -31h-147q-86 0 -185.5 5.5t-171.5 17.5q-31 6 -24 35z" />
<glyph unicode="^" horiz-adv-x="1187" d="M150 836q72 147 164 296.5t186 270.5q10 12 25.5 21.5t37.5 9.5h144q41 0 63 -31q92 -123 185.5 -271.5t164.5 -295.5q16 -35 -12 -48l-78 -36q-39 -20 -59 12l-336 489l-336 -489q-20 -33 -59 -12l-78 36q-29 12 -12 48z" />
<glyph unicode="_" horiz-adv-x="1024" d="M-143 -319l16 81q6 29 35 29h964q29 0 23 -29l-16 -81q-6 -29 -35 -29h-965q-29 0 -22 29z" />
<glyph unicode="`" horiz-adv-x="860" d="M413 1418.5q3 11.5 13 17.5l127 73q14 8 27.5 6t19.5 -12l186 -274q16 -20 -8 -35l-84 -47q-21 -14 -41 0q-66 51 -125 114.5t-110 135.5q-8 10 -5 21.5z" />
<glyph unicode="a" horiz-adv-x="1191" d="M91 273q-4 32 -4 66q0 62 13 132l17 80q23 115 74 211t133 166.5t195.5 109.5t262.5 39q92 0 179.5 -12t154.5 -35q29 -10 40 -32q6 -11 6 -28q0 -16 -5 -36l-176 -903q-4 -31 -33 -31h-178q-31 0 -27 31l11 49q-70 -53 -142 -74.5t-168 -21.5q-104 0 -179 35.5t-119 100 t-55 153.5zM342 485q-12 -60 -12 -107q0 -84 38 -130q58 -72 205 -72q55 0 111.5 14.5t97.5 40.5l125 635q-68 18 -162 19q-162 0 -262 -91.5t-133 -256.5z" />
<glyph unicode="b" horiz-adv-x="1212" d="M96 62q-5 11 -5 27.5t5 37.5l258 1337q6 31 35 31h178q31 0 25 -31l-84 -438q59 25 136 38t153 13q104 0 181 -35.5t123 -99.5t58 -154q4 -34 4 -70q0 -60 -12 -128l-14 -80q-23 -115 -74 -211t-133 -167t-195.5 -109.5t-263.5 -38.5q-92 0 -179 12t-157 35q-29 9 -39 31 zM346 195q68 -18 160 -19q162 0 262 91t133 257l10 51q11 56 11 102q0 89 -42 136q-64 72 -218 72q-47 0 -96.5 -3t-86.5 -8z" />
<glyph unicode="c" horiz-adv-x="1036" d="M94 282q-4 33 -4 68q0 65 14 139l17 80q23 115 72 208t125.5 160t182 103.5t240.5 36.5q86 0 163 -12t122 -29q26 -8 26 -33q0 -5 -1 -10l-21 -102q-6 -31 -39 -25q-47 10 -111.5 14.5t-134.5 4.5q-174 0 -266 -81t-125 -247l-10 -55q-11 -57 -11 -103q1 -89 41 -142 q62 -81 240 -81q70 0 140.5 5t117.5 14q35 6 31 -25l-20 -102q-6 -33 -41 -43q-51 -16 -134 -28.5t-169 -12.5q-141 0 -234.5 35.5t-146 102t-64.5 160.5z" />
<glyph unicode="d" horiz-adv-x="1212" d="M100 299q-5 36 -5 74q0 65 14 137l14 80q20 109 69.5 198t120 153.5t162 100t195.5 35.5q76 0 147.5 -13t120.5 -38l84 438q6 31 37 31h178q24 0 24 -21q0 -4 -1 -10l-259 -1337q-10 -43 -27.5 -64.5t-51.5 -31.5q-76 -23 -168 -35t-185 -12q-150 0 -248 38.5 t-152.5 109.5t-68.5 167zM348 524q-11 -56 -11 -103q-1 -94 43 -154q66 -91 228 -91q94 0 168 19l133 679q-37 4 -86 7.5t-96 3.5q-154 0 -245 -72t-124 -238z" />
<glyph unicode="e" horiz-adv-x="1150" d="M95 286q-3 30 -3 64q0 75 17 164l10 53q47 246 200.5 378t401.5 132q117 0 197.5 -30.5t128 -87t60.5 -136.5q5 -34 6 -70q0 -50 -11 -106q-23 -121 -109 -179t-229 -58h-432q-1 -12 0 -23q0 -51 14 -88q18 -45 56 -72.5t95.5 -39t131.5 -11.5q76 0 149.5 5t126.5 14 q35 6 31 -25l-21 -102q-6 -33 -41 -43q-61 -18 -147 -29.5t-172 -11.5q-147 0 -244.5 34.5t-151 102t-64.5 165.5zM365 602h421q70 0 80 62q8 35 8 64q0 60 -32 100q-47 58 -164 57q-115 0 -197 -62.5t-116 -220.5z" />
<glyph unicode="f" horiz-adv-x="804" d="M59 -365l240 1233h-164q-33 0 -26 33l24 127q6 33 39 33h164l18 88q16 84 44 150.5t75 113.5t115.5 72.5t167.5 25.5q53 0 102 -8t84 -22q26 -8 26 -34q0 -5 -1 -11l-21 -99q-6 -29 -39 -26q-27 4 -63.5 6t-79.5 2q-80 0 -117 -37t-53 -117l-21 -104h285q33 0 27 -33 l-25 -127q-6 -33 -39 -33h-284l-240 -1233q-6 -30 -37 -30h-2h-174q-26 0 -26 21q0 4 1 9z" />
<glyph unicode="g" horiz-adv-x="1212" d="M70 -326l20 105q4 31 39 24q59 -10 134 -15t159 -5q82 0 137 13.5t92 41t57.5 69.5t30.5 99l9 45q-59 -25 -135 -38t-152 -13q-104 0 -181 36t-123 100.5t-61 153.5q-5 35 -5 74q0 58 13 123l13 64q23 115 74 211t133 166.5t195.5 109.5t262.5 39q92 0 179.5 -12 t154.5 -35q29 -10 40 -32q6 -11 6 -28q0 -16 -5 -36l-182 -938q-20 -104 -60.5 -181t-105 -127t-158.5 -74t-223 -24q-80 0 -171 9.5t-163 31.5q-26 8 -26 30q0 6 2 13zM344 502q-11 -56 -11 -102q0 -88 43 -136q64 -71 218 -71q47 0 96 3t88 7l129 663q-68 18 -162 19 q-162 0 -262 -91.5t-133 -256.5z" />
<glyph unicode="h" horiz-adv-x="1228" d="M76 31l278 1431q6 33 37 33h174q33 0 27 -33l-84 -436q63 23 144 37t161 14q92 0 161.5 -21.5t111.5 -70.5t54 -128q4 -28 5 -60q0 -60 -15 -135l-122 -631q-6 -31 -35 -31h-174q-35 0 -29 31l121 614q9 46 9 82q0 67 -30 103q-46 56 -184 55q-53 0 -106.5 -2t-100.5 -9 l-166 -843q-6 -31 -37 -31h-174q-27 0 -27 21q0 5 1 10z" />
<glyph unicode="i" horiz-adv-x="585" d="M96 31l195 997q6 33 37 33h174q33 0 26 -33l-194 -997q-6 -31 -37 -31h-174q-28 0 -28 22q0 4 1 9zM334 1249l35 183q6 32 35 32h2h186q25 0 26 -21q0 -5 -2 -11l-2 -11q-6 -33 -23.5 -82t-37.5 -84q-12 -20 -26.5 -29t-37.5 -9h-131q-25 0 -25 21q0 5 1 11z" />
<glyph unicode="j" horiz-adv-x="612" d="M-221 -336l18 100q6 31 35 27t57.5 -6t57.5 -2q78 0 109.5 36t47.5 109l213 1100q6 33 39 33h174q31 0 25 -33l-209 -1079q-14 -72 -36.5 -137.5t-62.5 -114.5t-103.5 -78t-159.5 -29q-47 0 -94.5 6.5t-88.5 22.5q-24 9 -24 31q0 7 2 14zM360 1249l35 183q6 32 35 32h2 h186q26 0 26 -22q0 -5 -1 -10l-2 -11q-6 -33 -23.5 -82t-37.5 -84q-12 -20 -26.5 -29t-37.5 -9h-131q-26 0 -26 22q0 5 1 10z" />
<glyph unicode="k" horiz-adv-x="1130" d="M76 31l278 1431q6 33 37 33h174q33 0 27 -33l-168 -864l481 442q20 20 47 21h199q24 0 24 -15q0 -13 -16 -28l-497 -459l366 -514q10 -16 5 -30.5t-27 -14.5h-228q-27 0 -41 20l-329 496l-95 -485q-6 -31 -37 -31h-174q-27 0 -27 21q0 5 1 10z" />
<glyph unicode="l" horiz-adv-x="686" d="M138 170q-1 11 -1 23q0 47 10 102l228 1167q6 33 37 33h174q33 0 26 -33l-221 -1143q-7 -32 -7 -57q0 -32 12 -52q22 -34 100 -34q23 0 50 2t44 6q27 5 27 -16q0 -4 -1 -10l-20 -109q-6 -29 -39 -37q-43 -12 -94 -20t-92 -8q-78 0 -128 22.5t-76 64.5t-29 99z" />
<glyph unicode="m" horiz-adv-x="1716" d="M76 31l176 901q8 43 26.5 65.5t51.5 32.5q88 25 184 36t186 11q92 0 160 -20.5t111 -55.5q76 35 166 55.5t182 20.5q186 0 267 -85q57 -59 56 -165q0 -46 -10 -100l-137 -696q-6 -31 -37 -31h-174q-33 0 -27 31l132 665q7 38 7 68q0 52 -22 78q-35 42 -127 43 q-49 0 -100 -8.5t-103 -24.5q2 -20 2 -41q0 -42 -8 -88l-135 -692q-6 -31 -35 -31h-174q-35 0 -28 31l131 667q7 37 7 66q0 54 -23 80q-36 42 -132 41q-45 0 -87 -4t-85 -15l-164 -835q-6 -31 -37 -31h-174q-27 0 -27 21q0 5 1 10z" />
<glyph unicode="n" horiz-adv-x="1228" d="M76 31l176 901q8 43 26.5 65.5t51.5 32.5q90 25 197.5 36t217.5 11q249 0 339 -98q60 -66 61 -186q0 -59 -15 -131l-122 -631q-6 -31 -35 -31h-174q-35 0 -29 31l121 616q9 47 9 84q0 67 -28 101q-44 54 -186 53q-55 0 -105.5 -4t-103.5 -15l-164 -835q-6 -31 -37 -31 h-174q-27 0 -27 21q0 5 1 10z" />
<glyph unicode="o" horiz-adv-x="1179" d="M106 496l13 69q49 256 204.5 384t393.5 128t342 -128q71 -87 71 -233q0 -69 -16 -151l-12 -69q-51 -256 -206 -384t-392 -128q-238 0 -344 128q-71 86 -71 231q0 70 17 153zM344 504q-13 -68 -14 -122q0 -73 25 -122q42 -84 186 -84q143 0 218 84t105 244l10 53 q13 68 13 122q0 73 -24 122q-42 84 -185 84t-218 -84t-106 -244z" />
<glyph unicode="p" horiz-adv-x="1212" d="M0 -365l252 1299q10 43 27.5 64.5t50.5 31.5q78 23 170 35t184 12q150 0 248 -39t153.5 -109.5t68.5 -166.5q5 -36 5 -74q0 -65 -14 -137l-17 -80q-20 -109 -68 -198t-119 -153.5t-162 -100t-195 -35.5q-76 0 -147.5 13t-121.5 38l-77 -400q-6 -30 -35 -30h-2h-178 q-24 0 -24 21q0 4 1 9zM344 186q37 -4 85 -7t95 -3q154 0 246 71.5t125 237.5l8 52q11 56 11 103q0 93 -44 154q-65 91 -227 91q-92 0 -166 -19z" />
<glyph unicode="q" horiz-adv-x="1212" d="M93 273q-5 35 -5 73q0 59 12 125l17 80q23 115 74 211t133 166.5t195.5 109.5t262.5 39q92 0 179.5 -12t154.5 -35q29 -10 40 -32q6 -11 6 -28q0 -16 -5 -36l-252 -1299q-6 -30 -33 -30h-2h-178q-31 0 -24 30l77 400q-59 -25 -135.5 -38t-152.5 -13q-104 0 -181 35.5 t-123.5 100t-59.5 153.5zM342 485q-11 -57 -11 -102q0 -88 41 -135q64 -72 218 -72q47 0 97 3t87 7l133 680q-68 18 -162 19q-162 0 -262 -91.5t-133 -256.5z" />
<glyph unicode="r" horiz-adv-x="843" d="M76 31l176 901q8 43 26.5 65.5t51.5 32.5q82 23 179 35t198 12q51 0 104 -4t92 -8q24 -2 24 -25q0 -5 -1 -10l-27 -135q-6 -35 -43 -29q-92 18 -176 19q-102 0 -203 -19l-164 -835q-6 -31 -37 -31h-174q-27 0 -27 21q0 5 1 10z" />
<glyph unicode="s" horiz-adv-x="985" d="M31 57l22 113q6 27 37 25q72 -10 163 -15.5t175 -5.5q180 0 201 117q3 13 3 24q0 29 -18 51q-26 30 -79 54l-175 76q-104 46 -156 114q-38 49 -38 119q0 27 6 57q31 154 147.5 222.5t290.5 68.5q86 0 168 -10t148 -33q20 -7 20 -27v-6l-22 -110q-6 -33 -39 -27 q-59 10 -137 15.5t-152 5.5q-86 0 -130 -20.5t-56 -82.5q-3 -12 -3 -23q-1 -29 19 -47q26 -24 80 -46l178 -78q104 -45 154 -121q35 -53 34 -122q0 -29 -6 -60q-14 -74 -54 -129.5t-98.5 -94t-134 -58t-161.5 -19.5q-98 0 -193.5 10t-173.5 31q-21 5 -21 22q0 5 1 10z" />
<glyph unicode="t" horiz-adv-x="882" d="M137 901l25 127q6 33 39 33h172l49 250q6 32 35 32h2h174q33 0 26 -32l-49 -250h275q27 0 27 -22q0 -5 -1 -11l-24 -127q-6 -33 -39 -33h-275l-102 -530q-7 -36 -7 -63q0 -37 12 -60q22 -39 112 -39q41 0 80 2t67 6q31 4 25 -24l-23 -113q-6 -27 -32 -35 q-41 -14 -97.5 -21t-113.5 -7q-176 0 -236 91q-40 60 -39 151q0 45 10 98l107 544h-172q-28 0 -28 24q0 4 1 9z" />
<glyph unicode="u" horiz-adv-x="1239" d="M147 399l123 631q6 31 37 31h174q33 0 27 -31l-119 -616q-10 -49 -10 -88q-1 -62 27 -96q44 -54 186 -54q55 0 106.5 4t104.5 15l162 835q6 31 39 31h174q25 0 25 -21q0 -5 -1 -10l-174 -901q-10 -43 -27.5 -65.5t-52.5 -32.5q-90 -25 -196.5 -36t-216.5 -11 q-249 0 -339 98q-61 67 -62 191q0 57 13 126z" />
<glyph unicode="v" horiz-adv-x="1114" d="M162 1020v8q0 33 33 33h174q18 0 25 -6t12 -21l112 -809l428 809q12 27 45 27h174q15 1 21 -11q2 -4 2 -9q0 -9 -6 -21l-512 -975q-12 -23 -27.5 -34t-44.5 -11h-246q-29 0 -40 11.5t-15 33.5z" />
<glyph unicode="w" horiz-adv-x="1601" d="M162 1024q0 16 7 26.5t24 10.5h169q29 0 33 -27l19 -815l358 803q18 39 57 39h189q41 0 41 -39l47 -803l338 815q10 27 41 27h170q16 -1 20 -11q2 -4 2 -9q0 -8 -4 -17l-434 -979q-18 -45 -68 -45h-215q-49 0 -51 45l-35 741l-321 -741q-20 -45 -68 -45h-215 q-51 0 -51 45z" />
<glyph unicode="x" horiz-adv-x="1112" d="M-44 16q0 12 9 23l479 516l-249 465q-6 12 0 26.5t26 14.5h191q18 0 27.5 -6t19.5 -21l157 -295l275 295q12 14 24.5 20.5t30.5 6.5h191q20 -1 21 -15v-2q0 -13 -11 -24l-432 -465l280 -516q8 -12 2 -25.5t-26 -13.5h-191q-33 0 -47 25l-188 346l-322 -346 q-14 -14 -25.5 -19.5t-29.5 -5.5h-191q-21 0 -21 16z" />
<glyph unicode="y" horiz-adv-x="1239" d="M96 -334l23 113q2 31 37 24q61 -10 136 -15t159 -5q80 0 135 13.5t92 41t57.5 69.5t30.5 97l8 45q-63 -23 -143 -36t-160 -13q-92 0 -161.5 21.5t-112.5 70.5t-55 128q-5 28 -5 60q0 59 15 134l118 614q6 33 37 33h174q33 0 27 -33l-115 -596q-9 -46 -9 -82 q0 -65 28 -101q45 -56 184 -56q49 0 103.5 2t105.5 8l160 825q6 33 39 33h174q25 0 25 -22q0 -5 -1 -11l-201 -1032q-20 -104 -60 -181t-104.5 -127t-159.5 -74t-226 -24q-80 0 -170.5 10.5t-161.5 32.5q-24 8 -24 25q0 4 1 8z" />
<glyph unicode="z" horiz-adv-x="1036" d="M20 53l19 105q10 49 28.5 81.5t55.5 65.5l649 563h-534q-33 0 -27 33l25 127q6 33 38 33h717q45 0 45 -36q0 -8 -2 -17l-20 -103q-10 -49 -27.5 -81.5t-56.5 -65.5l-649 -565h585q33 0 27 -31l-27 -131q-6 -31 -37 -31h-766q-45 0 -45 36q0 8 2 17z" />
<glyph unicode="{" horiz-adv-x="997" d="M188 580l15 77q4 18 15 26.5t28 10.5q100 10 145 67.5t62 145.5l41 217q23 113 69.5 196t112 136t145.5 79t166 26q49 0 95 -7.5t79 -23.5q14 -8 10 -31l-18 -90q-6 -29 -35 -29h-88q-111 0 -183.5 -52t-94.5 -171l-39 -201q-27 -135 -93.5 -222t-187.5 -116 q111 -29 143.5 -115.5t6.5 -221.5l-39 -201q-23 -119 28.5 -171t161.5 -52h88q31 0 25 -29l-17 -90q-6 -23 -22 -31q-39 -16 -88 -23.5t-98 -7.5q-86 0 -156 26t-115 79t-60.5 135t7.5 197l43 217q16 88 -5.5 145t-117.5 68q-16 2 -24.5 10t-4.5 27z" />
<glyph unicode="|" horiz-adv-x="614" d="M246 -377v1919q0 33 30 33h144q31 0 31 -33v-1919q0 -33 -31 -33h-144q-31 0 -30 33z" />
<glyph unicode="}" horiz-adv-x="997" d="M-96 -262l14 90q6 29 37 29h88q111 0 182.5 52t93.5 171l39 201q27 135 94.5 222t186.5 115q-109 29 -142.5 116t-7.5 222l39 201q23 119 -27 171t-161 52h-88q-33 0 -27 29l19 90q4 23 22 31q39 16 88 23.5t99 7.5q86 0 155.5 -26t113.5 -79t59.5 -136t-7.5 -196 l-41 -217q-8 -43 -8 -79.5t12.5 -64.5t41 -45.5t75.5 -23.5q16 -2 25.5 -10t5.5 -27l-15 -77q-4 -18 -16 -26.5t-29 -10.5q-100 -10 -144 -67.5t-60 -145.5l-43 -217q-23 -115 -70 -197t-112.5 -135t-144.5 -79t-165 -26q-49 0 -95 7.5t-77 23.5q-16 8 -10 31z" />
<glyph unicode="~" horiz-adv-x="1277" d="M147 602q0 152 77 222.5t202 70.5q86 0 156.5 -33t142.5 -92q72 -61 111.5 -83.5t78.5 -22.5q47 0 70 33.5t23 119.5v37q0 29 28 29h127q23 0 33 -25q16 -45 16 -104q0 -152 -76.5 -222.5t-201.5 -70.5q-86 0 -156.5 32.5t-142.5 92.5q-72 61 -112 83.5t-79 22.5 q-47 0 -69.5 -33.5t-22.5 -119.5v-37q0 -29 -28 -29h-127q-25 0 -33 25q-16 45 -17 104z" />
<glyph unicode="&#xa1;" horiz-adv-x="557" d="M0 -340l66 334l159 651q8 37 41 37h121q18 0 24.5 -9t4.5 -28l-94 -651l-66 -334q-6 -33 -37 -33h-194q-31 0 -25 33zM227 827l39 205q6 29 35 29h158q35 0 41 -35q4 -31 2 -80t-13 -94l-4 -25q-6 -31 -36 -30h-197q-31 0 -25 30z" />
<glyph unicode="&#xa2;" horiz-adv-x="1036" d="M92 295q-8 88 12 194l17 80q20 106 63 194.5t112 154t161 105.5t211 50l30 154q6 35 39 35h70q33 0 27 -35l-29 -152q66 -4 126 -14t95 -25q31 -10 25 -43l-21 -102q-6 -31 -39 -25q-43 8 -102.5 12.5t-122.5 6.5l-137 -709q66 0 131 5t112 14q35 6 31 -25l-20 -102 q-6 -33 -41 -43q-43 -16 -110.5 -25.5t-139.5 -13.5l-29 -152q-6 -35 -41 -35h-69q-31 0 -25 35l29 154q-117 10 -195 50t-120 104.5t-50 152.5zM344 502q-27 -135 8 -212t144 -102l133 684q-117 -25 -182.5 -102.5t-92.5 -212.5z" />
<glyph unicode="&#xa3;" horiz-adv-x="1208" d="M8 31l21 104q4 18 10 31.5t20 26.5q78 72 124 139t65 160l35 176h-131q-33 0 -27 30l16 90q6 33 39 33h131l15 68q27 143 67.5 250.5t107 178.5t162 105.5t234.5 34.5h8q78 0 164.5 -11t149.5 -34q23 -8 20 -31l-25 -120q-6 -29 -34 -27q-59 8 -130 13t-139 5h-18 q-135 0 -203.5 -64.5t-93.5 -193.5l-35 -174h365q33 0 26 -33l-16 -90q-6 -31 -39 -30h-365l-28 -146q-16 -90 -55 -169t-113 -148h741q33 0 27 -33l-29 -141q-6 -31 -37 -31h-1001q-35 0 -29 31z" />
<glyph unicode="&#xa4;" horiz-adv-x="1462" d="M213 276l158 160q-29 51 -45.5 111.5t-16.5 128.5t16.5 128t45.5 111l-158 160q-18 20 2 45l107 109q23 23 45 0l155 -160q109 68 250 68t250 -68l156 160q23 23 45 0l106 -109q20 -25 2 -45l-157 -160q29 -51 45 -111.5t16 -127.5q0 -68 -16.5 -128.5t-44.5 -111.5 l157 -160q18 -20 -2 -45l-106 -108q-23 -23 -45 0l-156 160q-109 -68 -250 -68t-250 68l-155 -160q-23 -23 -45 0l-107 108q-20 25 -2 45zM528 676q0 -125 68 -195.5t176 -70.5q109 0 176.5 70.5t67.5 195.5t-67.5 195.5t-176.5 70.5t-176.5 -70.5t-67.5 -195.5z" />
<glyph unicode="&#xa5;" horiz-adv-x="1179" d="M84 293l12 57q6 33 37 33h322l20 111h-321q-31 0 -25 30l12 62q6 31 37 30h264l-213 779q-4 14 5.5 26.5t29.5 12.5h182q29 0 39 -29l166 -666l424 666q23 29 51 29h183q20 0 24 -12.5t-6 -26.5l-516 -779h264q31 0 25 -30l-13 -62q-6 -31 -36 -30h-322l-20 -111h321 q31 0 25 -33l-13 -57q-6 -33 -36 -33h-322l-45 -229q-6 -31 -37 -31h-188q-35 0 -29 31l45 229h-321q-31 0 -25 33z" />
<glyph unicode="&#xa6;" horiz-adv-x="614" d="M246 -172v590q0 33 30 33h144q31 0 31 -33v-590q0 -33 -31 -33h-144q-31 0 -30 33zM246 786v590q0 33 30 33h144q31 0 31 -33v-590q0 -33 -31 -32h-144q-31 0 -30 32z" />
<glyph unicode="&#xa7;" horiz-adv-x="1046" d="M2 -150l23 111q6 33 38 27q59 -10 138.5 -15.5t169.5 -5.5q129 0 186 25.5t70 91.5q18 86 -82 139l-209 109q-49 25 -87 53.5t-62.5 64t-34 79.5t1.5 100q16 86 84.5 158.5t187.5 119.5q-86 47 -133 109.5t-27 165.5q14 82 57.5 139t104.5 92t139 51.5t166 16.5 q86 0 168 -10.5t148 -32.5q23 -8 20 -33l-22 -111q-6 -33 -39 -26q-59 10 -136 15t-151 5q-98 0 -152.5 -22.5t-64.5 -81.5q-10 -45 16.5 -69.5t73.5 -51.5l203 -109q100 -53 154.5 -119.5t33.5 -179.5q-16 -86 -82.5 -156.5t-183.5 -119.5q84 -49 128 -119t23 -172 q-16 -80 -60 -139.5t-111.5 -98t-154 -57t-186.5 -18.5q-102 0 -186 10t-149 33q-23 8 -21 32zM393 633q-12 -59 35 -97t133 -77q92 39 133 89t51 103t-33.5 96.5t-125.5 77.5q-94 -39 -138.5 -91t-54.5 -101z" />
<glyph unicode="&#xa8;" horiz-adv-x="860" d="M252 1235l2 12q6 29 23.5 78t39.5 88q10 20 22.5 27.5t33.5 7.5h137q31 0 25 -33l-35 -180q-6 -33 -37 -33h-187q-31 0 -24 33zM676 1235l35 180q6 33 37 33h186q31 0 24 -33l-2 -12q-6 -29 -23.5 -78t-39.5 -88q-12 -20 -23.5 -27.5t-31.5 -7.5h-138q-31 0 -24 33z" />
<glyph unicode="&#xa9;" horiz-adv-x="1699" d="M150 717q0 154 58 289t158.5 235t235.5 158.5t289 58.5t289 -58.5t235.5 -158.5t158.5 -235.5t58 -288.5q0 -154 -58 -289t-158.5 -235.5t-236 -159t-288.5 -58.5q-154 0 -289 58.5t-235.5 159t-158.5 235.5t-58 289zM264 717q0 -133 49 -249t134 -202t200 -135t244 -49 t243.5 49t199.5 135t134.5 202t49.5 249q0 131 -49.5 246.5t-134.5 201.5t-199.5 136.5t-243.5 50.5t-244 -50.5t-200 -136.5t-134 -201.5t-49 -246.5zM489 684v64q0 92 25 167.5t77 129t132 83t192 29.5q61 0 123 -11t109 -28q27 -10 27 -28v-80q0 -27 -25 -23 q-53 8 -101.5 11t-101.5 3q-141 0 -202.5 -65.5t-61.5 -196.5v-45q0 -133 63.5 -198.5t204.5 -65.5q53 0 102.5 3t104.5 11q27 2 27 -22v-80q0 -18 -27 -29q-51 -18 -114.5 -28.5t-122.5 -10.5q-113 0 -194 30t-133 83t-78 129t-26 168z" />
<glyph unicode="&#xaa;" horiz-adv-x="901" d="M180 1020l13 57q14 82 51 150.5t96 118t141 77t187 27.5q66 0 133 -8t114 -27q23 -6 28 -20.5t1 -44.5l-125 -641q-4 -20 -22 -21h-144q-20 0 -16 21l6 32q-51 -37 -101.5 -51t-109.5 -14q-150 0 -215 95t-37 249zM365 1030q-23 -119 17 -163t144 -44q78 0 140 37l84 430 q-27 6 -51.5 10.5t-55.5 4.5q-225 0 -270 -240z" />
<glyph unicode="&#xab;" horiz-adv-x="1124" d="M170 598l14 74q6 20 29 41q88 74 194.5 144.5t215.5 133.5q14 8 25 7t16 -13l22 -51q10 -20 -10 -37l-354 -262l251 -262q14 -18 -4 -37l-41 -51q-20 -25 -45 -6q-84 63 -162.5 133.5t-138.5 144.5q-6 10 -10 19.5t-2 21.5zM586 598l14 74q6 20 29 41q88 74 194.5 144.5 t214.5 133.5q14 8 25.5 7t15.5 -13l23 -51q10 -20 -10 -37l-355 -262l252 -262q14 -18 -4 -37l-41 -51q-20 -25 -45 -6q-84 63 -163 133.5t-138 144.5q-6 10 -10 19.5t-2 21.5z" />
<glyph unicode="&#xac;" horiz-adv-x="1277" d="M156 743v140q0 33 32 32h963q31 0 31 -32v-525q0 -31 -31 -30h-188q-31 0 -31 30v353h-744q-33 0 -32 32z" />
<glyph unicode="&#xad;" horiz-adv-x="880" d="M160 598l30 158q6 33 39 32h562q33 0 26 -32l-31 -158q-6 -31 -38 -31h-562q-33 0 -26 31z" />
<glyph unicode="&#xae;" horiz-adv-x="1699" d="M150 717q0 154 58 289t158.5 235t235.5 158.5t289 58.5t289 -58.5t235.5 -158.5t158.5 -235.5t58 -288.5q0 -154 -58 -289t-158.5 -235.5t-236 -159t-288.5 -58.5q-154 0 -289 58.5t-235.5 159t-158.5 235.5t-58 289zM264 717q0 -133 49 -249t134 -202t200 -135t244 -49 t243.5 49t199.5 135t134.5 202t49.5 249q0 131 -49.5 246.5t-134.5 201.5t-199.5 136.5t-243.5 50.5t-244 -50.5t-200 -136.5t-134 -201.5t-49 -246.5zM584 315v746q0 31 10 47t39 25q55 16 119.5 21t134.5 5q172 0 249.5 -65.5t77.5 -192.5v-39q0 -170 -141 -231l176 -309 q20 -35 -22 -35h-115q-16 0 -27.5 6t-21.5 24l-158 285q-33 0 -68.5 2t-72.5 6v-295q0 -29 -29 -28h-123q-29 0 -28 28zM764 745q29 -4 56.5 -5t45.5 -1q98 0 134 35t36 100v15q0 70 -35.5 101.5t-134.5 31.5q-25 0 -51.5 -2t-50.5 -8v-267z" />
<glyph unicode="&#xaf;" horiz-adv-x="860" d="M279 1272l22 110q4 31 37 31h569q29 0 25 -31l-23 -110q-6 -31 -37 -31h-569q-31 0 -24 31z" />
<glyph unicode="&#xb0;" horiz-adv-x="860" d="M188 1167q0 76 21.5 131.5t60.5 91t90.5 52t110.5 16.5t110.5 -16.5t90.5 -52t60.5 -91t21.5 -131.5q0 -78 -21.5 -132t-60.5 -90t-90.5 -52t-110.5 -16t-110.5 16t-90.5 52t-60.5 90t-21.5 132zM344 1167q0 -80 35 -114.5t92 -34.5t92 34.5t35 114.5t-35 115t-92 35 t-92 -35t-35 -115z" />
<glyph unicode="&#xb1;" horiz-adv-x="1277" d="M168 68v141q0 33 33 33h958q33 0 33 -33v-141q0 -31 -33 -31h-958q-33 0 -33 31zM168 750v141q0 33 33 33h354v362q0 33 31 33h188q31 0 31 -33v-362h354q33 0 33 -33v-141q0 -31 -33 -31h-354v-363q0 -31 -31 -30h-188q-31 0 -31 30v363h-354q-33 0 -33 31z" />
<glyph unicode="&#xb2;" horiz-adv-x="827" d="M94 510l19 98q20 102 80.5 174t187.5 140q66 35 116 63.5t85.5 57t56 60.5t29.5 73q12 61 -22 87.5t-128 26.5q-57 0 -108.5 -4t-98.5 -12q-27 -4 -20 29l16 83q6 27 35 35q47 12 111.5 20.5t117.5 8.5q96 0 158 -17.5t95.5 -52t40.5 -88t-7 -123.5q-16 -92 -75.5 -165.5 t-168.5 -131.5q-86 -45 -141 -76.5t-89 -57t-49.5 -47t-19.5 -46.5h416q27 0 21 -24l-21 -111q-4 -12 -9 -18.5t-22 -6.5h-581q-31 0 -25 25z" />
<glyph unicode="&#xb3;" horiz-adv-x="827" d="M92 528l17 84q5 29 34 27q47 -8 99.5 -11t105.5 -3q104 0 162.5 32.5t73.5 104.5q14 76 -23 104.5t-129 28.5h-186q-27 0 -21 25l21 110q6 25 33 25h172q92 0 140 25.5t60 90.5q12 66 -24.5 92.5t-124.5 26.5q-53 0 -108.5 -4t-98.5 -10q-33 -2 -27 27l17 83q6 27 34 35 q47 14 110 21.5t126 7.5q72 0 131 -15.5t99 -48t56.5 -85t2.5 -123.5q-10 -57 -45 -108.5t-107 -90.5q63 -39 79.5 -95.5t4.5 -123.5q-27 -135 -136.5 -213t-295.5 -78h-29q-55 0 -109 7t-93 18q-27 8 -21 34z" />
<glyph unicode="&#xb4;" horiz-adv-x="860" d="M381 1194q-18 14 4 35l293 274q27 23 51 6l98 -73q8 -6 5 -17.5t-13 -21.5q-78 -72 -162 -135.5t-172 -114.5q-20 -14 -41 0z" />
<glyph unicode="&#xb5;" horiz-adv-x="1239" d="M0 -362l270 1392q6 31 35 31h178q31 0 25 -33l-121 -618q-23 -129 34.5 -181.5t188.5 -52.5q47 0 97.5 5t95.5 16l162 831q6 33 39 33h174q31 0 24 -33l-174 -901q-10 -43 -27.5 -64.5t-52.5 -31.5q-72 -25 -156.5 -36t-177.5 -11q-92 0 -170.5 14t-126.5 53l-79 -413 q-6 -33 -39 -33h-174q-31 0 -25 33z" />
<glyph unicode="&#xb6;" horiz-adv-x="1212" d="M139 991q0 104 35 187.5t96.5 139.5t145.5 86t182 30h467q33 0 33 -33v-1637q0 -33 -33 -32h-123q-33 0 -33 32v1493h-88v-1493q0 -33 -30 -32h-127q-31 0 -31 32v781q-96 0 -185.5 28.5t-158 86t-109.5 140.5t-41 191z" />
<glyph unicode="&#xb7;" horiz-adv-x="569" d="M210 721q3 53 11 94l4 23q6 31 37 30h207q31 0 25 -30l-43 -224q-6 -31 -37 -30h-162q-33 0 -39 41q-6 43 -3 96z" />
<glyph unicode="&#xb8;" horiz-adv-x="860" d="M53 -440l10 59q6 27 33 21q35 -10 80 -11q111 0 125 76q8 41 -22.5 68.5t-104.5 27.5q-18 0 -24.5 11.5t10.5 29.5l141 183h166l-105 -140q78 -16 110 -63t20 -117q-20 -102 -98.5 -155.5t-176.5 -53.5q-41 0 -80 7.5t-67 21.5q-23 10 -17 35z" />
<glyph unicode="&#xb9;" horiz-adv-x="827" d="M313 1298l15 78q6 27 30 33q61 12 140.5 20.5t144.5 8.5h57q31 0 25 -29l-174 -895q-4 -29 -33 -29h-135q-29 0 -25 29l150 768h-23q-31 0 -70.5 -3t-78.5 -7q-29 -4 -23 26z" />
<glyph unicode="&#xba;" horiz-adv-x="901" d="M205 1040l10 45q35 186 148.5 275.5t285.5 89.5t251 -89t44 -276l-10 -45q-35 -186 -148.5 -275t-285.5 -89t-251 89t-44 275zM389 1047q-41 -213 141 -213t224 213l6 32q41 213 -142 213q-182 0 -223 -213z" />
<glyph unicode="&#xbb;" horiz-adv-x="1124" d="M102 336q-6 20 13 37l354 262l-252 262q-14 18 2 37l43 51q20 25 45 6q84 -63 162 -134t137 -144q16 -20 12 -41l-14 -74q-2 -20 -29 -41q-88 -74 -193.5 -144.5t-213.5 -133.5q-14 -8 -25.5 -7.5t-15.5 13.5zM518 336q-6 20 12 37l355 262l-252 262q-14 18 2 37l43 51 q20 25 45 6q84 -63 162 -134t137 -144q16 -20 12 -41l-14 -74q-2 -20 -29 -41q-88 -74 -193.5 -144.5t-213.5 -133.5q-14 -8 -25.5 -7.5t-15.5 13.5z" />
<glyph unicode="&#xbc;" horiz-adv-x="1992" d="M313 1298l15 78q6 27 30 33q61 12 140.5 20.5t144.5 8.5h57q31 0 25 -29l-174 -895q-4 -29 -33 -29h-135q-29 0 -25 29l150 768h-23q-31 0 -70.5 -3t-78.5 -7q-29 -4 -23 26zM438 -2l1057 1444q10 10 17.5 16t23.5 6h115q35 0 16 -28l-1057 -1444q-10 -10 -17 -16.5 t-24 -6.5h-114q-35 0 -17 29zM1157 201l21 108q2 14 12 35q72 141 162 292.5t182 287.5q20 27 51 26h129q18 0 20.5 -12t-8.5 -29q-90 -131 -182 -284.5t-155 -292.5h217l51 260q4 29 33 29h137q27 0 22 -29l-51 -260h82q31 0 25 -29l-21 -104q-4 -27 -35 -27h-82l-28 -141 q-4 -29 -31 -29h-137q-29 0 -25 29l29 141h-395q-29 0 -23 29z" />
<glyph unicode="&#xbd;" horiz-adv-x="1992" d="M313 1298l15 78q6 27 30 33q61 12 140.5 20.5t144.5 8.5h57q31 0 25 -29l-174 -895q-4 -29 -33 -29h-135q-29 0 -25 29l150 768h-23q-31 0 -70.5 -3t-78.5 -7q-29 -4 -23 26zM438 -2l1057 1444q10 10 17.5 16t23.5 6h115q35 0 16 -28l-1057 -1444q-10 -10 -17 -16.5 t-24 -6.5h-114q-35 0 -17 29zM1165 27l19 98q20 102 81.5 174t186.5 139q66 35 116 63.5t86 57.5t56.5 60.5t28.5 72.5q12 61 -22 88t-128 27q-57 0 -107 -4t-98 -12q-29 -4 -22 28l16 84q4 12 11.5 21.5t25.5 13.5q47 12 110.5 20.5t116.5 8.5q96 0 159 -17.5t96.5 -52.5 t41 -88t-7.5 -123q-18 -92 -76.5 -166t-168.5 -131q-86 -45 -141.5 -76.5t-89.5 -57.5t-49 -47.5t-20 -45.5h416q16 0 20.5 -5t2.5 -20l-23 -110q-4 -12 -9 -18.5t-21 -6.5h-582q-31 0 -25 25z" />
<glyph unicode="&#xbe;" horiz-adv-x="1992" d="M92 528l17 84q5 29 34 27q47 -8 99.5 -11t105.5 -3q104 0 162.5 32.5t73.5 104.5q14 76 -23 104.5t-129 28.5h-186q-27 0 -21 25l21 110q6 25 33 25h172q92 0 140 25.5t60 90.5q12 66 -24.5 92.5t-124.5 26.5q-53 0 -108.5 -4t-98.5 -10q-33 -2 -27 27l17 83q6 27 34 35 q47 14 110 21.5t126 7.5q72 0 131 -15.5t99 -48t56.5 -85t2.5 -123.5q-10 -57 -45 -108.5t-107 -90.5q63 -39 79.5 -95.5t4.5 -123.5q-27 -135 -136.5 -213t-295.5 -78h-29q-55 0 -109 7t-93 18q-27 8 -21 34zM438 -2l1057 1444q10 10 17.5 16t23.5 6h115q35 0 16 -28 l-1057 -1444q-10 -10 -17 -16.5t-24 -6.5h-114q-35 0 -17 29zM1157 201l21 108q2 14 12 35q72 141 162 292.5t182 287.5q20 27 51 26h129q18 0 20.5 -12t-8.5 -29q-90 -131 -182 -284.5t-155 -292.5h217l51 260q4 29 33 29h137q27 0 22 -29l-51 -260h82q31 0 25 -29 l-21 -104q-4 -27 -35 -27h-82l-28 -141q-4 -29 -31 -29h-137q-29 0 -25 29l29 141h-395q-29 0 -23 29z" />
<glyph unicode="&#xbf;" horiz-adv-x="1009" d="M51 -8q20 104 95 199.5t221 201.5q59 45 88.5 100.5t44.5 124.5l6 31q6 33 37 33h174q33 0 26 -33l-6 -33q-23 -113 -80 -207t-180 -180q-86 -59 -132 -117.5t-58 -123.5q-18 -98 36 -144.5t169 -46.5q84 0 150.5 4t131.5 15q25 4 21 -25l-23 -110q-2 -23 -33 -31 q-61 -20 -146 -33.5t-165 -13.5q-236 0 -325 99t-52 290zM528 827l39 205q6 29 35 29h158q35 0 41 -35q4 -31 2 -80t-12 -94l-5 -25q-6 -31 -36 -30h-197q-31 0 -25 30z" />
<glyph unicode="&#xc0;" horiz-adv-x="1302" d="M-16 37l663 1354q20 43 66 43h270q25 0 34 -10.5t11 -32.5l139 -1354q4 -37 -30 -37h-193q-35 0 -35 25l-24 286h-512l-135 -286q-10 -25 -43 -25h-193q-35 0 -18 37zM469 516h397l-59 713zM641 1815.5q2 11.5 12 17.5l127 74q14 8 27.5 6t21.5 -12l187 -275 q8 -10 5 -19.5t-13 -15.5l-84 -47q-25 -14 -41 0q-68 51 -126.5 114.5t-109.5 135.5q-8 10 -6 21.5z" />
<glyph unicode="&#xc1;" horiz-adv-x="1302" d="M-16 37l663 1354q20 43 66 43h270q25 0 34 -10.5t11 -32.5l139 -1354q4 -37 -30 -37h-193q-35 0 -35 25l-24 286h-512l-135 -286q-10 -25 -43 -25h-193q-35 0 -18 37zM469 516h397l-59 713zM750 1591q-20 14 4 35l293 275q25 25 49 6l98 -74q10 -6 7 -17.5t-13 -21.5 q-78 -72 -163 -135.5t-171 -114.5q-25 -14 -41 0z" />
<glyph unicode="&#xc2;" horiz-adv-x="1302" d="M-16 37l663 1354q20 43 66 43h270q25 0 34 -10.5t11 -32.5l139 -1354q4 -37 -30 -37h-193q-35 0 -35 25l-24 286h-512l-135 -286q-10 -25 -43 -25h-193q-35 0 -18 37zM469 516h397l-59 713zM541 1587q-18 16 6 41q31 33 66.5 68t73.5 68.5t74 61t64 46.5q16 10 29.5 15 t30.5 5h102q31 0 51 -20q23 -18 47.5 -46t49 -61.5t47 -68.5t41.5 -68q14 -27 -11 -41l-75 -43q-12 -6 -24.5 -8t-20.5 8l-183 205l-264 -205q-10 -10 -22.5 -8t-22.5 8z" />
<glyph unicode="&#xc3;" horiz-adv-x="1302" d="M-16 37l663 1354q20 43 66 43h270q25 0 34 -10.5t11 -32.5l139 -1354q4 -37 -30 -37h-193q-35 0 -35 25l-24 286h-512l-135 -286q-10 -25 -43 -25h-193q-35 0 -18 37zM469 516h397l-59 713zM535 1645.5q0 25.5 4 48.5q16 86 76.5 133t150.5 47q51 0 95 -16.5t85 -59.5 q37 -37 58.5 -52t44.5 -15t40 18t27 72l4 22q6 27 35 27h78q29 0 35 -27q4 -14 4 -39.5t-4 -48.5q-16 -86 -77 -133t-151 -47q-51 0 -95 16.5t-87 59.5q-35 37 -55.5 52t-42.5 15q-23 0 -41.5 -18.5t-28.5 -71.5l-4 -22q-6 -27 -35 -27h-78q-29 0 -34 27q-4 14 -4 39.5z" />
<glyph unicode="&#xc4;" horiz-adv-x="1302" d="M-16 37l663 1354q20 43 66 43h270q25 0 34 -10.5t11 -32.5l139 -1354q4 -37 -30 -37h-193q-35 0 -35 25l-24 286h-512l-135 -286q-10 -25 -43 -25h-193q-35 0 -18 37zM469 516h397l-59 713zM549 1632l4 13q4 29 21.5 78t39.5 87q12 20 24.5 27.5t33.5 7.5h137 q31 0 25 -33l-37 -180q-6 -33 -37 -33h-187q-31 0 -24 33zM973 1632l37 180q6 33 37 33h186q31 0 24 -33l-4 -12q-4 -29 -21.5 -78t-39.5 -88q-12 -20 -24.5 -27.5t-32.5 -7.5h-138q-31 0 -24 33z" />
<glyph unicode="&#xc5;" horiz-adv-x="1302" d="M-16 37l663 1354q20 43 66 43h270q25 0 34 -10.5t11 -32.5l139 -1354q4 -37 -30 -37h-193q-35 0 -35 25l-24 286h-512l-135 -286q-10 -25 -43 -25h-193q-35 0 -18 37zM469 516h397l-59 713zM674 1724q23 119 97.5 170.5t174.5 51.5t155 -50.5t32 -171.5q-12 -59 -37 -101 t-61 -68.5t-81 -39t-94 -12.5q-100 0 -154.5 50.5t-31.5 170.5zM823 1724q-18 -96 62 -96t98 96t-61 97q-81 -1 -99 -97z" />
<glyph unicode="&#xc6;" horiz-adv-x="1806" d="M-20.5 11.5q-4.5 11.5 6.5 27.5l880 1352q27 43 76 43h891q33 0 25 -33l-27 -141q-6 -31 -39 -31h-524l-78 -402h481q33 0 27 -30l-27 -142q-6 -33 -39 -32h-481l-64 -322q-12 -59 7.5 -90t81.5 -31h434q29 0 24 -30l-24 -119q-6 -31 -39 -33q-129 -12 -233.5 -17.5 t-221.5 -5.5q-100 0 -162.5 15.5t-95.5 50.5t-38 91t11 140l11 45h-416l-188 -292q-18 -25 -45 -25h-189q-20 0 -24.5 11.5zM557 522h324l139 719z" />
<glyph unicode="&#xc7;" horiz-adv-x="1161" d="M140 396q-5 126 26 280l14 80q31 162 88.5 292t146.5 221t211 140t285 49q98 0 178 -13t136 -32q23 -8 20 -31l-24 -120q-6 -33 -35 -27q-49 8 -124 13t-147 5q-109 0 -189.5 -31.5t-138 -94t-96 -159t-63.5 -225.5l-10 -55q-25 -129 -23 -224t36 -157.5t102.5 -94.5 t177.5 -32q76 0 154.5 5t138.5 14q33 2 26 -27l-24 -125q-4 -12 -10.5 -19.5t-22.5 -11.5q-53 -12 -112.5 -22t-123.5 -14l-69 -95q78 -16 109.5 -63t19.5 -117q-20 -102 -98 -155.5t-177 -53.5q-41 0 -80 7.5t-67 21.5q-23 10 -17 35l11 59q6 27 32 21q35 -10 80 -11 q111 0 125 76q8 41 -22.5 68.5t-104.5 27.5q-18 0 -24 11.5t10 29.5l102 135q-143 8 -235 60.5t-139.5 142.5t-52.5 216z" />
<glyph unicode="&#xc8;" horiz-adv-x="1181" d="M132 132q-5 56 11 140l174 889q16 82 43 139.5t73 92t114.5 50t169.5 15.5q129 0 255 -6t236 -18q29 -4 23 -35l-23 -115q-6 -31 -37 -31h-477q-61 0 -91 -30.5t-42 -89.5l-57 -295h545q33 0 26 -33l-28 -141q-4 -31 -37 -31h-545l-66 -332q-12 -59 7.5 -90t80.5 -31h498 q29 0 25 -30l-23 -115q-6 -31 -37 -35q-121 -14 -256 -19.5t-266 -5.5q-100 0 -162.5 15.5t-95.5 50.5t-38 91zM662 1815.5q2 11.5 12 17.5l127 74q14 8 27.5 6t21.5 -12l186 -275q8 -10 5 -19.5t-13 -15.5l-84 -47q-25 -14 -41 0q-68 51 -126 114.5t-109 135.5 q-8 10 -6 21.5z" />
<glyph unicode="&#xc9;" horiz-adv-x="1181" d="M132 132q-5 56 11 140l174 889q16 82 43 139.5t73 92t114.5 50t169.5 15.5q129 0 255 -6t236 -18q29 -4 23 -35l-23 -115q-6 -31 -37 -31h-477q-61 0 -91 -30.5t-42 -89.5l-57 -295h545q33 0 26 -33l-28 -141q-4 -31 -37 -31h-545l-66 -332q-12 -59 7.5 -90t80.5 -31h498 q29 0 25 -30l-23 -115q-6 -31 -37 -35q-121 -14 -256 -19.5t-266 -5.5q-100 0 -162.5 15.5t-95.5 50.5t-38 91zM711 1591q-20 14 4 35l293 275q25 25 49 6l98 -74q10 -6 7 -17.5t-13 -21.5q-78 -72 -163 -135.5t-171 -114.5q-25 -14 -41 0z" />
<glyph unicode="&#xca;" horiz-adv-x="1181" d="M132 132q-5 56 11 140l174 889q16 82 43 139.5t73 92t114.5 50t169.5 15.5q129 0 255 -6t236 -18q29 -4 23 -35l-23 -115q-6 -31 -37 -31h-477q-61 0 -91 -30.5t-42 -89.5l-57 -295h545q33 0 26 -33l-28 -141q-4 -31 -37 -31h-545l-66 -332q-12 -59 7.5 -90t80.5 -31h498 q29 0 25 -30l-23 -115q-6 -31 -37 -35q-121 -14 -256 -19.5t-266 -5.5q-100 0 -162.5 15.5t-95.5 50.5t-38 91zM504 1587q-18 16 6 41q31 33 66.5 68t73.5 68.5t74 61t64 46.5q16 10 29.5 15t30.5 5h102q31 0 51 -20q23 -18 47.5 -46t49 -61.5t47 -68.5t41.5 -68 q14 -27 -10 -41l-76 -43q-12 -6 -24.5 -8t-20.5 8l-183 205l-264 -205q-10 -10 -22.5 -8t-22.5 8z" />
<glyph unicode="&#xcb;" horiz-adv-x="1181" d="M132 132q-5 56 11 140l174 889q16 82 43 139.5t73 92t114.5 50t169.5 15.5q129 0 255 -6t236 -18q29 -4 23 -35l-23 -115q-6 -31 -37 -31h-477q-61 0 -91 -30.5t-42 -89.5l-57 -295h545q33 0 26 -33l-28 -141q-4 -31 -37 -31h-545l-66 -332q-12 -59 7.5 -90t80.5 -31h498 q29 0 25 -30l-23 -115q-6 -31 -37 -35q-121 -14 -256 -19.5t-266 -5.5q-100 0 -162.5 15.5t-95.5 50.5t-38 91zM535 1632l4 13q4 29 21.5 78t39.5 87q12 20 24.5 27.5t32.5 7.5h138q31 0 24 -33l-37 -180q-6 -33 -37 -33h-186q-31 0 -24 33zM958 1632l37 180q6 33 37 33h187 q31 0 24 -33l-4 -12q-4 -29 -21.5 -78t-39.5 -88q-12 -20 -24.5 -27.5t-33.5 -7.5h-137q-31 0 -25 33z" />
<glyph unicode="&#xcc;" horiz-adv-x="638" d="M117 31l266 1370q6 33 39 33h188q29 0 23 -33l-266 -1370q-6 -31 -35 -31h-189q-33 0 -26 31zM270 1815.5q2 11.5 13 17.5l127 74q14 8 27.5 6t21.5 -12l186 -275q8 -10 5 -19.5t-13 -15.5l-84 -47q-25 -14 -41 0q-68 51 -126 114.5t-110 135.5q-8 10 -6 21.5z" />
<glyph unicode="&#xcd;" horiz-adv-x="638" d="M117 31l266 1370q6 33 39 33h188q29 0 23 -33l-266 -1370q-6 -31 -35 -31h-189q-33 0 -26 31zM457 1591q-20 14 4 35l293 275q25 25 49 6l98 -74q10 -6 7 -17.5t-13 -21.5q-78 -72 -163 -135.5t-171 -114.5q-25 -14 -41 0z" />
<glyph unicode="&#xce;" horiz-adv-x="638" d="M117 31l266 1370q6 33 39 33h188q29 0 23 -33l-266 -1370q-6 -31 -35 -31h-189q-33 0 -26 31zM209 1587q-18 16 6 41q31 33 66.5 68t73.5 68.5t74 61t65 46.5q16 10 29.5 15t29.5 5h102q31 0 52 -20q23 -18 47 -46t48.5 -61.5t47 -68.5t41.5 -68q14 -27 -10 -41l-76 -43 q-12 -6 -24.5 -8t-20.5 8l-182 205l-265 -205q-10 -10 -22 -8t-23 8z" />
<glyph unicode="&#xcf;" horiz-adv-x="638" d="M117 31l266 1370q6 33 39 33h188q29 0 23 -33l-266 -1370q-6 -31 -35 -31h-189q-33 0 -26 31zM217 1632l4 13q4 29 21.5 78t40.5 87q12 20 24 27.5t33 7.5h137q31 0 25 -33l-37 -180q-6 -33 -37 -33h-186q-31 0 -25 33zM641 1632l37 180q6 33 37 33h186q31 0 25 -33 l-4 -12q-4 -29 -21.5 -78t-40.5 -88q-12 -20 -24.5 -27.5t-32.5 -7.5h-137q-31 0 -25 33z" />
<glyph unicode="&#xd0;" horiz-adv-x="1361" d="M59 672l19 92q6 31 39 31h129l100 512q8 47 26.5 71.5t59.5 34.5q82 23 181.5 34t207.5 11q180 0 291 -50t165 -143.5t58 -224.5t-26 -290l-15 -66q-31 -160 -86 -291t-144 -224t-220 -143.5t-312 -50.5q-109 0 -202.5 11.5t-169.5 33.5q-35 10 -44.5 35t1.5 72l98 512 h-129q-33 0 -27 33zM381 201q35 -10 83 -15.5t101 -5.5q119 0 200 33t135 96.5t88 158.5t59 220l10 55q25 125 27.5 221.5t-27 160t-98 96t-187.5 32.5q-53 0 -101 -5t-89 -15l-86 -438h249q33 0 27 -31l-18 -92q-6 -33 -39 -33h-250z" />
<glyph unicode="&#xd1;" horiz-adv-x="1435" d="M96 29l269 1374q4 31 34 31h250q29 0 39 -9.5t17 -27.5l294 -1030l203 1038q6 29 35 29h193q29 0 22 -29l-268 -1374q-4 -31 -33 -31h-250q-29 0 -40 9t-17 28l-295 1030l-203 -1038q-6 -29 -33 -29h-192q-31 0 -25 29zM600 1645.5q0 25.5 4 48.5q16 86 76.5 133 t150.5 47q51 0 95.5 -16.5t85.5 -59.5q37 -37 58.5 -52t43.5 -15q23 0 40 18t28 72l4 22q6 27 35 27h77q29 0 35 -27q4 -14 4 -39.5t-4 -48.5q-16 -86 -76.5 -133t-150.5 -47q-51 0 -95 16.5t-87 59.5q-35 37 -55.5 52t-43.5 15t-41 -18.5t-28 -71.5l-4 -22q-6 -27 -35 -27 h-78q-29 0 -35 27q-4 14 -4 39.5z" />
<glyph unicode="&#xd2;" horiz-adv-x="1417" d="M166 682l14 70q68 346 245 526t484 180t415 -180t40 -526l-14 -70q-68 -346 -245 -526.5t-484 -180.5t-415 180.5t-40 526.5zM418 690q-53 -268 6 -389t238 -121q178 0 282.5 121t157.5 389l10 53q51 268 -7 389t-237 121q-178 0 -283.5 -120.5t-156.5 -389.5z M735 1815.5q2 11.5 13 17.5l126 74q14 8 27.5 6t22.5 -12l186 -275q8 -10 5 -19.5t-13 -15.5l-84 -47q-25 -14 -41 0q-68 51 -126 114.5t-110 135.5q-8 10 -6 21.5z" />
<glyph unicode="&#xd3;" horiz-adv-x="1417" d="M166 682l14 70q68 346 245 526t484 180t415 -180t40 -526l-14 -70q-68 -346 -245 -526.5t-484 -180.5t-415 180.5t-40 526.5zM418 690q-53 -268 6 -389t238 -121q178 0 282.5 121t157.5 389l10 53q51 268 -7 389t-237 121q-178 0 -283.5 -120.5t-156.5 -389.5zM770 1591 q-20 14 4 35l293 275q25 25 49 6l98 -74q10 -6 7.5 -17.5t-13.5 -21.5q-78 -72 -163 -135.5t-171 -114.5q-25 -14 -40 0z" />
<glyph unicode="&#xd4;" horiz-adv-x="1417" d="M166 682l14 70q68 346 245 526t484 180t415 -180t40 -526l-14 -70q-68 -346 -245 -526.5t-484 -180.5t-415 180.5t-40 526.5zM418 690q-53 -268 6 -389t238 -121q178 0 282.5 121t157.5 389l10 53q51 268 -7 389t-237 121q-178 0 -283.5 -120.5t-156.5 -389.5zM598 1587 q-18 16 6 41q31 33 67 68t73.5 68.5t73.5 61t65 46.5q16 10 29.5 15t29.5 5h102q31 0 52 -20q23 -18 47 -46t49 -61.5t47.5 -68.5t40.5 -68q14 -27 -10 -41l-76 -43q-12 -6 -24.5 -8t-20.5 8l-182 205l-265 -205q-10 -10 -22 -8t-23 8z" />
<glyph unicode="&#xd5;" horiz-adv-x="1417" d="M166 682l14 70q68 346 245 526t484 180t415 -180t40 -526l-14 -70q-68 -346 -245 -526.5t-484 -180.5t-415 180.5t-40 526.5zM418 690q-53 -268 6 -389t238 -121q178 0 282.5 121t157.5 389l10 53q51 268 -7 389t-237 121q-178 0 -283.5 -120.5t-156.5 -389.5z M592 1645.5q0 25.5 4 48.5q16 86 76.5 133t150.5 47q51 0 95.5 -16.5t85.5 -59.5q37 -37 58 -52t44 -15t40 18t28 72l4 22q6 27 34 27h78q29 0 35 -27q4 -14 4 -39.5t-4 -48.5q-16 -86 -76.5 -133t-150.5 -47q-51 0 -95.5 16.5t-87.5 59.5q-35 37 -55 52t-43 15t-41 -18.5 t-28 -71.5l-5 -22q-6 -27 -34 -27h-78q-29 0 -35 27q-4 14 -4 39.5z" />
<glyph unicode="&#xd6;" horiz-adv-x="1417" d="M166 682l14 70q68 346 245 526t484 180t415 -180t40 -526l-14 -70q-68 -346 -245 -526.5t-484 -180.5t-415 180.5t-40 526.5zM418 690q-53 -268 6 -389t238 -121q178 0 282.5 121t157.5 389l10 53q51 268 -7 389t-237 121q-178 0 -283.5 -120.5t-156.5 -389.5zM606 1632 l4 13q4 29 21.5 78t40.5 87q12 20 24.5 27.5t32.5 7.5h137q31 0 25 -33l-37 -180q-6 -33 -37 -33h-186q-31 0 -25 33zM1030 1632l37 180q6 33 37 33h186q31 0 25 -33l-4 -12q-4 -29 -21.5 -78t-40.5 -88q-12 -20 -24.5 -27.5t-32.5 -7.5h-137q-31 0 -25 33z" />
<glyph unicode="&#xd7;" horiz-adv-x="1277" d="M219 354q-20 25 0 45l283 283l-281 283q-23 23 -2 47l129 129q20 23 47 0l283 -283l283 283q25 25 45 0l129 -129q20 -25 0 -47l-283 -283l283 -283q20 -20 0 -45l-129 -129q-20 -25 -45 0l-283 283l-285 -283q-25 -25 -45 0z" />
<glyph unicode="&#xd8;" horiz-adv-x="1417" d="M-10 -197.5q-4 7.5 8 23.5l227 299q-133 176 -59 557l14 70q68 346 245 526t484 180q174 0 289 -63l168 219q14 25 45 24h111q14 0 18 -7t-8 -23l-229 -301q135 -178 61 -555l-14 -70q-68 -346 -245 -526.5t-484 -180.5q-92 0 -164 16.5t-127 45.5l-166 -217 q-16 -25 -45 -25h-111q-14 0 -18 7.5zM406 358l645 844q-64 51 -183 51q-178 0 -283.5 -120.5t-156.5 -389.5l-10 -53q-43 -213 -12 -332zM477 231q66 -51 185 -51q178 0 282.5 121t157.5 389l10 53q41 217 14 332z" />
<glyph unicode="&#xd9;" horiz-adv-x="1421" d="M188 369q0 129 33 299l144 735q4 31 34 31h191q29 0 24 -31l-141 -727q-25 -121 -29 -213t16.5 -155.5t70 -95.5t133.5 -32t145 32t106.5 95.5t76 155.5t55.5 213l141 727q4 31 37 31h190q27 0 23 -31l-144 -735q-33 -170 -83 -299t-128.5 -217.5t-191 -132.5t-268.5 -44 q-158 0 -252.5 44t-138.5 132.5t-44 217.5zM707 1815.5q2 11.5 12 17.5l127 74q14 8 27.5 6t21.5 -12l186 -275q8 -10 5 -19.5t-13 -15.5l-84 -47q-25 -14 -41 0q-68 51 -126 114.5t-109 135.5q-8 10 -6 21.5z" />
<glyph unicode="&#xda;" horiz-adv-x="1421" d="M188 369q0 129 33 299l144 735q4 31 34 31h191q29 0 24 -31l-141 -727q-25 -121 -29 -213t16.5 -155.5t70 -95.5t133.5 -32t145 32t106.5 95.5t76 155.5t55.5 213l141 727q4 31 37 31h190q27 0 23 -31l-144 -735q-33 -170 -83 -299t-128.5 -217.5t-191 -132.5t-268.5 -44 q-158 0 -252.5 44t-138.5 132.5t-44 217.5zM803 1591q-20 14 4 35l293 275q25 25 49 6l98 -74q10 -6 7 -17.5t-13 -21.5q-78 -72 -163 -135.5t-171 -114.5q-25 -14 -41 0z" />
<glyph unicode="&#xdb;" horiz-adv-x="1421" d="M188 369q0 129 33 299l144 735q4 31 34 31h191q29 0 24 -31l-141 -727q-25 -121 -29 -213t16.5 -155.5t70 -95.5t133.5 -32t145 32t106.5 95.5t76 155.5t55.5 213l141 727q4 31 37 31h190q27 0 23 -31l-144 -735q-33 -170 -83 -299t-128.5 -217.5t-191 -132.5t-268.5 -44 q-158 0 -252.5 44t-138.5 132.5t-44 217.5zM600 1587q-18 16 6 41q31 33 67 68t73.5 68.5t73.5 61t65 46.5q16 10 29.5 15t29.5 5h103q31 0 51 -20q23 -18 47 -46t49 -61.5t47.5 -68.5t40.5 -68q14 -27 -10 -41l-76 -43q-12 -6 -24.5 -8t-20.5 8l-182 205l-264 -205 q-10 -10 -22.5 -8t-23.5 8z" />
<glyph unicode="&#xdc;" horiz-adv-x="1421" d="M188 369q0 129 33 299l144 735q4 31 34 31h191q29 0 24 -31l-141 -727q-25 -121 -29 -213t16.5 -155.5t70 -95.5t133.5 -32t145 32t106.5 95.5t76 155.5t55.5 213l141 727q4 31 37 31h190q27 0 23 -31l-144 -735q-33 -170 -83 -299t-128.5 -217.5t-191 -132.5t-268.5 -44 q-158 0 -252.5 44t-138.5 132.5t-44 217.5zM608 1632l4 13q4 29 21.5 78t40.5 87q12 20 24.5 27.5t32.5 7.5h137q31 0 25 -33l-37 -180q-6 -33 -37 -33h-186q-31 0 -25 33zM1032 1632l37 180q6 33 37 33h186q31 0 25 -33l-4 -12q-4 -29 -21.5 -78t-40.5 -88 q-12 -20 -24.5 -27.5t-32.5 -7.5h-137q-31 0 -25 33z" />
<glyph unicode="&#xdd;" horiz-adv-x="1241" d="M233 1384q-8 20 0.5 35t28.5 15h184q29 0 39 -31l197 -662l455 662q16 31 51 31h184q20 0 21.5 -14.5t-13.5 -35.5l-620 -888l-92 -465q-6 -31 -35 -31h-187q-35 0 -28 31l92 465zM719 1591q-20 14 4 35l293 275q25 25 49 6l98 -74q10 -6 7 -17.5t-13 -21.5 q-78 -72 -163 -135.5t-171 -114.5q-25 -14 -41 0z" />
<glyph unicode="&#xde;" horiz-adv-x="1253" d="M96 31l266 1370q6 33 39 33h187q31 0 24 -33l-45 -232q111 12 226 13q260 0 364.5 -107.5t63.5 -324.5l-13 -62q-43 -217 -189.5 -324.5t-406.5 -107.5q-115 0 -219 12l-47 -237q-6 -31 -37 -31h-186q-33 0 -27 31zM432 471q41 -6 93.5 -8t92.5 -2q166 0 243 61.5 t102 188.5l4 16q23 127 -29.5 188.5t-218.5 61.5q-41 0 -93.5 -2t-97.5 -8z" />
<glyph unicode="&#xdf;" horiz-adv-x="1230" d="M90 31l189 966q47 236 184 348.5t375 112.5q100 0 180 -24.5t132 -70.5t72.5 -113.5t4.5 -155.5q-27 -135 -94.5 -222.5t-206.5 -119.5q145 -27 195 -121t16 -264q-39 -201 -166 -296.5t-301 -95.5q-59 0 -123 9.5t-111 25.5q-18 6 -21 16.5t1 30.5l24 125q6 29 33 23 q43 -10 88.5 -17.5t102.5 -7.5q104 0 158.5 64.5t74.5 171.5q23 119 -36.5 170t-201.5 59q-31 2 -24 31l27 141q8 33 36 33q129 0 191.5 56.5t81.5 152.5q20 102 -25 148t-155 46q-119 0 -177.5 -62.5t-81.5 -168.5l-192 -991q-6 -31 -37 -31h-186q-33 0 -27 31z" />
<glyph unicode="&#xe0;" horiz-adv-x="1191" d="M91 273q-11 89 9 198l17 80q23 115 74 211t133 166.5t195.5 109.5t262.5 39q92 0 179.5 -12t154.5 -35q29 -10 40 -31.5t1 -64.5l-176 -903q-4 -31 -33 -31h-178q-31 0 -27 31l11 49q-70 -53 -142 -74.5t-168 -21.5q-104 0 -179 35.5t-119 100t-55 153.5zM342 485 q-33 -166 25.5 -237.5t205.5 -71.5q55 0 111.5 14.5t97.5 40.5l125 635q-68 18 -162 19q-162 0 -262 -91.5t-133 -256.5zM540 1459q3 11 13 18l127 73q31 16 47 -6l186 -274q8 -10 5 -19.5t-13 -15.5l-84 -47q-25 -14 -41 0q-66 51 -125 114.5t-110 135.5q-8 10 -5 21z" />
<glyph unicode="&#xe1;" horiz-adv-x="1191" d="M91 273q-11 89 9 198l17 80q23 115 74 211t133 166.5t195.5 109.5t262.5 39q92 0 179.5 -12t154.5 -35q29 -10 40 -31.5t1 -64.5l-176 -903q-4 -31 -33 -31h-178q-31 0 -27 31l11 49q-70 -53 -142 -74.5t-168 -21.5q-104 0 -179 35.5t-119 100t-55 153.5zM342 485 q-33 -166 25.5 -237.5t205.5 -71.5q55 0 111.5 14.5t97.5 40.5l125 635q-68 18 -162 19q-162 0 -262 -91.5t-133 -256.5zM616 1235q-20 14 5 35l292 274q10 10 25.5 12.5t26.5 -6.5l98 -73q8 -6 5 -17.5t-13 -21.5q-78 -72 -162 -135.5t-172 -114.5q-25 -14 -41 0z" />
<glyph unicode="&#xe2;" horiz-adv-x="1191" d="M91 273q-11 89 9 198l17 80q23 115 74 211t133 166.5t195.5 109.5t262.5 39q92 0 179.5 -12t154.5 -35q29 -10 40 -31.5t1 -64.5l-176 -903q-4 -31 -33 -31h-178q-31 0 -27 31l11 49q-70 -53 -142 -74.5t-168 -21.5q-104 0 -179 35.5t-119 100t-55 153.5zM342 485 q-33 -166 25.5 -237.5t205.5 -71.5q55 0 111.5 14.5t97.5 40.5l125 635q-68 18 -162 19q-162 0 -262 -91.5t-133 -256.5zM430 1231q-18 14 6 41q31 33 67 67.5t73.5 68.5t73.5 61.5t65 46.5q16 10 29.5 15t29.5 5h103q31 0 51 -20q23 -18 47 -46t49 -62t47.5 -68.5 t40.5 -67.5q16 -27 -10 -41l-76 -43q-12 -6 -24.5 -8t-20.5 8l-182 205l-264 -205q-10 -10 -22.5 -8t-23.5 8z" />
<glyph unicode="&#xe3;" horiz-adv-x="1191" d="M91 273q-11 89 9 198l17 80q23 115 74 211t133 166.5t195.5 109.5t262.5 39q92 0 179.5 -12t154.5 -35q29 -10 40 -31.5t1 -64.5l-176 -903q-4 -31 -33 -31h-178q-31 0 -27 31l11 49q-70 -53 -142 -74.5t-168 -21.5q-104 0 -179 35.5t-119 100t-55 153.5zM342 485 q-33 -166 25.5 -237.5t205.5 -71.5q55 0 111.5 14.5t97.5 40.5l125 635q-68 18 -162 19q-162 0 -262 -91.5t-133 -256.5zM414 1289q0 26 4 48q16 86 77.5 133.5t151.5 47.5q51 0 94 -16.5t84 -59.5q37 -37 58.5 -52.5t44.5 -15.5t40 18.5t27 71.5l6 23q2 27 33 26h78 q31 0 37 -26q4 -14 3 -40t-5 -48q-16 -86 -76.5 -133t-150.5 -47q-51 0 -95.5 16t-87.5 59q-35 37 -55 52.5t-43 15.5t-41 -18.5t-29 -71.5l-4 -23q-6 -27 -33 -26h-77q-31 0 -37 26q-4 14 -4 40z" />
<glyph unicode="&#xe4;" horiz-adv-x="1191" d="M91 273q-11 89 9 198l17 80q23 115 74 211t133 166.5t195.5 109.5t262.5 39q92 0 179.5 -12t154.5 -35q29 -10 40 -31.5t1 -64.5l-176 -903q-4 -31 -33 -31h-178q-31 0 -27 31l11 49q-70 -53 -142 -74.5t-168 -21.5q-104 0 -179 35.5t-119 100t-55 153.5zM342 485 q-33 -166 25.5 -237.5t205.5 -71.5q55 0 111.5 14.5t97.5 40.5l125 635q-68 18 -162 19q-162 0 -262 -91.5t-133 -256.5zM420 1276l2 12q4 29 22.5 78t40.5 88q10 20 22.5 27.5t33.5 7.5h137q31 0 24 -33l-34 -180q-8 -33 -39 -33h-187q-31 0 -22 33zM844 1276l35 180 q6 33 36 33h187q31 0 24 -33l-2 -12q-6 -29 -23.5 -78t-39.5 -88q-12 -20 -24.5 -27.5t-32.5 -7.5h-138q-31 0 -22 33z" />
<glyph unicode="&#xe5;" horiz-adv-x="1191" d="M91 273q-11 89 9 198l17 80q23 115 74 211t133 166.5t195.5 109.5t262.5 39q92 0 179.5 -12t154.5 -35q29 -10 40 -31.5t1 -64.5l-176 -903q-4 -31 -33 -31h-178q-31 0 -27 31l11 49q-70 -53 -142 -74.5t-168 -21.5q-104 0 -179 35.5t-119 100t-55 153.5zM342 485 q-33 -166 25.5 -237.5t205.5 -71.5q55 0 111.5 14.5t97.5 40.5l125 635q-68 18 -162 19q-162 0 -262 -91.5t-133 -256.5zM563 1368q25 121 98.5 171t174.5 50q100 0 155.5 -51t30.5 -170q-12 -59 -36.5 -101t-60.5 -69t-81 -39t-94 -12q-100 0 -154.5 50t-32.5 171z M713 1368q-18 -96 61 -96q80 0 98 96t-61 96q-80 0 -98 -96z" />
<glyph unicode="&#xe6;" horiz-adv-x="1746" d="M72 313q33 168 146.5 253t281.5 85q76 0 147.5 -14t126.5 -41l8 41q14 74 11.5 121t-30.5 75.5t-82 40t-142 11.5q-61 0 -122 -9.5t-114 -19.5q-18 -4 -26.5 1t-4.5 24l21 102q4 18 12 26.5t29 16.5q59 23 138 36t155 13q143 0 223 -37t121 -114q72 70 166 111.5 t209 41.5q104 0 180 -31.5t120 -88t57 -136.5t-5 -176q-25 -127 -97.5 -182t-201.5 -55h-424q-12 -135 51.5 -183.5t214.5 -48.5q66 0 138.5 6.5t127.5 14.5q37 6 31 -25l-20 -102q-6 -33 -41 -43q-61 -23 -137 -33t-160 -10q-104 0 -193.5 25.5t-138.5 80.5 q-51 -57 -158.5 -81.5t-249.5 -24.5q-227 0 -314 78.5t-54 250.5zM309 313q-25 -135 170 -135q59 0 111.5 5t107.5 18l45 239q-43 10 -94 15.5t-112 5.5q-102 0 -156.5 -35t-71.5 -113zM1006 600h372q37 0 57.5 13.5t28.5 56.5q20 100 -23.5 157.5t-148.5 57.5 q-100 0 -177 -66.5t-109 -218.5z" />
<glyph unicode="&#xe7;" horiz-adv-x="1036" d="M92 291q-10 90 12 198l17 80q23 115 72 208t125.5 160t182 103.5t240.5 36.5q86 0 163 -12t122 -29q31 -10 25 -43l-21 -102q-6 -31 -39 -25q-47 10 -111.5 14.5t-134.5 4.5q-174 0 -266 -81t-125 -247l-10 -55q-33 -164 29.5 -245t240.5 -81q70 0 140.5 5t117.5 14 q35 6 31 -25l-20 -102q-6 -33 -41 -43t-82 -19.5t-101 -15.5l-77 -105q78 -16 109.5 -63t19.5 -117q-20 -102 -98 -155.5t-177 -53.5q-41 0 -80 7.5t-67 21.5q-23 10 -17 35l11 59q6 27 32 21q35 -10 80 -11q111 0 125 76q8 41 -22.5 68.5t-104.5 27.5q-18 0 -24.5 11.5 t10.5 29.5l108 144q-125 6 -208.5 45t-130 104.5t-56.5 155.5z" />
<glyph unicode="&#xe8;" horiz-adv-x="1150" d="M95 286.5q-11 98.5 14 227.5l10 53q47 246 200.5 378t401.5 132q117 0 197.5 -30.5t128 -87t60.5 -136.5t-5 -176q-23 -121 -109 -179t-229 -58h-432q-4 -66 14.5 -111t56 -72.5t95 -39t131.5 -11.5q76 0 149.5 5t126.5 14q35 6 31 -25l-21 -102q-6 -33 -41 -43 q-61 -18 -147 -29.5t-172 -11.5q-147 0 -244.5 34.5t-151 102t-64.5 166zM365 602h421q70 0 80 62q23 106 -24 163.5t-164 57.5q-115 0 -197 -62.5t-116 -220.5zM509 1459q3 11 13 18l127 73q31 16 47 -6l187 -274q8 -10 5 -19.5t-14 -15.5l-83 -47q-25 -14 -41 0 q-66 51 -125.5 114.5t-110.5 135.5q-8 10 -5 21z" />
<glyph unicode="&#xe9;" horiz-adv-x="1150" d="M95 286.5q-11 98.5 14 227.5l10 53q47 246 200.5 378t401.5 132q117 0 197.5 -30.5t128 -87t60.5 -136.5t-5 -176q-23 -121 -109 -179t-229 -58h-432q-4 -66 14.5 -111t56 -72.5t95 -39t131.5 -11.5q76 0 149.5 5t126.5 14q35 6 31 -25l-21 -102q-6 -33 -41 -43 q-61 -18 -147 -29.5t-172 -11.5q-147 0 -244.5 34.5t-151 102t-64.5 166zM365 602h421q70 0 80 62q23 106 -24 163.5t-164 57.5q-115 0 -197 -62.5t-116 -220.5zM573 1235q-20 14 5 35l292 274q10 10 25.5 12.5t26.5 -6.5l98 -73q8 -6 5 -17.5t-13 -21.5 q-78 -72 -162 -135.5t-172 -114.5q-25 -14 -41 0z" />
<glyph unicode="&#xea;" horiz-adv-x="1150" d="M95 286.5q-11 98.5 14 227.5l10 53q47 246 200.5 378t401.5 132q117 0 197.5 -30.5t128 -87t60.5 -136.5t-5 -176q-23 -121 -109 -179t-229 -58h-432q-4 -66 14.5 -111t56 -72.5t95 -39t131.5 -11.5q76 0 149.5 5t126.5 14q35 6 31 -25l-21 -102q-6 -33 -41 -43 q-61 -18 -147 -29.5t-172 -11.5q-147 0 -244.5 34.5t-151 102t-64.5 166zM365 602h421q70 0 80 62q23 106 -24 163.5t-164 57.5q-115 0 -197 -62.5t-116 -220.5zM397 1231q-18 14 6 41q31 33 67 67.5t74 68.5t73.5 61.5t64.5 46.5q16 10 29.5 15t29.5 5h103q31 0 51 -20 q23 -18 47.5 -46t49 -62t47 -68.5t40.5 -67.5q16 -27 -10 -41l-76 -43q-12 -6 -24.5 -8t-20.5 8l-182 205l-264 -205q-10 -10 -22.5 -8t-22.5 8z" />
<glyph unicode="&#xeb;" horiz-adv-x="1150" d="M95 286.5q-11 98.5 14 227.5l10 53q47 246 200.5 378t401.5 132q117 0 197.5 -30.5t128 -87t60.5 -136.5t-5 -176q-23 -121 -109 -179t-229 -58h-432q-4 -66 14.5 -111t56 -72.5t95 -39t131.5 -11.5q76 0 149.5 5t126.5 14q35 6 31 -25l-21 -102q-6 -33 -41 -43 q-61 -18 -147 -29.5t-172 -11.5q-147 0 -244.5 34.5t-151 102t-64.5 166zM365 602h421q70 0 80 62q23 106 -24 163.5t-164 57.5q-115 0 -197 -62.5t-116 -220.5zM414 1276l2 12q4 29 22.5 78t40.5 88q10 20 22.5 27.5t33.5 7.5h137q31 0 24 -33l-34 -180q-8 -33 -39 -33 h-187q-31 0 -22 33zM838 1276l34 180q6 33 37 33h187q31 0 24 -33l-2 -12q-6 -29 -23.5 -78t-39.5 -88q-12 -20 -24.5 -27.5t-33.5 -7.5h-137q-31 0 -22 33z" />
<glyph unicode="&#xec;" horiz-adv-x="585" d="M96 31l195 997q6 33 37 33h174q33 0 26 -33l-194 -997q-6 -31 -37 -31h-174q-33 0 -27 31zM173 1459q3 11 13 18l127 73q31 16 47 -6l187 -274q8 -10 5 -19.5t-13 -15.5l-84 -47q-25 -14 -41 0q-66 51 -125.5 114.5t-110.5 135.5q-8 10 -5 21z" />
<glyph unicode="&#xed;" horiz-adv-x="585" d="M96 31l195 997q6 33 37 33h174q33 0 26 -33l-194 -997q-6 -31 -37 -31h-174q-33 0 -27 31zM362 1235q-20 14 5 35l292 274q10 10 25.5 12.5t26.5 -6.5l98 -73q8 -6 5 -17.5t-13 -21.5q-78 -72 -162 -135.5t-172 -114.5q-25 -14 -41 0z" />
<glyph unicode="&#xee;" horiz-adv-x="585" d="M96 31l195 997q6 33 37 33h174q33 0 26 -33l-194 -997q-6 -31 -37 -31h-174q-33 0 -27 31zM113 1231q-18 14 6 41q31 33 66.5 67.5t73.5 68.5t74 61.5t64 46.5q16 10 29.5 15t30.5 5h102q31 0 51 -20q23 -18 47.5 -46t49 -62t47 -68.5t41.5 -67.5q16 -27 -11 -41l-75 -43 q-12 -6 -24.5 -8t-20.5 8l-183 205l-264 -205q-10 -10 -22.5 -8t-22.5 8z" />
<glyph unicode="&#xef;" horiz-adv-x="585" d="M96 31l195 997q6 33 37 33h174q33 0 26 -33l-194 -997q-6 -31 -37 -31h-174q-33 0 -27 31zM123 1276l2 12q4 29 22.5 78t40.5 88q10 20 22.5 27.5t33.5 7.5h137q31 0 25 -33l-35 -180q-8 -33 -39 -33h-187q-31 0 -22 33zM547 1276l35 180q6 33 36 33h187q31 0 24 -33 l-2 -12q-6 -29 -23.5 -78t-39.5 -88q-12 -20 -24.5 -27.5t-32.5 -7.5h-138q-31 0 -22 33z" />
<glyph unicode="&#xf0;" horiz-adv-x="1282" d="M106 496l7 32q20 111 71.5 201t127 153.5t172 97.5t210.5 34q78 0 149.5 -10.5t127.5 -32.5q12 137 -10 213l-248 -111q-31 -14 -39 14l-23 78q-4 14 1 23.5t22 17.5l194 88q-39 29 -123 29q-59 0 -121.5 -4t-115.5 -14q-35 -6 -29 24l19 101q4 18 12 27t29 16 q61 18 129.5 28t134.5 10q98 0 173 -26.5t124 -85.5l192 88q33 14 39 -14l23 -78q6 -29 -23 -43l-162 -72q35 -98 36 -240.5t-38 -337.5q-33 -168 -85 -301t-133 -226t-193.5 -142t-263.5 -49q-231 0 -335 123.5t-51 388.5zM344 496q-33 -164 9 -242t175 -78 q78 0 139.5 26.5t110.5 88t86 164t68 256.5q4 27 9 52t7 46q-41 4 -101.5 8t-111.5 4q-160 0 -258 -70.5t-129 -230.5z" />
<glyph unicode="&#xf1;" horiz-adv-x="1228" d="M76 31l176 901q8 43 26.5 65.5t51.5 32.5q90 25 197.5 36t217.5 11q250 0 339.5 -98t45.5 -317l-122 -631q-6 -31 -35 -31h-174q-35 0 -29 31l121 616q25 131 -19.5 184.5t-185.5 53.5q-55 0 -105.5 -4t-103.5 -15l-164 -835q-6 -31 -37 -31h-174q-33 0 -26 31zM412 1289 q0 26 4 48q16 86 77.5 133.5t151.5 47.5q51 0 94 -16.5t84 -59.5q37 -37 58.5 -52.5t44.5 -15.5t40 18.5t27 71.5l6 23q2 27 33 26h78q31 0 37 -26q4 -14 3 -40t-5 -48q-16 -86 -76.5 -133t-150.5 -47q-51 0 -95.5 16t-87.5 59q-35 37 -55.5 52.5t-42.5 15.5 q-23 0 -41 -18.5t-29 -71.5l-4 -23q-6 -27 -33 -26h-77q-31 0 -37 26q-4 14 -4 40z" />
<glyph unicode="&#xf2;" horiz-adv-x="1179" d="M106 496l13 69q49 256 204.5 384t393.5 128t342 -128t55 -384l-12 -69q-51 -256 -206 -384t-392 -128q-238 0 -343.5 128t-54.5 384zM344 504q-31 -160 11 -244t186 -84q143 0 218 84t105 244l10 53q31 160 -11 244t-185 84t-218 -84t-106 -244zM532 1459q3 11 13 18 l127 73q31 16 47 -6l186 -274q8 -10 5 -19.5t-13 -15.5l-84 -47q-25 -14 -41 0q-66 51 -125 114.5t-110 135.5q-8 10 -5 21z" />
<glyph unicode="&#xf3;" horiz-adv-x="1179" d="M106 496l13 69q49 256 204.5 384t393.5 128t342 -128t55 -384l-12 -69q-51 -256 -206 -384t-392 -128q-238 0 -343.5 128t-54.5 384zM344 504q-31 -160 11 -244t186 -84q143 0 218 84t105 244l10 53q31 160 -11 244t-185 84t-218 -84t-106 -244zM598 1235q-20 14 4 35 l293 274q10 10 25.5 12.5t25.5 -6.5l98 -73q8 -6 5.5 -17.5t-13.5 -21.5q-78 -72 -162 -135.5t-172 -114.5q-25 -14 -40 0z" />
<glyph unicode="&#xf4;" horiz-adv-x="1179" d="M106 496l13 69q49 256 204.5 384t393.5 128t342 -128t55 -384l-12 -69q-51 -256 -206 -384t-392 -128q-238 0 -343.5 128t-54.5 384zM344 504q-31 -160 11 -244t186 -84q143 0 218 84t105 244l10 53q31 160 -11 244t-185 84t-218 -84t-106 -244zM410 1231q-18 14 6 41 q31 33 66.5 67.5t73.5 68.5t74 61.5t64 46.5q16 10 29.5 15t30.5 5h102q31 0 51 -20q23 -18 47.5 -46t49 -62t47 -68.5t41.5 -67.5q16 -27 -11 -41l-75 -43q-12 -6 -24.5 -8t-20.5 8l-183 205l-264 -205q-10 -10 -22.5 -8t-22.5 8z" />
<glyph unicode="&#xf5;" horiz-adv-x="1179" d="M106 496l13 69q49 256 204.5 384t393.5 128t342 -128t55 -384l-12 -69q-51 -256 -206 -384t-392 -128q-238 0 -343.5 128t-54.5 384zM344 504q-31 -160 11 -244t186 -84q143 0 218 84t105 244l10 53q31 160 -11 244t-185 84t-218 -84t-106 -244zM403.5 1289 q-0.5 26 4.5 48q16 86 77.5 133.5t151.5 47.5q51 0 94 -16.5t84 -59.5q37 -37 58.5 -52.5t44.5 -15.5t40 18.5t27 71.5l6 23q2 27 33 26h78q31 0 37 -26q4 -14 3 -40t-5 -48q-16 -86 -77 -133t-151 -47q-51 0 -95 16t-87 59q-35 37 -55.5 52.5t-42.5 15.5q-23 0 -41.5 -18.5 t-28.5 -71.5l-4 -23q-6 -27 -33 -26h-78q-31 0 -36 26q-4 14 -4.5 40z" />
<glyph unicode="&#xf6;" horiz-adv-x="1179" d="M106 496l13 69q49 256 204.5 384t393.5 128t342 -128t55 -384l-12 -69q-51 -256 -206 -384t-392 -128q-238 0 -343.5 128t-54.5 384zM344 504q-31 -160 11 -244t186 -84q143 0 218 84t105 244l10 53q31 160 -11 244t-185 84t-218 -84t-106 -244zM420 1276l2 12 q4 29 22.5 78t40.5 88q10 20 22.5 27.5t33.5 7.5h137q31 0 24 -33l-34 -180q-8 -33 -39 -33h-187q-31 0 -22 33zM844 1276l35 180q6 33 36 33h187q31 0 24 -33l-2 -12q-6 -29 -23.5 -78t-39.5 -88q-12 -20 -24.5 -27.5t-32.5 -7.5h-138q-31 0 -22 33z" />
<glyph unicode="&#xf7;" horiz-adv-x="1277" d="M168 612v136q0 33 33 32h958q33 0 33 -32v-136q0 -33 -33 -32h-958q-33 0 -33 32zM555 346v23q0 31 31 30h190q31 0 31 -30v-213q0 -31 -31 -31h-145q-23 0 -38 24.5t-23.5 60.5t-11.5 74t-3 62zM555 991v213q0 31 31 31h145q23 0 38 -24.5t23.5 -60.5t11.5 -74t3 -62 v-23q0 -31 -31 -30h-190q-31 0 -31 30z" />
<glyph unicode="&#xf8;" horiz-adv-x="1179" d="M-25 -195l211 279q-135 127 -80 412l13 69q49 256 204.5 384t393.5 128q119 0 203 -33l163 218q18 25 50 24h104q29 0 8 -31l-213 -278q66 -66 88.5 -168t-6.5 -244l-12 -69q-51 -256 -206 -384t-392 -128q-117 0 -203 30l-166 -215q-16 -25 -47 -24h-104q-33 0 -9 30z M331 384q-1 -54 13 -95l440 579q-45 16 -106 17q-143 0 -218 -84t-106 -244l-10 -53q-12 -66 -13 -120zM436 193q39 -17 105 -17q143 0 218 84t105 244l10 53q29 137 3 213z" />
<glyph unicode="&#xf9;" horiz-adv-x="1239" d="M147 399l123 631q6 31 37 31h174q33 0 27 -31l-119 -616q-27 -131 17.5 -184.5t185.5 -53.5q55 0 106.5 4t104.5 15l162 835q6 31 39 31h174q31 0 24 -31l-174 -901q-10 -43 -27.5 -65.5t-52.5 -32.5q-90 -25 -196.5 -36t-216.5 -11q-250 0 -339.5 98t-48.5 317z M552 1459q3 11 13 18l127 73q31 16 47 -6l187 -274q8 -10 5 -19.5t-13 -15.5l-84 -47q-25 -14 -41 0q-66 51 -125.5 114.5t-110.5 135.5q-8 10 -5 21z" />
<glyph unicode="&#xfa;" horiz-adv-x="1239" d="M147 399l123 631q6 31 37 31h174q33 0 27 -31l-119 -616q-27 -131 17.5 -184.5t185.5 -53.5q55 0 106.5 4t104.5 15l162 835q6 31 39 31h174q31 0 24 -31l-174 -901q-10 -43 -27.5 -65.5t-52.5 -32.5q-90 -25 -196.5 -36t-216.5 -11q-250 0 -339.5 98t-48.5 317z M637 1235q-20 14 4 35l293 274q10 10 25.5 12.5t25.5 -6.5l98 -73q8 -6 5 -17.5t-13 -21.5q-78 -72 -162 -135.5t-172 -114.5q-25 -14 -41 0z" />
<glyph unicode="&#xfb;" horiz-adv-x="1239" d="M147 399l123 631q6 31 37 31h174q33 0 27 -31l-119 -616q-27 -131 17.5 -184.5t185.5 -53.5q55 0 106.5 4t104.5 15l162 835q6 31 39 31h174q31 0 24 -31l-174 -901q-10 -43 -27.5 -65.5t-52.5 -32.5q-90 -25 -196.5 -36t-216.5 -11q-250 0 -339.5 98t-48.5 317z M438 1231q-18 14 6 41q31 33 67 67.5t74 68.5t73.5 61.5t64.5 46.5q16 10 29.5 15t29.5 5h103q31 0 51 -20q23 -18 47.5 -46t49 -62t47 -68.5t40.5 -67.5q16 -27 -10 -41l-76 -43q-12 -6 -24.5 -8t-20.5 8l-182 205l-264 -205q-10 -10 -22.5 -8t-22.5 8z" />
<glyph unicode="&#xfc;" horiz-adv-x="1239" d="M147 399l123 631q6 31 37 31h174q33 0 27 -31l-119 -616q-27 -131 17.5 -184.5t185.5 -53.5q55 0 106.5 4t104.5 15l162 835q6 31 39 31h174q31 0 24 -31l-174 -901q-10 -43 -27.5 -65.5t-52.5 -32.5q-90 -25 -196.5 -36t-216.5 -11q-250 0 -339.5 98t-48.5 317z M449 1276l2 12q4 29 22.5 78t40.5 88q10 20 22.5 27.5t32.5 7.5h138q31 0 24 -33l-35 -180q-8 -33 -39 -33h-186q-31 0 -22 33zM872 1276l35 180q6 33 37 33h186q31 0 25 -33l-2 -12q-6 -29 -23.5 -78t-39.5 -88q-12 -20 -24.5 -27.5t-33.5 -7.5h-137q-31 0 -23 33z" />
<glyph unicode="&#xfd;" horiz-adv-x="1239" d="M96 -334l23 113q2 31 37 24q61 -10 136 -15t159 -5q80 0 135 13.5t92 41t57.5 69.5t30.5 97l8 45q-63 -23 -143 -36t-160 -13q-92 0 -161.5 21.5t-112.5 70.5t-55.5 128t10.5 194l118 614q6 33 37 33h174q33 0 27 -33l-115 -596q-25 -127 19.5 -183t183.5 -56 q49 0 103.5 2t105.5 8l160 825q6 33 39 33h174q31 0 24 -33l-201 -1032q-20 -104 -60 -181t-104.5 -127t-159.5 -74t-226 -24q-80 0 -170.5 10.5t-161.5 32.5q-29 10 -23 33zM662 1235q-20 14 4 35l292 274q10 10 25.5 12.5t26.5 -6.5l98 -73q8 -6 5 -17.5t-13 -21.5 q-78 -72 -162 -135.5t-172 -114.5q-25 -14 -41 0z" />
<glyph unicode="&#xfe;" horiz-adv-x="1212" d="M0 -365l354 1829q6 31 35 31h178q31 0 25 -31l-84 -438q59 25 136 38t153 13q104 0 181 -35.5t123 -100t58 -154t-8 -197.5l-14 -80q-23 -115 -74 -211t-133 -167t-195.5 -109.5t-263.5 -38.5q-39 0 -81 4t-81 14l-71 -367q-6 -31 -37 -30h-178q-29 0 -23 30zM346 195 q68 -18 160 -19q162 0 262 91t133 257l10 51q33 166 -31.5 238t-217.5 72q-47 0 -96.5 -3t-86.5 -8z" />
<glyph unicode="&#xff;" horiz-adv-x="1239" d="M96 -334l23 113q2 31 37 24q61 -10 136 -15t159 -5q80 0 135 13.5t92 41t57.5 69.5t30.5 97l8 45q-63 -23 -143 -36t-160 -13q-92 0 -161.5 21.5t-112.5 70.5t-55.5 128t10.5 194l118 614q6 33 37 33h174q33 0 27 -33l-115 -596q-25 -127 19.5 -183t183.5 -56 q49 0 103.5 2t105.5 8l160 825q6 33 39 33h174q31 0 24 -33l-201 -1032q-20 -104 -60 -181t-104.5 -127t-159.5 -74t-226 -24q-80 0 -170.5 10.5t-161.5 32.5q-29 10 -23 33zM451 1276l2 12q4 29 22.5 78t40.5 88q10 20 22.5 27.5t32.5 7.5h138q31 0 24 -33l-35 -180 q-8 -33 -39 -33h-186q-31 0 -22 33zM874 1276l35 180q6 33 37 33h187q31 0 24 -33l-2 -12q-6 -29 -23.5 -78t-39.5 -88q-12 -20 -24.5 -27.5t-33.5 -7.5h-137q-31 0 -23 33z" />
<glyph unicode="&#x152;" horiz-adv-x="1800" d="M141 385q-6 129 25 291l14 80q31 162 88.5 287.5t144.5 212.5t208.5 132.5t285.5 45.5h920q33 0 24 -33l-26 -141q-6 -31 -39 -31h-524l-78 -402h483q31 0 25 -30l-27 -142q-6 -33 -37 -32h-483l-64 -322q-12 -59 5.5 -90t82.5 -31h435q29 0 24 -30l-22 -117 q-8 -33 -37 -33q-63 -6 -119.5 -11t-111 -8.5t-109.5 -4.5t-117 -1q-66 0 -122 9.5t-93 33.5q-66 -23 -136.5 -33t-135.5 -10q-162 0 -265.5 49.5t-158 140.5t-60.5 220zM418 688q-51 -256 13.5 -382t279.5 -126q31 0 59.5 3t46.5 10q0 14 1 31.5t5 33.5l189 971h-121 q-203 0 -308.5 -117t-154.5 -369z" />
<glyph unicode="&#x153;" horiz-adv-x="1841" d="M106 496l13 69q49 254 195.5 383t381.5 129q254 0 342 -168q72 82 175.5 125t226.5 43q98 0 172 -31.5t120 -88t62 -136.5t-2 -176q-25 -127 -97.5 -182t-201.5 -55h-436q-4 -68 10 -113t48 -71.5t89.5 -37t130.5 -10.5q66 0 138.5 6t128.5 15q37 6 30 -25l-20 -102 q-6 -33 -41 -43q-61 -23 -139 -33t-166 -10q-147 0 -237.5 42t-137.5 119q-148 -161 -408 -161q-236 0 -331 129t-46 383zM328 363.5q0 -60.5 19.5 -102.5t62 -63.5t114.5 -21.5q143 0 211 84t99 242l10 55q14 80 15 140.5t-19.5 102.5t-63.5 63.5t-114 21.5 q-72 0 -123.5 -21.5t-87 -63.5t-59 -102.5t-38.5 -140.5l-10 -53q-16 -80 -16 -140.5zM1090 600h383q37 0 57 13.5t29 56.5q20 100 -28 157.5t-149 57.5q-115 0 -188.5 -63.5t-103.5 -221.5z" />
<glyph unicode="&#x178;" horiz-adv-x="1241" d="M233 1384q-8 20 0.5 35t28.5 15h184q29 0 39 -31l197 -662l455 662q16 31 51 31h184q20 0 21.5 -14.5t-13.5 -35.5l-620 -888l-92 -465q-6 -31 -35 -31h-187q-35 0 -28 31l92 465zM518 1632l4 13q4 29 21.5 78t40.5 87q12 20 24.5 27.5t32.5 7.5h137q31 0 25 -33 l-37 -180q-6 -33 -37 -33h-186q-31 0 -25 33zM942 1632l37 180q6 33 37 33h186q31 0 25 -33l-4 -12q-4 -29 -21.5 -78t-40.5 -88q-12 -20 -24.5 -27.5t-32.5 -7.5h-137q-31 0 -25 33z" />
<glyph unicode="&#x2c6;" horiz-adv-x="860" d="M242 1190q-18 14 6 41q31 33 66.5 67.5t73.5 68.5t74 61.5t64 46.5q16 10 29.5 15t30.5 5h102q31 0 51 -20q23 -18 47.5 -46t49 -62t47 -68.5t41.5 -67.5q16 -27 -11 -41l-75 -43q-10 -6 -23.5 -8t-21.5 8l-183 205l-264 -205q-10 -10 -22.5 -8t-22.5 8z" />
<glyph unicode="&#x2dc;" horiz-adv-x="860" d="M237 1250q1 26 5 48q16 86 76.5 133.5t150.5 47.5q51 0 94 -16.5t86 -59.5q35 -37 56.5 -52.5t44.5 -15.5t41 18.5t28 71.5l4 23q6 27 33 27h78q31 0 37 -27q4 -14 4 -40t-4 -48q-16 -86 -78 -133t-152 -47q-51 0 -95 16t-85 59q-37 37 -57.5 52.5t-42.5 15.5 q-23 0 -40.5 -18.5t-27.5 -71.5l-6 -23q-2 -27 -33 -26h-78q-31 0 -36 26q-4 14 -3 40z" />
<glyph unicode="&#x2000;" horiz-adv-x="973" />
<glyph unicode="&#x2001;" horiz-adv-x="1946" />
<glyph unicode="&#x2002;" horiz-adv-x="973" />
<glyph unicode="&#x2003;" horiz-adv-x="1946" />
<glyph unicode="&#x2004;" horiz-adv-x="648" />
<glyph unicode="&#x2005;" horiz-adv-x="486" />
<glyph unicode="&#x2006;" horiz-adv-x="324" />
<glyph unicode="&#x2007;" horiz-adv-x="324" />
<glyph unicode="&#x2008;" horiz-adv-x="243" />
<glyph unicode="&#x2009;" horiz-adv-x="389" />
<glyph unicode="&#x200a;" horiz-adv-x="108" />
<glyph unicode="&#x2010;" horiz-adv-x="880" d="M160 598l30 158q6 33 39 32h562q33 0 26 -32l-31 -158q-6 -31 -38 -31h-562q-33 0 -26 31z" />
<glyph unicode="&#x2011;" horiz-adv-x="880" d="M160 598l30 158q6 33 39 32h562q33 0 26 -32l-31 -158q-6 -31 -38 -31h-562q-33 0 -26 31z" />
<glyph unicode="&#x2012;" horiz-adv-x="880" d="M160 598l30 158q6 33 39 32h562q33 0 26 -32l-31 -158q-6 -31 -38 -31h-562q-33 0 -26 31z" />
<glyph unicode="&#x2013;" horiz-adv-x="1024" d="M35 606l28 148q6 31 37 30h961q33 0 26 -30l-28 -148q-6 -31 -39 -31h-961q-31 0 -24 31z" />
<glyph unicode="&#x2014;" horiz-adv-x="2048" d="M35 606l28 148q6 31 37 30h1985q33 0 26 -30l-28 -148q-6 -31 -39 -31h-1985q-31 0 -24 31z" />
<glyph unicode="&#x2018;" horiz-adv-x="569" d="M279 1063l10 51q18 96 81.5 219t186.5 238q18 16 39 2l74 -47q16 -10 2 -33q-41 -55 -67.5 -114.5t-37.5 -106.5q-2 -12 -4 -32.5t-2 -43.5t-1 -47.5t-5 -46.5l-8 -39q-6 -31 -37 -31h-207q-31 0 -24 31z" />
<glyph unicode="&#x2019;" horiz-adv-x="569" d="M240 1120q41 55 67.5 114.5t36.5 106.5q2 12 4 33t2 43q0 23 1 47.5t5 46.5l9 39q6 31 36 31h207q31 0 25 -31l-10 -51q-18 -96 -82 -219t-187 -238q-18 -16 -39 -2l-73 47q-16 10 -2 33z" />
<glyph unicode="&#x201a;" horiz-adv-x="569" d="M-12 -176q41 55 67.5 114.5t36.5 106.5q2 12 4 32.5t2 43.5t1 47.5t5 46.5l9 39q6 31 37 31h206q31 0 25 -31l-10 -51q-18 -96 -82 -219t-187 -238q-18 -16 -39 -2l-73 47q-16 10 -2 33z" />
<glyph unicode="&#x201c;" horiz-adv-x="956" d="M279 1063l10 51q18 96 81.5 219t186.5 238q18 16 39 2l74 -47q16 -10 2 -33q-41 -55 -67.5 -114.5t-37.5 -106.5q-2 -12 -4 -32.5t-2 -43.5t-1 -47.5t-5 -46.5l-8 -39q-6 -31 -37 -31h-207q-31 0 -24 31zM666 1063l10 51q18 96 81.5 219t186.5 238q18 16 39 2l74 -47 q16 -10 2 -33q-41 -55 -67.5 -114.5t-37.5 -106.5q-2 -12 -4 -32.5t-2 -43.5t-1 -47.5t-5 -46.5l-8 -39q-6 -31 -37 -31h-207q-31 0 -24 31z" />
<glyph unicode="&#x201d;" horiz-adv-x="956" d="M240 1120q41 55 67.5 114.5t36.5 106.5q2 12 4 33t2 43q0 23 1 47.5t5 46.5l9 39q6 31 36 31h207q31 0 25 -31l-10 -51q-18 -96 -82 -219t-187 -238q-18 -16 -39 -2l-73 47q-16 10 -2 33zM627 1120q41 55 67.5 114.5t36.5 106.5q2 12 4 33t2 43q0 23 1 47.5t5 46.5l9 39 q6 31 36 31h207q31 0 25 -31l-10 -51q-18 -96 -82 -219t-187 -238q-18 -16 -39 -2l-73 47q-16 10 -2 33z" />
<glyph unicode="&#x201e;" horiz-adv-x="956" d="M-12 -176q41 55 67.5 114.5t36.5 106.5q2 12 4 32.5t2 43.5t1 47.5t5 46.5l9 39q6 31 37 31h206q31 0 25 -31l-10 -51q-18 -96 -82 -219t-187 -238q-18 -16 -39 -2l-73 47q-16 10 -2 33zM375 -176q41 55 67.5 114.5t36.5 106.5q2 12 4 32.5t2 43.5t1 47.5t6 46.5l8 39 q6 31 37 31h206q31 0 25 -31l-10 -51q-18 -96 -82 -219t-187 -238q-18 -16 -38 -2l-74 47q-16 10 -2 33z" />
<glyph unicode="&#x2022;" horiz-adv-x="940" d="M246 680q0 129 67.5 197.5t196.5 68.5t197.5 -68.5t68.5 -197.5t-68.5 -198.5t-197.5 -69.5t-196.5 69.5t-67.5 198.5z" />
<glyph unicode="&#x2026;" horiz-adv-x="1708" d="M96 137q2 53 10 94l7 23q6 31 37 31h206q31 0 25 -31l-45 -223q-6 -31 -35 -31h-162q-33 0 -41 41q-4 43 -2 96zM666 137q2 53 10 94l6 23q6 31 37 31h207q31 0 24 -31l-45 -223q-6 -31 -35 -31h-161q-33 0 -41 41q-4 43 -2 96zM1235 137q2 53 10 94l6 23q6 31 37 31h207 q31 0 25 -31l-45 -223q-6 -31 -35 -31h-162q-33 0 -41 41q-4 43 -2 96z" />
<glyph unicode="&#x202f;" horiz-adv-x="389" />
<glyph unicode="&#x2039;" horiz-adv-x="708" d="M170 598l14 74q6 20 29 41q88 74 194.5 144.5t215.5 133.5q14 8 25 7t16 -13l22 -51q10 -20 -10 -37l-354 -262l251 -262q14 -18 -4 -37l-41 -51q-20 -25 -45 -6q-84 63 -162.5 133.5t-138.5 144.5q-6 10 -10 19.5t-2 21.5z" />
<glyph unicode="&#x203a;" horiz-adv-x="708" d="M102 336q-6 20 13 37l354 262l-252 262q-14 18 2 37l43 51q20 25 45 6q84 -63 162 -134t137 -144q16 -20 12 -41l-14 -74q-2 -20 -29 -41q-88 -74 -193.5 -144.5t-213.5 -133.5q-14 -8 -25.5 -7.5t-15.5 13.5z" />
<glyph unicode="&#x205f;" horiz-adv-x="486" />
<glyph unicode="&#x20ac;" horiz-adv-x="1157" d="M61 557l13 57q6 33 37 33h110l27 139h-111q-31 0 -24 33l12 58q6 33 37 32h117q78 268 233.5 408.5t409.5 140.5q98 0 177 -12t126 -33q23 -10 20 -31l-24 -120q-6 -33 -35 -27q-49 8 -114.5 13t-137.5 5q-147 0 -244.5 -77.5t-159.5 -266.5h484q31 0 24 -32l-12 -58 q-6 -33 -37 -33h-491l-27 -139h492q31 0 24 -33l-12 -57q-6 -33 -37 -33h-483q-14 -184 52 -264t224 -80q78 0 148.5 4t124.5 15q33 6 26 -27l-24 -125q-4 -12 -10.5 -19.5t-22.5 -11.5q-135 -41 -328 -41q-133 0 -223 38t-142.5 109t-71 172t-5.5 230h-117q-31 0 -25 33z " />
<glyph unicode="&#x2122;" horiz-adv-x="1366" d="M61 1341v64q0 29 29 29h451q27 0 26 -29v-64q0 -31 -26 -30h-152v-508q0 -27 -29 -27h-92q-29 0 -28 27v508h-150q-29 0 -29 30zM623 801v604q0 29 28 29h111q31 0 43 -25l164 -303l164 303q12 25 43 25h110q29 0 29 -29v-604q0 -27 -29 -27h-94q-27 0 -27 27v409 l-127 -229q-12 -23 -41 -23h-57q-29 0 -41 23l-127 229v-409q0 -27 -27 -27h-94q-29 0 -28 27z" />
<glyph unicode="&#x25fc;" horiz-adv-x="1064" d="M0 0v1065h1065v-1065h-1065z" />
</font>
</defs>
</svg>
