<?xml version="1.0" standalone="no"?>
<!DOCTYPE svg PUBLIC "-//W3C//DTD SVG 1.1//EN" "http://www.w3.org/Graphics/SVG/1.1/DTD/svg11.dtd" >
<svg xmlns="http://www.w3.org/2000/svg">
<metadata></metadata>
<defs>
<font id="coresansm55mediumuploadedfile" horiz-adv-x="1138" >
<font-face units-per-em="2048" ascent="1612" descent="-436" />
<missing-glyph horiz-adv-x="614" />
<glyph unicode="&#xfb01;" horiz-adv-x="1333" d="M16 901v127q0 33 33 33h164v88q0 84 15.5 150.5t53 113.5t101 72.5t162.5 25.5q53 0 103 -8t89 -22q33 -10 33 -45v-99q0 -29 -35 -26q-27 4 -64.5 6t-80.5 2q-80 0 -109.5 -37t-29.5 -117v-104h675q33 0 33 -33v-997q0 -31 -33 -31h-174q-31 0 -30 31v837h-471v-837 q0 -31 -33 -31h-174q-31 0 -31 31v837h-164q-33 0 -33 33zM922 1249v183q0 33 30 32h187q31 0 30 -32v-15q0 -18 -3 -52t-12 -66.5t-25.5 -57t-43.5 -24.5h-133q-31 0 -30 32z" />
<glyph unicode="&#xfb02;" horiz-adv-x="1433" d="M16 901v127q0 33 33 33h164v88q0 84 15.5 150.5t53 113.5t101 72.5t162.5 25.5q104 0 209.5 -4t197.5 -12h174q33 0 33 -33v-1143q0 -76 27.5 -109.5t105.5 -33.5q23 0 49.5 2t42.5 6q33 6 33 -26v-109q0 -29 -33 -37q-41 -12 -90 -20t-90 -8q-78 0 -132 22.5t-88 64.5 t-48 99t-14 125v1018q-78 4 -164 5t-168 1q-80 0 -109.5 -37t-29.5 -117v-104h284q33 0 33 -33v-127q0 -33 -33 -33h-284v-837q0 -31 -33 -31h-174q-31 0 -31 31v837h-164q-33 0 -33 33z" />
<glyph unicode="&#xfb03;" horiz-adv-x="2023" d="M16 901v127q0 33 33 33h164v88q0 84 15.5 150.5t53 113.5t101 72.5t162.5 25.5q66 0 125 -7t104 -23q33 -10 33 -47v-97q0 -29 -35 -26q-41 4 -90 6t-92 2q-80 0 -109.5 -37t-29.5 -117v-104h452v88q0 84 15.5 150.5t53.5 113.5t101.5 72.5t161.5 25.5q53 0 103.5 -8 t88.5 -22q33 -10 33 -45v-99q0 -29 -35 -26q-27 4 -64.5 6t-80.5 2q-80 0 -109.5 -37t-29.5 -117v-104h676q33 0 32 -33v-997q0 -31 -32 -31h-175q-31 0 -30 31v837h-471v-837q0 -31 -33 -31h-174q-31 0 -31 31v837h-452v-837q0 -31 -33 -31h-174q-31 0 -31 31v837h-164 q-33 0 -33 33zM1612 1249v183q0 33 30 32h187q31 0 31 -32v-15q0 -18 -3.5 -52t-12.5 -66.5t-25.5 -57t-42.5 -24.5h-134q-31 0 -30 32z" />
<glyph unicode="&#xfb04;" horiz-adv-x="2123" d="M16 901v127q0 33 33 33h164v88q0 84 15.5 150.5t53 113.5t101 72.5t162.5 25.5q66 0 125 -7t104 -23q33 -10 33 -47v-97q0 -29 -35 -26q-41 4 -90 6t-92 2q-80 0 -109.5 -37t-29.5 -117v-104h452v88q0 84 15.5 150.5t53.5 113.5t101.5 72.5t161.5 25.5q104 0 209.5 -4 t197.5 -12h175q33 0 32 -33v-1143q0 -76 28 -109.5t105 -33.5q23 0 49.5 2t43.5 6q33 6 32 -26v-109q0 -29 -32 -37q-41 -12 -90.5 -20t-90.5 -8q-78 0 -132 22.5t-88 64.5t-48 99t-14 125v1018q-78 4 -164 5t-168 1q-80 0 -109.5 -37t-29.5 -117v-104h284q33 0 33 -33v-127 q0 -33 -33 -33h-284v-837q0 -31 -33 -31h-174q-31 0 -31 31v837h-452v-837q0 -31 -33 -31h-174q-31 0 -31 31v837h-164q-33 0 -33 33z" />
<glyph unicode="&#xd;" horiz-adv-x="485" />
<glyph horiz-adv-x="0" />
<glyph horiz-adv-x="0" />
<glyph unicode=" "  horiz-adv-x="614" />
<glyph unicode="&#x09;" horiz-adv-x="614" />
<glyph unicode="&#xa0;" horiz-adv-x="614" />
<glyph unicode="!" horiz-adv-x="557" d="M150 209v24q0 31 30 31h197q31 0 31 -31v-204q0 -29 -29 -29h-158q-37 0 -47 35q-10 31 -17 80t-7 94zM152 1067v334q0 33 30 33h195q31 0 31 -33v-334l-33 -651q-2 -18 -9.5 -27.5t-25.5 -9.5h-121q-33 0 -35 37z" />
<glyph unicode="&#x22;" horiz-adv-x="1085" d="M197 1403q-4 31 28 31h213q29 0 29 -31v-39q0 -45 -4 -105.5t-12.5 -127t-18.5 -136t-24 -135.5q-6 -23 -29 -22h-129q-25 0 -25 22zM621 1403q-4 31 28 31h213q29 0 29 -31v-39q0 -45 -4 -105.5t-12.5 -127t-18.5 -136t-25 -135.5q-6 -23 -28 -22h-129q-25 0 -25 22z " />
<glyph unicode="#" horiz-adv-x="1409" d="M68 377v127q0 31 30 31h201l63 368h-182q-31 0 -30 33v127q0 31 30 31h215l54 309q6 31 36 31h156q33 0 27 -33l-54 -307h308l53 309q6 31 37 31h155q33 0 27 -33l-53 -307h168q33 0 32 -31v-127q0 -33 -32 -33h-201l-64 -368h183q33 0 33 -31v-127q0 -33 -33 -33h-215 l-54 -313q-6 -31 -36 -31h-156q-33 0 -27 33l54 311h-308l-53 -313q-6 -31 -37 -31h-155q-33 0 -27 33l53 311h-168q-31 0 -30 33zM518 535h307l64 368h-307z" />
<glyph unicode="$" horiz-adv-x="1126" d="M109 1090q0 174 94 265t301 101v148q0 35 33 34h69q33 0 33 -34v-148q74 -4 150.5 -16.5t142.5 -28.5q29 -6 29 -31v-118q0 -31 -35 -29q-68 8 -141.5 13t-145.5 7v-428l147 -65q240 -109 240 -391q0 -168 -87 -270.5t-300 -118.5v-146q0 -35 -33 -35h-69q-33 0 -33 35 v141q-98 4 -191.5 15.5t-171.5 29.5q-29 6 -28 31v121q0 31 34 29q86 -10 175.5 -15.5t181.5 -5.5v459l-158 72q-123 57 -180 151t-57 228zM358 1083q0 -66 35 -113.5t111 -82.5v360q-146 -25 -146 -164zM639 190q139 34 139 177q0 72 -32.5 122t-106.5 86v-385z" />
<glyph unicode="%" horiz-adv-x="1845" d="M133 1051v53q0 170 89 258t249 88t249 -88t89 -258v-53q0 -170 -89 -258t-249 -88t-249 88t-89 258zM332 1059q0 -90 31.5 -134t107.5 -44t107.5 44t31.5 134v37q0 90 -31.5 134t-107.5 44t-107.5 -44t-31.5 -134v-37zM397 39l820 1368q8 12 18 19.5t31 7.5h164 q39 0 18 -39l-819 -1368q-8 -12 -18.5 -19.5t-30.5 -7.5h-164q-39 0 -19 39zM1036 330v53q0 170 89 258t249 88t249 -88t89 -258v-53q0 -170 -89 -258t-249 -88t-249 88t-89 258zM1235 338q0 -90 31.5 -134t107.5 -44t107.5 44t31.5 134v37q0 90 -31.5 134t-107.5 44 t-107.5 -44t-31.5 -134v-37z" />
<glyph unicode="&#x26;" horiz-adv-x="1490" d="M133 360q0 268 305 437q-53 55 -91 103t-62.5 91t-35.5 85t-11 85q0 70 21.5 125t68.5 93t124.5 58.5t192.5 20.5q86 0 177 -13t157 -34q27 -8 27 -31v-123q0 -33 -31 -26q-61 10 -144 16t-165 6q-102 0 -140.5 -23.5t-38.5 -72.5q0 -41 16.5 -77t61.5 -89l463 -542 q59 123 78 284q4 27 33 21l123 -27q28 -6 28 -39q0 -121 -27.5 -227.5t-80.5 -194.5l196 -229q12 -16 7 -26.5t-21 -10.5h-203q-25 0 -40 8t-31 27l-58 65q-80 -59 -182 -92t-229 -33q-238 0 -363 106.5t-125 278.5zM383 367q0 -86 63.5 -136.5t186.5 -50.5q147 0 258 88 l-332 389q-92 -66 -134 -135t-42 -155z" />
<glyph unicode="'" horiz-adv-x="649" d="M190 1403q-4 31 29 31h213q29 0 29 -31v-39q0 -45 -4 -105.5t-12.5 -127t-18.5 -136t-25 -135.5q-6 -23 -28 -22h-129q-25 0 -25 22z" />
<glyph unicode="(" horiz-adv-x="831" d="M195 618q0 184 27.5 349.5t91 292t169 206.5t260.5 95q33 2 33 -29v-117q0 -27 -31 -35q-70 -23 -126 -68.5t-95 -133.5t-59.5 -223.5t-20.5 -336.5t20.5 -336t59.5 -223t95.5 -134t125.5 -68q31 -10 31 -35v-117q0 -31 -33 -29q-156 14 -261 94t-168.5 207t-91 292 t-27.5 349z" />
<glyph unicode=")" horiz-adv-x="831" d="M55 -178q0 25 31 35q70 23 126 68.5t95 133.5t59.5 223.5t20.5 335.5q0 201 -20.5 336.5t-59.5 223.5t-95 134t-126 68q-31 8 -31 35v117q0 31 33 29q156 -14 261.5 -94.5t169 -207t91 -292t27.5 -349.5t-27.5 -349t-91 -292t-169 -206.5t-261.5 -94.5q-33 -2 -33 29v117 z" />
<glyph unicode="*" horiz-adv-x="1245" d="M47 750l53 161q10 33 52 21q84 -29 196.5 -81t222.5 -126q-37 127 -52 251t-15 212q0 43 35 43h170q35 0 34 -43q0 -88 -16 -212t-53 -251q111 74 223.5 126t196.5 81q39 12 51 -21l53 -161q8 -33 -31 -45q-84 -29 -206.5 -51.5t-253.5 -26.5q104 -80 189 -171t136 -163 q25 -35 -2 -55l-137 -101q-29 -20 -55 15q-51 72 -110.5 182t-104.5 233q-45 -123 -104.5 -233.5t-110.5 -181.5q-27 -35 -56 -15l-137 101q-27 20 -2 55q51 72 136 163t190 171q-131 4 -254 26.5t-207 51.5q-39 12 -31 45z" />
<glyph unicode="+" horiz-adv-x="1277" d="M127 606v142q0 33 33 32h354v394q0 33 31 32h188q31 0 31 -32v-394h354q33 0 33 -32v-142q0 -31 -33 -31h-354v-393q0 -31 -31 -30h-188q-31 0 -31 30v393h-354q-33 0 -33 31z" />
<glyph unicode="," horiz-adv-x="569" d="M104 -176q31 55 46.5 114.5t15.5 106.5q0 12 -2 32.5t-6 43.5t-8.5 47.5t-4.5 46.5v39q0 31 31 31h207q31 0 31 -31v-51q0 -96 -40 -219t-138 -238q-16 -16 -39 -2l-84 47q-18 10 -9 33z" />
<glyph unicode="-" horiz-adv-x="880" d="M127 598v158q0 33 33 32h561q33 0 33 -32v-158q0 -31 -33 -31h-561q-33 0 -33 31z" />
<glyph unicode="." horiz-adv-x="569" d="M145 231v23q0 31 31 31h207q31 0 31 -31v-223q0 -31 -31 -31h-162q-33 0 -47 41q-14 43 -21.5 96t-7.5 94z" />
<glyph unicode="/" horiz-adv-x="1056" d="M-20 -210q-5 15 6 34l843 1683q12 27 43 27h177q23 0 27.5 -15.5t-5.5 -33.5l-844 -1684q-12 -27 -43 -26h-176q-23 0 -28 15z" />
<glyph unicode="0" d="M74 717q0 178 21.5 316t76.5 232.5t151.5 143.5t245.5 49q150 0 246 -49t151.5 -143.5t77 -232.5t21.5 -316t-21.5 -316.5t-77 -232.5t-151.5 -143.5t-246 -49.5t-246 49.5t-151 143.5t-76.5 232.5t-21.5 316.5zM324 717q0 -150 11 -252.5t38.5 -165.5t76 -91t119.5 -28 q72 0 120 28t76 91t39 165.5t11 252.5t-11 252t-39 165.5t-76 91t-120 27.5t-120 -27.5t-75.5 -91t-38.5 -165.5t-11 -252z" />
<glyph unicode="1" d="M227 1245v113q0 29 27 35q84 18 190.5 29.5t204.5 11.5h84q31 0 31 -33v-1370q0 -31 -31 -31h-188q-31 0 -31 31v1204h-45q-57 0 -112.5 -5t-100.5 -11q-29 -4 -29 26z" />
<glyph unicode="2" d="M111 35v125q0 168 85 288.5t259 231.5q76 49 132 91t93 86t55.5 93t18.5 115q0 100 -59.5 144t-205.5 44q-82 0 -154.5 -7t-137.5 -15q-29 -4 -29 24v125q0 27 27 35q68 18 154.5 30.5t170.5 12.5q135 0 227.5 -23.5t148.5 -73.5t82 -126t26 -180q0 -154 -77 -269.5 t-239 -212.5q-324 -188 -323 -348v-20h604q33 0 32 -33v-141q0 -31 -32 -31h-824q-35 0 -34 35z" />
<glyph unicode="3" d="M102 53v117q0 16 9.5 25.5t25.5 5.5q61 -10 137 -15.5t154 -5.5q158 0 241 55.5t83 170.5q0 121 -69 175t-208 54h-258q-33 0 -33 33v141q0 31 33 31h238q279 0 278 204q0 209 -270 209q-80 0 -148.5 -5t-140.5 -15q-35 -6 -35 29v118q0 25 25 31q70 23 158 35t178 12 q113 0 203 -28.5t152.5 -82t95 -128t32.5 -166.5q0 -86 -39 -169t-137 -141q106 -53 151.5 -145t45.5 -192q0 -96 -35 -176t-103.5 -136.5t-169 -87.5t-229.5 -31q-88 0 -177 10.5t-159 32.5q-29 8 -29 35z" />
<glyph unicode="4" d="M57 317v113q0 41 13 96q70 233 156.5 458.5t174.5 418.5q14 31 54 31h166q18 0 26 -13.5t-2 -34.5q-96 -211 -183 -445t-145 -454h359v416q0 33 31 33h188q31 0 31 -33v-416h137q31 0 31 -32v-142q0 -31 -31 -30h-137v-252q0 -31 -31 -31h-188q-31 0 -31 31v252h-584 q-35 0 -35 34z" />
<glyph unicode="5" d="M143 53v117q0 16 9.5 25.5t25.5 5.5q23 -4 56.5 -7.5t70.5 -6.5t74 -5t67 -2q166 0 241 60.5t75 169.5v34q0 111 -63.5 163t-190.5 52h-262q-78 0 -72 82l47 637q2 55 62 56h675q33 0 33 -33v-141q0 -31 -33 -31h-520l-28 -367h137q225 0 342 -102.5t117 -298.5v-60 q0 -190 -132.5 -308t-398.5 -118q-70 0 -152.5 10t-150.5 33q-29 10 -29 35z" />
<glyph unicode="6" d="M106 446v443q0 121 28 225.5t87.5 181t152.5 119.5t224 43q82 0 166.5 -13t150.5 -36q27 -8 27 -33v-114q0 -37 -35 -31q-131 23 -268 22q-82 0 -136 -24.5t-87 -69.5t-46.5 -109.5t-13.5 -142.5v-65q53 23 127 35t144 12q115 0 195.5 -29t132 -81t75 -125.5t23.5 -161.5 v-64q0 -217 -127 -335t-342 -118q-248 0 -363 125t-115 346zM356 438q0 -117 47.5 -187.5t169.5 -70.5q121 0 175.5 64.5t54.5 183.5v41q0 104 -53.5 159.5t-184.5 55.5q-51 0 -107.5 -3t-101.5 -7v-236z" />
<glyph unicode="7" d="M92 1260v141q0 33 33 33h846q35 0 35 -35v-121q0 -39 -7.5 -66.5t-29.5 -66.5q-66 -113 -129.5 -244t-122 -273.5t-109.5 -291t-92 -295.5q-12 -41 -49 -41h-172q-43 0 -29 47q43 154 95.5 309.5t114 307t130 295t142.5 270.5h-623q-33 0 -33 31z" />
<glyph unicode="8" d="M61 381q0 256 220 367q-74 51 -121 127.5t-47 193.5q0 193 116.5 291t339.5 98q236 0 345.5 -102t109.5 -297q0 -104 -39 -185t-143 -139q98 -53 165.5 -138t67.5 -216q0 -211 -120.5 -308.5t-385.5 -97.5q-262 0 -385 101.5t-123 304.5zM311 387q0 -109 61.5 -158 t196.5 -49t195.5 47t60.5 158q0 45 -17 81t-58 67.5t-110 62.5t-171 68q-78 -49 -118 -114t-40 -163zM360 1061q0 -43 11.5 -76t43 -60.5t87 -54t145.5 -59.5q72 47 100.5 105.5t28.5 134.5q0 102 -47 152t-160 50t-161 -49t-48 -143z" />
<glyph unicode="9" d="M78 942v64q0 217 127 334.5t342 117.5q248 0 362.5 -125t114.5 -346v-442q0 -121 -27.5 -225.5t-87 -181.5t-152.5 -120t-225 -43q-82 0 -166.5 13.5t-150.5 36.5q-27 8 -27 32v115q0 37 35 31q131 -23 269 -23q82 0 136 24.5t87 69.5t46 110t13 142v66q-53 -23 -127 -35 t-143 -12q-115 0 -196 28.5t-132 81t-74.5 126t-23.5 161.5zM328 965q0 -104 53 -159.5t184 -55.5q51 0 107.5 3t101.5 7v235q0 117 -47 187.5t-170 70.5q-121 0 -175 -64.5t-54 -182.5v-41z" />
<glyph unicode=":" horiz-adv-x="569" d="M145 231v23q0 31 31 31h207q31 0 31 -31v-223q0 -31 -31 -31h-162q-33 0 -47 41q-14 43 -21.5 96t-7.5 94zM145 825v224q0 31 31 30h162q33 0 47 -41q14 -43 21.5 -96t7.5 -94v-23q0 -31 -31 -30h-207q-31 0 -31 30z" />
<glyph unicode=";" horiz-adv-x="569" d="M104 -176q31 55 46.5 114.5t15.5 106.5q0 12 -2 32.5t-6 43.5t-8.5 47.5t-4.5 46.5v39q0 31 31 31h207q31 0 31 -31v-51q0 -96 -40 -219t-138 -238q-16 -16 -39 -2l-84 47q-18 10 -9 33zM145 825v224q0 31 31 30h162q33 0 47 -41q14 -43 21.5 -96t7.5 -94v-23 q0 -31 -31 -30h-207q-31 0 -31 30z" />
<glyph unicode="&#x3c;" horiz-adv-x="1277" d="M127 629v102q0 23 9 36t32 28q186 117 412.5 221t468.5 190q37 12 51 -16l45 -84q14 -31 -12 -43l-773 -383l773 -383q27 -12 12 -43l-45 -84q-14 -29 -51 -16q-242 86 -468.5 190.5t-412.5 220.5q-23 14 -32 27.5t-9 36.5z" />
<glyph unicode="=" horiz-adv-x="1277" d="M127 365v141q0 33 33 33h958q33 0 33 -33v-141q0 -31 -33 -31h-958q-33 0 -33 31zM127 852v141q0 33 33 33h958q33 0 33 -33v-141q0 -31 -33 -31h-958q-33 0 -33 31z" />
<glyph unicode="&#x3e;" horiz-adv-x="1277" d="M135 254q-16 31 12 43l773 383l-773 383q-29 12 -12 43l45 84q14 29 51 16q242 -86 468.5 -190.5t412.5 -220.5q23 -14 32 -27.5t9 -36.5v-102q0 -23 -9 -36t-32 -28q-186 -117 -412.5 -221t-468.5 -190q-37 -12 -51 16z" />
<glyph unicode="?" horiz-adv-x="1009" d="M92 1270v110q0 23 27 31q59 20 141 33.5t162 13.5q236 0 344 -99t108 -290q0 -104 -57 -199.5t-180 -201.5q-51 -45 -70.5 -100.5t-19.5 -125.5v-30q0 -33 -31 -33h-174q-33 0 -33 33v32q0 113 39 207t146 180q76 59 109.5 118t33.5 124q0 98 -63.5 144.5t-178.5 46.5 q-84 0 -149.5 -4.5t-128.5 -14.5q-25 -4 -25 25zM301 209v24q0 31 31 31h196q31 0 31 -31v-204q0 -29 -29 -29h-157q-37 0 -47 35q-10 31 -17.5 80t-7.5 94z" />
<glyph unicode="@" horiz-adv-x="1783" d="M117 588v88q0 195 52 348.5t149.5 261t236.5 164.5t315 57h78q166 0 298 -49t223.5 -137t139.5 -213t48 -274v-531q0 -41 -17.5 -65.5t-52.5 -40.5q-49 -23 -108.5 -39.5t-121 -27.5t-122.5 -17.5t-117 -6.5h-37q-313 0 -450 124t-137 368v70q0 98 28.5 180t84 141.5 t136 92t183.5 32.5q178 0 274 -89t96 -239v-507q55 6 106.5 17t98.5 28v522q0 129 -42 226t-116.5 161.5t-176 97.5t-218.5 33h-65q-287 0 -448 -174t-161 -531v-55q0 -172 45.5 -307t136.5 -229.5t229 -144.5t325 -50h67q104 0 218 16.5t218 47.5q31 10 31 -19v-74 q0 -25 -20 -32q-43 -18 -98.5 -34t-114 -27t-116.5 -16t-108 -5h-81q-233 0 -401.5 66.5t-277 183t-159.5 273.5t-51 335zM709 598q0 -164 86 -247t286 -83v498q0 162 -147 162q-100 0 -162.5 -64.5t-62.5 -214.5v-51z" />
<glyph unicode="A" horiz-adv-x="1302" d="M59 37l402 1354q6 23 18.5 33t36.5 10h270q25 0 37.5 -10.5t18.5 -32.5l401 -1354q2 -8 2 -15q0 -22 -26 -22h-193q-33 0 -39 25l-80 286h-512l-80 -286q-6 -25 -39 -25h-192q-27 0 -27 22q0 7 2 15zM453 516h397l-199 713z" />
<glyph unicode="B" horiz-adv-x="1310" d="M174 123v1184q0 47 14.5 71.5t51.5 34.5q86 23 185 34t216 11q266 0 385 -105.5t119 -297.5q0 -102 -40 -175t-118 -124q109 -43 163 -136.5t54 -213.5q0 -106 -27.5 -187.5t-90 -134.5t-162 -81t-240.5 -28q-123 0 -238.5 10t-205.5 33q-37 10 -51.5 35t-14.5 70z M424 199q59 -10 116.5 -14.5t123.5 -4.5q82 0 137 13.5t89 42t48 72.5t14 104q0 98 -50 160.5t-179 62.5h-299v-436zM424 840h233q133 0 187.5 51t54.5 151q0 117 -67.5 164t-221.5 47q-102 0 -186 -22v-391z" />
<glyph unicode="C" horiz-adv-x="1161" d="M117 676v80q0 162 31.5 292t102.5 221t183.5 140t276.5 49q98 0 180 -13t141 -32q27 -8 27 -31v-120q0 -33 -31 -27q-51 8 -126 13t-146 5q-109 0 -183.5 -31.5t-120.5 -94t-65.5 -159t-19.5 -225.5v-55q0 -129 20.5 -224t66.5 -157.5t120.5 -94.5t183.5 -32 q76 0 153.5 5t137.5 14q31 2 30 -27v-125q0 -23 -26 -31q-72 -18 -160 -29.5t-180 -11.5q-162 0 -275.5 49.5t-184.5 140.5t-103.5 220t-32.5 291z" />
<glyph unicode="D" horiz-adv-x="1361" d="M174 127v1180q0 47 14.5 71.5t51.5 34.5q78 23 175 34t206 11q180 0 300.5 -50t192.5 -143.5t101.5 -224.5t29.5 -290v-66q0 -160 -29.5 -291t-101.5 -224t-192.5 -143.5t-300.5 -50.5q-109 0 -206.5 11.5t-174.5 33.5q-37 10 -51.5 35t-14.5 72zM424 201 q39 -10 87 -15.5t101 -5.5q119 0 194 33t117 96.5t57 158.5t15 220v55q0 125 -15 221.5t-57 160t-117 96t-194 32.5q-53 0 -101 -5t-87 -15v-1032z" />
<glyph unicode="E" horiz-adv-x="1181" d="M174 272v889q0 82 16.5 139.5t55.5 92t104.5 50t165.5 15.5q129 0 256 -6t240 -18q31 -4 30 -35v-115q0 -31 -30 -31h-477q-61 0 -86 -30.5t-25 -89.5v-295h545q33 0 32 -33v-141q0 -31 -32 -31h-545v-332q0 -59 24.5 -90t86.5 -31h497q31 0 31 -30v-115q0 -33 -31 -35 q-117 -14 -251 -19.5t-265 -5.5q-100 0 -165.5 15.5t-104.5 50.5t-55.5 91t-16.5 140z" />
<glyph unicode="F" horiz-adv-x="1150" d="M174 29v1132q0 82 16.5 139.5t55.5 92t104.5 50t165.5 15.5q131 0 262 -7t254 -17q31 -4 31 -35v-115q0 -31 -31 -31h-497q-61 0 -86 -30.5t-25 -89.5v-312h545q33 0 32 -33v-141q0 -31 -32 -31h-545v-587q0 -29 -31 -29h-190q-29 0 -29 29z" />
<glyph unicode="G" horiz-adv-x="1361" d="M117 682v70q0 164 32.5 295t106.5 222t194.5 140t297.5 49q102 0 203.5 -12t183.5 -33q27 -6 26 -31v-120q0 -29 -33 -27q-78 8 -162.5 13t-174.5 5q-131 0 -214 -32.5t-129.5 -97t-63.5 -161t-17 -221.5v-51q0 -125 17 -220t63.5 -159.5t123 -97.5t197.5 -33 q49 0 102.5 4t87.5 15v407h-247q-31 0 -31 31v141q0 33 31 33h467q31 0 30 -33v-655q0 -88 -65 -103q-102 -23 -202.5 -34t-223.5 -11q-166 0 -279.5 51.5t-185.5 143.5t-103.5 222t-31.5 290z" />
<glyph unicode="H" horiz-adv-x="1388" d="M174 29v1374q0 31 29 31h190q31 0 31 -31v-563h541v563q0 31 30 31h191q29 0 28 -31v-1374q0 -29 -28 -29h-191q-31 0 -30 29v606h-541v-606q0 -29 -31 -29h-190q-29 0 -29 29z" />
<glyph unicode="I" horiz-adv-x="638" d="M195 31v1370q0 33 30 33h189q31 0 30 -33v-1370q0 -31 -30 -31h-189q-31 0 -30 31z" />
<glyph unicode="J" horiz-adv-x="917" d="M10 61v113q0 27 31 25q57 -8 132 -13.5t153 -5.5q55 0 87.5 17.5t51 51.5t24 83t5.5 112v959q0 31 28 31h191q31 0 30 -31v-979q0 -104 -16 -187t-55 -141.5t-103.5 -89.5t-162.5 -31q-104 0 -197.5 11.5t-171.5 36.5q-27 8 -27 38z" />
<glyph unicode="K" horiz-adv-x="1259" d="M174 31v1370q0 33 31 33h188q31 0 31 -33v-613l481 627q14 18 39 19h217q16 0 21.5 -11.5t-4.5 -23.5l-502 -656l559 -708q7 -7 7 -16q0 -3 -1 -7q-4 -12 -20 -12h-236q-27 0 -43 18l-518 680v-667q0 -31 -31 -31h-188q-31 0 -31 31z" />
<glyph unicode="L" horiz-adv-x="1099" d="M174 272v1131q0 31 29 31h190q31 0 31 -31v-1102q0 -59 22.5 -90t88.5 -31h518q31 0 30 -30v-115q0 -33 -34 -37q-113 -10 -250 -16.5t-283 -6.5q-100 0 -165.5 15.5t-104.5 50.5t-55.5 91t-16.5 140z" />
<glyph unicode="M" horiz-adv-x="1699" d="M174 29v1374q0 31 29 31h239q29 0 42.5 -10.5t23.5 -28.5l342 -731l342 731q10 18 23.5 28.5t41.5 10.5h240q29 0 29 -31v-1374q0 -29 -29 -29h-192q-29 0 -29 29v1032l-297 -635q-18 -39 -64 -39h-131q-45 0 -63 39l-297 635v-1032q0 -29 -29 -29h-192q-29 0 -29 29z " />
<glyph unicode="N" horiz-adv-x="1435" d="M174 29v1374q0 31 29 31h250q29 0 41 -9.5t22 -27.5l496 -1030v1038q0 29 28 29h193q29 0 29 -29v-1374q0 -31 -29 -31h-250q-29 0 -41 9t-22 28l-496 1030v-1038q0 -29 -29 -29h-192q-29 0 -29 29z" />
<glyph unicode="O" horiz-adv-x="1417" d="M117 682v70q0 346 142 526t450 180q307 0 449 -180t142 -526v-70q0 -346 -142 -526.5t-449 -180.5t-449.5 180.5t-142.5 526.5zM367 690q0 -268 81.5 -389t260.5 -121q178 0 260 121t82 389v53q0 268 -82 389t-260 121t-260 -120.5t-82 -389.5v-53z" />
<glyph unicode="P" horiz-adv-x="1253" d="M174 31v1278q0 45 14.5 69.5t51.5 34.5q82 23 189.5 34t211.5 11q516 0 516 -432v-88q0 -207 -123 -319.5t-377 -112.5q-117 0 -233 12v-487q0 -31 -33 -31h-186q-31 0 -31 31zM424 721q43 -4 93 -7t91 -3q88 0 145.5 15t91.5 46t48 77t14 109v48q0 66 -14 112.5 t-49 76.5t-92.5 44t-143.5 14q-47 0 -94 -5t-90 -15v-512z" />
<glyph unicode="Q" horiz-adv-x="1417" d="M117 682v70q0 346 142 526t450 180q307 0 449 -180t142 -526v-70q0 -219 -55 -370.5t-174 -237.5l184 -262q23 -37 -24 -37h-180q-39 0 -58 26l-133 189q-66 -14 -151 -15q-307 0 -449.5 180.5t-142.5 526.5zM367 690q0 -268 81.5 -389t260.5 -121q178 0 260 121t82 389 v53q0 268 -82 389t-260 121t-260 -120.5t-82 -389.5v-53z" />
<glyph unicode="R" horiz-adv-x="1310" d="M174 31v1278q0 43 14.5 68.5t51.5 35.5q86 23 192.5 34t214.5 11q137 0 233.5 -29.5t157 -85t88 -135.5t27.5 -180v-55q0 -143 -55.5 -241.5t-177.5 -145.5l294 -551q6 -9 6 -16q0 -5 -4 -9q-8 -10 -22 -10h-188q-45 0 -62 33l-262 510h-35q-59 0 -113.5 2t-109.5 6v-520 q0 -31 -31 -31h-188q-31 0 -31 31zM424 756q47 -4 98 -6t92 -2q86 0 141.5 15t88.5 45t46 74t13 101v35q0 59 -13 103t-46 74t-89.5 44t-140.5 14q-53 0 -102 -5t-88 -15v-477z" />
<glyph unicode="S" horiz-adv-x="1126" d="M109 1090q0 184 107.5 276t342.5 92q86 0 187.5 -12t185.5 -33q29 -6 29 -31v-120q0 -31 -35 -29q-78 10 -165 15t-165 5q-125 0 -181.5 -38.5t-56.5 -131.5q0 -68 37 -115.5t117 -84.5l274 -123q240 -109 240 -391q0 -92 -24.5 -165t-81 -123t-147.5 -78t-222 -28 q-106 0 -214 11.5t-196 31.5q-29 6 -28 31v123q0 31 34 29q92 -10 186.5 -15.5t190.5 -5.5q135 0 194.5 46t59.5 141q0 78 -34.5 128t-118.5 89l-279 127q-123 57 -180 151t-57 228z" />
<glyph unicode="T" horiz-adv-x="1093" d="M29 1260v141q0 33 32 33h971q33 0 33 -33v-141q0 -31 -33 -31h-360v-1198q0 -31 -33 -31h-184q-33 0 -33 31v1198h-361q-33 0 -32 31z" />
<glyph unicode="U" horiz-adv-x="1421" d="M174 668v735q0 31 29 31h190q31 0 31 -31v-727q0 -121 13.5 -213t46 -155.5t88 -95.5t139.5 -32t139 32t88 95.5t46 155.5t13 213v727q0 31 31 31h191q29 0 28 -31v-735q0 -170 -25.5 -299t-87 -217.5t-164.5 -132.5t-259 -44q-158 0 -261.5 44t-165 132.5t-86 217.5 t-24.5 299z" />
<glyph unicode="V" horiz-adv-x="1302" d="M59 1397q-2 8 -2 15q0 22 27 22h192q33 0 39 -25l336 -1204l336 1204q6 25 39 25h193q27 0 27 -21q0 -7 -3 -16l-401 -1354q-6 -23 -18.5 -33t-37.5 -10h-270q-25 0 -37 10t-18 33z" />
<glyph unicode="W" horiz-adv-x="1880" d="M41 1393q-2 9 -2 16q0 25 27 25h174q35 0 41 -33l258 -1196l233 1192q6 37 47 37h242q41 0 47 -37l233 -1192l258 1196q6 33 41 33h175q27 0 27 -24q0 -7 -3 -17l-313 -1350q-8 -43 -56 -43h-268q-27 0 -38 9t-15 32l-209 1079l-209 -1079q-4 -23 -15 -32t-38 -9h-268 q-47 0 -56 43z" />
<glyph unicode="X" horiz-adv-x="1228" d="M42 14q-2 4 -2 9q0 10 7 20l430 692l-407 658q-10 16 -5 28.5t27 12.5h197q31 0 47 -29l278 -449l279 449q16 29 47 29h197q23 0 27.5 -12.5t-5.5 -28.5l-407 -658l430 -692q7 -11 7 -20q0 -5 -2 -9q-5 -14 -28 -14h-194q-33 0 -47 27l-304 487l-303 -487 q-14 -27 -47 -27h-194q-23 0 -28 14z" />
<glyph unicode="Y" horiz-adv-x="1241" d="M41 1419q4 15 25 15h184q31 0 45 -31l326 -662l325 662q14 31 45 31h185q20 0 24 -14q1 -5 1 -9q0 -12 -7 -27l-449 -888v-465q0 -31 -30 -31h-187q-33 0 -32 31v465l-449 888q-7 14 -7 26q0 5 1 9z" />
<glyph unicode="Z" horiz-adv-x="1189" d="M84 51v139q0 29 5 50.5t22 44.5l714 944h-667q-33 0 -33 31v141q0 33 33 33h878q27 0 39 -25t12 -53v-113q0 -29 -5 -50.5t-21 -43.5l-717 -944h729q33 0 33 -33v-141q0 -31 -33 -31h-938q-51 0 -51 51z" />
<glyph unicode="[" horiz-adv-x="841" d="M236 -293v1823q0 31 28 31h148q86 0 185 -5.5t175 -17.5q33 -6 33 -35v-114q0 -29 -29 -29h-291v-1483h291q29 0 29 -29v-114q0 -29 -33 -35q-76 -12 -175 -17.5t-185 -5.5h-148q-29 0 -28 31z" />
<glyph unicode="\" horiz-adv-x="1056" d="M-19 1518.5q5 15.5 27 15.5h176q31 0 43 -27l844 -1683q10 -18 5 -33.5t-27 -15.5h-177q-31 0 -43 26l-843 1684q-10 18 -5 33.5z" />
<glyph unicode="]" horiz-adv-x="841" d="M37 -152q0 29 29 29h290v1483h-290q-29 0 -29 29v114q0 29 33 35q76 12 175 17.5t185 5.5h148q29 0 28 -31v-1823q0 -31 -28 -31h-148q-86 0 -185.5 5.5t-174.5 17.5q-33 6 -33 35v114z" />
<glyph unicode="^" horiz-adv-x="1187" d="M109 836q72 147 164 296.5t186 270.5q10 12 25.5 21.5t37.5 9.5h144q41 0 63 -31q92 -123 185.5 -271.5t164.5 -295.5q16 -35 -12 -48l-78 -36q-39 -20 -59 12l-336 489l-336 -489q-20 -33 -59 -12l-78 36q-29 12 -12 48z" />
<glyph unicode="_" horiz-adv-x="1024" d="M0 -238q0 29 29 29h966q29 0 29 -29v-81q0 -29 -29 -29h-966q-29 0 -29 29v81z" />
<glyph unicode="`" horiz-adv-x="860" d="M219 1418.5q0 11.5 10 17.5l113 73q29 18 49 -6l240 -274q20 -20 -2 -35l-74 -47q-21 -14 -41 0q-78 51 -148.5 114.5t-136.5 135.5q-10 10 -10 21.5z" />
<glyph unicode="a" horiz-adv-x="1183" d="M94 317q0 166 100.5 250t282.5 84q90 0 175 -16.5t151 -44.5v43q0 72 -12.5 120t-47 77.5t-97 42t-163.5 12.5q-70 0 -137 -4t-115 -15q-35 -6 -34 25v102q0 33 32 43q47 16 129 28.5t174 12.5q141 0 238.5 -22.5t158 -72.5t86 -128t25.5 -188v-539q0 -84 -59 -98 q-82 -23 -194.5 -34t-221.5 -11q-131 0 -221 19.5t-145.5 61t-80 104t-24.5 148.5zM332 317q0 -39 12 -65.5t42 -44t82 -24.5t132 -7q49 0 101.5 4t101.5 15v247q-98 18 -238 19q-68 0 -112.5 -8.5t-71.5 -25.5t-38 -44t-11 -66z" />
<glyph unicode="b" horiz-adv-x="1212" d="M154 127v1337q0 31 28 31h178q31 0 31 -31v-438q53 25 128 38t151 13q104 0 188 -35.5t142.5 -100t89 -154t30.5 -197.5v-80q0 -115 -31.5 -211t-100 -167t-175 -109.5t-256.5 -38.5q-92 0 -182 12t-162 35q-31 10 -45 31.5t-14 64.5zM391 195q70 -18 164 -19 q162 0 245 91t83 257v51q0 166 -78 238t-232 72q-47 0 -96 -3t-86 -8v-679z" />
<glyph unicode="c" horiz-adv-x="1036" d="M92 489v80q0 115 31 208t95.5 160t162.5 103.5t233 36.5q86 0 166 -12t127 -29q33 -10 33 -43v-102q0 -31 -35 -25q-47 10 -112.5 14.5t-135.5 4.5q-174 0 -250.5 -81t-76.5 -247v-55q0 -164 77.5 -245t256.5 -81q70 0 138 5t116 14q35 6 34 -25v-102q0 -33 -32 -43 q-47 -16 -128 -28.5t-167 -12.5q-141 0 -241.5 35.5t-165 102t-95.5 160t-31 207.5z" />
<glyph unicode="d" horiz-adv-x="1212" d="M92 510v80q0 109 31 198t89 153.5t142.5 100t188.5 35.5q76 0 150.5 -13t127.5 -38v438q0 31 31 31h178q29 0 29 -31v-1337q0 -43 -14.5 -64.5t-45.5 -31.5q-72 -23 -161.5 -35t-182.5 -12q-150 0 -256 38.5t-174.5 109.5t-100.5 167t-32 211zM330 524q0 -166 83 -257 t244 -91q92 0 164 19v679q-37 4 -86 7.5t-96 3.5q-154 0 -231.5 -72t-77.5 -238v-51z" />
<glyph unicode="e" horiz-adv-x="1150" d="M92 514v53q0 246 127 378t375 132q117 0 204 -30.5t145 -87t87 -136.5t29 -176q0 -237 -289 -237h-2h-432q8 -66 34.5 -111t70.5 -72.5t103.5 -39t133.5 -11.5q76 0 147.5 5t124.5 14q35 6 35 -25v-102q0 -33 -33 -43q-59 -18 -142 -29.5t-169 -11.5q-147 0 -251.5 34.5 t-170 102t-96.5 166t-31 227.5zM330 602h422q70 0 69 62q0 106 -57 163.5t-174 57.5q-115 0 -185.5 -63.5t-74.5 -219.5z" />
<glyph unicode="f" horiz-adv-x="804" d="M16 901v127q0 33 33 33h164v88q0 84 15.5 150.5t53 113.5t101 72.5t162.5 25.5q53 0 103 -8t89 -22q33 -10 33 -45v-99q0 -29 -35 -26q-27 4 -64.5 6t-80.5 2q-80 0 -109.5 -37t-29.5 -117v-104h284q33 0 33 -33v-127q0 -33 -33 -33h-284v-837q0 -31 -33 -31h-174 q-31 0 -31 31v837h-164q-33 0 -33 33z" />
<glyph unicode="g" horiz-adv-x="1212" d="M92 487v64q0 115 32 211t100.5 166.5t175 109.5t255.5 39q92 0 182.5 -12t161.5 -35q31 -10 45.5 -31.5t14.5 -64.5v-938q0 -104 -24.5 -181t-81 -127t-145.5 -74t-218 -24q-80 0 -173 9.5t-169 31.5q-33 10 -33 43v105q0 31 35 24q61 -10 137 -15t160 -5q82 0 135 13.5 t84 41t43 69.5t12 99v45q-53 -25 -128 -38t-150 -13q-104 0 -188.5 36t-142.5 100.5t-89 153.5t-31 197zM330 502q0 -166 77.5 -237.5t231.5 -71.5q47 0 96 3t86 7v663q-72 18 -164 19q-162 0 -244.5 -91.5t-82.5 -256.5v-35z" />
<glyph unicode="h" horiz-adv-x="1228" d="M154 31v1431q0 33 30 33h174q33 0 33 -33v-436q59 23 137 37t158 14q92 0 166 -21.5t126 -70.5t79.5 -128t27.5 -195v-631q0 -31 -30 -31h-174q-33 0 -33 31v614q0 129 -55.5 184.5t-194.5 55.5q-53 0 -106.5 -2t-100.5 -9v-843q0 -31 -33 -31h-174q-31 0 -30 31z" />
<glyph unicode="i" horiz-adv-x="585" d="M174 31v997q0 33 31 33h174q33 0 33 -33v-997q0 -31 -33 -31h-174q-31 0 -31 31zM174 1249v183q0 32 29 32h2h186q31 0 31 -32v-11q0 -33 -8 -82t-23 -84q-14 -38 -53 -38h-2h-131q-31 0 -31 32z" />
<glyph unicode="j" horiz-adv-x="612" d="M-76 -236q0 31 29 27t59.5 -6t59.5 -2q78 0 103.5 36t25.5 109v1100q0 33 32 33h175q31 0 30 -33v-1079q0 -72 -10 -137.5t-41 -114.5t-88 -78t-154 -29q-47 0 -95 6.5t-93 22.5q-33 10 -33 45v100zM201 1249v183q0 32 28 32h2h187q31 0 31 -32v-11q0 -33 -8.5 -82 t-22.5 -84q-14 -38 -54 -38h-2h-131q-31 0 -30 32z" />
<glyph unicode="k" horiz-adv-x="1130" d="M154 31v1431q0 33 30 33h174q33 0 33 -33v-864l395 442q16 20 43 21h199q23 0 27 -13.5t-11 -29.5l-409 -459l467 -514q12 -13 12 -25q0 -4 -1 -6q-3 -14 -26 -14h-227q-25 0 -43 20l-426 496v-485q0 -31 -33 -31h-174q-31 0 -30 31z" />
<glyph unicode="l" horiz-adv-x="686" d="M174 295v1167q0 33 31 33h174q33 0 33 -33v-1143q0 -76 27.5 -109.5t105.5 -33.5q23 0 49.5 2t42.5 6q33 6 33 -26v-109q0 -29 -33 -37q-41 -12 -90 -20t-90 -8q-78 0 -132.5 22.5t-88 64.5t-48 99t-14.5 125z" />
<glyph unicode="m" horiz-adv-x="1716" d="M154 31v901q0 43 14 65.5t45 32.5q84 25 177 36t183 11q92 0 164 -20.5t121 -55.5q70 35 156 55.5t178 20.5q186 0 283.5 -85t97.5 -265v-696q0 -31 -33 -31h-174q-31 0 -31 31v665q0 104 -42 146.5t-134 42.5q-49 0 -99 -8.5t-97 -24.5q18 -61 18 -129v-692 q0 -31 -31 -31h-174q-33 0 -33 31v667q0 104 -43 145.5t-139 41.5q-45 0 -87 -4t-83 -15v-835q0 -31 -33 -31h-174q-31 0 -30 31z" />
<glyph unicode="n" horiz-adv-x="1228" d="M154 31v901q0 43 14 65.5t45 32.5q86 25 190.5 36t214.5 11q250 0 358.5 -98t108.5 -317v-631q0 -31 -30 -31h-174q-33 0 -33 31v616q0 131 -54.5 184.5t-195.5 53.5q-55 0 -105.5 -4t-101.5 -15v-835q0 -31 -33 -31h-174q-31 0 -30 31z" />
<glyph unicode="o" horiz-adv-x="1179" d="M92 496v69q0 256 130 384t368 128t367.5 -128t129.5 -384v-69q0 -256 -130 -384t-367 -128q-238 0 -368 128t-130 384zM330 504q0 -160 58 -244t202 -84q143 0 201.5 84t58.5 244v53q0 160 -58.5 244t-201.5 84t-201.5 -84t-58.5 -244v-53z" />
<glyph unicode="p" horiz-adv-x="1212" d="M154 -365v1299q0 43 14 64.5t45 31.5q72 23 162 35t182 12q150 0 256.5 -39t175 -109.5t100 -166.5t31.5 -211v-80q0 -109 -30.5 -198t-89 -153.5t-142.5 -100t-188 -35.5q-76 0 -151 13t-128 38v-400q0 -30 -29 -30h-2h-178q-29 0 -28 30zM391 186q37 -4 86 -7t96 -3 q154 0 232 71.5t78 237.5v52q0 166 -83 257t-245 91q-94 0 -164 -19v-680z" />
<glyph unicode="q" horiz-adv-x="1212" d="M92 471v80q0 115 32 211t100.5 166.5t175 109.5t255.5 39q92 0 182.5 -12t161.5 -35q31 -10 45.5 -31.5t14.5 -64.5v-1299q0 -30 -27 -30h-2h-178q-31 0 -31 30v400q-53 -25 -127.5 -38t-150.5 -13q-104 0 -188.5 35.5t-142.5 100t-89 153.5t-31 198zM330 485 q0 -166 77.5 -237.5t231.5 -71.5q47 0 96 3t86 7v680q-72 18 -164 19q-162 0 -244.5 -91.5t-82.5 -256.5v-52z" />
<glyph unicode="r" horiz-adv-x="843" d="M154 31v901q0 43 14 65.5t45 32.5q78 23 172 35t195 12q51 0 105 -4t93 -8q18 -2 24.5 -10t6.5 -25v-135q0 -35 -39 -29q-96 18 -178 19q-102 0 -201 -19v-835q0 -31 -33 -31h-174q-31 0 -30 31z" />
<glyph unicode="s" horiz-adv-x="985" d="M102 57v113q0 27 33 25q74 -10 166 -15.5t176 -5.5q178 0 178 117q0 45 -30.5 75.5t-87.5 53.5l-191 76q-113 45 -178.5 113.5t-65.5 176.5q0 154 104.5 222.5t276.5 68.5q86 0 169 -10t155 -33q27 -8 27 -33v-110q0 -33 -35 -27q-59 10 -138 15.5t-153 5.5 q-86 0 -127 -20.5t-41 -82.5q0 -45 30.5 -69.5t88.5 -46.5l194 -78q113 -45 176.5 -121t63.5 -182q0 -147 -107.5 -224t-281.5 -77q-98 0 -195.5 10t-179.5 31q-27 6 -27 32z" />
<glyph unicode="t" horiz-adv-x="882" d="M45 901v127q0 33 33 33h172v250q0 32 29 32h2h174q33 0 32 -32v-250h275q33 0 33 -33v-127q0 -33 -33 -33h-275v-530q0 -84 30 -123t120 -39q41 0 79 2t66 6q29 4 29 -24v-113q0 -27 -27 -35q-39 -14 -93 -21t-111 -7q-176 0 -253 91t-77 249v544h-172q-33 0 -33 33z" />
<glyph unicode="u" horiz-adv-x="1239" d="M154 399v631q0 31 30 31h174q33 0 33 -31v-616q0 -131 54.5 -184.5t195.5 -53.5q55 0 105.5 4t101.5 15v835q0 31 33 31h174q31 0 30 -31v-901q0 -43 -14 -65.5t-45 -32.5q-86 -25 -190.5 -36t-214.5 -11q-250 0 -358.5 98t-108.5 317z" />
<glyph unicode="v" horiz-adv-x="1114" d="M47 1020q-4 11 -4 19q0 22 29 22h174q33 0 41 -27l270 -809l270 809q8 27 41 27h174q29 0 29 -22q0 -8 -4 -19l-324 -975q-8 -23 -21 -34t-42 -11h-246q-29 0 -42 11.5t-21 33.5z" />
<glyph unicode="w" horiz-adv-x="1601" d="M45 1024q-2 6 -2 12q0 8 4 14q6 10 23 11h170q31 0 36 -27l179 -815l202 803q10 39 50 39h188q39 0 49 -39l203 -803l178 815q6 27 37 27h170q16 -1 22 -11q4 -6 4 -13q0 -6 -2 -13l-243 -979q-10 -45 -60 -45h-215q-47 0 -59 45l-178 741l-178 -741q-12 -45 -60 -45 h-215q-49 0 -59 45z" />
<glyph unicode="x" horiz-adv-x="1112" d="M35 14q-1 4 -1 7q0 9 7 18l379 516l-340 465q-10 12 -6 26.5t24 14.5h191q18 0 29.5 -6t21.5 -21l215 -295l217 295q10 14 21.5 20.5t29.5 6.5h191q20 0 24 -14.5t-6 -26.5l-342 -465l381 -516q7 -9 7 -18q0 -3 -1 -7q-4 -14 -24 -14h-191q-33 0 -51 25l-256 346 l-254 -346q-18 -25 -51 -25h-191q-20 0 -24 14z" />
<glyph unicode="y" horiz-adv-x="1239" d="M154 414v614q0 33 30 33h174q33 0 33 -33v-596q0 -127 55.5 -183t194.5 -56q49 0 103.5 2t103.5 8v825q0 33 33 33h174q31 0 30 -33v-1032q0 -104 -24.5 -181t-80.5 -127t-146.5 -74t-221.5 -24q-80 0 -172 10.5t-168 32.5q-29 10 -28 33v113q0 31 32 24 q63 -10 139.5 -15t159.5 -5q80 0 133.5 13.5t84 41t43 69.5t12.5 97v45q-59 -23 -137 -36t-158 -13q-92 0 -166 21.5t-126 70.5t-79.5 128t-27.5 194z" />
<glyph unicode="z" horiz-adv-x="1036" d="M92 53v105q0 49 12.5 81.5t42.5 65.5l539 563h-534q-33 0 -33 33v127q0 33 33 33h716q53 0 54 -53v-103q0 -49 -12.5 -81.5t-43.5 -65.5l-540 -565h585q33 0 33 -31v-131q0 -31 -33 -31h-766q-53 0 -53 53z" />
<glyph unicode="{" horiz-adv-x="997" d="M158 580v77q0 18 10 26.5t27 10.5q98 10 130.5 67.5t32.5 145.5v217q0 113 32 196t86 136t129 79t161 26q49 0 97 -7.5t83 -23.5q16 -8 17 -31v-90q0 -29 -31 -29h-88q-111 0 -172.5 -52t-61.5 -171v-201q0 -135 -50 -222t-165 -116q115 -29 165 -115.5t50 -221.5v-201 q0 -119 61.5 -171t172.5 -52h88q31 0 31 -29v-90q0 -23 -17 -31q-35 -16 -83 -23.5t-97 -7.5q-86 0 -161 26t-129 79t-86 135t-32 197v217q0 88 -32.5 145t-130.5 68q-16 2 -26.5 10t-10.5 27z" />
<glyph unicode="|" horiz-adv-x="614" d="M205 -377v1919q0 33 31 33h143q31 0 31 -33v-1919q0 -33 -31 -33h-143q-31 0 -31 33z" />
<glyph unicode="}" horiz-adv-x="997" d="M35 -172q0 29 31 29h88q111 0 172 52t61 171v201q0 135 50 222t165 115q-115 29 -165 116t-50 222v201q0 119 -61.5 171t-171.5 52h-88q-31 0 -31 29v90q0 23 16 31q35 16 83 23.5t97 7.5q86 0 161 -26t129 -79t86 -136t32 -196v-217q0 -88 33 -145t131 -68 q16 -2 26.5 -10t10.5 -27v-77q0 -18 -10.5 -26.5t-26.5 -10.5q-98 -10 -131 -67.5t-33 -145.5v-217q0 -115 -32 -197t-86 -135t-129 -79t-161 -26q-49 0 -97 7.5t-83 23.5q-16 8 -16 31v90z" />
<glyph unicode="~" horiz-adv-x="1277" d="M106 602q0 152 77 222.5t202 70.5q86 0 156.5 -33t142.5 -92q72 -61 111.5 -83.5t78.5 -22.5q47 0 70 33.5t23 119.5v37q0 29 28 29h127q23 0 33 -25q16 -45 16 -104q0 -152 -76.5 -222.5t-201.5 -70.5q-86 0 -156.5 32.5t-142.5 92.5q-72 61 -112 83.5t-79 22.5 q-47 0 -69.5 -33.5t-22.5 -119.5v-37q0 -29 -28 -29h-127q-25 0 -33 25q-16 45 -17 104z" />
<glyph unicode="&#xa1;" horiz-adv-x="557" d="M150 -6l32 651q2 37 35 37h121q18 0 25.5 -9t9.5 -28l33 -651v-334q0 -33 -31 -33h-195q-31 0 -30 33v334zM150 827v205q0 29 28 29h158q37 0 47 -35q10 -31 17.5 -80t7.5 -94v-25q0 -31 -31 -30h-197q-31 0 -30 30z" />
<glyph unicode="&#xa2;" horiz-adv-x="1036" d="M92 489v80q0 106 26.5 194.5t82 154t140.5 105.5t202 50v154q0 35 32 35h70q33 0 33 -35v-152q68 -4 129 -14t100 -25q33 -10 33 -43v-102q0 -31 -35 -25q-45 8 -104.5 12.5t-122.5 6.5v-709q66 0 130 5t110 14q35 6 34 -25v-102q0 -33 -32 -43q-41 -16 -105.5 -25.5 t-136.5 -13.5v-152q0 -35 -33 -35h-70q-33 0 -32 35v154q-238 20 -344.5 154t-106.5 347zM330 502q0 -135 50 -212t163 -102v684q-113 -25 -163 -102.5t-50 -212.5v-55z" />
<glyph unicode="&#xa3;" horiz-adv-x="1208" d="M72 698v90q0 33 32 33h132v68q0 143 20 250.5t71.5 178.5t140.5 105.5t228 34.5h9q78 0 166.5 -11t154.5 -34q27 -8 27 -31v-120q0 -29 -31 -27q-61 8 -132 13t-138 5h-19q-135 0 -191.5 -64.5t-56.5 -193.5v-174h365q33 0 33 -33v-90q0 -31 -33 -30h-365v-146 q0 -90 -23.5 -169t-82.5 -148h741q33 0 33 -33v-141q0 -31 -33 -31h-1001q-33 0 -33 31v104q0 37 18 58q63 72 97.5 139t34.5 160v176h-132q-33 0 -32 30z" />
<glyph unicode="&#xa4;" horiz-adv-x="1462" d="M172 276l158 160q-29 51 -45.5 111.5t-16.5 128.5t16.5 128t45.5 111l-158 160q-18 20 2 45l107 109q23 23 45 0l155 -160q109 68 250 68t250 -68l156 160q23 23 45 0l106 -109q20 -25 2 -45l-157 -160q29 -51 45 -111.5t16 -127.5q0 -68 -16.5 -128.5t-44.5 -111.5 l157 -160q18 -20 -2 -45l-106 -108q-23 -23 -45 0l-156 160q-109 -68 -250 -68t-250 68l-155 -160q-23 -23 -45 0l-107 108q-20 25 -2 45zM487 676q0 -125 68 -195.5t176 -70.5q109 0 176.5 70.5t67.5 195.5t-67.5 195.5t-176.5 70.5t-176.5 -70.5t-67.5 -195.5z" />
<glyph unicode="&#xa5;" horiz-adv-x="1179" d="M41 1395q-6 14 0 26.5t27 12.5h182q29 0 45 -29l295 -666l295 666q16 29 45 29h182q20 0 26.5 -12.5t0.5 -26.5l-365 -779h264q31 0 31 -30v-62q0 -31 -31 -30h-321v-111h321q31 0 31 -33v-57q0 -33 -31 -33h-321v-229q0 -31 -33 -31h-188q-33 0 -33 31v229h-322 q-31 0 -30 33v57q0 33 30 33h322v111h-322q-31 0 -30 30v62q0 31 30 30h265z" />
<glyph unicode="&#xa6;" horiz-adv-x="614" d="M205 -172v590q0 33 31 33h143q31 0 31 -33v-590q0 -33 -31 -33h-143q-31 0 -31 33zM205 786v590q0 33 31 33h143q31 0 31 -33v-590q0 -33 -31 -32h-143q-31 0 -31 32z" />
<glyph unicode="&#xa7;" horiz-adv-x="1046" d="M115 -39q0 33 35 27q59 -10 140 -15.5t171 -5.5q129 0 181 25.5t52 91.5q0 86 -110 139l-230 109q-106 51 -172.5 117.5t-66.5 179.5q0 86 53 158.5t164 119.5q-94 47 -153.5 109.5t-59.5 165.5q0 82 30.5 139t86 92t130 51.5t162.5 16.5q86 0 169 -10.5t155 -32.5 q27 -8 27 -33v-111q0 -33 -35 -26q-59 10 -138 15t-153 5q-98 0 -147.5 -22.5t-49.5 -81.5q0 -45 31 -69.5t84 -51.5l223 -109q55 -27 100.5 -56.5t78 -64t50 -78.5t17.5 -100q0 -86 -53 -156.5t-158 -119.5q92 -49 149.5 -119t57.5 -172q0 -80 -33 -139.5t-92 -98 t-142.5 -57t-183.5 -18.5q-102 0 -187 10t-157 33q-27 8 -26 32v111zM352 633q0 -59 55.5 -97t147.5 -77q84 39 115.5 89t31.5 103t-53 96.5t-141 77.5q-86 -39 -121 -91t-35 -101z" />
<glyph unicode="&#xa8;" horiz-adv-x="860" d="M94 1235v12q0 29 7.5 78t23.5 88q14 35 49 35h137q31 0 31 -33v-180q0 -33 -31 -33h-186q-31 0 -31 33zM518 1235v180q0 33 31 33h186q31 0 31 -33v-12q0 -29 -7 -78t-24 -88q-14 -35 -49 -35h-137q-31 0 -31 33z" />
<glyph unicode="&#xa9;" horiz-adv-x="1699" d="M109 717q0 154 58 289t158.5 235t235.5 158.5t289 58.5t289 -58.5t235.5 -158.5t158.5 -235.5t58 -288.5q0 -154 -58 -289t-158.5 -235.5t-235.5 -159t-289 -58.5t-289 58.5t-235.5 159t-158.5 235.5t-58 289zM223 717q0 -133 49.5 -249t134.5 -202t199.5 -135t243.5 -49 t243.5 49t199.5 135t134.5 202t49.5 249q0 131 -49.5 246.5t-134.5 201.5t-199.5 136.5t-243.5 50.5t-243.5 -50.5t-199.5 -136.5t-134.5 -201.5t-49.5 -246.5zM449 684v64q0 92 24.5 167.5t76.5 129t132 83t192 29.5q61 0 123 -11t109 -28q27 -10 27 -28v-80q0 -27 -25 -23 q-53 8 -101.5 11t-101.5 3q-141 0 -202.5 -65.5t-61.5 -196.5v-45q0 -133 63.5 -198.5t204.5 -65.5q53 0 102.5 3t104.5 11q27 2 27 -22v-80q0 -18 -27 -29q-51 -18 -114.5 -28.5t-122.5 -10.5q-113 0 -194 30t-133 83t-77.5 129t-25.5 168z" />
<glyph unicode="&#xaa;" horiz-adv-x="901" d="M92 915q0 121 72 179.5t198 58.5q59 0 117 -9t103 -26v19q0 49 -9.5 81.5t-34 52t-65.5 27t-102 7.5q-47 0 -96.5 -4.5t-90.5 -12.5q-25 -4 -24 25v71q0 23 22 31q43 14 108.5 24.5t127.5 10.5q188 0 267 -70.5t79 -222.5v-371q0 -63 -49 -75q-59 -16 -137 -25.5 t-154 -9.5q-184 0 -258 57.5t-74 181.5zM274 913q0 -53 37 -72.5t117 -19.5q82 0 154 13v159q-66 12 -152 13q-82 0 -119 -19.5t-37 -73.5z" />
<glyph unicode="&#xab;" horiz-adv-x="1124" d="M137 598v74q0 20 21 41q74 74 166 144.5t188 133.5q29 18 43 -6l33 -51q12 -20 -4 -37l-303 -262l303 -262q16 -16 4 -37l-33 -51q-14 -25 -43 -6q-96 63 -188.5 133.5t-165.5 144.5q-20 20 -21 41zM553 598v74q0 20 20 41q74 74 166 144.5t189 133.5q29 18 43 -6l33 -51 q12 -20 -5 -37l-303 -262l303 -262q16 -16 5 -37l-33 -51q-14 -25 -43 -6q-96 63 -188.5 133.5t-166.5 144.5q-20 20 -20 41z" />
<glyph unicode="&#xac;" horiz-adv-x="1277" d="M115 743v140q0 33 32 32h963q31 0 31 -32v-525q0 -31 -31 -30h-188q-31 0 -31 30v353h-744q-33 0 -32 32z" />
<glyph unicode="&#xad;" horiz-adv-x="880" d="M127 598v158q0 33 33 32h561q33 0 33 -32v-158q0 -31 -33 -31h-561q-33 0 -33 31z" />
<glyph unicode="&#xae;" horiz-adv-x="1699" d="M109 717q0 154 58 289t158.5 235t235.5 158.5t289 58.5t289 -58.5t235.5 -158.5t158.5 -235.5t58 -288.5q0 -154 -58 -289t-158.5 -235.5t-235.5 -159t-289 -58.5t-289 58.5t-235.5 159t-158.5 235.5t-58 289zM223 717q0 -133 49.5 -249t134.5 -202t199.5 -135t243.5 -49 t243.5 49t199.5 135t134.5 202t49.5 249q0 131 -49.5 246.5t-134.5 201.5t-199.5 136.5t-243.5 50.5t-243.5 -50.5t-199.5 -136.5t-134.5 -201.5t-49.5 -246.5zM543 315v746q0 31 10 47t39 25q55 16 119.5 21t134.5 5q172 0 250 -65.5t78 -192.5v-39q0 -170 -142 -231 l176 -309q20 -35 -22 -35h-115q-16 0 -27.5 6t-21.5 24l-158 285q-33 0 -68.5 2t-72.5 6v-295q0 -29 -29 -28h-123q-29 0 -28 28zM723 745q29 -4 56.5 -5t45.5 -1q98 0 134 35t36 100v15q0 70 -35.5 101.5t-134.5 31.5q-25 0 -51 -2t-51 -8v-267z" />
<glyph unicode="&#xaf;" horiz-adv-x="860" d="M115 1272v110q0 31 30 31h570q31 0 30 -31v-110q0 -31 -30 -31h-570q-31 0 -30 31z" />
<glyph unicode="&#xb0;" horiz-adv-x="860" d="M147 1167q0 76 21.5 131.5t60.5 91t90.5 52t110.5 16.5t110.5 -16.5t90.5 -52t60.5 -91t21.5 -131.5q0 -78 -21.5 -132t-60.5 -90t-90.5 -52t-110.5 -16t-110.5 16t-90.5 52t-60.5 90t-21.5 132zM303 1167q0 -80 35 -114.5t92 -34.5t92 34.5t35 114.5t-35 115t-92 35 t-92 -35t-35 -115z" />
<glyph unicode="&#xb1;" horiz-adv-x="1277" d="M127 68v141q0 33 33 33h958q33 0 33 -33v-141q0 -31 -33 -31h-958q-33 0 -33 31zM127 750v141q0 33 33 33h354v362q0 33 31 33h188q31 0 31 -33v-362h354q33 0 33 -33v-141q0 -31 -33 -31h-354v-363q0 -31 -31 -30h-188q-31 0 -31 30v363h-354q-33 0 -33 31z" />
<glyph unicode="&#xb2;" horiz-adv-x="827" d="M78 510v98q0 102 47 174t160 140q59 35 103 63.5t74 57t45 60.5t15 73q0 61 -39 87.5t-133 26.5q-109 0 -203 -16q-27 -4 -26 29v83q0 27 29 35q45 12 107 20.5t116 8.5q96 0 161.5 -17.5t105.5 -52t57.5 -88t17.5 -123.5q0 -92 -44 -165.5t-143 -131.5 q-78 -45 -127 -76.5t-77.5 -57t-40 -47t-11.5 -46.5h416q27 0 27 -24v-111q0 -25 -27 -25h-582q-29 0 -28 25z" />
<glyph unicode="&#xb3;" horiz-adv-x="827" d="M72 528v84q-1 29 30 27q49 -8 101.5 -11t105.5 -3q104 0 156.5 32.5t52.5 104.5q0 76 -42 104.5t-134 28.5h-186q-27 0 -27 25v110q0 25 27 25h172q92 0 135 25.5t43 90.5q0 66 -42 92.5t-130 26.5q-53 0 -107.5 -4t-97.5 -10q-31 -4 -31 27v83q0 27 29 35 q45 14 105.5 21.5t123.5 7.5q72 0 134.5 -15.5t108.5 -48t72.5 -85t26.5 -123.5q0 -57 -24.5 -108.5t-87.5 -90.5q70 -39 97.5 -95.5t27.5 -123.5q0 -135 -94.5 -213t-280.5 -78h-29q-55 0 -110.5 7t-96.5 18q-29 8 -28 34z" />
<glyph unicode="&#xb4;" horiz-adv-x="860" d="M229 1229l240 274q20 25 49 6l113 -73q10 -6 10 -17.5t-10 -21.5q-66 -72 -136.5 -135.5t-148.5 -114.5q-20 -14 -41 0l-74 47q-23 14 -2 35z" />
<glyph unicode="&#xb5;" horiz-adv-x="1239" d="M154 -362v1392q0 31 28 31h178q31 0 31 -33v-618q2 -129 69.5 -181.5t198.5 -52.5q47 0 96.5 5t92.5 16v831q0 33 33 33h174q31 0 30 -33v-901q0 -43 -14 -64.5t-45 -31.5q-68 -25 -150.5 -36t-175.5 -11q-92 0 -174 14t-135 53v-413q0 -33 -33 -33h-174q-31 0 -30 33z " />
<glyph unicode="&#xb6;" horiz-adv-x="1212" d="M98 991q0 104 35 187.5t96.5 139.5t145.5 86t182 30h467q33 0 33 -33v-1637q0 -33 -33 -32h-123q-33 0 -33 32v1493h-88v-1493q0 -33 -30 -32h-127q-31 0 -31 32v781q-96 0 -185.5 28.5t-158 86t-109.5 140.5t-41 191z" />
<glyph unicode="&#xb7;" horiz-adv-x="569" d="M145 815v23q0 31 31 30h207q31 0 31 -30v-224q0 -31 -31 -30h-162q-33 0 -47 41q-14 43 -21.5 96t-7.5 94z" />
<glyph unicode="&#xb8;" horiz-adv-x="860" d="M221 -381q0 27 29 21q35 -10 82 -11q109 0 108 76q0 41 -35.5 68.5t-109.5 27.5q-18 0 -25.5 11.5t2.5 29.5l107 183h166l-78 -140q82 -16 123 -63t41 -117q0 -51 -18.5 -90t-50.5 -65.5t-74 -40t-91 -13.5q-41 0 -82 7.5t-69 21.5q-25 10 -25 35v59z" />
<glyph unicode="&#xb9;" horiz-adv-x="827" d="M143 1298v78q0 27 25 33q59 12 136 20.5t142 8.5h58q31 0 31 -29v-895q0 -29 -29 -29h-135q-29 0 -29 29v768h-23q-31 0 -70.5 -3t-76.5 -7q-29 -4 -29 26z" />
<glyph unicode="&#xba;" horiz-adv-x="901" d="M86 1040v45q0 186 96.5 275.5t268.5 89.5t268 -89t96 -276v-45q0 -186 -96 -275t-268 -89t-268.5 89t-96.5 275zM268 1047q0 -213 183 -213q182 0 182 213v32q0 213 -182 213t-183 -213v-32z" />
<glyph unicode="&#xbb;" horiz-adv-x="1124" d="M121 336q-12 20 4 37l303 262l-303 262q-16 16 -4 37l33 51q14 25 43 6q96 -63 188 -134t166 -144q20 -20 20 -41v-74q0 -20 -20 -41q-74 -74 -166 -144.5t-188 -133.5q-29 -18 -43 6zM537 336q-12 20 4 37l303 262l-303 262q-16 16 -4 37l32 51q14 25 43 6 q96 -63 188.5 -134t166.5 -144q20 -20 20 -41v-74q0 -20 -20 -41q-74 -74 -166 -144.5t-189 -133.5q-29 -18 -43 6z" />
<glyph unicode="&#xbc;" horiz-adv-x="1992" d="M143 1298v78q0 27 25 33q59 12 136 20.5t142 8.5h58q31 0 31 -29v-895q0 -29 -29 -29h-135q-29 0 -29 29v768h-23q-31 0 -70.5 -3t-76.5 -7q-29 -4 -29 26zM522 -2l776 1444q6 10 13.5 16t23.5 6h115q35 0 20 -28l-776 -1444q-6 -10 -13 -16.5t-24 -6.5h-114 q-35 0 -21 29zM1200 201v108q0 16 6 35q45 141 105.5 292.5t126.5 287.5q12 27 45 26h129q18 0 23 -12t-3 -29q-63 -131 -125.5 -284.5t-99.5 -292.5h217v260q0 29 29 29h137q27 0 27 -29v-260h81q31 0 31 -29v-104q0 -27 -31 -27h-81v-141q0 -29 -27 -29h-137q-29 0 -29 29 v141h-395q-29 0 -29 29z" />
<glyph unicode="&#xbd;" horiz-adv-x="1992" d="M143 1298v78q0 27 25 33q59 12 136 20.5t142 8.5h58q31 0 31 -29v-895q0 -29 -29 -29h-135q-29 0 -29 29v768h-23q-31 0 -70.5 -3t-76.5 -7q-29 -4 -29 26zM522 -2l776 1444q6 10 13.5 16t23.5 6h115q35 0 20 -28l-776 -1444q-6 -10 -13 -16.5t-24 -6.5h-114 q-35 0 -21 29zM1243 27v98q0 102 47 174t160 139q59 35 103 63.5t74 57.5t45.5 60.5t15.5 72.5q0 61 -39 88t-133 27q-109 0 -203 -16q-27 -4 -27 28v84q0 27 29 35q45 12 107.5 20.5t115.5 8.5q96 0 161.5 -17.5t105.5 -52.5t57.5 -88t17.5 -123q0 -92 -44 -166t-142 -131 q-78 -45 -127 -76.5t-78 -57.5t-40 -47.5t-11 -45.5h415q27 0 27 -25v-110q0 -25 -27 -25h-581q-29 0 -29 25z" />
<glyph unicode="&#xbe;" horiz-adv-x="1992" d="M72 528v84q-1 29 30 27q49 -8 101.5 -11t105.5 -3q104 0 156.5 32.5t52.5 104.5q0 76 -42 104.5t-134 28.5h-186q-27 0 -27 25v110q0 25 27 25h172q92 0 135 25.5t43 90.5q0 66 -42 92.5t-130 26.5q-53 0 -107.5 -4t-97.5 -10q-31 -4 -31 27v83q0 27 29 35 q45 14 105.5 21.5t123.5 7.5q72 0 134.5 -15.5t108.5 -48t72.5 -85t26.5 -123.5q0 -57 -24.5 -108.5t-87.5 -90.5q70 -39 97.5 -95.5t27.5 -123.5q0 -135 -94.5 -213t-280.5 -78h-29q-55 0 -110.5 7t-96.5 18q-29 8 -28 34zM522 -2l776 1444q6 10 13.5 16t23.5 6h115 q35 0 20 -28l-776 -1444q-6 -10 -13 -16.5t-24 -6.5h-114q-35 0 -21 29zM1200 201v108q0 16 6 35q45 141 105.5 292.5t126.5 287.5q12 27 45 26h129q18 0 23 -12t-3 -29q-63 -131 -125.5 -284.5t-99.5 -292.5h217v260q0 29 29 29h137q27 0 27 -29v-260h81q31 0 31 -29v-104 q0 -27 -31 -27h-81v-141q0 -29 -27 -29h-137q-29 0 -29 29v141h-395q-29 0 -29 29z" />
<glyph unicode="&#xbf;" horiz-adv-x="1009" d="M135 -8q0 104 57.5 199.5t180.5 201.5q51 45 70.5 100.5t19.5 124.5v31q0 33 31 33h174q33 0 32 -33v-33q0 -113 -38.5 -207t-145.5 -180q-76 -59 -109.5 -117.5t-33.5 -123.5q0 -98 63.5 -144.5t177.5 -46.5q84 0 149.5 4t129.5 15q25 4 25 -25v-110q0 -23 -27 -31 q-59 -20 -141 -33.5t-162 -13.5q-236 0 -344.5 99t-108.5 290zM451 827v205q0 29 28 29h158q37 0 47 -35q10 -31 17.5 -80t7.5 -94v-25q0 -31 -31 -30h-197q-31 0 -30 30z" />
<glyph unicode="&#xc0;" horiz-adv-x="1302" d="M59 37l402 1354q6 23 18.5 33t36.5 10h270q25 0 37.5 -10.5t18.5 -32.5l401 -1354q10 -37 -24 -37h-193q-33 0 -39 25l-80 286h-512l-80 -286q-6 -25 -39 -25h-192q-35 0 -25 37zM371 1815.5q0 11.5 10 17.5l113 74q29 18 49 -6l239 -275q20 -20 -2 -35l-73 -47 q-21 -14 -41 0q-78 51 -149 114.5t-136 135.5q-10 10 -10 21.5zM453 516h397l-199 713z" />
<glyph unicode="&#xc1;" horiz-adv-x="1302" d="M59 37l402 1354q6 23 18.5 33t36.5 10h270q25 0 37.5 -10.5t18.5 -32.5l401 -1354q10 -37 -24 -37h-193q-33 0 -39 25l-80 286h-512l-80 -286q-6 -25 -39 -25h-192q-35 0 -25 37zM453 516h397l-199 713zM520 1626l240 275q20 25 49 6l113 -74q10 -6 10 -17.5t-10 -21.5 q-66 -72 -136.5 -135.5t-148.5 -114.5q-20 -14 -41 0l-74 47q-23 14 -2 35z" />
<glyph unicode="&#xc2;" horiz-adv-x="1302" d="M59 37l402 1354q6 23 18.5 33t36.5 10h270q25 0 37.5 -10.5t18.5 -32.5l401 -1354q10 -37 -24 -37h-193q-33 0 -39 25l-80 286h-512l-80 -286q-6 -25 -39 -25h-192q-35 0 -25 37zM313 1628q25 33 54.5 68t60.5 68.5t61.5 61t55.5 46.5q27 20 55 20h102q29 0 56 -20 q25 -18 55.5 -46t61 -61.5t60.5 -68.5t54 -68q20 -27 -2 -41l-67 -43q-10 -6 -22.5 -8t-23.5 8l-223 205l-223 -205q-10 -10 -22.5 -8t-22.5 8l-68 43q-23 14 -2 41zM453 516h397l-199 713z" />
<glyph unicode="&#xc3;" horiz-adv-x="1302" d="M59 37l402 1354q6 23 18.5 33t36.5 10h270q25 0 37.5 -10.5t18.5 -32.5l401 -1354q10 -37 -24 -37h-193q-33 0 -39 25l-80 286h-512l-80 -286q-6 -25 -39 -25h-192q-35 0 -25 37zM293 1694q0 86 51 133t141 47q51 0 97.5 -16.5t97.5 -59.5q43 -37 67.5 -52t47.5 -15 t37 18t14 72v22q0 27 28 27h78q31 0 41 -27q6 -14 11.5 -39.5t5.5 -48.5q0 -86 -51.5 -133t-141.5 -47q-51 0 -98 16.5t-98 59.5q-43 37 -67 52t-46 15q-23 0 -37 -18.5t-14 -71.5v-22q0 -27 -29 -27h-78q-31 0 -41 27q-6 14 -11 39.5t-5 48.5zM453 516h397l-199 713z" />
<glyph unicode="&#xc4;" horiz-adv-x="1302" d="M59 37l402 1354q6 23 18.5 33t36.5 10h270q25 0 37.5 -10.5t18.5 -32.5l401 -1354q10 -37 -24 -37h-193q-33 0 -39 25l-80 286h-512l-80 -286q-6 -25 -39 -25h-192q-35 0 -25 37zM315 1632v13q0 29 7.5 78t23.5 87q14 35 49 35h137q31 0 31 -33v-180q0 -33 -31 -33h-186 q-31 0 -31 33zM453 516h397l-199 713zM739 1632v180q0 33 31 33h186q31 0 31 -33v-12q0 -29 -7 -78t-24 -88q-14 -35 -49 -35h-137q-31 0 -31 33z" />
<glyph unicode="&#xc5;" horiz-adv-x="1302" d="M59 37l402 1354q6 23 18.5 33t36.5 10h270q25 0 37.5 -10.5t18.5 -32.5l401 -1354q10 -37 -24 -37h-193q-33 0 -39 25l-80 286h-512l-80 -286q-6 -25 -39 -25h-192q-35 0 -25 37zM422 1724q0 121 64.5 171.5t164.5 50.5t165 -50.5t65 -171.5t-64.5 -171t-165.5 -50 q-100 0 -164.5 50.5t-64.5 170.5zM453 516h397l-199 713zM571 1724q0 -96 80 -96t80 96t-80 97q-80 -1 -80 -97z" />
<glyph unicode="&#xc6;" horiz-adv-x="1806" d="M59.5 11.5q-6.5 11.5 1.5 27.5l619 1352q18 43 65 43h891q33 0 33 -33v-141q0 -31 -33 -31h-524v-402h481q33 0 33 -30v-142q0 -33 -33 -32h-481v-322q0 -59 24.5 -90t86.5 -31h434q31 0 31 -30v-119q0 -31 -33 -33q-127 -12 -230.5 -17.5t-220.5 -5.5 q-100 0 -165.5 15.5t-104.5 50.5t-55.5 91t-16.5 140v45h-416l-131 -292q-12 -25 -41 -25h-188q-20 0 -26.5 11.5zM539 522h323v719z" />
<glyph unicode="&#xc7;" horiz-adv-x="1161" d="M117 676v80q0 162 31.5 292t102.5 221t183.5 140t276.5 49q98 0 180 -13t141 -32q27 -8 27 -31v-120q0 -33 -31 -27q-51 8 -126 13t-146 5q-109 0 -183.5 -31.5t-120.5 -94t-65.5 -159t-19.5 -225.5v-55q0 -129 20.5 -224t66.5 -157.5t120.5 -94.5t183.5 -32 q76 0 153.5 5t137.5 14q31 2 30 -27v-125q0 -23 -26 -31q-51 -12 -108.5 -22t-121.5 -14l-51 -95q82 -16 123 -63t41 -117q0 -51 -18.5 -90t-50 -65.5t-73.5 -40t-92 -13.5q-41 0 -81.5 7.5t-69.5 21.5q-25 10 -25 35v59q0 27 29 21q35 -10 82 -11q109 0 108 76 q0 41 -35.5 68.5t-109.5 27.5q-18 0 -25.5 11.5t3.5 29.5l77 135q-145 8 -247.5 60.5t-167 142.5t-94 216t-29.5 280z" />
<glyph unicode="&#xc8;" horiz-adv-x="1181" d="M174 272v889q0 82 16.5 139.5t55.5 92t104.5 50t165.5 15.5q129 0 256 -6t240 -18q31 -4 30 -35v-115q0 -31 -30 -31h-477q-61 0 -86 -30.5t-25 -89.5v-295h545q33 0 32 -33v-141q0 -31 -32 -31h-545v-332q0 -59 24.5 -90t86.5 -31h497q31 0 31 -30v-115q0 -33 -31 -35 q-117 -14 -251 -19.5t-265 -5.5q-100 0 -165.5 15.5t-104.5 50.5t-55.5 91t-16.5 140zM391 1815.5q0 11.5 10 17.5l113 74q29 18 49 -6l240 -275q20 -20 -2 -35l-74 -47q-21 -14 -41 0q-78 51 -148.5 114.5t-136.5 135.5q-10 10 -10 21.5z" />
<glyph unicode="&#xc9;" horiz-adv-x="1181" d="M174 272v889q0 82 16.5 139.5t55.5 92t104.5 50t165.5 15.5q129 0 256 -6t240 -18q31 -4 30 -35v-115q0 -31 -30 -31h-477q-61 0 -86 -30.5t-25 -89.5v-295h545q33 0 32 -33v-141q0 -31 -32 -31h-545v-332q0 -59 24.5 -90t86.5 -31h497q31 0 31 -30v-115q0 -33 -31 -35 q-117 -14 -251 -19.5t-265 -5.5q-100 0 -165.5 15.5t-104.5 50.5t-55.5 91t-16.5 140zM481 1626l240 275q20 25 49 6l113 -74q10 -6 10 -17.5t-10 -21.5q-66 -72 -136.5 -135.5t-148.5 -114.5q-20 -14 -41 0l-74 47q-23 14 -2 35z" />
<glyph unicode="&#xca;" horiz-adv-x="1181" d="M174 272v889q0 82 16.5 139.5t55.5 92t104.5 50t165.5 15.5q129 0 256 -6t240 -18q31 -4 30 -35v-115q0 -31 -30 -31h-477q-61 0 -86 -30.5t-25 -89.5v-295h545q33 0 32 -33v-141q0 -31 -32 -31h-545v-332q0 -59 24.5 -90t86.5 -31h497q31 0 31 -30v-115q0 -33 -31 -35 q-117 -14 -251 -19.5t-265 -5.5q-100 0 -165.5 15.5t-104.5 50.5t-55.5 91t-16.5 140zM276 1628q25 33 54.5 68t60.5 68.5t61.5 61t55.5 46.5q27 20 55 20h103q29 0 55 -20q25 -18 55.5 -46t61 -61.5t60.5 -68.5t54 -68q20 -27 -2 -41l-67 -43q-10 -6 -22.5 -8t-22.5 8 l-224 205l-223 -205q-10 -10 -22.5 -8t-22.5 8l-67 43q-23 14 -3 41z" />
<glyph unicode="&#xcb;" horiz-adv-x="1181" d="M174 272v889q0 82 16.5 139.5t55.5 92t104.5 50t165.5 15.5q129 0 256 -6t240 -18q31 -4 30 -35v-115q0 -31 -30 -31h-477q-61 0 -86 -30.5t-25 -89.5v-295h545q33 0 32 -33v-141q0 -31 -32 -31h-545v-332q0 -59 24.5 -90t86.5 -31h497q31 0 31 -30v-115q0 -33 -31 -35 q-117 -14 -251 -19.5t-265 -5.5q-100 0 -165.5 15.5t-104.5 50.5t-55.5 91t-16.5 140zM301 1632v13q0 29 7 78t24 87q14 35 49 35h137q31 0 31 -33v-180q0 -33 -31 -33h-186q-31 0 -31 33zM725 1632v180q0 33 31 33h186q31 0 31 -33v-12q0 -29 -7.5 -78t-23.5 -88 q-14 -35 -49 -35h-137q-31 0 -31 33z" />
<glyph unicode="&#xcc;" horiz-adv-x="638" d="M0 1815.5q0 11.5 10 17.5l113 74q29 18 49 -6l240 -275q20 -20 -2 -35l-74 -47q-21 -14 -41 0q-78 51 -148.5 114.5t-136.5 135.5q-10 10 -10 21.5zM195 31v1370q0 33 30 33h189q31 0 30 -33v-1370q0 -31 -30 -31h-189q-31 0 -30 31z" />
<glyph unicode="&#xcd;" horiz-adv-x="638" d="M195 31v1370q0 33 30 33h189q31 0 30 -33v-1370q0 -31 -30 -31h-189q-31 0 -30 31zM227 1626l240 275q20 25 49 6l113 -74q10 -6 10 -17.5t-10 -21.5q-66 -72 -136.5 -135.5t-148.5 -114.5q-20 -14 -41 0l-74 47q-23 14 -2 35z" />
<glyph unicode="&#xce;" horiz-adv-x="638" d="M-18 1628q25 33 54.5 68t60 68.5t61 61t55.5 46.5q27 20 55 20h103q29 0 55 -20q25 -18 55.5 -46t61 -61.5t60.5 -68.5t54 -68q20 -27 -2 -41l-67 -43q-10 -6 -22.5 -8t-22.5 8l-224 205l-223 -205q-10 -10 -22.5 -8t-22.5 8l-67 43q-23 14 -2 41zM195 31v1370 q0 33 30 33h189q31 0 30 -33v-1370q0 -31 -30 -31h-189q-31 0 -30 31z" />
<glyph unicode="&#xcf;" horiz-adv-x="638" d="M-16 1632v13q0 29 7 78t23 87q14 35 49 35h138q31 0 30 -33v-180q0 -33 -30 -33h-187q-31 0 -30 33zM195 31v1370q0 33 30 33h189q31 0 30 -33v-1370q0 -31 -30 -31h-189q-31 0 -30 31zM408 1632v180q0 33 30 33h187q31 0 30 -33v-12q0 -29 -7 -78t-23 -88 q-14 -35 -50 -35h-137q-31 0 -30 33z" />
<glyph unicode="&#xd0;" horiz-adv-x="1361" d="M12 672v92q0 31 33 31h129v512q0 47 14.5 71.5t51.5 34.5q78 23 175 34t206 11q180 0 300.5 -50t192.5 -143.5t101.5 -224.5t29.5 -290v-66q0 -160 -29.5 -291t-101.5 -224t-192.5 -143.5t-300.5 -50.5q-109 0 -206.5 11.5t-174.5 33.5q-37 10 -51.5 35t-14.5 72v512 h-129q-33 0 -33 33zM424 201q39 -10 87 -15.5t101 -5.5q119 0 194 33t117 96.5t57 158.5t15 220v55q0 125 -15 221.5t-57 160t-117 96t-194 32.5q-53 0 -101 -5t-87 -15v-438h250q33 0 33 -31v-92q0 -33 -33 -33h-250v-438z" />
<glyph unicode="&#xd1;" horiz-adv-x="1435" d="M174 29v1374q0 31 29 31h250q29 0 41 -9.5t22 -27.5l496 -1030v1038q0 29 28 29h193q29 0 29 -29v-1374q0 -31 -29 -31h-250q-29 0 -41 9t-22 28l-496 1030v-1038q0 -29 -29 -29h-192q-29 0 -29 29zM358 1694q0 86 51.5 133t141.5 47q51 0 97 -16.5t97 -59.5 q43 -37 68 -52t47 -15q23 0 37 18t14 72v22q0 27 29 27h78q31 0 41 -27q6 -14 11 -39.5t5 -48.5q0 -86 -51 -133t-141 -47q-51 0 -98.5 16.5t-98.5 59.5q-43 37 -66.5 52t-46.5 15t-37 -18.5t-14 -71.5v-22q0 -27 -28 -27h-78q-31 0 -41 27q-6 14 -11.5 39.5t-5.5 48.5z" />
<glyph unicode="&#xd2;" horiz-adv-x="1417" d="M117 682v70q0 346 142 526t450 180q307 0 449 -180t142 -526v-70q0 -346 -142 -526.5t-449 -180.5t-449.5 180.5t-142.5 526.5zM367 690q0 -268 81.5 -389t260.5 -121q178 0 260 121t82 389v53q0 268 -82 389t-260 121t-260 -120.5t-82 -389.5v-53zM465 1815.5 q0 11.5 10 17.5l113 74q29 18 49 -6l240 -275q20 -20 -3 -35l-73 -47q-21 -14 -41 0q-78 51 -148.5 114.5t-136.5 135.5q-10 10 -10 21.5z" />
<glyph unicode="&#xd3;" horiz-adv-x="1417" d="M117 682v70q0 346 142 526t450 180q307 0 449 -180t142 -526v-70q0 -346 -142 -526.5t-449 -180.5t-449.5 180.5t-142.5 526.5zM367 690q0 -268 81.5 -389t260.5 -121q178 0 260 121t82 389v53q0 268 -82 389t-260 121t-260 -120.5t-82 -389.5v-53zM541 1626l239 275 q20 25 49 6l113 -74q10 -6 10 -17.5t-10 -21.5q-66 -72 -136.5 -135.5t-148.5 -114.5q-20 -14 -41 0l-73 47q-23 14 -2 35z" />
<glyph unicode="&#xd4;" horiz-adv-x="1417" d="M117 682v70q0 346 142 526t450 180q307 0 449 -180t142 -526v-70q0 -346 -142 -526.5t-449 -180.5t-449.5 180.5t-142.5 526.5zM367 690q0 -268 81.5 -389t260.5 -121q178 0 260 121t82 389v53q0 268 -82 389t-260 121t-260 -120.5t-82 -389.5v-53zM371 1628 q25 33 54.5 68t60 68.5t61.5 61t55 46.5q27 20 55 20h103q29 0 55 -20q25 -18 55.5 -46t61.5 -61.5t60.5 -68.5t54.5 -68q20 -27 -3 -41l-67 -43q-10 -6 -22.5 -8t-22.5 8l-223 205l-224 -205q-10 -10 -22 -8t-23 8l-67 43q-23 14 -2 41z" />
<glyph unicode="&#xd5;" horiz-adv-x="1417" d="M117 682v70q0 346 142 526t450 180q307 0 449 -180t142 -526v-70q0 -346 -142 -526.5t-449 -180.5t-449.5 180.5t-142.5 526.5zM350 1694q0 86 51.5 133t141.5 47q51 0 97 -16.5t97 -59.5q43 -37 67.5 -52t47.5 -15t37 18t14 72v22q0 27 29 27h78q31 0 41 -27 q6 -14 11 -39.5t5 -48.5q0 -86 -51 -133t-142 -47q-51 0 -98 16.5t-98 59.5q-43 37 -66.5 52t-46.5 15t-37 -18.5t-14 -71.5v-22q0 -27 -29 -27h-77q-31 0 -41 27q-6 14 -11.5 39.5t-5.5 48.5zM367 690q0 -268 81.5 -389t260.5 -121q178 0 260 121t82 389v53q0 268 -82 389 t-260 121t-260 -120.5t-82 -389.5v-53z" />
<glyph unicode="&#xd6;" horiz-adv-x="1417" d="M117 682v70q0 346 142 526t450 180q307 0 449 -180t142 -526v-70q0 -346 -142 -526.5t-449 -180.5t-449.5 180.5t-142.5 526.5zM367 690q0 -268 81.5 -389t260.5 -121q178 0 260 121t82 389v53q0 268 -82 389t-260 121t-260 -120.5t-82 -389.5v-53zM373 1632v13 q0 29 7 78t23 87q14 35 50 35h137q31 0 31 -33v-180q0 -33 -31 -33h-187q-31 0 -30 33zM797 1632v180q0 33 30 33h187q31 0 30 -33v-12q0 -29 -7 -78t-23 -88q-14 -35 -49 -35h-138q-31 0 -30 33z" />
<glyph unicode="&#xd7;" horiz-adv-x="1277" d="M178 354q-20 25 0 45l283 283l-281 283q-23 23 -2 47l129 129q20 23 47 0l283 -283l283 283q25 25 45 0l129 -129q20 -25 0 -47l-283 -283l283 -283q20 -20 0 -45l-129 -129q-20 -25 -45 0l-283 283l-285 -283q-25 -25 -45 0z" />
<glyph unicode="&#xd8;" horiz-adv-x="1417" d="M110.5 -197.5q-6.5 7.5 4.5 23.5l170 299q-86 90 -127 228.5t-41 328.5v70q0 346 142 526t450 180q174 0 301 -63l125 219q12 25 41 24h110q14 0 20.5 -7t-3.5 -23l-173 -301q170 -176 170 -555v-70q0 -346 -142 -526.5t-449 -180.5q-92 0 -167 16.5t-136 45.5l-123 -217 q-12 -25 -41 -25h-111q-14 0 -20.5 7.5zM367 690q0 -215 51 -332l481 844q-71 51 -190 51q-178 0 -260 -120.5t-82 -389.5v-53zM516 231q76 -51 193 -51q178 0 260 121t82 389v53q0 215 -52 332z" />
<glyph unicode="&#xd9;" horiz-adv-x="1421" d="M174 668v735q0 31 29 31h190q31 0 31 -31v-727q0 -121 13.5 -213t46 -155.5t88 -95.5t139.5 -32t139 32t88 95.5t46 155.5t13 213v727q0 31 31 31h191q29 0 28 -31v-735q0 -170 -25.5 -299t-87 -217.5t-164.5 -132.5t-259 -44q-158 0 -261.5 44t-165 132.5t-86 217.5 t-24.5 299zM436 1815.5q0 11.5 10 17.5l113 74q29 18 49 -6l240 -275q20 -20 -2 -35l-74 -47q-21 -14 -41 0q-78 51 -148.5 114.5t-136.5 135.5q-10 10 -10 21.5z" />
<glyph unicode="&#xda;" horiz-adv-x="1421" d="M174 668v735q0 31 29 31h190q31 0 31 -31v-727q0 -121 13.5 -213t46 -155.5t88 -95.5t139.5 -32t139 32t88 95.5t46 155.5t13 213v727q0 31 31 31h191q29 0 28 -31v-735q0 -170 -25.5 -299t-87 -217.5t-164.5 -132.5t-259 -44q-158 0 -261.5 44t-165 132.5t-86 217.5 t-24.5 299zM573 1626l240 275q20 25 49 6l113 -74q10 -6 10 -17.5t-10 -21.5q-66 -72 -136.5 -135.5t-148.5 -114.5q-20 -14 -41 0l-74 47q-23 14 -2 35z" />
<glyph unicode="&#xdb;" horiz-adv-x="1421" d="M174 668v735q0 31 29 31h190q31 0 31 -31v-727q0 -121 13.5 -213t46 -155.5t88 -95.5t139.5 -32t139 32t88 95.5t46 155.5t13 213v727q0 31 31 31h191q29 0 28 -31v-735q0 -170 -25.5 -299t-87 -217.5t-164.5 -132.5t-259 -44q-158 0 -261.5 44t-165 132.5t-86 217.5 t-24.5 299zM373 1628q25 33 54.5 68t60 68.5t61.5 61t55 46.5q27 20 55 20h103q29 0 55 -20q25 -18 55.5 -46t61.5 -61.5t60.5 -68.5t54.5 -68q20 -27 -2 -41l-68 -43q-10 -6 -22.5 -8t-22.5 8l-223 205l-224 -205q-10 -10 -22 -8t-23 8l-67 43q-23 14 -2 41z" />
<glyph unicode="&#xdc;" horiz-adv-x="1421" d="M174 668v735q0 31 29 31h190q31 0 31 -31v-727q0 -121 13.5 -213t46 -155.5t88 -95.5t139.5 -32t139 32t88 95.5t46 155.5t13 213v727q0 31 31 31h191q29 0 28 -31v-735q0 -170 -25.5 -299t-87 -217.5t-164.5 -132.5t-259 -44q-158 0 -261.5 44t-165 132.5t-86 217.5 t-24.5 299zM375 1632v13q0 29 7 78t24 87q14 35 49 35h137q31 0 31 -33v-180q0 -33 -31 -33h-186q-31 0 -31 33zM799 1632v180q0 33 30 33h187q31 0 31 -33v-12q0 -29 -7.5 -78t-23.5 -88q-14 -35 -49 -35h-138q-31 0 -30 33z" />
<glyph unicode="&#xdd;" horiz-adv-x="1241" d="M41 1419q4 15 25 15h184q31 0 45 -31l326 -662l325 662q14 31 45 31h185q20 0 24 -14.5t-6 -35.5l-449 -888v-465q0 -31 -30 -31h-187q-33 0 -32 31v465l-449 888q-10 20 -6 35zM489 1626l240 275q20 25 49 6l113 -74q10 -6 10 -17.5t-10 -21.5q-66 -72 -136.5 -135.5 t-148.5 -114.5q-20 -14 -41 0l-73 47q-23 14 -3 35z" />
<glyph unicode="&#xde;" horiz-adv-x="1253" d="M174 31v1370q0 33 31 33h186q33 0 33 -33v-232q106 12 221 13q512 0 512 -432v-62q0 -432 -512 -432q-115 0 -221 12v-237q0 -31 -33 -31h-186q-31 0 -31 31zM424 471q43 -6 95 -8t93 -2q166 0 230.5 61.5t64.5 188.5v16q0 127 -64.5 188.5t-230.5 61.5q-41 0 -93 -2 t-95 -8v-496z" />
<glyph unicode="&#xdf;" horiz-adv-x="1230" d="M168 31v966q0 236 115.5 348.5t353.5 112.5q100 0 185 -24.5t146.5 -70.5t95.5 -113.5t34 -155.5q0 -135 -51.5 -222.5t-184.5 -119.5q150 -27 218.5 -121t68.5 -264q0 -100 -28.5 -174t-80 -122t-124 -72t-158.5 -24q-59 0 -124 9.5t-116 25.5q-20 6 -25.5 16.5 t-5.5 30.5v125q0 29 29 23q45 -10 91.5 -17.5t103.5 -7.5q104 0 146 64.5t42 171.5q0 119 -70.5 170t-212.5 59q-31 2 -30 31v141q0 33 30 33q127 0 179.5 56.5t52.5 152.5q0 102 -53.5 148t-163.5 46q-119 0 -166 -62.5t-47 -168.5v-991q0 -31 -33 -31h-186q-31 0 -31 31z " />
<glyph unicode="&#xe0;" horiz-adv-x="1183" d="M94 317q0 166 100.5 250t282.5 84q90 0 175 -16.5t151 -44.5v43q0 72 -12.5 120t-47 77.5t-97 42t-163.5 12.5q-70 0 -137 -4t-115 -15q-35 -6 -34 25v102q0 33 32 43q47 16 129 28.5t174 12.5q141 0 238.5 -22.5t158 -72.5t86 -128t25.5 -188v-539q0 -84 -59 -98 q-82 -23 -194.5 -34t-221.5 -11q-131 0 -221 19.5t-145.5 61t-80 104t-24.5 148.5zM328 1459q0 11 10 18l113 73q29 18 49 -6l239 -274q20 -20 -2 -35l-73 -47q-21 -14 -41 0q-78 51 -149 114.5t-136 135.5q-10 10 -10 21zM332 317q0 -39 12 -65.5t42 -44t82 -24.5t132 -7 q49 0 101.5 4t101.5 15v247q-98 18 -238 19q-68 0 -112.5 -8.5t-71.5 -25.5t-38 -44t-11 -66z" />
<glyph unicode="&#xe1;" horiz-adv-x="1183" d="M94 317q0 166 100.5 250t282.5 84q90 0 175 -16.5t151 -44.5v43q0 72 -12.5 120t-47 77.5t-97 42t-163.5 12.5q-70 0 -137 -4t-115 -15q-35 -6 -34 25v102q0 33 32 43q47 16 129 28.5t174 12.5q141 0 238.5 -22.5t158 -72.5t86 -128t25.5 -188v-539q0 -84 -59 -98 q-82 -23 -194.5 -34t-221.5 -11q-131 0 -221 19.5t-145.5 61t-80 104t-24.5 148.5zM332 317q0 -39 12 -65.5t42 -44t82 -24.5t132 -7q49 0 101.5 4t101.5 15v247q-98 18 -238 19q-68 0 -112.5 -8.5t-71.5 -25.5t-38 -44t-11 -66zM446 1270l240 274q20 25 49 6l113 -73 q10 -6 10 -17.5t-10 -21.5q-66 -72 -136.5 -135.5t-148.5 -114.5q-20 -14 -41 0l-73 47q-23 14 -3 35z" />
<glyph unicode="&#xe2;" horiz-adv-x="1183" d="M94 317q0 166 100.5 250t282.5 84q90 0 175 -16.5t151 -44.5v43q0 72 -12.5 120t-47 77.5t-97 42t-163.5 12.5q-70 0 -137 -4t-115 -15q-35 -6 -34 25v102q0 33 32 43q47 16 129 28.5t174 12.5q141 0 238.5 -22.5t158 -72.5t86 -128t25.5 -188v-539q0 -84 -59 -98 q-82 -23 -194.5 -34t-221.5 -11q-131 0 -221 19.5t-145.5 61t-80 104t-24.5 148.5zM262 1272q25 33 54.5 67.5t60.5 68.5t61.5 61.5t55.5 46.5q27 20 55 20h102q29 0 56 -20q25 -18 55.5 -46t61 -62t60 -68.5t54.5 -67.5q20 -27 -2 -41l-68 -43q-10 -6 -22 -8t-23 8 l-223 205l-223 -205q-10 -10 -22.5 -8t-22.5 8l-68 43q-23 14 -2 41zM332 317q0 -39 12 -65.5t42 -44t82 -24.5t132 -7q49 0 101.5 4t101.5 15v247q-98 18 -238 19q-68 0 -112.5 -8.5t-71.5 -25.5t-38 -44t-11 -66z" />
<glyph unicode="&#xe3;" horiz-adv-x="1183" d="M94 317q0 166 100.5 250t282.5 84q90 0 175 -16.5t151 -44.5v43q0 72 -12.5 120t-47 77.5t-97 42t-163.5 12.5q-70 0 -137 -4t-115 -15q-35 -6 -34 25v102q0 33 32 43q47 16 129 28.5t174 12.5q141 0 238.5 -22.5t158 -72.5t86 -128t25.5 -188v-539q0 -84 -59 -98 q-82 -23 -194.5 -34t-221.5 -11q-131 0 -221 19.5t-145.5 61t-80 104t-24.5 148.5zM231 1337q0 86 51.5 133.5t141.5 47.5q51 0 97 -16.5t97 -59.5q43 -37 68 -52.5t47 -15.5q23 0 37 18.5t14 71.5v23q0 27 29 26h78q31 0 41 -26q6 -14 11 -40t5 -48q0 -86 -51 -133 t-141 -47q-51 0 -98.5 16t-98.5 59q-43 37 -66.5 52.5t-46.5 15.5t-37 -18.5t-14 -71.5v-23q0 -27 -28 -26h-78q-31 0 -41 26q-6 14 -11.5 40t-5.5 48zM332 317q0 -39 12 -65.5t42 -44t82 -24.5t132 -7q49 0 101.5 4t101.5 15v247q-98 18 -238 19q-68 0 -112.5 -8.5 t-71.5 -25.5t-38 -44t-11 -66z" />
<glyph unicode="&#xe4;" horiz-adv-x="1183" d="M94 317q0 166 100.5 250t282.5 84q90 0 175 -16.5t151 -44.5v43q0 72 -12.5 120t-47 77.5t-97 42t-163.5 12.5q-70 0 -137 -4t-115 -15q-35 -6 -34 25v102q0 33 32 43q47 16 129 28.5t174 12.5q141 0 238.5 -22.5t158 -72.5t86 -128t25.5 -188v-539q0 -84 -59 -98 q-82 -23 -194.5 -34t-221.5 -11q-131 0 -221 19.5t-145.5 61t-80 104t-24.5 148.5zM244 1276v12q0 29 7 78t23 88q14 35 50 35h137q31 0 31 -33v-180q0 -33 -31 -33h-187q-31 0 -30 33zM332 317q0 -39 12 -65.5t42 -44t82 -24.5t132 -7q49 0 101.5 4t101.5 15v247 q-98 18 -238 19q-68 0 -112.5 -8.5t-71.5 -25.5t-38 -44t-11 -66zM668 1276v180q0 33 30 33h187q31 0 30 -33v-12q0 -29 -7 -78t-23 -88q-14 -35 -49 -35h-138q-31 0 -30 33z" />
<glyph unicode="&#xe5;" horiz-adv-x="1183" d="M94 317q0 166 100.5 250t282.5 84q90 0 175 -16.5t151 -44.5v43q0 72 -12.5 120t-47 77.5t-97 42t-163.5 12.5q-70 0 -137 -4t-115 -15q-35 -6 -34 25v102q0 33 32 43q47 16 129 28.5t174 12.5q141 0 238.5 -22.5t158 -72.5t86 -128t25.5 -188v-539q0 -84 -59 -98 q-82 -23 -194.5 -34t-221.5 -11q-131 0 -221 19.5t-145.5 61t-80 104t-24.5 148.5zM332 317q0 -39 12 -65.5t42 -44t82 -24.5t132 -7q49 0 101.5 4t101.5 15v247q-98 18 -238 19q-68 0 -112.5 -8.5t-71.5 -25.5t-38 -44t-11 -66zM371 1368q0 121 64.5 171t164.5 50 t164.5 -50t64.5 -171t-64.5 -171t-164.5 -50t-164.5 50t-64.5 171zM520 1368q0 -96 80 -96t80 96t-80 96t-80 -96z" />
<glyph unicode="&#xe6;" horiz-adv-x="1746" d="M94 313q0 168 97.5 253t265.5 85q76 0 150.5 -14t133.5 -41v41q0 74 -12 121t-45 75.5t-89 40t-144 11.5q-61 0 -121 -9.5t-111 -19.5q-16 -4 -25.5 1t-9.5 24v102q0 18 7.5 26.5t25.5 16.5q53 23 130 36t153 13q143 0 230 -37t144 -114q57 70 143.5 111.5t201.5 41.5 q104 0 186 -31.5t137 -88t84 -136.5t29 -176q0 -127 -61.5 -182t-190.5 -55h-424q6 -68 27.5 -113t59.5 -70.5t93 -37t131 -11.5q66 0 137.5 6.5t124.5 14.5q35 6 35 -25v-102q0 -33 -33 -43q-57 -23 -130.5 -33t-157.5 -10q-104 0 -198.5 25.5t-154.5 80.5 q-41 -57 -143 -81.5t-244 -24.5q-227 0 -329.5 78.5t-102.5 250.5zM332 313q-1 -135 196 -135q59 0 109.5 5t103.5 18v239q-45 10 -97 15.5t-114 5.5q-102 0 -150 -35t-48 -113zM973 600h373q37 0 54 13.5t17 56.5q0 100 -54 157.5t-159 57.5q-100 0 -164.5 -66.5 t-66.5 -218.5z" />
<glyph unicode="&#xe7;" horiz-adv-x="1036" d="M92 489v80q0 115 31 208t95.5 160t162.5 103.5t233 36.5q86 0 166 -12t127 -29q33 -10 33 -43v-102q0 -31 -35 -25q-47 10 -112.5 14.5t-135.5 4.5q-174 0 -250.5 -81t-76.5 -247v-55q0 -164 77.5 -245t256.5 -81q70 0 138 5t116 14q35 6 34 -25v-102q0 -33 -32 -43 q-31 -10 -77 -19.5t-100 -15.5l-57 -105q82 -16 123 -63t41 -117q0 -51 -18.5 -90t-50 -65.5t-73.5 -40t-92 -13.5q-41 0 -81.5 7.5t-69.5 21.5q-25 10 -25 35v59q0 27 29 21q35 -10 82 -11q109 0 108 76q0 41 -35.5 68.5t-109.5 27.5q-18 0 -25.5 11.5t3.5 29.5l81 144 q-127 6 -218 45t-149.5 104.5t-86 155.5t-27.5 198z" />
<glyph unicode="&#xe8;" horiz-adv-x="1150" d="M92 514v53q0 246 127 378t375 132q117 0 204 -30.5t145 -87t87 -136.5t29 -176q0 -238 -291 -237h-432q8 -66 34.5 -111t70.5 -72.5t103.5 -39t133.5 -11.5q76 0 147.5 5t124.5 14q35 6 35 -25v-102q0 -33 -33 -43q-59 -18 -142 -29.5t-169 -11.5q-147 0 -251.5 34.5 t-170 102t-96.5 166t-31 227.5zM307 1459q0 11 10 18l113 73q29 18 49 -6l240 -274q20 -20 -2 -35l-74 -47q-21 -14 -41 0q-78 51 -148.5 114.5t-136.5 135.5q-10 10 -10 21zM330 602h422q70 0 69 62q0 106 -57 163.5t-174 57.5q-115 0 -185.5 -63.5t-74.5 -219.5z" />
<glyph unicode="&#xe9;" horiz-adv-x="1150" d="M92 514v53q0 246 127 378t375 132q117 0 204 -30.5t145 -87t87 -136.5t29 -176q0 -238 -291 -237h-432q8 -66 34.5 -111t70.5 -72.5t103.5 -39t133.5 -11.5q76 0 147.5 5t124.5 14q35 6 35 -25v-102q0 -33 -33 -43q-59 -18 -142 -29.5t-169 -11.5q-147 0 -251.5 34.5 t-170 102t-96.5 166t-31 227.5zM330 602h422q70 0 69 62q0 106 -57 163.5t-174 57.5q-115 0 -185.5 -63.5t-74.5 -219.5zM414 1270l239 274q20 25 49 6l113 -73q10 -6 10 -17.5t-10 -21.5q-66 -72 -136.5 -135.5t-148.5 -114.5q-20 -14 -41 0l-73 47q-23 14 -2 35z" />
<glyph unicode="&#xea;" horiz-adv-x="1150" d="M92 514v53q0 246 127 378t375 132q117 0 204 -30.5t145 -87t87 -136.5t29 -176q0 -238 -291 -237h-432q8 -66 34.5 -111t70.5 -72.5t103.5 -39t133.5 -11.5q76 0 147.5 5t124.5 14q35 6 35 -25v-102q0 -33 -33 -43q-59 -18 -142 -29.5t-169 -11.5q-147 0 -251.5 34.5 t-170 102t-96.5 166t-31 227.5zM240 1272q25 33 54.5 67.5t60 68.5t61 61.5t55.5 46.5q27 20 55 20h103q29 0 55 -20q25 -18 55.5 -46t61 -62t60.5 -68.5t54 -67.5q20 -27 -2 -41l-67 -43q-10 -6 -22.5 -8t-22.5 8l-223 205l-224 -205q-10 -10 -22.5 -8t-22.5 8l-67 43 q-23 14 -2 41zM330 602h422q70 0 69 62q0 106 -57 163.5t-174 57.5q-115 0 -185.5 -63.5t-74.5 -219.5z" />
<glyph unicode="&#xeb;" horiz-adv-x="1150" d="M92 514v53q0 246 127 378t375 132q117 0 204 -30.5t145 -87t87 -136.5t29 -176q0 -238 -291 -237h-432q8 -66 34.5 -111t70.5 -72.5t103.5 -39t133.5 -11.5q76 0 147.5 5t124.5 14q35 6 35 -25v-102q0 -33 -33 -43q-59 -18 -142 -29.5t-169 -11.5q-147 0 -251.5 34.5 t-170 102t-96.5 166t-31 227.5zM248 1276v12q0 29 7 78t24 88q14 35 49 35h137q31 0 31 -33v-180q0 -33 -31 -33h-186q-31 0 -31 33zM330 602h422q70 0 69 62q0 106 -57 163.5t-174 57.5q-115 0 -185.5 -63.5t-74.5 -219.5zM672 1276v180q0 33 30 33h187q31 0 31 -33v-12 q0 -29 -7.5 -78t-23.5 -88q-14 -35 -49 -35h-138q-31 0 -30 33z" />
<glyph unicode="&#xec;" horiz-adv-x="585" d="M-28.5 1459q-0.5 11 10.5 18l112 73q29 18 49 -6l240 -274q20 -20 -2 -35l-74 -47q-21 -14 -41 0q-78 51 -148.5 114.5t-135.5 135.5q-10 10 -10.5 21zM174 31v997q0 33 31 33h174q33 0 33 -33v-997q0 -31 -33 -31h-174q-31 0 -31 31z" />
<glyph unicode="&#xed;" horiz-adv-x="585" d="M174 31v997q0 33 31 33h174q33 0 33 -33v-997q0 -31 -33 -31h-174q-31 0 -31 31zM203 1270l239 274q20 25 50 6l112 -73q10 -6 10 -17.5t-10 -21.5q-66 -72 -136.5 -135.5t-148.5 -114.5q-20 -14 -40 0l-74 47q-23 14 -2 35z" />
<glyph unicode="&#xee;" horiz-adv-x="585" d="M-45 1272q25 33 54.5 67.5t60 68.5t61.5 61.5t55 46.5q27 20 56 20h102q29 0 55 -20q25 -18 55.5 -46t61.5 -62t60.5 -68.5t54.5 -67.5q20 -27 -2 -41l-68 -43q-10 -6 -22.5 -8t-22.5 8l-223 205l-223 -205q-10 -10 -22.5 -8t-22.5 8l-68 43q-23 14 -2 41zM174 31v997 q0 33 31 33h174q33 0 33 -33v-997q0 -31 -33 -31h-174q-31 0 -31 31z" />
<glyph unicode="&#xef;" horiz-adv-x="585" d="M-43 1276v12q0 29 7 78t24 88q14 35 49 35h137q31 0 31 -33v-180q0 -33 -31 -33h-186q-31 0 -31 33zM174 31v997q0 33 31 33h174q33 0 33 -33v-997q0 -31 -33 -31h-174q-31 0 -31 31zM381 1276v180q0 33 31 33h186q31 0 31 -33v-12q0 -29 -7.5 -78t-23.5 -88 q-14 -35 -49 -35h-137q-31 0 -31 33z" />
<glyph unicode="&#xf0;" horiz-adv-x="1282" d="M92 496v32q0 111 34 201t96.5 153.5t152.5 97.5t205 34q78 0 151.5 -10.5t132.5 -32.5q-12 135 -51 213l-225 -111q-29 -14 -43 14l-37 78q-12 27 14 41l178 88q-45 29 -129 29q-59 0 -119.5 -4t-113.5 -14q-35 -6 -35 24v101q0 33 33 43q57 18 123.5 28t132.5 10 q98 0 178 -26.5t141 -85.5l174 88q31 14 43 -14l37 -78q12 -29 -14 -43l-147 -72q53 -98 81.5 -240.5t28.5 -337.5q0 -168 -26.5 -301t-89 -226t-166 -142t-254.5 -49q-231 0 -358.5 123.5t-127.5 388.5zM330 496q0 -164 57 -242t191 -78q78 0 134 26.5t93 88t54.5 164 t17.5 256.5v52t-3 46q-43 4 -103.5 8t-111.5 4q-160 0 -244.5 -70.5t-84.5 -230.5v-24z" />
<glyph unicode="&#xf1;" horiz-adv-x="1228" d="M154 31v901q0 43 14 65.5t45 32.5q86 25 190.5 36t214.5 11q250 0 358.5 -98t108.5 -317v-631q0 -31 -30 -31h-174q-33 0 -33 31v616q0 131 -54.5 184.5t-195.5 53.5q-55 0 -105.5 -4t-101.5 -15v-835q0 -31 -33 -31h-174q-31 0 -30 31zM240 1337q0 86 51 133.5t141 47.5 q51 0 97 -16.5t98 -59.5q43 -37 67.5 -52.5t46.5 -15.5q23 0 37.5 18.5t14.5 71.5v23q0 27 28 26h78q31 0 41 -26q6 -14 11 -40t5 -48q0 -86 -51 -133t-141 -47q-51 0 -98.5 16t-98.5 59q-43 37 -66.5 52.5t-45.5 15.5q-23 0 -37.5 -18.5t-14.5 -71.5v-23q0 -27 -28 -26h-78 q-31 0 -41 26q-6 14 -11 40t-5 48z" />
<glyph unicode="&#xf2;" horiz-adv-x="1179" d="M92 496v69q0 256 130 384t368 128t367.5 -128t129.5 -384v-69q0 -256 -130 -384t-367 -128q-238 0 -368 128t-130 384zM330 504q0 -160 58 -244t202 -84q143 0 201.5 84t58.5 244v53q0 160 -58.5 244t-201.5 84t-201.5 -84t-58.5 -244v-53zM330 1459q0 11 10 18l113 73 q29 18 49 -6l239 -274q20 -20 -2 -35l-73 -47q-21 -14 -41 0q-78 51 -148.5 114.5t-136.5 135.5q-10 10 -10 21z" />
<glyph unicode="&#xf3;" horiz-adv-x="1179" d="M92 496v69q0 256 130 384t368 128t367.5 -128t129.5 -384v-69q0 -256 -130 -384t-367 -128q-238 0 -368 128t-130 384zM330 504q0 -160 58 -244t202 -84q143 0 201.5 84t58.5 244v53q0 160 -58.5 244t-201.5 84t-201.5 -84t-58.5 -244v-53zM438 1270l240 274q20 25 49 6 l113 -73q10 -6 10 -17.5t-10 -21.5q-66 -72 -136.5 -135.5t-148.5 -114.5q-20 -14 -41 0l-74 47q-23 14 -2 35z" />
<glyph unicode="&#xf4;" horiz-adv-x="1179" d="M92 496v69q0 256 130 384t368 128t367.5 -128t129.5 -384v-69q0 -256 -130 -384t-367 -128q-238 0 -368 128t-130 384zM252 1272q25 33 54.5 67.5t60 68.5t61.5 61.5t55 46.5q27 20 56 20h102q29 0 55 -20q25 -18 55.5 -46t61.5 -62t60.5 -68.5t54.5 -67.5q20 -27 -2 -41 l-68 -43q-10 -6 -22.5 -8t-22.5 8l-223 205l-223 -205q-10 -10 -22.5 -8t-22.5 8l-68 43q-23 14 -2 41zM330 504q0 -160 58 -244t202 -84q143 0 201.5 84t58.5 244v53q0 160 -58.5 244t-201.5 84t-201.5 -84t-58.5 -244v-53z" />
<glyph unicode="&#xf5;" horiz-adv-x="1179" d="M92 496v69q0 256 130 384t368 128t367.5 -128t129.5 -384v-69q0 -256 -130 -384t-367 -128q-238 0 -368 128t-130 384zM231 1337q0 86 51.5 133.5t141.5 47.5q51 0 97 -16.5t97 -59.5q43 -37 68 -52.5t47 -15.5q23 0 37 18.5t14 71.5v23q0 27 29 26h78q31 0 41 -26 q6 -14 11 -40t5 -48q0 -86 -51 -133t-141 -47q-51 0 -98.5 16t-98.5 59q-43 37 -66.5 52.5t-46.5 15.5t-37 -18.5t-14 -71.5v-23q0 -27 -28 -26h-78q-31 0 -41 26q-6 14 -11.5 40t-5.5 48zM330 504q0 -160 58 -244t202 -84q143 0 201.5 84t58.5 244v53q0 160 -58.5 244 t-201.5 84t-201.5 -84t-58.5 -244v-53z" />
<glyph unicode="&#xf6;" horiz-adv-x="1179" d="M92 496v69q0 256 130 384t368 128t367.5 -128t129.5 -384v-69q0 -256 -130 -384t-367 -128q-238 0 -368 128t-130 384zM254 1276v12q0 29 7 78t24 88q14 35 49 35h137q31 0 31 -33v-180q0 -33 -31 -33h-186q-31 0 -31 33zM330 504q0 -160 58 -244t202 -84q143 0 201.5 84 t58.5 244v53q0 160 -58.5 244t-201.5 84t-201.5 -84t-58.5 -244v-53zM678 1276v180q0 33 31 33h186q31 0 31 -33v-12q0 -29 -7.5 -78t-23.5 -88q-14 -35 -49 -35h-137q-31 0 -31 33z" />
<glyph unicode="&#xf7;" horiz-adv-x="1277" d="M127 612v136q0 33 33 32h958q33 0 33 -32v-136q0 -33 -33 -32h-958q-33 0 -33 32zM514 346v23q0 31 31 30h190q31 0 31 -30v-213q0 -31 -31 -31h-145q-23 0 -38 24.5t-23.5 60.5t-11.5 74t-3 62zM514 991v213q0 31 31 31h145q23 0 38 -24.5t23.5 -60.5t11.5 -74t3 -62 v-23q0 -31 -31 -30h-190q-31 0 -31 30z" />
<glyph unicode="&#xf8;" horiz-adv-x="1179" d="M92 496v69q0 256 130 384t368 128q119 0 209 -33l123 218q14 25 43 24h104q31 0 14 -31l-157 -278q78 -66 119.5 -168t41.5 -244v-69q0 -256 -130 -384t-367 -128q-117 0 -209 30l-123 -215q-14 -25 -43 -24h-104q-31 0 -15 30l158 279q-162 127 -162 412zM330 504 q0 -66 9 -120t32 -95l327 579q-49 16 -108 17q-143 0 -201.5 -84t-58.5 -244v-53zM481 193q41 -17 109 -17q143 0 201.5 84t58.5 244v53q0 137 -41 213z" />
<glyph unicode="&#xf9;" horiz-adv-x="1239" d="M154 399v631q0 31 30 31h174q33 0 33 -31v-616q0 -131 54.5 -184.5t195.5 -53.5q55 0 105.5 4t101.5 15v835q0 31 33 31h174q31 0 30 -31v-901q0 -43 -14 -65.5t-45 -32.5q-86 -25 -190.5 -36t-214.5 -11q-250 0 -358.5 98t-108.5 317zM350 1459q0 11 10 18l113 73 q29 18 49 -6l240 -274q20 -20 -2 -35l-74 -47q-21 -14 -41 0q-78 51 -148.5 114.5t-136.5 135.5q-10 10 -10 21z" />
<glyph unicode="&#xfa;" horiz-adv-x="1239" d="M154 399v631q0 31 30 31h174q33 0 33 -31v-616q0 -131 54.5 -184.5t195.5 -53.5q55 0 105.5 4t101.5 15v835q0 31 33 31h174q31 0 30 -31v-901q0 -43 -14 -65.5t-45 -32.5q-86 -25 -190.5 -36t-214.5 -11q-250 0 -358.5 98t-108.5 317zM477 1270l240 274q20 25 49 6 l113 -73q10 -6 10 -17.5t-10 -21.5q-66 -72 -136.5 -135.5t-148.5 -114.5q-20 -14 -41 0l-74 47q-23 14 -2 35z" />
<glyph unicode="&#xfb;" horiz-adv-x="1239" d="M154 399v631q0 31 30 31h174q33 0 33 -31v-616q0 -131 54.5 -184.5t195.5 -53.5q55 0 105.5 4t101.5 15v835q0 31 33 31h174q31 0 30 -31v-901q0 -43 -14 -65.5t-45 -32.5q-86 -25 -190.5 -36t-214.5 -11q-250 0 -358.5 98t-108.5 317zM281 1272q25 33 54.5 67.5t60 68.5 t61 61.5t55.5 46.5q27 20 55 20h103q29 0 55 -20q25 -18 55.5 -46t61 -62t60.5 -68.5t54 -67.5q20 -27 -2 -41l-67 -43q-10 -6 -22.5 -8t-22.5 8l-224 205l-223 -205q-10 -10 -22.5 -8t-22.5 8l-67 43q-23 14 -2 41z" />
<glyph unicode="&#xfc;" horiz-adv-x="1239" d="M154 399v631q0 31 30 31h174q33 0 33 -31v-616q0 -131 54.5 -184.5t195.5 -53.5q55 0 105.5 4t101.5 15v835q0 31 33 31h174q31 0 30 -31v-901q0 -43 -14 -65.5t-45 -32.5q-86 -25 -190.5 -36t-214.5 -11q-250 0 -358.5 98t-108.5 317zM283 1276v12q0 29 7 78t23 88 q14 35 49 35h138q31 0 30 -33v-180q0 -33 -30 -33h-187q-31 0 -30 33zM707 1276v180q0 33 30 33h187q31 0 30 -33v-12q0 -29 -7 -78t-23 -88q-14 -35 -50 -35h-137q-31 0 -30 33z" />
<glyph unicode="&#xfd;" horiz-adv-x="1239" d="M154 414v614q0 33 30 33h174q33 0 33 -33v-596q0 -127 55.5 -183t194.5 -56q49 0 103.5 2t103.5 8v825q0 33 33 33h174q31 0 30 -33v-1032q0 -104 -24.5 -181t-80.5 -127t-146.5 -74t-221.5 -24q-80 0 -172 10.5t-168 32.5q-29 10 -28 33v113q0 31 32 24 q63 -10 139.5 -15t159.5 -5q80 0 133.5 13.5t84 41t43 69.5t12.5 97v45q-59 -23 -137 -36t-158 -13q-92 0 -166 21.5t-126 70.5t-79.5 128t-27.5 194zM502 1270l239 274q20 25 50 6l112 -73q10 -6 10 -17.5t-10 -21.5q-66 -72 -136.5 -135.5t-148.5 -114.5q-20 -14 -40 0 l-74 47q-23 14 -2 35z" />
<glyph unicode="&#xfe;" horiz-adv-x="1212" d="M154 -365v1829q0 31 28 31h178q31 0 31 -31v-438q53 25 128 38t151 13q104 0 188 -35.5t142.5 -100t89 -154t30.5 -197.5v-80q0 -115 -31.5 -211t-100 -167t-175 -109.5t-256.5 -38.5q-39 0 -82 4t-84 14v-367q0 -31 -31 -30h-178q-29 0 -28 30zM391 195q70 -18 164 -19 q162 0 245 91t83 257v51q0 166 -78 238t-232 72q-47 0 -96 -3t-86 -8v-679z" />
<glyph unicode="&#xff;" horiz-adv-x="1239" d="M154 414v614q0 33 30 33h174q33 0 33 -33v-596q0 -127 55.5 -183t194.5 -56q49 0 103.5 2t103.5 8v825q0 33 33 33h174q31 0 30 -33v-1032q0 -104 -24.5 -181t-80.5 -127t-146.5 -74t-221.5 -24q-80 0 -172 10.5t-168 32.5q-29 10 -28 33v113q0 31 32 24 q63 -10 139.5 -15t159.5 -5q80 0 133.5 13.5t84 41t43 69.5t12.5 97v45q-59 -23 -137 -36t-158 -13q-92 0 -166 21.5t-126 70.5t-79.5 128t-27.5 194zM285 1276v12q0 29 7 78t23 88q14 35 50 35h137q31 0 30 -33v-180q0 -33 -30 -33h-187q-31 0 -30 33zM709 1276v180 q0 33 30 33h187q31 0 30 -33v-12q0 -29 -7 -78t-23 -88q-14 -35 -49 -35h-138q-31 0 -30 33z" />
<glyph unicode="&#x152;" horiz-adv-x="1800" d="M117 676v80q0 162 31.5 287.5t102.5 212.5t183.5 132.5t276.5 45.5h919q33 0 33 -33v-141q0 -31 -33 -31h-524v-402h483q31 0 31 -30v-142q0 -33 -31 -32h-483v-322q0 -59 22.5 -90t88.5 -31h434q31 0 30 -30v-117q0 -33 -30 -33q-123 -12 -226.5 -18.5t-224.5 -6.5 q-66 0 -124 9.5t-99 33.5q-61 -23 -130 -33t-134 -10q-162 0 -275.5 49.5t-184.5 140.5t-103.5 220t-32.5 291zM367 688q0 -256 88 -382t303 -126q31 0 59.5 3t44.5 10q-4 14 -5 31.5t-1 33.5v971h-121q-203 0 -285.5 -117t-82.5 -369v-55z" />
<glyph unicode="&#x153;" horiz-adv-x="1841" d="M92 496v69q0 254 121 383t356 129q256 0 375 -168q57 82 151.5 125t217.5 43q98 0 178 -31.5t137.5 -88t89 -136.5t31.5 -176q0 -127 -61.5 -182t-190.5 -55h-436q8 -68 31.5 -113t62.5 -71.5t96.5 -37t132.5 -10.5q66 0 137.5 6t125.5 15q35 6 34 -25v-102 q0 -33 -32 -43q-57 -23 -133 -33t-164 -10q-147 0 -244.5 42t-161.5 119q-117 -161 -377 -161q-236 0 -356.5 129t-120.5 383zM330 504q0 -80 11 -140.5t39 -102.5t74.5 -63.5t118.5 -21.5t119 21.5t76 62.5t40 101.5t11 140.5v55q0 80 -11 140.5t-40 102.5t-76 63.5 t-119 21.5t-118.5 -21.5t-74.5 -63.5t-39 -102.5t-11 -140.5v-53zM1057 600h383q37 0 54 13.5t17 56.5q0 100 -58 157.5t-159 57.5q-115 0 -176 -63.5t-61 -221.5z" />
<glyph unicode="&#x178;" horiz-adv-x="1241" d="M41 1419q4 15 25 15h184q31 0 45 -31l326 -662l325 662q14 31 45 31h185q20 0 24 -14.5t-6 -35.5l-449 -888v-465q0 -31 -30 -31h-187q-33 0 -32 31v465l-449 888q-10 20 -6 35zM285 1632v13q0 29 7 78t23 87q14 35 50 35h137q31 0 30 -33v-180q0 -33 -30 -33h-187 q-31 0 -30 33zM709 1632v180q0 33 30 33h187q31 0 30 -33v-12q0 -29 -7 -78t-23 -88q-14 -35 -49 -35h-138q-31 0 -30 33z" />
<glyph unicode="&#x2c6;" horiz-adv-x="860" d="M92 1231q25 33 54.5 67.5t60.5 68.5t61.5 61.5t55.5 46.5q27 20 55 20h102q29 0 56 -20q25 -18 55.5 -46t61 -62t60 -68.5t54.5 -67.5q20 -27 -2 -41l-68 -43q-10 -6 -22 -8t-23 8l-223 205l-223 -205q-10 -10 -22.5 -8t-22.5 8l-68 43q-23 14 -2 41z" />
<glyph unicode="&#x2dc;" horiz-adv-x="860" d="M72 1298q0 86 51 133.5t141 47.5q51 0 97.5 -16.5t97.5 -59.5q43 -37 67.5 -52.5t46.5 -15.5q23 0 37.5 18.5t14.5 71.5v23q0 27 28 27h78q31 0 41 -27q6 -14 11 -40t5 -48q0 -86 -51 -133t-141 -47q-51 0 -98 16t-99 59q-43 37 -66.5 52.5t-45.5 15.5q-23 0 -37 -18.5 t-14 -71.5v-23q0 -27 -29 -26h-78q-31 0 -41 26q-6 14 -11 40t-5 48z" />
<glyph unicode="&#x2000;" horiz-adv-x="973" />
<glyph unicode="&#x2001;" horiz-adv-x="1946" />
<glyph unicode="&#x2002;" horiz-adv-x="973" />
<glyph unicode="&#x2003;" horiz-adv-x="1946" />
<glyph unicode="&#x2004;" horiz-adv-x="648" />
<glyph unicode="&#x2005;" horiz-adv-x="486" />
<glyph unicode="&#x2006;" horiz-adv-x="324" />
<glyph unicode="&#x2007;" horiz-adv-x="324" />
<glyph unicode="&#x2008;" horiz-adv-x="243" />
<glyph unicode="&#x2009;" horiz-adv-x="389" />
<glyph unicode="&#x200a;" horiz-adv-x="108" />
<glyph unicode="&#x2010;" horiz-adv-x="880" d="M127 598v158q0 33 33 32h561q33 0 33 -32v-158q0 -31 -33 -31h-561q-33 0 -33 31z" />
<glyph unicode="&#x2011;" horiz-adv-x="880" d="M127 598v158q0 33 33 32h561q33 0 33 -32v-158q0 -31 -33 -31h-561q-33 0 -33 31z" />
<glyph unicode="&#x2012;" horiz-adv-x="880" d="M127 598v158q0 33 33 32h561q33 0 33 -32v-158q0 -31 -33 -31h-561q-33 0 -33 31z" />
<glyph unicode="&#x2013;" horiz-adv-x="1024" d="M0 606v148q0 31 31 30h960q33 0 33 -30v-148q0 -31 -33 -31h-960q-31 0 -31 31z" />
<glyph unicode="&#x2014;" horiz-adv-x="2048" d="M0 606v148q0 31 31 30h1984q33 0 33 -30v-148q0 -31 -33 -31h-1984q-31 0 -31 31z" />
<glyph unicode="&#x2018;" horiz-adv-x="569" d="M156 1063v51q0 96 40 219t138 238q16 16 39 2l84 -47q18 -10 8 -33q-31 -55 -46.5 -114.5t-15.5 -106.5q0 -12 2.5 -32.5t6.5 -43.5t8 -47.5t4 -46.5v-39q0 -31 -31 -31h-207q-31 0 -30 31z" />
<glyph unicode="&#x2019;" horiz-adv-x="569" d="M104 1120q31 55 46.5 114.5t15.5 106.5q0 12 -2 33t-6 43q-4 23 -8.5 47.5t-4.5 46.5v39q0 31 31 31h207q31 0 31 -31v-51q0 -96 -40 -219t-138 -238q-16 -16 -39 -2l-84 47q-18 10 -9 33z" />
<glyph unicode="&#x201a;" horiz-adv-x="569" d="M104 -176q31 55 46.5 114.5t15.5 106.5q0 12 -2 32.5t-6 43.5t-8.5 47.5t-4.5 46.5v39q0 31 31 31h207q31 0 31 -31v-51q0 -96 -40 -219t-138 -238q-16 -16 -39 -2l-84 47q-18 10 -9 33z" />
<glyph unicode="&#x201c;" horiz-adv-x="956" d="M156 1063v51q0 96 40 219t138 238q16 16 39 2l84 -47q18 -10 8 -33q-31 -55 -46.5 -114.5t-15.5 -106.5q0 -12 2.5 -32.5t6.5 -43.5t8 -47.5t4 -46.5v-39q0 -31 -31 -31h-207q-31 0 -30 31zM543 1063v51q0 96 40 219t138 238q16 16 39 2l84 -47q18 -10 8 -33 q-31 -55 -46 -114.5t-15 -106.5q0 -12 2 -32.5t6 -43.5t8 -47.5t4 -46.5v-39q0 -31 -31 -31h-207q-31 0 -30 31z" />
<glyph unicode="&#x201d;" horiz-adv-x="956" d="M104 1120q31 55 46.5 114.5t15.5 106.5q0 12 -2 33t-6 43q-4 23 -8.5 47.5t-4.5 46.5v39q0 31 31 31h207q31 0 31 -31v-51q0 -96 -40 -219t-138 -238q-16 -16 -39 -2l-84 47q-18 10 -9 33zM492 1120q31 55 46 114.5t15 106.5q0 12 -2 33t-6 43q-4 23 -8.5 47.5t-4.5 46.5 v39q0 31 31 31h207q31 0 31 -31v-51q0 -96 -40 -219t-138 -238q-16 -16 -39 -2l-84 47q-18 10 -8 33z" />
<glyph unicode="&#x201e;" horiz-adv-x="956" d="M104 -176q31 55 46.5 114.5t15.5 106.5q0 12 -2 32.5t-6 43.5t-8.5 47.5t-4.5 46.5v39q0 31 31 31h207q31 0 31 -31v-51q0 -96 -40 -219t-138 -238q-16 -16 -39 -2l-84 47q-18 10 -9 33zM492 -176q31 55 46 114.5t15 106.5q0 12 -2 32.5t-6 43.5t-8.5 47.5t-4.5 46.5v39 q0 31 31 31h207q31 0 31 -31v-51q0 -96 -40 -219t-138 -238q-16 -16 -39 -2l-84 47q-18 10 -8 33z" />
<glyph unicode="&#x2022;" horiz-adv-x="940" d="M205 680q0 129 67.5 197.5t196.5 68.5t197.5 -68.5t68.5 -197.5t-68.5 -198.5t-197.5 -69.5t-196.5 69.5t-67.5 198.5z" />
<glyph unicode="&#x2026;" horiz-adv-x="1708" d="M145 231v23q0 31 31 31h207q31 0 31 -31v-223q0 -31 -31 -31h-162q-33 0 -47 41q-14 43 -21.5 96t-7.5 94zM715 231v23q0 31 30 31h207q31 0 31 -31v-223q0 -31 -31 -31h-161q-33 0 -48 41q-14 43 -21 96t-7 94zM1284 231v23q0 31 31 31h207q31 0 30 -31v-223 q0 -31 -30 -31h-162q-33 0 -47 41q-14 43 -21.5 96t-7.5 94z" />
<glyph unicode="&#x202f;" horiz-adv-x="389" />
<glyph unicode="&#x2039;" horiz-adv-x="708" d="M137 598v74q0 20 21 41q74 74 166 144.5t188 133.5q29 18 43 -6l33 -51q12 -20 -4 -37l-303 -262l303 -262q16 -16 4 -37l-33 -51q-14 -25 -43 -6q-96 63 -188.5 133.5t-165.5 144.5q-20 20 -21 41z" />
<glyph unicode="&#x203a;" horiz-adv-x="708" d="M121 336q-12 20 4 37l303 262l-303 262q-16 16 -4 37l33 51q14 25 43 6q96 -63 188 -134t166 -144q20 -20 20 -41v-74q0 -20 -20 -41q-74 -74 -166 -144.5t-188 -133.5q-29 -18 -43 6z" />
<glyph unicode="&#x205f;" horiz-adv-x="486" />
<glyph unicode="&#x20ac;" horiz-adv-x="1157" d="M37 557v57q0 33 31 33h110v139h-110q-31 0 -31 33v58q0 33 31 32h116q27 266 156 407.5t381 141.5q98 0 179 -12t132 -33q27 -10 27 -31v-120q0 -33 -31 -27q-51 8 -116.5 13t-137.5 5q-147 0 -230 -77.5t-108 -266.5h484q31 0 30 -32v-58q0 -33 -30 -33h-492v-139h492 q31 0 30 -33v-57q0 -33 -30 -33h-484q23 -184 104 -264t238 -80q78 0 147.5 4t123.5 15q31 6 30 -27v-125q0 -23 -26 -31q-129 -41 -320 -41q-133 0 -231.5 38t-164 109t-103 172t-50.5 230h-116q-31 0 -31 33z" />
<glyph unicode="&#x2122;" horiz-adv-x="1366" d="M20 1341v64q0 29 29 29h451q27 0 26 -29v-64q0 -31 -26 -30h-152v-508q0 -27 -29 -27h-92q-29 0 -28 27v508h-150q-29 0 -29 30zM582 801v604q0 29 28 29h111q31 0 43 -25l164 -303l164 303q12 25 43 25h110q29 0 29 -29v-604q0 -27 -29 -27h-94q-27 0 -27 27v409 l-127 -229q-12 -23 -41 -23h-57q-29 0 -41 23l-127 229v-409q0 -27 -26 -27h-95q-29 0 -28 27z" />
<glyph unicode="&#x25fc;" horiz-adv-x="1064" d="M0 0v1065h1065v-1065h-1065z" />
</font>
</defs>
</svg>
