<?xml version="1.0" standalone="no"?>
<!DOCTYPE svg PUBLIC "-//W3C//DTD SVG 1.1//EN" "http://www.w3.org/Graphics/SVG/1.1/DTD/svg11.dtd" >
<svg xmlns="http://www.w3.org/2000/svg">
<metadata></metadata>
<defs>
<font id="coresansm45regulauploadedfile" horiz-adv-x="1105" >
<font-face units-per-em="2048" ascent="1612" descent="-436" />
<missing-glyph horiz-adv-x="614" />
<glyph unicode="&#xfb01;" horiz-adv-x="1234" d="M20 940v92q0 29 29 29h166v131q0 150 65.5 234.5t225.5 84.5q45 0 92 -7t88 -19q25 -10 25 -31v-76q0 -29 -31 -24q-37 4 -72 6t-76 2q-84 0 -112.5 -41t-28.5 -129v-131h631q29 0 29 -29v-1003q0 -29 -29 -29h-119q-29 0 -29 29v882h-483v-882q0 -29 -29 -29h-118 q-29 0 -29 29v882h-166q-29 0 -29 29zM874 1266v170q0 29 29 28h131q29 0 29 -28v-13q0 -31 -7 -70.5t-18 -78.5q-12 -37 -39 -37h-96q-29 0 -29 29z" />
<glyph unicode="&#xfb02;" horiz-adv-x="1325" d="M20 940v92q0 29 29 29h166v131q0 150 65.5 234.5t229.5 84.5q100 0 193.5 -3t203.5 -13h111q29 0 29 -29v-1190q0 -78 29.5 -110.5t103.5 -32.5q23 0 48 2t46 6q31 6 31 -26v-72q0 -27 -31 -35q-41 -10 -85 -17t-79 -7q-68 0 -114 21.5t-73.5 59t-40 90t-12.5 111.5v1092 q-80 4 -159.5 4h-178.5q-84 0 -112.5 -41t-28.5 -129v-131h291q29 0 29 -29v-92q0 -29 -29 -29h-291v-882q0 -29 -29 -29h-118q-29 0 -29 29v882h-166q-29 0 -29 29z" />
<glyph unicode="&#xfb03;" horiz-adv-x="1880" d="M20 940v92q0 29 29 29h166v131q0 162 67.5 240.5t237.5 78.5q53 0 105.5 -7t103.5 -19q25 -6 25 -31v-76q0 -29 -31 -24q-41 4 -86 6t-92 2q-84 0 -119 -35t-35 -135v-131h471v131q0 150 65.5 234.5t225.5 84.5q45 0 92 -7t88 -19q25 -10 25 -31v-76q0 -29 -31 -24 q-37 4 -71.5 6t-75.5 2q-84 0 -113 -41t-29 -129v-131h629q29 0 29 -29v-1003q0 -29 -29 -29h-119q-29 0 -28 29v882h-482v-882q0 -29 -28 -29h-119q-29 0 -29 29v882h-471v-882q0 -29 -29 -29h-118q-29 0 -29 29v882h-166q-29 0 -29 29zM1520 1266v170q0 29 28 28h131 q29 0 29 -28v-13q0 -31 -7 -70.5t-18 -78.5q-12 -37 -38 -37h-97q-29 0 -28 29z" />
<glyph unicode="&#xfb04;" horiz-adv-x="1972" d="M20 940v92q0 29 29 29h166v131q0 162 67.5 240.5t237.5 78.5q53 0 105.5 -7t103.5 -19q25 -6 25 -31v-76q0 -29 -31 -24q-41 4 -86 6t-92 2q-84 0 -119 -35t-35 -135v-131h471v131q0 150 65.5 234.5t229.5 84.5q100 0 193.5 -3t203.5 -13h111q29 0 29 -29v-1190 q0 -78 29.5 -110.5t103.5 -32.5q23 0 48.5 2t45.5 6q31 6 31 -26v-72q0 -27 -31 -35q-41 -10 -85 -17t-79 -7q-68 0 -114 21.5t-73.5 59t-39.5 90t-12 111.5v1090q-80 4 -160 5t-178 1q-84 0 -113 -41t-29 -129v-131h291q29 0 29 -29v-92q0 -29 -29 -29h-291v-882 q0 -29 -28 -29h-119q-29 0 -29 29v882h-471v-882q0 -29 -29 -29h-118q-29 0 -29 29v882h-166q-29 0 -29 29z" />
<glyph unicode="&#xd;" horiz-adv-x="485" />
<glyph horiz-adv-x="0" />
<glyph horiz-adv-x="0" />
<glyph unicode=" "  horiz-adv-x="614" />
<glyph unicode="&#x09;" horiz-adv-x="614" />
<glyph unicode="&#xa0;" horiz-adv-x="614" />
<glyph unicode="!" horiz-adv-x="557" d="M174 205v16q0 29 29 29h151q29 0 29 -29v-192q0 -29 -29 -29h-116q-27 0 -39 37q-10 39 -16.5 86t-8.5 82zM178 1063v342q0 29 29 29h147q29 0 29 -29v-342l-33 -662q-2 -35 -31 -34h-77q-29 0 -31 34z" />
<glyph unicode="&#x22;" horiz-adv-x="1003" d="M205 1409q0 25 24 25h164q23 0 23 -25v-35q0 -90 -13.5 -220t-40.5 -259q-4 -18 -20 -18h-90q-20 0 -21 18zM588 1409q0 25 24 25h164q23 0 23 -25v-35q0 -90 -13.5 -220t-40.5 -259q-4 -18 -20 -18h-90q-20 0 -21 18z" />
<glyph unicode="#" horiz-adv-x="1392" d="M72 393v96q0 29 28 29h213l70 406h-203q-29 0 -28 28v97q0 29 28 28h230l57 328q4 29 33 29h118q29 0 25 -29l-57 -328h344l57 328q4 29 33 29h119q29 0 24 -29l-57 -328h186q29 0 29 -28v-97q0 -29 -29 -28h-213l-69 -406h202q29 0 29 -29v-96q0 -29 -29 -28h-229 l-57 -336q-6 -29 -33 -29h-119q-31 0 -24 29l57 336h-344l-57 -336q-4 -29 -33 -29h-119q-31 0 -25 29l58 336h-187q-29 0 -28 28zM489 518h345l69 406h-344z" />
<glyph unicode="$" horiz-adv-x="1112" d="M113 1106q0 162 93 251t296 99v154q0 29 28 28h70q29 0 29 -28v-156q70 -4 144.5 -14t141.5 -21q25 -4 25 -26v-90q0 -27 -33 -25q-147 16 -278 18v-499l149 -68q123 -55 177.5 -154.5t54.5 -230.5q0 -162 -86 -256t-295 -108v-152q0 -29 -29 -29h-70q-29 0 -28 29v147 q-90 4 -182.5 13.5t-178.5 25.5q-25 4 -24 27v90q0 27 33 25q80 -10 171 -15.5t181 -5.5v531l-156 71q-123 55 -178 146.5t-55 222.5zM297 1104q0 -78 40 -135.5t132 -98.5l33 -16v442q-106 -10 -155.5 -54t-49.5 -138zM629 141q102 14 149 63.5t47 141.5q0 82 -38.5 145.5 t-131.5 104.5l-26 12v-467z" />
<glyph unicode="%" horiz-adv-x="1810" d="M164 1059v47q0 168 84 256t235 88q152 0 236 -88t84 -256v-47q0 -168 -84 -255t-236 -87t-235.5 87t-83.5 255zM322 1071q0 -94 35.5 -148.5t125.5 -54.5t125 54.5t35 148.5v25q0 94 -35 148t-125 54t-125.5 -54t-35.5 -148v-25zM377 11.5q-4 11.5 2 21.5l862 1376 q6 10 15.5 17.5t25.5 7.5h135q12 0 16.5 -11.5t-1.5 -21.5l-863 -1376q-6 -10 -15 -17.5t-26 -7.5h-135q-12 0 -16 11.5zM1008 328v47q0 168 84 255t235 87q152 0 236 -87t84 -255v-47q0 -168 -84 -256t-236 -88t-235.5 88t-83.5 256zM1167 338q0 -94 35 -148.5t125 -54.5 t126 54.5t36 148.5v24q0 94 -36 148.5t-126 54.5t-125 -54t-35 -149v-24z" />
<glyph unicode="&#x26;" horiz-adv-x="1499" d="M143 352q0 137 82 252t248 197l-86 98q-74 88 -107.5 156.5t-33.5 146.5q0 113 84 184.5t278 71.5q94 0 189.5 -11t169.5 -28q23 -6 22 -26v-90q0 -27 -33 -25q-76 8 -156.5 14t-166.5 6q-117 0 -158 -26.5t-41 -77.5q0 -35 22.5 -80t78.5 -110l505 -603q33 63 55.5 140 t32.5 170q4 25 29 18l96 -20q25 -4 25 -29q0 -123 -29.5 -229.5t-85.5 -192.5l180 -215q12 -16 11.5 -29.5t-25.5 -13.5h-155q-31 0 -54 27l-80 94q-84 -70 -189.5 -108t-229.5 -38q-236 0 -357 104.5t-121 272.5zM334 356q0 -98 76.5 -153.5t218.5 -55.5q180 0 299 107 l-373 444q-117 -80 -169 -164t-52 -178z" />
<glyph unicode="'" horiz-adv-x="600" d="M195 1409q0 25 24 25h164q23 0 23 -25v-35q0 -90 -13.5 -220t-40.5 -259q-4 -18 -20 -18h-90q-20 0 -21 18z" />
<glyph unicode="(" horiz-adv-x="790" d="M205 618q0 199 26.5 366t87 292t158.5 198.5t244 86.5q29 2 29 -25v-88q0 -23 -27 -29q-72 -12 -133.5 -57t-106.5 -138.5t-70.5 -240.5t-25.5 -365q0 -217 25.5 -364.5t70.5 -240.5t106.5 -138t133.5 -57q27 -6 27 -29v-88q0 -27 -29 -25q-145 12 -243.5 86t-159 199 t-87 291.5t-26.5 365.5z" />
<glyph unicode=")" horiz-adv-x="790" d="M41 -211q0 23 27 29q72 12 133 57t106 138t70.5 240.5t25.5 364.5t-25.5 364.5t-70.5 241t-106.5 138.5t-132.5 57q-27 6 -27 29v88q0 27 29 25q145 -12 243.5 -86t158.5 -199t87 -292t27 -366t-27 -365.5t-87 -291.5t-158.5 -198.5t-243.5 -86.5q-29 -2 -29 25v88z" />
<glyph unicode="*" horiz-adv-x="1191" d="M63 760l39 117q6 18 20.5 21t33.5 -3q88 -29 195.5 -79t211.5 -120q-35 121 -49 242t-14 209q0 18 8 30.5t24 12.5h127q16 0 24.5 -12.5t8.5 -30.5q0 -88 -14 -209t-49 -242q104 70 210.5 120t196.5 79q18 6 32.5 3t21.5 -21l38 -117q10 -33 -32 -47q-84 -29 -198 -50.5 t-249 -27.5q98 -78 181 -167t135 -161q27 -35 0 -55l-103 -74q-14 -10 -28.5 -5t-24.5 22q-53 70 -111.5 176t-101.5 223q-43 -117 -101.5 -223.5t-111.5 -175.5q-10 -16 -24.5 -21.5t-28.5 4.5l-103 74q-27 20 0 55q51 72 134 161t182 167q-125 4 -241 26.5t-206 51.5 q-43 14 -33 47z" />
<glyph unicode="+" horiz-adv-x="1269" d="M145 629v102q0 29 29 29h369v397q0 29 28 29h127q29 0 29 -29v-397h369q29 0 28 -29v-102q0 -29 -28 -29h-369v-397q0 -29 -29 -29h-127q-29 0 -28 29v397h-369q-29 0 -29 29z" />
<glyph unicode="," horiz-adv-x="552" d="M129 -182q31 53 45 110.5t14 116.5q0 16 -2 30.5t-6 33.5q-6 35 -9 59.5t-3 52.5q0 29 29 29h151q29 0 29 -29v-51q0 -88 -36 -195.5t-120 -212.5q-10 -10 -24 -2l-62 35q-14 8 -6 23z" />
<glyph unicode="-" horiz-adv-x="872" d="M143 621v118q0 29 29 29h528q29 0 29 -29v-118q0 -29 -29 -29h-528q-29 0 -29 29z" />
<glyph unicode="." horiz-adv-x="552" d="M168 205v16q0 29 29 29h151q29 0 29 -29v-192q0 -29 -29 -29h-117q-27 0 -38 37q-10 39 -16.5 86t-8.5 82z" />
<glyph unicode="/" horiz-adv-x="993" d="M-18.5 -210q-6.5 15 4.5 36l845 1687q4 8 11.5 14.5t23.5 6.5h119q20 0 26.5 -15.5t-3.5 -35.5l-846 -1688q-4 -8 -11.5 -14t-23.5 -6h-119q-20 0 -26.5 15z" />
<glyph unicode="0" d="M70 717q0 178 21.5 315t75.5 232.5t147.5 144.5t238.5 49q143 0 237.5 -49t148.5 -144.5t75.5 -232.5t21.5 -315t-21.5 -315.5t-75.5 -232.5t-148.5 -144.5t-237.5 -49.5q-145 0 -238.5 49.5t-147.5 144.5t-75.5 232.5t-21.5 315.5zM254 717q0 -162 14.5 -272.5t48 -179 t92 -99.5t144.5 -31t144.5 31t92 99.5t48 179t14.5 272.5t-14.5 272.5t-48 179t-92 99t-144.5 30.5t-144.5 -30.5t-92 -99t-48 -179t-14.5 -272.5z" />
<glyph unicode="1" d="M248 1290v74q0 25 24 31q84 16 175.5 27.5t185.5 11.5h59q29 0 29 -29v-1376q0 -29 -29 -29h-127q-29 0 -28 29v1251h-50q-53 0 -106 -4t-105 -12q-29 -6 -28 26z" />
<glyph unicode="2" d="M109 33v108q0 88 27.5 163t79.5 140.5t127 126t167 119.5q70 45 122 86t86 86t51 95.5t17 113.5q0 61 -13 104.5t-47 71t-89 39.5t-141 12t-155 -5t-140 -15q-29 -2 -29 25v90q0 10 4 17t19 11q61 14 143 25.5t168 11.5q131 0 220 -22.5t143.5 -69.5t78 -121t23.5 -174 q0 -154 -84 -281.5t-273 -236.5q-168 -98 -241.5 -189.5t-73.5 -183.5v-20h643q29 0 29 -29v-102q0 -29 -29 -29h-801q-33 0 -32 33z" />
<glyph unicode="3" d="M92 45v84q0 29 31 27q72 -10 146.5 -15.5t154.5 -5.5q184 0 269 69.5t85 192.5q0 131 -70.5 196.5t-220.5 65.5h-278q-29 0 -29 29v103q0 29 29 28h254q154 0 224.5 62.5t70.5 177.5q0 117 -68.5 178t-216.5 61q-84 0 -158.5 -5t-146.5 -15q-31 -4 -31 25v88q0 20 21 26 q59 18 142 29.5t173 11.5q223 0 346 -106.5t123 -290.5q0 -86 -40 -172t-144 -146q111 -57 158 -150t47 -192q0 -190 -133.5 -308t-401.5 -118q-82 0 -166 9.5t-143 29.5q-27 8 -27 31z" />
<glyph unicode="4" d="M59 328v92q0 20 3.5 43.5t13.5 52.5q31 98 72.5 215t90 234.5t97.5 231.5t96 208q16 29 53 29h117q23 0 28 -16.5t-5 -33.5q-57 -98 -109.5 -212.5t-99.5 -235.5t-88 -243t-72 -238h442v442q0 29 29 29h127q29 0 29 -29v-442h151q29 0 29 -29v-102q0 -29 -29 -29h-151 v-266q0 -29 -29 -29h-127q-29 0 -29 29v266h-606q-33 0 -33 33z" />
<glyph unicode="5" d="M141 45v84q0 31 29 27q72 -10 144.5 -15.5t129.5 -5.5q186 0 268.5 75t82.5 191v45q0 248 -269 248h-290q-63 0 -58 70l45 610q4 59 68 60h639q29 0 28 -29v-102q0 -29 -28 -29h-535l-33 -422h148q242 0 355.5 -102.5t113.5 -294.5v-56q0 -92 -33 -169.5t-98.5 -134 t-163.5 -88.5t-231 -32q-33 0 -71 3.5t-77 7.5t-74.5 11t-64.5 17q-25 8 -25 31z" />
<glyph unicode="6" d="M119 403v482q0 119 23.5 224t75.5 182t138 122t213 45q72 0 154 -11t145 -28q27 -6 27 -28v-84q0 -35 -31 -29q-63 10 -130.5 15t-139.5 5q-86 0 -142.5 -28.5t-89 -81.5t-46 -128t-13.5 -165v-70q59 23 137 37.5t156 14.5q115 0 193.5 -29t128 -81t71 -124t21.5 -158 v-61q0 -217 -119 -333t-322 -116q-231 0 -340.5 117t-109.5 311zM303 406q0 -117 60.5 -194t193.5 -77q137 0 202.5 75t65.5 216v45q0 117 -61 181.5t-213 64.5q-61 0 -128 -4t-120 -8v-299z" />
<glyph unicode="7" d="M92 1303v102q0 29 29 29h815q33 0 33 -31v-103q0 -27 -5.5 -47t-19.5 -43q-178 -285 -290.5 -575.5t-194.5 -595.5q-4 -18 -14.5 -28.5t-32.5 -10.5h-119q-16 0 -20.5 14.5t-0.5 34.5q41 166 98.5 328t123 316.5t138.5 301t144 279.5h-655q-29 0 -29 29z" />
<glyph unicode="8" d="M74 371q0 141 57 235t170 152q-76 47 -125 122.5t-49 196.5q0 180 104.5 280.5t321.5 100.5q117 0 199 -26.5t132 -77.5t72.5 -124t22.5 -165q0 -111 -39 -194t-149 -142q49 -27 93 -60.5t76.5 -77.5t52 -98.5t19.5 -121.5q0 -203 -111.5 -299.5t-365.5 -96.5 q-252 0 -366.5 101.5t-114.5 294.5zM258 371q0 -121 68.5 -178.5t228.5 -57.5t226.5 53.5t66.5 180.5q0 68 -40 118t-99.5 88.5t-130 65.5t-134.5 47q-92 -53 -139 -129.5t-47 -187.5zM311 1079q0 -57 19.5 -98t60.5 -72.5t103.5 -58.5t146.5 -55q84 47 119 115.5t35 154.5 q0 117 -54.5 175t-187.5 58t-187.5 -57t-54.5 -162z" />
<glyph unicode="9" d="M96 948v62q0 217 119 332.5t322 115.5q229 0 339.5 -116.5t110.5 -311.5v-481q0 -121 -23.5 -225.5t-75.5 -181t-139 -122t-212 -45.5q-72 0 -154 11.5t-145 27.5q-27 6 -27 29v84q0 35 31 29q63 -10 130.5 -15.5t139.5 -5.5q86 0 142.5 29t89 82t46 128t13.5 165v69 q-59 -23 -137 -37t-156 -14q-115 0 -193.5 28.5t-128 81t-71 124t-21.5 157.5zM281 963q0 -117 61 -181.5t213 -64.5q61 0 128 4t120 8v299q0 117 -60.5 193.5t-193.5 76.5q-137 0 -202.5 -74.5t-65.5 -215.5v-45z" />
<glyph unicode=":" horiz-adv-x="552" d="M168 205v16q0 29 29 29h151q29 0 29 -29v-192q0 -29 -29 -29h-117q-27 0 -38 37q-10 39 -16.5 86t-8.5 82zM168 858v193q0 29 29 28h116q27 0 39 -37q10 -39 16.5 -86t8.5 -82v-16q0 -29 -29 -29h-151q-29 0 -29 29z" />
<glyph unicode=";" horiz-adv-x="552" d="M129 -182q31 53 45 110.5t14 116.5q0 16 -2 30.5t-6 33.5q-6 35 -9 59.5t-3 52.5q0 29 29 29h151q29 0 29 -29v-51q0 -88 -36 -195.5t-120 -212.5q-10 -10 -24 -2l-62 35q-14 8 -6 23zM168 858v193q0 29 29 28h116q27 0 39 -37q10 -39 16.5 -86t8.5 -82v-16 q0 -29 -29 -29h-151q-29 0 -29 29z" />
<glyph unicode="&#x3c;" horiz-adv-x="1269" d="M145 635v90q0 33 23 47q84 55 187.5 111.5t217 111t232.5 104.5t231 91q31 12 45 -14l35 -60q16 -29 -8 -41l-774 -395l774 -395q25 -12 8 -41l-35 -60q-14 -27 -45 -14q-113 41 -231.5 91t-232 104.5t-217 110.5t-187.5 112q-23 14 -23 47z" />
<glyph unicode="=" horiz-adv-x="1269" d="M145 391v103q0 29 29 28h922q29 0 28 -28v-103q0 -29 -28 -29h-922q-29 0 -29 29zM145 866v103q0 29 29 28h922q29 0 28 -28v-103q0 -29 -28 -28h-922q-29 0 -29 28z" />
<glyph unicode="&#x3e;" horiz-adv-x="1269" d="M154 244q-16 29 8 41l774 395l-774 395q-25 12 -8 41l34 60q14 27 45 14q113 -41 232 -91t232.5 -104.5t217 -111t187.5 -111.5q23 -14 22 -47v-90q0 -33 -22 -47q-84 -55 -187.5 -111.5t-217 -111t-232.5 -104.5t-232 -91q-31 -12 -45 14z" />
<glyph unicode="?" horiz-adv-x="1003" d="M102 1311v84q0 20 25 26q74 18 141.5 27.5t155.5 9.5q231 0 333.5 -95t102.5 -282q0 -117 -60.5 -211t-185.5 -198q-59 -49 -79.5 -117t-20.5 -137v-23q0 -29 -29 -28h-123q-29 0 -28 28v27q0 49 7 97t27.5 95.5t56.5 94.5t93 96q78 66 122 135.5t44 138.5 q0 121 -65.5 175.5t-194.5 54.5q-88 0 -161 -4.5t-142 -16.5q-18 -4 -19 23zM319 205v16q0 29 29 29h152q29 0 28 -29v-192q0 -29 -28 -29h-117q-27 0 -39 37q-10 39 -16 86t-9 82z" />
<glyph unicode="@" horiz-adv-x="1748" d="M123 588v88q0 193 49 345.5t142.5 257.5t229.5 161.5t310 56.5h78q166 0 293 -47t214 -134t132 -208t45 -268v-535q0 -41 -15.5 -62.5t-44.5 -35.5q-49 -23 -106 -39t-116.5 -27.5t-119 -17.5t-112.5 -6h-37q-152 0 -260.5 30.5t-178 92t-102 151.5t-32.5 207v70 q0 94 27.5 174t81.5 138t132 90t176 32q170 0 261.5 -84t91.5 -225v-533q59 6 114.5 18.5t104.5 30.5v547q0 127 -40 224.5t-113 162t-174 97t-222 32.5h-66q-295 0 -450.5 -175t-155.5 -538v-55q0 -172 43 -309t133 -232.5t228.5 -146.5t328.5 -51h68q102 0 215 15.5 t207 47.5q33 12 33 -20v-62q0 -16 -7.5 -23t-17.5 -11q-96 -37 -205.5 -54.5t-208.5 -17.5h-94q-231 0 -395 65.5t-267.5 180t-150.5 269.5t-47 333zM668 598q0 -178 92 -262t311 -84h14v526q0 168 -165 168q-106 0 -179 -68.5t-73 -224.5v-55z" />
<glyph unicode="A" horiz-adv-x="1253" d="M66 35l409 1356q12 43 57 43h189q45 0 57 -43l410 -1356q2 -8 2 -14q0 -21 -25 -21h-135q-29 0 -35 23l-96 325h-545l-96 -325q-6 -23 -35 -23h-135q-25 0 -25 20q0 6 3 15zM401 508h451l-225 768z" />
<glyph unicode="B" horiz-adv-x="1298" d="M184 115v1202q0 78 58 94q94 27 190 37t201 10q260 0 376.5 -104.5t116.5 -296.5q0 -98 -36.5 -172t-145.5 -129q70 -20 117 -56t74.5 -82.5t39 -102.5t11.5 -118q0 -102 -28 -181t-87 -132t-156.5 -81t-234.5 -28q-117 0 -231.5 9t-206.5 36q-57 16 -58 95zM369 158 q74 -12 141 -17.5t143 -5.5q197 0 272.5 66.5t75.5 197.5q0 57 -14 104.5t-47 82.5t-83 54t-124 19h-364v-501zM369 819h280q152 0 222.5 58.5t70.5 179.5q0 135 -88 188t-262 53q-119 0 -223 -24v-455z" />
<glyph unicode="C" horiz-adv-x="1150" d="M123 684v66q0 160 31.5 289.5t102.5 223t181.5 144.5t270.5 51q82 0 160.5 -10t156.5 -29q23 -6 23 -26v-90q0 -31 -33 -25q-76 10 -142.5 15t-140.5 5q-119 0 -199.5 -35.5t-131 -105.5t-73 -174t-22.5 -242v-49q0 -137 22.5 -241.5t73 -174t131 -105.5t199.5 -36 q74 0 151 5t152 16q33 2 33 -25v-90q0 -20 -22 -27q-80 -16 -168 -27.5t-170 -11.5q-160 0 -270.5 51.5t-181.5 144.5t-102.5 223t-31.5 290z" />
<glyph unicode="D" horiz-adv-x="1357" d="M184 117v1200q0 78 58 94q78 23 176 35t200 12q176 0 295 -50t191 -142t101.5 -224.5t29.5 -293.5v-62q0 -164 -29.5 -295t-101.5 -223t-190.5 -142.5t-295.5 -50.5q-102 0 -200.5 12.5t-175.5 35.5q-57 16 -58 94zM369 160q111 -25 223 -25q141 0 230 38t139.5 108.5 t70 174t19.5 236.5v49q0 131 -19.5 235.5t-70 175.5t-139.5 108.5t-230 37.5q-113 0 -223 -24v-1114z" />
<glyph unicode="E" horiz-adv-x="1165" d="M184 268v897q0 84 14.5 140.5t52.5 90.5t103.5 48t167.5 14q131 0 249 -6t224 -16q27 -2 27 -31v-78q0 -29 -29 -29h-508q-68 0 -92 -32.5t-24 -94.5v-354h583q29 0 29 -29v-102q0 -29 -29 -29h-583v-395q0 -61 24.5 -94t91.5 -33h529q29 0 28 -29v-77q0 -29 -26 -31 q-127 -12 -242 -17.5t-252 -5.5q-102 0 -167.5 14.5t-103.5 48.5t-52.5 90t-14.5 140z" />
<glyph unicode="F" horiz-adv-x="1134" d="M184 29v1136q0 84 14.5 140.5t52.5 90.5t103.5 48t167.5 14q137 0 252 -5t242 -17q27 -2 26 -31v-78q0 -29 -28 -29h-529q-68 0 -92 -32.5t-24 -94.5v-370h583q29 0 29 -29v-102q0 -29 -29 -29h-583v-612q0 -29 -29 -29h-127q-29 0 -29 29z" />
<glyph unicode="G" horiz-adv-x="1351" d="M123 686v64q0 156 29.5 285.5t100.5 224t190.5 146.5t297.5 52q94 0 192.5 -11t184.5 -28q23 -6 23 -26v-90q0 -27 -33 -25q-76 10 -166 15t-176 5q-143 0 -232.5 -36.5t-139.5 -108.5t-68.5 -175.5t-18.5 -236.5v-49q0 -133 18.5 -236.5t65.5 -174t126 -108.5t202 -38 q82 0 150.5 5t134.5 20v467h-314q-29 0 -28 28v103q0 29 28 28h469q29 0 29 -28v-641q-1 -80 -58 -94q-100 -25 -201.5 -36.5t-219.5 -11.5q-164 0 -275.5 52.5t-180.5 146.5t-99.5 224t-30.5 288z" />
<glyph unicode="H" horiz-adv-x="1374" d="M184 29v1376q0 29 29 29h127q29 0 29 -29v-588h637v588q0 29 28 29h127q29 0 29 -29v-1376q0 -29 -29 -29h-127q-29 0 -28 29v628h-637v-628q0 -29 -29 -29h-127q-29 0 -29 29z" />
<glyph unicode="I" horiz-adv-x="593" d="M205 29v1376q0 29 28 29h127q29 0 29 -29v-1376q0 -29 -29 -29h-127q-29 0 -28 29z" />
<glyph unicode="J" horiz-adv-x="894" d="M10 41v90q0 31 33 25q66 -10 137.5 -15.5t163.5 -5.5q61 0 97 20.5t54.5 58.5t24.5 94.5t6 127.5v969q0 29 29 29h127q29 0 29 -29v-987q0 -104 -16.5 -187.5t-54.5 -139.5t-99.5 -86t-153.5 -30q-45 0 -94 3.5t-96 8.5t-89 12t-73 15q-25 6 -25 27z" />
<glyph unicode="K" horiz-adv-x="1234" d="M184 29v1376q0 29 29 29h127q29 0 29 -29v-647l571 665q10 10 29 11h164q14 0 18 -9.5t-4 -19.5l-567 -662l628 -714q5 -7 5 -13q0 -2 -1 -6q-4 -10 -18 -10h-180q-18 0 -29 10l-616 719v-700q0 -29 -29 -29h-127q-29 0 -29 29z" />
<glyph unicode="L" horiz-adv-x="1083" d="M184 268v1137q0 29 29 29h127q29 0 29 -29v-1143q0 -61 24.5 -94t91.5 -33h549q29 0 29 -29v-77q0 -29 -27 -31q-129 -12 -249.5 -17.5t-264.5 -5.5q-102 0 -167.5 14.5t-103.5 48.5t-52.5 90t-14.5 140z" />
<glyph unicode="M" horiz-adv-x="1667" d="M184 29v1376q0 29 29 29h158q39 0 55 -33l408 -793l409 797q16 29 51 29h160q29 0 29 -29v-1376q0 -29 -29 -29h-127q-29 0 -29 29v1124l-368 -721q-8 -16 -18.5 -23.5t-30.5 -7.5h-88q-41 0 -58 35l-366 717v-1124q0 -29 -29 -29h-127q-29 0 -29 29z" />
<glyph unicode="N" horiz-adv-x="1404" d="M184 29v1376q0 29 29 29h176q20 0 29.5 -7.5t17.5 -21.5l600 -1143v1143q0 29 29 29h127q29 0 29 -29v-1376q0 -29 -29 -29h-176q-20 0 -29.5 7t-17.5 22l-600 1142v-1142q0 -29 -29 -29h-127q-29 0 -29 29z" />
<glyph unicode="O" horiz-adv-x="1409" d="M123 686v62q0 346 140 528t442 182q301 0 441 -182t140 -528v-62q0 -346 -140 -528.5t-441 -182.5t-441.5 182.5t-140.5 528.5zM307 692q0 -293 97.5 -425t300.5 -132t300 132t97 425v49q0 293 -97.5 425t-299.5 132q-203 0 -300.5 -132t-97.5 -425v-49z" />
<glyph unicode="P" horiz-adv-x="1239" d="M184 29v1290q1 76 58 92q90 25 187 36t202 11q270 0 388 -105.5t118 -320.5v-80q0 -217 -121 -322.5t-385 -105.5q-133 0 -262 13v-508q0 -29 -29 -29h-127q-29 0 -29 29zM369 696q53 -6 113.5 -9t107.5 -3q104 0 174 18.5t112 54.5t59 89t17 125v43q0 74 -18.5 128 t-60.5 89t-111.5 51t-171.5 16q-55 0 -111.5 -6t-109.5 -18v-578z" />
<glyph unicode="Q" horiz-adv-x="1409" d="M123 686v62q0 710 580 710h2q582 0 581 -710v-62q0 -455 -233 -616l188 -258q27 -37 -22 -37h-140q-29 0 -45 22l-145 201q-86 -23 -184 -23q-582 0 -582 711zM307 692q0 -293 97.5 -425t300.5 -132t300 132t97 425v49q0 293 -97.5 425t-299.5 132q-203 0 -300.5 -132 t-97.5 -425v-49z" />
<glyph unicode="R" horiz-adv-x="1296" d="M184 29v1290q0 76 58 92q90 25 187.5 36t201.5 11q135 0 229 -28.5t153.5 -82t86 -130t26.5 -173.5v-59q0 -141 -59 -238.5t-188 -142.5l309 -571q5 -8 5 -15q0 -4 -3 -8q-6 -10 -23 -10h-141q-35 0 -47 23l-295 546h-53q-133 0 -262 13v-553q0 -29 -29 -29h-127 q-29 0 -29 29zM369 741q53 -6 113.5 -9t107.5 -3q104 0 171.5 19.5t107.5 55.5t56.5 86t16.5 114v22q0 68 -16.5 118t-57.5 85t-108.5 52t-169.5 17q-55 0 -111.5 -6t-109.5 -18v-533z" />
<glyph unicode="S" horiz-adv-x="1112" d="M113 1106q0 174 105.5 263t334.5 89q78 0 177 -11t185 -28q25 -4 25 -26v-90q0 -27 -33 -25q-92 10 -177 15t-165 5q-139 0 -203.5 -42.5t-64.5 -151.5q0 -78 40 -135.5t132 -98.5l309 -141q123 -55 177.5 -154.5t54.5 -230.5q0 -88 -24.5 -156.5t-79 -115.5t-143.5 -72 t-218 -25q-98 0 -201.5 11.5t-202.5 27.5q-25 4 -24 27v90q0 27 33 25q88 -10 187 -15.5t195 -5.5q154 0 223.5 50.5t69.5 160.5q0 82 -38.5 145.5t-131.5 104.5l-309 141q-123 55 -178 146.5t-55 222.5z" />
<glyph unicode="T" horiz-adv-x="1077" d="M31 1303v102q0 29 28 29h959q29 0 29 -29v-102q0 -29 -29 -29h-387v-1245q0 -29 -29 -29h-127q-29 0 -29 29v1245h-387q-29 0 -28 29z" />
<glyph unicode="U" horiz-adv-x="1421" d="M184 668v737q0 29 29 29h127q29 0 29 -29v-729q0 -129 17 -230.5t57 -170t105.5 -104.5t162.5 -36q96 0 161.5 36t105.5 104.5t57.5 170t17.5 230.5v729q0 29 28 29h127q29 0 29 -29v-737q0 -174 -26.5 -304.5t-88 -216.5t-162 -129t-249.5 -43q-150 0 -250.5 43 t-161.5 129t-88 216.5t-27 304.5z" />
<glyph unicode="V" horiz-adv-x="1253" d="M66 1399q-2 8 -2 15q0 20 24 20h135q29 0 35 -23l369 -1253l368 1253q6 23 35 23h135q25 0 25 -21q0 -6 -2 -14l-410 -1356q-12 -43 -57 -43h-189q-45 0 -57 43z" />
<glyph unicode="W" horiz-adv-x="1863" d="M43 1397q-2 9 -2 15q0 22 25 22h129q31 0 36 -29l304 -1247l262 1243q6 33 41 33h188q35 0 41 -33l262 -1243l303 1247q6 29 37 29h129q25 0 25 -22q0 -7 -2 -15l-340 -1354q-12 -43 -60 -43h-196q-27 0 -38 10t-16 33l-239 1176l-240 -1176q-4 -23 -15 -33t-38 -10h-197 q-47 0 -59 43z" />
<glyph unicode="X" horiz-adv-x="1198" d="M44 12q-3 5 -3 10q0 6 4 13l444 702l-417 662q-8 12 -2 23.5t24 11.5h150q23 0 37 -23l317 -502l320 502q14 23 36 23h150q18 0 24.5 -11.5t-2.5 -23.5l-419 -662l446 -702q5 -7 5 -14q0 -5 -3 -9q-6 -12 -25 -12h-149q-23 0 -37 23l-346 544l-344 -544q-14 -23 -37 -23 h-149q-18 0 -24 12z" />
<glyph unicode="Y" horiz-adv-x="1204" d="M44 1422q5 12 24 12h131q25 0 37 -23l366 -725l367 725q12 23 37 23h131q18 0 23 -12q2 -5 2 -10q0 -6 -3 -13l-465 -897v-473q0 -29 -28 -29h-127q-29 0 -29 29v473l-465 897q-3 7 -3 13q0 5 2 10z" />
<glyph unicode="Z" horiz-adv-x="1185" d="M92 55v103q0 29 5 50t22 44l772 1022h-727q-29 0 -29 29v102q0 29 29 29h858q55 0 55 -56v-102q0 -29 -5 -50.5t-21 -43.5l-772 -1022h786q29 0 29 -29v-102q0 -29 -29 -29h-918q-55 0 -55 55z" />
<glyph unicode="[" horiz-adv-x="813" d="M246 -295v1827q0 29 28 29h121q41 0 89 -1t96.5 -4.5t91.5 -7.5t73 -10q27 -6 27 -31v-77q0 -29 -29 -29h-313v-1565h313q29 0 29 -29v-77q0 -25 -27 -31q-31 -6 -73.5 -10t-91 -7.5t-96.5 -4.5t-89 -1h-121q-29 0 -28 29z" />
<glyph unicode="\" horiz-adv-x="993" d="M-18 1518.5q6 15.5 26 15.5h119q16 0 23.5 -6t11.5 -15l846 -1687q10 -20 4 -35.5t-27 -15.5h-119q-16 0 -23 6t-12 14l-845 1688q-10 20 -4 35.5z" />
<glyph unicode="]" horiz-adv-x="813" d="M41 -193q0 29 29 29h313v1565h-313q-29 0 -29 29v77q0 25 27 31q31 6 73.5 10t91 7.5t96.5 4.5t89 1h121q29 0 28 -29v-1827q0 -29 -28 -29h-121q-41 0 -89 1t-96.5 4.5t-91.5 7.5t-73 10q-27 6 -27 31v77z" />
<glyph unicode="^" horiz-adv-x="1183" d="M115 827q33 68 77 145t91 154.5t97 151.5t97 133q8 10 19.5 16.5t29.5 6.5h131q18 0 29.5 -6.5t20.5 -16.5q47 -59 97 -133t97 -151.5t90 -154.5t78 -145q14 -31 -10 -43l-76 -34q-27 -12 -43 10l-348 504l-348 -504q-16 -23 -43 -10l-76 34q-25 12 -10 43z" />
<glyph unicode="_" horiz-adv-x="1024" d="M0 -238q0 29 29 29h966q29 0 29 -29v-81q0 -29 -29 -29h-966q-29 0 -29 29v81z" />
<glyph unicode="`" horiz-adv-x="819" d="M223 1409q-23 23 0 39l94 61q25 18 45 -6l234 -282q23 -25 -2 -39l-53 -35q-18 -10 -41 4q-74 53 -145.5 125t-131.5 133z" />
<glyph unicode="a" horiz-adv-x="1173" d="M102 313q0 166 100.5 248t286.5 82q98 0 192.5 -18.5t162.5 -49.5v54q0 86 -14.5 144t-53.5 92t-104.5 48.5t-169.5 14.5q-66 0 -135.5 -6.5t-128.5 -16.5q-16 -4 -26.5 2t-10.5 23v74q0 23 18 28q66 20 149 32.5t164 12.5q137 0 231.5 -24.5t151 -75.5t81 -129 t24.5 -184v-537q0 -82 -59 -96q-80 -23 -188.5 -35t-217.5 -12q-129 0 -215 20.5t-139.5 62.5t-76 103t-22.5 143zM279 313q0 -98 65 -139t217 -41q76 0 146.5 5t136.5 20v311q-115 25 -283 25q-152 0 -217 -41t-65 -140z" />
<glyph unicode="b" horiz-adv-x="1202" d="M164 127v1339q0 29 29 29h118q29 0 29 -29v-446q61 29 141 43t166 14q104 0 187.5 -33.5t142.5 -97t91 -154t32 -200.5v-82q0 -113 -32 -209t-97.5 -167t-165.5 -110.5t-238 -39.5q-180 0 -344 47q-31 10 -45 31.5t-14 64.5zM340 158q51 -14 102.5 -19.5t108.5 -5.5 q174 0 273.5 101.5t99.5 289.5v54q0 188 -91.5 269t-271.5 81q-57 0 -116.5 -4t-104.5 -11v-755z" />
<glyph unicode="c" horiz-adv-x="1034" d="M102 494v73q0 115 31 209t94.5 161t160.5 103.5t230 36.5q74 0 153 -11t136 -28q25 -6 25 -26v-80q0 -27 -27 -25q-66 10 -129 15.5t-133 5.5q-193 0 -278.5 -91.5t-85.5 -277.5v-57q0 -186 86 -277.5t278 -91.5q70 0 135.5 5t136.5 16q27 2 27 -25v-80q0 -20 -24 -26 q-63 -16 -144.5 -27.5t-155.5 -11.5q-133 0 -230 36.5t-160.5 103t-94.5 161t-31 209.5z" />
<glyph unicode="d" horiz-adv-x="1202" d="M102 510v82q0 111 32 201t91.5 153.5t142.5 97t187 33.5q176 0 307 -57v446q0 29 29 29h119q29 0 28 -29v-1339q0 -43 -14 -64.5t-45 -31.5q-164 -47 -344 -47q-137 0 -237.5 39.5t-166 110.5t-97.5 167t-32 209zM279 524q0 -188 99 -289.5t273 -101.5q57 0 108.5 5 t102.5 20v755q-45 6 -104.5 10.5t-116.5 4.5q-180 0 -271 -81t-91 -269v-54z" />
<glyph unicode="e" horiz-adv-x="1150" d="M102 522v45q0 254 129 382t359 128q117 0 203 -30.5t142 -87t85 -134t29 -172.5q0 -119 -67 -172t-202 -53h-497q16 -166 106 -230.5t266 -64.5q68 0 148 5t143 16q33 6 33 -25v-80q0 -20 -25 -26q-72 -20 -158.5 -29.5t-164.5 -9.5q-270 0 -399.5 136t-129.5 402z M279 578h516q41 0 60 14t19 59q0 131 -71.5 204t-212.5 73q-70 0 -127 -19.5t-98 -61.5t-63.5 -108.5t-22.5 -160.5z" />
<glyph unicode="f" horiz-adv-x="751" d="M20 940v92q0 29 29 29h166v131q0 150 65.5 234.5t225.5 84.5q45 0 92 -7t88 -19q25 -10 25 -31v-76q0 -29 -31 -24q-37 4 -72 6t-76 2q-84 0 -112.5 -41t-28.5 -129v-131h291q29 0 29 -29v-92q0 -29 -29 -29h-291v-882q0 -29 -29 -29h-118q-29 0 -29 29v882h-166 q-29 0 -29 29z" />
<glyph unicode="g" horiz-adv-x="1202" d="M102 485v66q0 113 32 209t97.5 166.5t166 110.5t237.5 40q180 0 344 -47q31 -10 45 -31.5t14 -64.5v-944q0 -104 -23.5 -180t-76.5 -125.5t-138 -72t-208 -22.5q-39 0 -84 2t-90 7.5t-88 12.5t-78 17q-25 6 -25 27v80q0 31 33 24q63 -10 141 -15t166 -5t145.5 16.5 t90.5 50t46 84t13 115.5v51q-63 -29 -142 -43t-165 -14q-104 0 -187 34t-142.5 97.5t-91.5 153.5t-32 200zM279 500q0 -188 91 -269t271 -81q57 0 116.5 3t104.5 9v741q-51 14 -102 19.5t-109 5.5q-174 0 -273 -101.5t-99 -289.5v-37z" />
<glyph unicode="h" horiz-adv-x="1216" d="M164 29v1437q0 29 29 29h118q29 0 29 -29v-446q63 27 149 42t173 15q88 0 162.5 -21.5t127 -68.5t82 -124t29.5 -187v-647q0 -29 -29 -29h-119q-29 0 -28 29v628q0 145 -65.5 208t-229.5 63q-66 0 -130.5 -3t-121.5 -12v-884q0 -29 -29 -29h-118q-29 0 -29 29z" />
<glyph unicode="i" horiz-adv-x="544" d="M184 29v1003q0 29 29 29h119q29 0 28 -29v-1003q0 -29 -28 -29h-119q-29 0 -29 29zM184 1266v170q0 28 27 28h2h131q29 0 29 -28v-13q0 -31 -7.5 -70.5t-17.5 -78.5q-12 -37 -39 -37h-96q-29 0 -29 29z" />
<glyph unicode="j" horiz-adv-x="544" d="M-74 -279q0 33 31 27q20 -4 46 -6t48 -2q74 0 103.5 32.5t29.5 110.5v1149q0 29 29 29h119q29 0 28 -29v-1159q0 -59 -12 -111.5t-39.5 -90.5t-74 -59.5t-113.5 -21.5q-35 0 -79 7.5t-85 17.5q-31 8 -31 35v71zM184 1266v170q0 28 27 28h2h131q29 0 29 -28v-13 q0 -31 -7.5 -70.5t-17.5 -78.5q-12 -37 -39 -37h-96q-29 0 -29 29z" />
<glyph unicode="k" d="M164 29v1437q0 29 29 29h118q29 0 29 -29v-888l471 466q16 16 39 17h143q23 0 27 -13.5t-12 -29.5l-463 -459l526 -516q13 -13 13 -24q0 -3 -1 -5q-4 -14 -26 -14h-164q-23 0 -39 16l-514 525v-512q0 -29 -29 -29h-118q-29 0 -29 29z" />
<glyph unicode="l" horiz-adv-x="638" d="M184 266v1200q0 29 29 29h119q29 0 28 -29v-1190q0 -78 30 -110.5t104 -32.5q23 0 48 2t46 6q31 6 30 -26v-72q0 -27 -30 -35q-41 -10 -85 -17t-79 -7q-68 0 -114 21.5t-73.5 59t-40 90t-12.5 111.5z" />
<glyph unicode="m" horiz-adv-x="1689" d="M164 29v905q0 43 14.5 64.5t44.5 31.5q80 23 169 35t175 12q174 0 267 -71q66 31 152.5 51t178.5 20q178 0 274.5 -77.5t96.5 -243.5v-727q0 -29 -29 -29h-118q-29 0 -29 29v696q0 115 -53.5 159t-157.5 44q-119 0 -231 -43q10 -29 15 -60.5t5 -68.5v-727q0 -29 -29 -29 h-118q-29 0 -29 29v696q0 115 -53.5 159t-157.5 44q-53 0 -105.5 -5t-105.5 -20v-874q0 -29 -29 -29h-118q-29 0 -29 29z" />
<glyph unicode="n" horiz-adv-x="1216" d="M164 29v905q0 43 14.5 64.5t44.5 31.5q86 25 183.5 36t207.5 11q238 0 343.5 -98t105.5 -303v-647q0 -29 -29 -29h-119q-29 0 -28 29v628q0 145 -64.5 208t-230.5 63q-70 0 -130.5 -5t-121.5 -20v-874q0 -29 -29 -29h-118q-29 0 -29 29z" />
<glyph unicode="o" horiz-adv-x="1179" d="M102 496v69q0 256 129 384t359 128q229 0 358 -128t129 -384v-69q0 -256 -129 -384t-358 -128t-358.5 128t-129.5 384zM279 506q0 -88 17 -156.5t54 -117t96.5 -74t143.5 -25.5q168 0 239.5 98.5t71.5 274.5v49q0 88 -17.5 156.5t-54 117t-96 74t-143.5 25.5 q-170 0 -240.5 -99.5t-70.5 -273.5v-49z" />
<glyph unicode="p" horiz-adv-x="1202" d="M164 -367v1301q0 43 14.5 64.5t44.5 31.5q164 47 344 47q137 0 237.5 -40t166 -110.5t97.5 -166.5t32 -209v-82q0 -111 -32 -201t-91 -153.5t-142 -97t-188 -33.5q-86 0 -166 14t-141 43v-408q0 -28 -27 -28h-2h-118q-29 0 -29 28zM340 145q45 -6 104.5 -9t116.5 -3 q180 0 271.5 81t91.5 269v54q0 188 -99.5 289.5t-273.5 101.5q-57 0 -108.5 -5t-102.5 -20v-758z" />
<glyph unicode="q" horiz-adv-x="1202" d="M102 469v82q0 113 32 209t97.5 166.5t166 110.5t237.5 40q180 0 344 -47q31 -10 45 -31.5t14 -64.5v-1301q0 -28 -26 -28h-2h-119q-29 0 -29 28v408q-63 -29 -142 -43t-165 -14q-104 0 -187 33.5t-142.5 97t-91.5 153.5t-32 201zM279 483q0 -188 91 -269t271 -81 q57 0 116.5 3t104.5 9v758q-51 14 -102 19.5t-109 5.5q-174 0 -273 -101.5t-99 -289.5v-54z" />
<glyph unicode="r" horiz-adv-x="829" d="M164 29v905q0 43 14.5 64.5t44.5 31.5q170 47 359 47q43 0 90 -2t90 -6q27 -2 26 -31v-104q0 -23 -11 -27t-27 0q-49 8 -91.5 12.5t-87.5 4.5q-115 0 -231 -25v-870q0 -29 -29 -29h-118q-29 0 -29 29z" />
<glyph unicode="s" horiz-adv-x="974" d="M113 49v80q0 31 32 25q74 -10 165 -15.5t182 -5.5q96 0 150 36t54 110q0 100 -133 157l-215 88q-106 43 -170.5 106.5t-64.5 168.5q0 145 101 211.5t263 66.5q166 0 314 -39q25 -6 24 -26v-80q0 -31 -33 -25q-61 10 -141 15.5t-158 5.5q-96 0 -145 -27t-49 -100 q0 -49 34.5 -81t98.5 -58l215 -89q106 -43 170.5 -115.5t64.5 -176.5q0 -74 -28.5 -129.5t-78.5 -92t-118.5 -56t-148.5 -19.5q-92 0 -189.5 9t-171.5 30q-25 6 -24 26z" />
<glyph unicode="t" horiz-adv-x="849" d="M51 940v92q0 29 29 29h182v254q0 28 27 28h2h119q29 0 28 -28v-254h287q29 0 29 -29v-92q0 -29 -29 -29h-287v-608q0 -88 31 -129t123 -41q41 0 78 2t75 6q29 4 29 -24v-76q0 -25 -24 -31q-35 -10 -87.5 -18t-93.5 -8q-164 0 -235.5 85t-71.5 234v608h-182q-29 0 -29 29z " />
<glyph unicode="u" horiz-adv-x="1226" d="M164 385v647q0 29 29 29h118q29 0 29 -29v-629q0 -145 64.5 -207.5t230.5 -62.5q70 0 130 5t122 20v874q0 29 28 29h119q29 0 29 -29v-905q0 -43 -14.5 -64.5t-44.5 -31.5q-86 -25 -183.5 -36t-208.5 -11q-238 0 -343 97t-105 304z" />
<glyph unicode="v" horiz-adv-x="1089" d="M55 1026q-2 6 -2 12t3 12q5 10 22 11h117q31 0 38 -27l312 -893l311 893q8 27 39 27h117q16 -1 21 -11q3 -6 3 -12t-2 -12l-334 -983q-12 -43 -57 -43h-197q-45 0 -57 43z" />
<glyph unicode="w" horiz-adv-x="1601" d="M53 1028q-2 7 -2 12q0 21 25 21h123q29 0 34 -27l211 -899l232 885q10 41 51 41h147q41 0 52 -41l231 -885l211 899q6 27 35 27h123q24 0 24 -20q0 -6 -2 -13l-258 -985q-10 -43 -53 -43h-168q-43 0 -55 43l-213 854l-213 -854q-12 -43 -56 -43h-167q-43 0 -54 43z" />
<glyph unicode="x" horiz-adv-x="1089" d="M44 12q-3 5 -3 9q0 7 6 14l395 520l-356 471q-10 12 -4 23.5t22 11.5h132q29 0 47 -25l262 -346l262 346q18 25 47 25h131q16 0 22.5 -11.5t-3.5 -23.5l-357 -471l395 -520q6 -8 6 -15q0 -4 -2 -8q-6 -12 -22 -12h-131q-29 0 -47 25l-301 395l-301 -395q-18 -25 -47 -25 h-131q-16 0 -22 12z" />
<glyph unicode="y" horiz-adv-x="1226" d="M164 401v631q0 29 29 29h118q29 0 29 -29v-612q0 -145 65.5 -207.5t229.5 -62.5q57 0 122.5 2t129.5 10v870q0 29 28 29h119q29 0 29 -29v-1042q0 -104 -23.5 -180t-77 -125.5t-138.5 -72t-208 -22.5q-39 0 -84 2t-90 7.5t-88 12.5t-78 17q-25 6 -24 27v80q0 31 33 24 q63 -10 141 -15t166 -5t145.5 16.5t90 50t46 84t13.5 115.5v51q-63 -29 -149.5 -43t-172.5 -14q-90 0 -163.5 21.5t-126 68.5t-82 124t-29.5 187z" />
<glyph unicode="z" horiz-adv-x="1024" d="M102 55v90q0 29 6.5 51.5t22.5 43.5l604 671h-573q-29 0 -29 29v92q0 29 29 29h682q55 0 55 -55v-91q0 -29 -6 -51t-23 -43l-604 -671h627q29 0 29 -29v-92q0 -29 -29 -29h-735q-55 0 -56 55z" />
<glyph unicode="{" horiz-adv-x="942" d="M164 580v77q0 16 10 22.5t23 8.5q100 16 134 73.5t34 151.5v238q0 111 29.5 188.5t78.5 127t113.5 72t136.5 22.5q49 0 95 -8.5t71 -18.5q12 -6 12 -21v-83q0 -29 -29 -29h-81q-115 0 -178.5 -54.5t-63.5 -179.5v-219q0 -135 -49 -219t-154 -111q104 -29 153.5 -111.5 t49.5 -217.5v-219q0 -125 63.5 -179.5t178.5 -54.5h81q29 0 29 -29v-83q0 -14 -12 -21q-25 -10 -71 -18.5t-95 -8.5q-72 0 -136.5 22.5t-113.5 72t-78.5 127t-29.5 188.5v238q0 94 -34 151t-134 74q-12 2 -22.5 8t-10.5 23z" />
<glyph unicode="|" horiz-adv-x="598" d="M225 -381v1927q0 29 29 29h90q29 0 29 -29v-1927q0 -29 -29 -29h-90q-29 0 -29 29z" />
<glyph unicode="}" horiz-adv-x="942" d="M41 -193q0 29 29 29h82q115 0 178 54.5t63 179.5v219q0 135 49.5 218t151.5 111q-102 27 -151.5 111t-49.5 219v219q0 125 -63.5 179.5t-177.5 54.5h-82q-29 0 -29 29v83q0 14 12 21q25 10 71 18.5t95 8.5q70 0 135.5 -22.5t114.5 -72t79 -127t30 -188.5v-238 q0 -94 33.5 -151t133.5 -74q12 -2 22.5 -8t10.5 -23v-77q0 -16 -10 -22.5t-23 -8.5q-100 -16 -133.5 -73.5t-33.5 -151.5v-238q0 -111 -30 -188.5t-79 -127t-114.5 -72t-135.5 -22.5q-49 0 -95 8.5t-71 18.5q-12 6 -12 21v83z" />
<glyph unicode="~" horiz-adv-x="1269" d="M127 616q0 145 70.5 213t187.5 68q78 0 145.5 -30.5t139.5 -90.5q82 -68 128 -95.5t89 -27.5q55 0 81.5 39t26.5 137v35q0 25 23 25h88q25 0 27 -21q10 -51 10 -96q0 -145 -70.5 -212.5t-187.5 -67.5q-78 0 -145.5 30.5t-139.5 89.5q-82 68 -128 95.5t-89 27.5 q-55 0 -82 -39t-27 -137v-35q0 -25 -22 -24h-88q-25 0 -27 20q-10 51 -10 96z" />
<glyph unicode="&#xa1;" horiz-adv-x="557" d="M178 -2l33 661q2 35 31 35h77q29 0 31 -35l33 -661v-342q0 -29 -29 -29h-147q-29 0 -29 29v342zM178 840v192q0 29 29 29h117q27 0 38 -37q10 -39 16.5 -86t8.5 -82v-16q0 -29 -29 -29h-151q-29 0 -29 29z" />
<glyph unicode="&#xa2;" horiz-adv-x="1034" d="M102 494v73q0 106 27 194.5t80 155t136 106.5t198 50v160q0 29 28 29h70q29 0 29 -29v-158q63 -4 126.5 -14t110.5 -23q25 -6 25 -26v-80q0 -27 -27 -25q-59 8 -116.5 13.5t-118.5 7.5v-795q61 0 120.5 5t124.5 16q27 2 27 -25v-80q0 -20 -24 -26q-53 -14 -118 -23.5 t-130 -13.5v-158q0 -29 -29 -29h-70q-29 0 -28 29v160q-227 20 -334 156.5t-107 349.5zM279 502q0 -160 63.5 -250t200.5 -113v781q-137 -23 -200.5 -113t-63.5 -248v-57z" />
<glyph unicode="&#xa3;" horiz-adv-x="1198" d="M82 29v88q0 23 14 37q76 72 113 142.5t37 174.5v203h-135q-29 0 -29 28v91q0 29 29 28h135v217q0 211 118.5 315.5t325.5 104.5q82 0 159 -10t155 -29q23 -6 22 -26v-90q0 -31 -33 -25q-76 10 -140.5 15t-137.5 5h-25q-264 0 -264 -254v-223h395q29 0 29 -28v-91 q0 -29 -29 -28h-395v-168q0 -100 -27.5 -187.5t-117.5 -158.5h827q29 0 29 -29v-102q0 -29 -29 -29h-997q-29 0 -29 29z" />
<glyph unicode="&#xa4;" horiz-adv-x="1449" d="M184 266l154 158q-66 106 -66 252q0 145 66 252l-154 157q-18 18 0 39l88 90q20 20 41 0l150 -153q111 76 262 76q152 0 262 -76l150 153q20 20 41 0l86 -88q18 -23 2 -41l-154 -157q66 -106 66 -252q0 -145 -66 -252l154 -158q16 -18 -2 -41l-86 -88q-20 -20 -41 0 l-150 154q-110 -76 -262 -76t-262 76l-150 -154q-20 -20 -41 0l-86 88q-18 23 -2 41zM446 676q0 -137 79 -216t200 -79t200 79t79 216t-79 216t-200 79t-200 -79t-79 -216z" />
<glyph unicode="&#xa5;" horiz-adv-x="1122" d="M44 1422.5q5 11.5 24 11.5h131q27 0 37 -23l325 -725l326 725q10 23 37 23h131q18 0 23 -11.5t-1 -23.5l-368 -778h292q29 0 29 -29v-62q0 -29 -29 -28h-348v-115h348q29 0 29 -29v-61q0 -29 -29 -29h-348v-239q0 -29 -28 -29h-127q-29 0 -29 29v239h-348q-29 0 -29 29 v61q0 29 29 29h348v115h-348q-29 0 -29 28v62q0 29 29 29h291l-367 778q-6 12 -1 23.5z" />
<glyph unicode="&#xa6;" horiz-adv-x="598" d="M225 -176v598q0 29 29 29h90q29 0 29 -29v-598q0 -29 -29 -29h-90q-29 0 -29 29zM225 782v598q0 29 29 29h90q29 0 29 -29v-598q0 -29 -29 -28h-90q-29 -1 -29 28z" />
<glyph unicode="&#xa7;" horiz-adv-x="978" d="M113 -59q0 31 32 24q74 -10 165 -15t182 -5q96 0 150 35.5t54 109.5q0 100 -133 158l-215 96q-104 47 -169.5 113.5t-65.5 171.5q0 90 54 163.5t171 120.5q-98 45 -159.5 106.5t-61.5 162.5q0 145 101 211.5t263 66.5q166 0 314 -39q25 -6 24 -26v-80q0 -31 -33 -25 q-61 10 -141 15.5t-158 5.5q-96 0 -145 -27t-49 -100q0 -49 34.5 -80t98.5 -60l215 -96q104 -47 170 -118t66 -175q0 -88 -52.5 -161.5t-162.5 -120.5q94 -47 152 -115t58 -166q0 -74 -28.5 -129t-78.5 -92t-118.5 -56.5t-148.5 -19.5q-92 0 -189.5 9.5t-171.5 29.5 q-25 6 -24 27v80zM289 629q0 -41 34.5 -80t98.5 -68l104 -47q98 43 136 102.5t38 118.5q0 41 -33.5 84t-99.5 72l-96 43q-104 -45 -143 -105.5t-39 -119.5z" />
<glyph unicode="&#xa8;" horiz-adv-x="819" d="M113 1243v12q0 31 7 71t17 79q12 37 39 37h96q29 0 29 -29v-170q0 -29 -29 -29h-131q-29 0 -28 29zM518 1243v170q0 29 29 29h131q29 0 29 -29v-12q0 -31 -7.5 -71t-17.5 -79q-12 -37 -39 -37h-96q-29 0 -29 29z" />
<glyph unicode="&#xa9;" horiz-adv-x="1699" d="M109 717q0 154 58 289t158.5 235t235.5 158.5t289 58.5t289 -58.5t235.5 -158.5t158.5 -235.5t58 -288.5q0 -154 -58 -289t-158.5 -235.5t-235.5 -159t-289 -58.5t-289 58.5t-235.5 159t-158.5 235.5t-58 289zM223 717q0 -133 49.5 -249t134.5 -202t199.5 -135t243.5 -49 t243.5 49t199.5 135t134.5 202t49.5 249q0 131 -49.5 246.5t-134.5 201.5t-199.5 136.5t-243.5 50.5t-243.5 -50.5t-199.5 -136.5t-134.5 -201.5t-49.5 -246.5zM457 688v60q0 184 100 296.5t315 112.5q59 0 123 -10t109 -21q20 -6 20 -22v-66q0 -20 -20 -16q-53 6 -104.5 10 t-106.5 4q-154 0 -224.5 -73.5t-70.5 -221.5v-47q0 -147 70.5 -222t224.5 -75q55 0 107.5 4.5t109.5 12.5q23 2 23 -19v-65q0 -16 -21 -23q-49 -12 -114.5 -21.5t-125.5 -9.5q-215 0 -315 113t-100 299z" />
<glyph unicode="&#xaa;" horiz-adv-x="901" d="M102 915q0 121 72 179.5t205 58.5q63 0 122.5 -10t106.5 -29v16q0 55 -10 92.5t-34.5 59t-66.5 30.5t-108 9q-43 0 -91 -4t-89 -12q-39 -6 -39 30v51q0 29 23 33q43 12 100 21.5t115 9.5q197 0 272.5 -71.5t75.5 -225.5v-365q0 -35 -13.5 -53t-37.5 -26 q-53 -16 -129 -24.5t-152 -8.5q-92 0 -153.5 15.5t-98.5 45t-53.5 74.5t-16.5 104zM250 915q0 -59 41 -84.5t137 -25.5t180 14v191q-37 8 -83 11t-97 3q-96 0 -137 -24.5t-41 -84.5z" />
<glyph unicode="&#xab;" horiz-adv-x="1099" d="M143 616v46q0 16 13 28q72 74 167 152t187 137q25 16 39 -4l29 -41q12 -16 -3 -31l-301 -264l301 -264q14 -14 3 -31l-29 -41q-14 -20 -39 -4q-92 59 -187.5 137t-166.5 152q-12 12 -13 28zM537 616v46q0 16 12 28q72 74 167 152t187 137q25 16 39 -4l29 -41 q12 -16 -2 -31l-301 -264l301 -264q14 -14 2 -31l-29 -41q-14 -20 -39 -4q-92 59 -187 137t-167 152q-12 12 -12 28z" />
<glyph unicode="&#xac;" horiz-adv-x="1269" d="M115 778v103q0 29 28 28h963q29 0 29 -28v-519q0 -29 -29 -28h-127q-29 0 -29 28v388h-807q-29 0 -28 28z" />
<glyph unicode="&#xad;" horiz-adv-x="872" d="M143 612v136q0 29 29 28h528q29 0 29 -28v-136q0 -29 -29 -28h-528q-29 0 -29 28z" />
<glyph unicode="&#xae;" horiz-adv-x="1699" d="M109 717q0 154 58 289t158.5 235t235.5 158.5t289 58.5t289 -58.5t235.5 -158.5t158.5 -235.5t58 -288.5q0 -154 -58 -289t-158.5 -235.5t-235.5 -159t-289 -58.5t-289 58.5t-235.5 159t-158.5 235.5t-58 289zM223 717q0 -133 49.5 -249t134.5 -202t199.5 -135t243.5 -49 t243.5 49t199.5 135t134.5 202t49.5 249q0 131 -49.5 246.5t-134.5 201.5t-199.5 136.5t-243.5 50.5t-243.5 -50.5t-199.5 -136.5t-134.5 -201.5t-49.5 -246.5zM559 317v748q0 53 43 68q53 16 112.5 21t125.5 5q164 0 238.5 -65.5t74.5 -188.5v-37q0 -170 -145 -229 l178 -313q23 -39 -23 -39h-86q-25 0 -37 22l-174 303h-26q-72 0 -140 6v-301q0 -31 -30 -30h-82q-29 0 -29 30zM700 739q33 -4 64 -5t51 -1q115 0 157 37t42 111v12q0 78 -42 111.5t-157 33.5q-29 0 -57.5 -2t-57.5 -8v-289z" />
<glyph unicode="&#xaf;" horiz-adv-x="819" d="M111 1284v90q0 29 28 29h541q29 0 29 -29v-90q0 -29 -29 -29h-541q-29 0 -28 29z" />
<glyph unicode="&#xb0;" horiz-adv-x="819" d="M137 1178q0 74 21.5 127t58.5 86.5t86 50t107 16.5q57 0 106 -16.5t86 -50t58.5 -87t21.5 -126.5q0 -74 -21.5 -127.5t-58.5 -87t-86 -50t-106 -16.5t-106.5 16.5t-86.5 50t-58.5 87t-21.5 127.5zM272 1178q0 -86 38 -123t100 -37q61 0 99 37t38 123t-38 122.5t-99 36.5 t-99.5 -36.5t-38.5 -122.5z" />
<glyph unicode="&#xb1;" horiz-adv-x="1269" d="M145 102v103q0 29 29 28h922q29 0 28 -28v-103q0 -29 -28 -28h-922q-29 0 -29 28zM145 758v102q0 29 29 29h369v379q0 29 28 28h127q29 0 29 -28v-379h369q29 0 28 -29v-102q0 -29 -28 -29h-369v-379q0 -29 -29 -28h-127q-29 0 -28 28v379h-369q-29 0 -29 29z" />
<glyph unicode="&#xb2;" horiz-adv-x="798" d="M74 510v86q0 61 19.5 109.5t55 89.5t87 78.5t116.5 78.5q92 59 137.5 106.5t45.5 119.5q0 66 -38 101.5t-147 35.5q-57 0 -102 -4t-96 -11q-35 -6 -35 29v64q0 12 5 20t21 12q41 12 97.5 18.5t117.5 6.5q184 0 257 -67.5t73 -204.5q0 -102 -59.5 -184.5t-190.5 -159.5 q-109 -66 -159 -113t-50 -100h433q27 0 26 -25v-86q0 -25 -26 -25h-562q-27 0 -26 25z" />
<glyph unicode="&#xb3;" horiz-adv-x="798" d="M68 526v68q0 29 32 24q47 -8 100.5 -11t104.5 -3q117 0 172 38t55 116q0 82 -44 116.5t-138 34.5h-196q-27 0 -27 25v86q0 25 27 24h178q98 0 143 32t45 104t-44 103.5t-136 31.5q-53 0 -109.5 -3t-103.5 -12q-31 -6 -31 25v66q0 27 25 32q41 14 98 20.5t121 6.5 q158 0 246 -68.5t88 -199.5q0 -59 -24.5 -109.5t-90.5 -93.5q72 -43 99.5 -98.5t27.5 -120.5q0 -135 -92 -213t-285 -78q-59 0 -116.5 6t-98.5 21q-27 8 -26 30z" />
<glyph unicode="&#xb4;" horiz-adv-x="819" d="M223 1221l234 282q20 25 45 6l94 -61q23 -16 0 -39q-59 -61 -131 -133t-146 -125q-23 -14 -40 -4l-54 35q-25 14 -2 39z" />
<glyph unicode="&#xb5;" horiz-adv-x="1226" d="M164 -367v1399q0 29 29 29h118q29 0 29 -29v-643q0 -70 15.5 -118t51 -78.5t93 -45t143.5 -14.5q61 0 124.5 5t119.5 20v874q0 29 28 29h119q29 0 29 -29v-905q0 -43 -14.5 -64.5t-44.5 -31.5q-70 -25 -164.5 -36t-182.5 -11t-172 17t-145 58v-426q0 -29 -29 -28h-118 q-29 0 -29 28z" />
<glyph unicode="&#xb6;" horiz-adv-x="1171" d="M113 993q0 104 33.5 186.5t95 138.5t144.5 86t181 30h412q29 0 29 -29v-1645q0 -29 -29 -28h-92q-29 0 -29 28v1520h-92v-1520q0 -29 -29 -28h-98q-29 0 -29 28v787h-18q-96 0 -183 29.5t-153 87t-104.5 140.5t-38.5 189z" />
<glyph unicode="&#xb7;" horiz-adv-x="552" d="M168 788v17q0 29 29 29h151q29 0 29 -29v-193q0 -29 -29 -28h-117q-27 0 -38 37q-10 39 -16.5 86t-8.5 81z" />
<glyph unicode="&#xb8;" horiz-adv-x="819" d="M211 -387q0 25 27 18q31 -8 79 -8q123 0 123 82q0 41 -37.5 71.5t-115.5 30.5q-18 0 -25.5 10.5t2.5 26.5l101 176h143l-76 -137q80 -16 123 -63t43 -115q0 -98 -64.5 -150.5t-156.5 -52.5q-35 0 -75 7.5t-66 21.5q-25 12 -25 33v49z" />
<glyph unicode="&#xb9;" horiz-adv-x="798" d="M150 1317v57q0 29 24 35q55 12 120.5 19.5t131.5 7.5h45q29 0 29 -29v-893q0 -29 -27 -29h-98q-29 0 -29 29v789h-18q-35 0 -74 -3.5t-74 -7.5q-31 -4 -30 25z" />
<glyph unicode="&#xba;" horiz-adv-x="901" d="M104 1038v49q0 180 92.5 271.5t254.5 91.5t254 -91t92 -272v-49q0 -180 -92 -271t-254 -91t-254.5 91t-92.5 271zM254 1047q0 -115 44 -178.5t153 -63.5t152.5 63.5t43.5 178.5v32q0 115 -44 178.5t-152 63.5q-109 0 -153 -63.5t-44 -178.5v-32z" />
<glyph unicode="&#xbb;" horiz-adv-x="1099" d="M129 344q-12 16 2 31l301 264l-301 264q-14 14 -2 31l29 41q14 20 39 4q92 -59 187 -137t167 -152q12 -12 12 -28v-46q0 -16 -12 -28q-72 -74 -167 -152t-187 -137q-25 -16 -39 4zM522 344q-12 16 2 31l301 264l-301 264q-14 14 -2 31l29 41q14 20 39 4q92 -59 187 -137 t167 -152q12 -12 12 -28v-46q0 -16 -12 -28q-72 -74 -167 -152t-187 -137q-25 -16 -39 4z" />
<glyph unicode="&#xbc;" horiz-adv-x="1945" d="M150 1317v57q0 29 24 35q55 12 120.5 19.5t131.5 7.5h45q29 0 29 -29v-893q0 -29 -27 -29h-98q-29 0 -29 29v789h-18q-35 0 -74 -3.5t-74 -7.5q-31 -4 -30 25zM506 -4l776 1448q4 8 11 14t24 6h104q31 0 19 -26l-776 -1448q-4 -8 -11.5 -14.5t-23.5 -6.5h-105 q-33 0 -18 27zM1165 211v68q0 35 13 69q23 61 51 134t61 150t67 151.5t66 140.5q12 27 47 26h89q23 0 27.5 -14t-5.5 -31q-33 -61 -68.5 -134t-68.5 -149.5t-61.5 -154.5t-49.5 -150h269v275q0 29 28 29h99q27 0 26 -29v-275h86q29 0 29 -28v-80q0 -27 -29 -27h-86v-151 q0 -29 -26 -29h-99q-29 0 -28 29v151h-408q-29 0 -29 29z" />
<glyph unicode="&#xbd;" horiz-adv-x="1945" d="M150 1317v57q0 29 24 35q55 12 120.5 19.5t131.5 7.5h45q29 0 29 -29v-893q0 -29 -27 -29h-98q-29 0 -29 29v789h-18q-35 0 -74 -3.5t-74 -7.5q-31 -4 -30 25zM506 -4l776 1448q4 8 11 14t24 6h104q31 0 19 -26l-776 -1448q-4 -8 -11.5 -14.5t-23.5 -6.5h-105 q-33 0 -18 27zM1221 27v86q0 61 19.5 109t55 89t87 79t116.5 79q92 59 137 106.5t45 118.5q0 66 -37.5 101.5t-146.5 35.5q-57 0 -102 -4t-97 -10q-35 -6 -34 29v63q0 12 5 20.5t21 12.5q41 12 97.5 18.5t117.5 6.5q184 0 257 -68t73 -205q0 -102 -59.5 -184t-190.5 -160 q-109 -66 -159 -113t-50 -100h432q27 0 27 -24v-86q0 -25 -27 -25h-561q-27 0 -26 25z" />
<glyph unicode="&#xbe;" horiz-adv-x="1945" d="M68 526v68q0 29 32 24q47 -8 100.5 -11t104.5 -3q117 0 172 38t55 116q0 82 -44 116.5t-138 34.5h-196q-27 0 -27 25v86q0 25 27 24h178q98 0 143 32t45 104t-44 103.5t-136 31.5q-53 0 -109.5 -3t-103.5 -12q-31 -6 -31 25v66q0 27 25 32q41 14 98 20.5t121 6.5 q158 0 246 -68.5t88 -199.5q0 -59 -24.5 -109.5t-90.5 -93.5q72 -43 99.5 -98.5t27.5 -120.5q0 -135 -92 -213t-285 -78q-59 0 -116.5 6t-98.5 21q-27 8 -26 30zM506 -4l776 1448q4 8 11 14t24 6h104q31 0 19 -26l-776 -1448q-4 -8 -11.5 -14.5t-23.5 -6.5h-105 q-33 0 -18 27zM1165 211v68q0 35 13 69q23 61 51 134t61 150t67 151.5t66 140.5q12 27 47 26h89q23 0 27.5 -14t-5.5 -31q-33 -61 -68.5 -134t-68.5 -149.5t-61.5 -154.5t-49.5 -150h269v275q0 29 28 29h99q27 0 26 -29v-275h86q29 0 29 -28v-80q0 -27 -29 -27h-86v-151 q0 -29 -26 -29h-99q-29 0 -28 29v151h-408q-29 0 -29 29z" />
<glyph unicode="&#xbf;" horiz-adv-x="1003" d="M143 -20q0 117 60.5 211t185.5 198q59 49 79.5 116.5t20.5 137.5v23q0 29 29 28h123q29 0 29 -28v-27q0 -49 -7.5 -97t-28 -95.5t-56 -94.5t-93.5 -96q-78 -66 -122 -135.5t-44 -138.5q0 -121 66 -175.5t195 -54.5q88 0 160.5 4t142.5 17q18 2 18 -23v-84q0 -20 -24 -26 q-74 -18 -141.5 -27.5t-155.5 -9.5q-231 0 -334 95t-103 282zM475 840v192q0 29 29 29h117q27 0 38 -37q10 -39 16.5 -86t8.5 -82v-16q0 -29 -29 -29h-151q-29 0 -29 29z" />
<glyph unicode="&#xc0;" horiz-adv-x="1253" d="M66 35l409 1356q12 43 57 43h189q45 0 57 -43l410 -1356q10 -35 -23 -35h-135q-29 0 -35 23l-96 325h-545l-96 -325q-6 -23 -35 -23h-135q-33 0 -22 35zM371 1806q-23 23 0 39l94 62q25 18 45 -6l233 -283q23 -25 -2 -39l-53 -35q-18 -10 -41 4q-74 53 -145.5 125 t-130.5 133zM401 508h451l-225 768z" />
<glyph unicode="&#xc1;" horiz-adv-x="1253" d="M66 35l409 1356q12 43 57 43h189q45 0 57 -43l410 -1356q10 -35 -23 -35h-135q-29 0 -35 23l-96 325h-545l-96 -325q-6 -23 -35 -23h-135q-33 0 -22 35zM401 508h451l-225 768zM510 1618l233 283q20 25 45 6l95 -62q23 -16 0 -39q-59 -61 -131 -133t-146 -125 q-23 -14 -41 -4l-53 35q-25 14 -2 39z" />
<glyph unicode="&#xc2;" horiz-adv-x="1253" d="M66 35l409 1356q12 43 57 43h189q45 0 57 -43l410 -1356q10 -35 -23 -35h-135q-29 0 -35 23l-96 325h-545l-96 -325q-6 -23 -35 -23h-135q-33 0 -22 35zM309 1616q51 74 103.5 137.5t111.5 118.5q20 20 49 20h107q29 0 49 -20q59 -55 111.5 -118.5t103.5 -137.5 q16 -25 -4 -37l-53 -35q-23 -14 -41 4l-219 224l-219 -224q-18 -18 -41 -4l-54 35q-20 12 -4 37zM401 508h451l-225 768z" />
<glyph unicode="&#xc3;" horiz-adv-x="1253" d="M66 35l409 1356q12 43 57 43h189q45 0 57 -43l410 -1356q10 -35 -23 -35h-135q-29 0 -35 23l-96 325h-545l-96 -325q-6 -23 -35 -23h-135q-33 0 -22 35zM281 1694q0 94 50 135t130 41q53 0 99 -21.5t95 -62.5q47 -39 75 -57.5t54 -18.5q25 0 39.5 21.5t14.5 85.5v22 q0 27 26 27h64q20 0 30 -25q6 -16 10.5 -38.5t4.5 -45.5q0 -94 -50.5 -135t-129.5 -41q-55 0 -101.5 21.5t-97.5 62.5q-47 41 -73.5 58.5t-51.5 17.5t-39 -21.5t-14 -85.5v-22q0 -27 -27 -27h-63q-20 0 -31 25q-6 16 -10 38.5t-4 45.5zM401 508h451l-225 768z" />
<glyph unicode="&#xc4;" horiz-adv-x="1253" d="M66 35l409 1356q12 43 57 43h189q45 0 57 -43l410 -1356q10 -35 -23 -35h-135q-29 0 -35 23l-96 325h-545l-96 -325q-6 -23 -35 -23h-135q-33 0 -22 35zM330 1640v13q0 31 7 70.5t17 78.5q12 37 39 37h96q29 0 29 -29v-170q0 -29 -29 -28h-131q-29 0 -28 28zM401 508h451 l-225 768zM735 1640v170q0 29 29 29h131q29 0 29 -29v-12q0 -31 -7.5 -70.5t-17.5 -78.5q-12 -37 -39 -37h-96q-29 0 -29 28z" />
<glyph unicode="&#xc5;" horiz-adv-x="1253" d="M66 35l409 1356q12 43 57 43h189q45 0 57 -43l410 -1356q10 -35 -23 -35h-135q-29 0 -35 23l-96 325h-545l-96 -325q-6 -23 -35 -23h-135q-33 0 -22 35zM401 508h451l-225 768zM414 1726q0 117 60.5 166.5t152.5 49.5t152.5 -49.5t60.5 -166.5t-60.5 -166t-152.5 -49 t-152.5 49.5t-60.5 165.5zM543 1726q0 -100 84 -100t84 100t-84 101q-84 0 -84 -101z" />
<glyph unicode="&#xc6;" horiz-adv-x="1781" d="M45.5 10q-6.5 10 1.5 25l672 1356q10 18 26.5 30.5t40.5 12.5h826q29 0 28 -29v-102q0 -29 -28 -29h-574v-469h531q29 0 28 -29v-102q0 -29 -28 -29h-531v-383q0 -61 24.5 -94t92.5 -33h475q29 0 29 -29v-77q0 -29 -27 -31q-63 -6 -117.5 -10t-106.5 -7.5t-104.5 -4.5 t-111.5 -1q-102 0 -168 14.5t-103.5 48.5t-52 90t-14.5 140v80h-455l-159 -325q-12 -23 -39 -23h-131q-18 0 -24.5 10zM479 508h375v760z" />
<glyph unicode="&#xc7;" horiz-adv-x="1150" d="M123 684v66q0 160 31.5 289.5t102.5 223t181.5 144.5t270.5 51q82 0 160.5 -10t156.5 -29q23 -6 23 -26v-90q0 -31 -33 -25q-76 10 -142.5 15t-140.5 5q-119 0 -199.5 -35.5t-131 -105.5t-73 -174t-22.5 -242v-49q0 -137 22.5 -241.5t73 -174t131 -105.5t199.5 -36 q74 0 151 5t152 16q33 2 33 -25v-90q0 -20 -22 -27q-55 -10 -116 -20t-120 -14l-53 -97q80 -16 123 -63t43 -115q0 -98 -64.5 -150.5t-157.5 -52.5q-35 0 -74.5 7.5t-66.5 21.5q-25 12 -24 33v49q0 25 26 18q31 -8 80 -8q123 0 123 82q0 41 -38 71.5t-116 30.5 q-18 0 -25 10.5t3 26.5l76 133q-147 6 -251 60.5t-168.5 146.5t-94 219t-29.5 281z" />
<glyph unicode="&#xc8;" horiz-adv-x="1165" d="M184 268v897q0 84 14.5 140.5t52.5 90.5t103.5 48t167.5 14q131 0 249 -6t224 -16q27 -2 27 -31v-78q0 -29 -29 -29h-508q-68 0 -92 -32.5t-24 -94.5v-354h583q29 0 29 -29v-102q0 -29 -29 -29h-583v-395q0 -61 24.5 -94t91.5 -33h529q29 0 28 -29v-77q0 -29 -26 -31 q-127 -12 -242 -17.5t-252 -5.5q-102 0 -167.5 14.5t-103.5 48.5t-52.5 90t-14.5 140zM408 1806q-23 23 0 39l94 62q25 18 45 -6l233 -283q23 -25 -2 -39l-53 -35q-18 -10 -41 4q-74 53 -145.5 125t-130.5 133z" />
<glyph unicode="&#xc9;" horiz-adv-x="1165" d="M184 268v897q0 84 14.5 140.5t52.5 90.5t103.5 48t167.5 14q131 0 249 -6t224 -16q27 -2 27 -31v-78q0 -29 -29 -29h-508q-68 0 -92 -32.5t-24 -94.5v-354h583q29 0 29 -29v-102q0 -29 -29 -29h-583v-395q0 -61 24.5 -94t91.5 -33h529q29 0 28 -29v-77q0 -29 -26 -31 q-127 -12 -242 -17.5t-252 -5.5q-102 0 -167.5 14.5t-103.5 48.5t-52.5 90t-14.5 140zM496 1618l233 283q20 25 45 6l94 -62q23 -16 0 -39q-59 -61 -130.5 -133t-145.5 -125q-23 -14 -41 -4l-53 35q-25 14 -2 39z" />
<glyph unicode="&#xca;" horiz-adv-x="1165" d="M184 268v897q0 84 14.5 140.5t52.5 90.5t103.5 48t167.5 14q131 0 249 -6t224 -16q27 -2 27 -31v-78q0 -29 -29 -29h-508q-68 0 -92 -32.5t-24 -94.5v-354h583q29 0 29 -29v-102q0 -29 -29 -29h-583v-395q0 -61 24.5 -94t91.5 -33h529q29 0 28 -29v-77q0 -29 -26 -31 q-127 -12 -242 -17.5t-252 -5.5q-102 0 -167.5 14.5t-103.5 48.5t-52.5 90t-14.5 140zM293 1616q51 74 103.5 137.5t111.5 118.5q20 20 49 20h107q29 0 49 -20q59 -55 111.5 -118.5t103.5 -137.5q16 -25 -4 -37l-54 -35q-23 -14 -41 4l-219 224l-219 -224q-18 -18 -41 -4 l-53 35q-20 12 -4 37z" />
<glyph unicode="&#xcb;" horiz-adv-x="1165" d="M184 268v897q0 84 14.5 140.5t52.5 90.5t103.5 48t167.5 14q131 0 249 -6t224 -16q27 -2 27 -31v-78q0 -29 -29 -29h-508q-68 0 -92 -32.5t-24 -94.5v-354h583q29 0 29 -29v-102q0 -29 -29 -29h-583v-395q0 -61 24.5 -94t91.5 -33h529q29 0 28 -29v-77q0 -29 -26 -31 q-127 -12 -242 -17.5t-252 -5.5q-102 0 -167.5 14.5t-103.5 48.5t-52.5 90t-14.5 140zM336 1640v13q0 31 7 70.5t17 78.5q12 37 39 37h97q29 0 28 -29v-170q0 -29 -28 -28h-131q-29 0 -29 28zM741 1640v170q0 29 29 29h131q29 0 29 -29v-12q0 -31 -7.5 -70.5t-17.5 -78.5 q-12 -37 -39 -37h-96q-29 0 -29 28z" />
<glyph unicode="&#xcc;" horiz-adv-x="593" d="M2 1806q-23 23 0 39l94 62q25 18 45 -6l234 -283q23 -25 -2 -39l-54 -35q-17 -10 -40 4q-74 53 -146 125t-131 133zM205 29v1376q0 29 28 29h127q29 0 29 -29v-1376q0 -29 -29 -29h-127q-29 0 -28 29z" />
<glyph unicode="&#xcd;" horiz-adv-x="593" d="M205 29v1376q0 29 28 29h127q29 0 29 -29v-1376q0 -29 -29 -29h-127q-29 0 -28 29zM219 1618l234 283q20 25 45 6l94 -62q23 -16 0 -39q-59 -61 -131 -133t-146 -125q-23 -14 -41 -4l-53 35q-25 14 -2 39z" />
<glyph unicode="&#xce;" horiz-adv-x="593" d="M-20 1616q51 74 103 137.5t112 118.5q20 20 49 20h106q29 0 49 -20q59 -55 111.5 -118.5t103.5 -137.5q16 -25 -4 -37l-53 -35q-23 -14 -41 4l-219 224l-219 -224q-18 -18 -41 -4l-53 35q-20 12 -4 37zM205 29v1376q0 29 28 29h127q29 0 29 -29v-1376q0 -29 -29 -29h-127 q-29 0 -28 29z" />
<glyph unicode="&#xcf;" horiz-adv-x="593" d="M0 1640v13q0 31 7 70.5t18 78.5q12 37 38 37h97q29 0 28 -29v-170q0 -29 -28 -28h-131q-29 0 -29 28zM205 29v1376q0 29 28 29h127q29 0 29 -29v-1376q0 -29 -29 -29h-127q-29 0 -28 29zM406 1640v170q0 29 28 29h131q29 0 29 -29v-12q0 -31 -7 -70.5t-18 -78.5 q-12 -37 -39 -37h-96q-29 0 -28 28z" />
<glyph unicode="&#xd0;" horiz-adv-x="1357" d="M10 672v90q0 29 29 29h145v526q0 78 58 94q78 23 176 35t200 12q176 0 295 -50t191 -142t101.5 -224.5t29.5 -293.5v-62q0 -164 -29.5 -295t-101.5 -223t-190.5 -142.5t-295.5 -50.5q-102 0 -200.5 12.5t-175.5 35.5q-57 16 -58 94v526h-145q-29 0 -29 29zM369 160 q111 -25 223 -25q141 0 230 38t139.5 108.5t70 174t19.5 236.5v49q0 131 -19.5 235.5t-70 175.5t-139.5 108.5t-230 37.5q-113 0 -223 -24v-483h286q29 0 29 -29v-90q0 -29 -29 -29h-286v-483z" />
<glyph unicode="&#xd1;" horiz-adv-x="1404" d="M184 29v1376q0 29 29 29h176q20 0 29.5 -7.5t17.5 -21.5l600 -1143v1143q0 29 29 29h127q29 0 29 -29v-1376q0 -29 -29 -29h-176q-20 0 -29.5 7t-17.5 22l-600 1142v-1142q0 -29 -29 -29h-127q-29 0 -29 29zM356 1694q0 94 50.5 135t130.5 41q53 0 99 -21.5t95 -62.5 q47 -39 75 -57.5t54 -18.5q25 0 39 21.5t14 85.5v22q0 27 27 27h64q20 0 30 -25q6 -16 10.5 -38.5t4.5 -45.5q0 -94 -50.5 -135t-130.5 -41q-55 0 -101 21.5t-97 62.5q-47 41 -74 58.5t-51 17.5q-25 0 -39 -21.5t-14 -85.5v-22q0 -27 -27 -27h-64q-20 0 -30 25 q-6 16 -10.5 38.5t-4.5 45.5z" />
<glyph unicode="&#xd2;" horiz-adv-x="1409" d="M123 686v62q0 346 140 528t442 182q301 0 441 -182t140 -528v-62q0 -346 -140 -528.5t-441 -182.5t-441.5 182.5t-140.5 528.5zM307 692q0 -293 97.5 -425t300.5 -132t300 132t97 425v49q0 293 -97.5 425t-299.5 132q-203 0 -300.5 -132t-97.5 -425v-49zM483 1806 q-23 23 0 39l95 62q25 18 45 -6l233 -283q23 -25 -2 -39l-53 -35q-18 -10 -41 4q-74 53 -145.5 125t-131.5 133z" />
<glyph unicode="&#xd3;" horiz-adv-x="1409" d="M123 686v62q0 346 140 528t442 182q301 0 441 -182t140 -528v-62q0 -346 -140 -528.5t-441 -182.5t-441.5 182.5t-140.5 528.5zM307 692q0 -293 97.5 -425t300.5 -132t300 132t97 425v49q0 293 -97.5 425t-299.5 132q-203 0 -300.5 -132t-97.5 -425v-49zM553 1618 l233 283q20 25 45 6l95 -62q23 -16 0 -39q-59 -61 -131 -133t-146 -125q-23 -14 -41 -4l-53 35q-25 14 -2 39z" />
<glyph unicode="&#xd4;" horiz-adv-x="1409" d="M123 686v62q0 346 140 528t442 182q301 0 441 -182t140 -528v-62q0 -346 -140 -528.5t-441 -182.5t-441.5 182.5t-140.5 528.5zM307 692q0 -293 97.5 -425t300.5 -132t300 132t97 425v49q0 293 -97.5 425t-299.5 132q-203 0 -300.5 -132t-97.5 -425v-49zM387 1616 q51 74 103.5 137.5t111.5 118.5q20 20 49 20h107q29 0 49 -20q59 -55 111.5 -118.5t103.5 -137.5q16 -25 -4 -37l-53 -35q-23 -14 -41 4l-219 224l-220 -224q-18 -18 -41 -4l-53 35q-20 12 -4 37z" />
<glyph unicode="&#xd5;" horiz-adv-x="1409" d="M123 686v62q0 346 140 528t442 182q301 0 441 -182t140 -528v-62q0 -346 -140 -528.5t-441 -182.5t-441.5 182.5t-140.5 528.5zM307 692q0 -293 97.5 -425t300.5 -132t300 132t97 425v49q0 293 -97.5 425t-299.5 132q-203 0 -300.5 -132t-97.5 -425v-49zM358 1694 q0 94 50.5 135t130.5 41q53 0 99 -21.5t95 -62.5q47 -39 75 -57.5t54 -18.5q25 0 39 21.5t14 85.5v22q0 27 27 27h64q20 0 30 -25q6 -16 10.5 -38.5t4.5 -45.5q0 -94 -50.5 -135t-130.5 -41q-55 0 -101 21.5t-97 62.5q-47 41 -74 58.5t-51 17.5q-25 0 -39 -21.5t-14 -85.5 v-22q0 -27 -27 -27h-64q-20 0 -30 25q-6 16 -10.5 38.5t-4.5 45.5z" />
<glyph unicode="&#xd6;" horiz-adv-x="1409" d="M123 686v62q0 346 140 528t442 182q301 0 441 -182t140 -528v-62q0 -346 -140 -528.5t-441 -182.5t-441.5 182.5t-140.5 528.5zM307 692q0 -293 97.5 -425t300.5 -132t300 132t97 425v49q0 293 -97.5 425t-299.5 132q-203 0 -300.5 -132t-97.5 -425v-49zM408 1640v13 q0 31 7 70.5t17 78.5q12 37 39 37h96q29 0 29 -29v-170q0 -29 -29 -28h-131q-29 0 -28 28zM813 1640v170q0 29 29 29h131q29 0 28 -29v-12q0 -31 -7 -70.5t-17 -78.5q-12 -37 -39 -37h-96q-29 0 -29 28z" />
<glyph unicode="&#xd7;" horiz-adv-x="1269" d="M205 334q-18 18 0 41l305 305l-305 305q-20 20 0 41l84 84q18 23 41 0l305 -305l305 305q23 23 41 0l84 -84q18 -18 0 -41l-305 -305l305 -305q18 -23 0 -41l-84 -84q-18 -23 -41 0l-305 305l-305 -305q-23 -23 -41 0z" />
<glyph unicode="&#xd8;" horiz-adv-x="1409" d="M111 -178l176 307q-86 92 -125 230.5t-39 326.5v62q0 346 140 528t442 182q176 0 301 -65l127 221q14 25 38 24h113q29 0 14 -26l-176 -309q84 -90 124 -229.5t40 -325.5v-62q0 -346 -140 -528.5t-441 -182.5q-178 0 -304 66l-125 -221q-14 -25 -40 -25h-113 q-27 0 -12 27zM307 692q0 -260 76 -393l539 944q-90 55 -217 55q-203 0 -300.5 -132t-97.5 -425v-49zM487 188q82 -53 218 -53q203 0 300 132t97 425v49q0 254 -78 392z" />
<glyph unicode="&#xd9;" horiz-adv-x="1421" d="M184 668v737q0 29 29 29h127q29 0 29 -29v-729q0 -129 17 -230.5t57 -170t105.5 -104.5t162.5 -36q96 0 161.5 36t105.5 104.5t57.5 170t17.5 230.5v729q0 29 28 29h127q29 0 29 -29v-737q0 -174 -26.5 -304.5t-88 -216.5t-162 -129t-249.5 -43q-150 0 -250.5 43 t-161.5 129t-88 216.5t-27 304.5zM461 1806q-23 23 0 39l94 62q25 18 45 -6l234 -283q23 -25 -3 -39l-53 -35q-18 -10 -41 4q-74 53 -145.5 125t-130.5 133z" />
<glyph unicode="&#xda;" horiz-adv-x="1421" d="M184 668v737q0 29 29 29h127q29 0 29 -29v-729q0 -129 17 -230.5t57 -170t105.5 -104.5t162.5 -36q96 0 161.5 36t105.5 104.5t57.5 170t17.5 230.5v729q0 29 28 29h127q29 0 29 -29v-737q0 -174 -26.5 -304.5t-88 -216.5t-162 -129t-249.5 -43q-150 0 -250.5 43 t-161.5 129t-88 216.5t-27 304.5zM588 1618l233 283q20 25 45 6l95 -62q23 -16 0 -39q-59 -61 -131 -133t-146 -125q-23 -14 -41 -4l-53 35q-25 14 -2 39z" />
<glyph unicode="&#xdb;" horiz-adv-x="1421" d="M184 668v737q0 29 29 29h127q29 0 29 -29v-729q0 -129 17 -230.5t57 -170t105.5 -104.5t162.5 -36q96 0 161.5 36t105.5 104.5t57.5 170t17.5 230.5v729q0 29 28 29h127q29 0 29 -29v-737q0 -174 -26.5 -304.5t-88 -216.5t-162 -129t-249.5 -43q-150 0 -250.5 43 t-161.5 129t-88 216.5t-27 304.5zM393 1616q51 74 103.5 137.5t111.5 118.5q20 20 49 20h107q29 0 49 -20q59 -55 111.5 -118.5t103.5 -137.5q16 -25 -4 -37l-53 -35q-23 -14 -41 4l-219 224l-219 -224q-18 -18 -41 -4l-54 35q-20 12 -4 37z" />
<glyph unicode="&#xdc;" horiz-adv-x="1421" d="M184 668v737q0 29 29 29h127q29 0 29 -29v-729q0 -129 17 -230.5t57 -170t105.5 -104.5t162.5 -36q96 0 161.5 36t105.5 104.5t57.5 170t17.5 230.5v729q0 29 28 29h127q29 0 29 -29v-737q0 -174 -26.5 -304.5t-88 -216.5t-162 -129t-249.5 -43q-150 0 -250.5 43 t-161.5 129t-88 216.5t-27 304.5zM414 1640v13q0 31 7 70.5t17 78.5q12 37 39 37h96q29 0 29 -29v-170q0 -29 -29 -28h-131q-29 0 -28 28zM819 1640v170q0 29 29 29h131q29 0 29 -29v-12q0 -31 -7.5 -70.5t-17.5 -78.5q-12 -37 -39 -37h-96q-29 0 -29 28z" />
<glyph unicode="&#xdd;" horiz-adv-x="1204" d="M44 1422.5q5 11.5 24 11.5h131q25 0 37 -23l366 -725l367 725q12 23 37 23h131q18 0 23 -11.5t-1 -23.5l-465 -897v-473q0 -29 -28 -29h-127q-29 0 -29 29v473l-465 897q-6 12 -1 23.5zM485 1618l234 283q20 25 45 6l94 -62q23 -16 0 -39q-59 -61 -130.5 -133 t-145.5 -125q-23 -14 -41 -4l-54 35q-25 14 -2 39z" />
<glyph unicode="&#xde;" horiz-adv-x="1239" d="M184 29v1376q0 29 29 29h127q29 0 29 -29v-252q129 12 262 12q262 0 383 -104.5t123 -321.5v-43q0 -217 -121 -322.5t-385 -105.5q-133 0 -262 13v-252q0 -29 -29 -29h-127q-29 0 -29 29zM369 440q53 -6 113.5 -9t107.5 -3q104 0 174 18.5t112 53.5t59 86t17 116v29 q0 66 -17 117t-59 86t-112 53.5t-174 18.5q-47 0 -107.5 -3.5t-113.5 -9.5v-553z" />
<glyph unicode="&#xdf;" horiz-adv-x="1167" d="M164 29v960q0 242 108.5 355.5t333.5 113.5q205 0 316.5 -99t111.5 -265q0 -121 -58 -212t-210 -134q92 -14 153.5 -47t98.5 -82.5t52 -114t15 -142.5q0 -180 -95 -283.5t-277 -103.5q-74 0 -141.5 11.5t-125.5 36.5q-25 10 -24 30v88q0 25 31 19q41 -10 104.5 -17.5 t130.5 -7.5q113 0 163 57.5t50 169.5q0 76 -20.5 128.5t-61.5 88t-100.5 56t-134.5 31.5q-29 4 -29 28v103q0 27 27 30q129 18 198.5 80t69.5 183q0 100 -58.5 154t-189.5 54q-133 0 -193.5 -73.5t-60.5 -208.5v-987q0 -29 -29 -29h-126q-29 0 -29 29z" />
<glyph unicode="&#xe0;" horiz-adv-x="1173" d="M102 313q0 166 100.5 248t286.5 82q98 0 192.5 -18.5t162.5 -49.5v54q0 86 -14.5 144t-53.5 92t-104.5 48.5t-169.5 14.5q-66 0 -135.5 -6.5t-128.5 -16.5q-16 -4 -26.5 2t-10.5 23v74q0 23 18 28q66 20 149 32.5t164 12.5q137 0 231.5 -24.5t151 -75.5t81 -129 t24.5 -184v-537q0 -82 -59 -96q-80 -23 -188.5 -35t-217.5 -12q-129 0 -215 20.5t-139.5 62.5t-76 103t-22.5 143zM279 313q0 -98 65 -139t217 -41q76 0 146.5 5t136.5 20v311q-115 25 -283 25q-152 0 -217 -41t-65 -140zM348 1450q-23 23 0 39l94 61q25 18 45 -6l234 -282 q23 -25 -2 -39l-53 -35q-18 -10 -41 4q-74 53 -145.5 125t-131.5 133z" />
<glyph unicode="&#xe1;" horiz-adv-x="1173" d="M102 313q0 166 100.5 248t286.5 82q98 0 192.5 -18.5t162.5 -49.5v54q0 86 -14.5 144t-53.5 92t-104.5 48.5t-169.5 14.5q-66 0 -135.5 -6.5t-128.5 -16.5q-16 -4 -26.5 2t-10.5 23v74q0 23 18 28q66 20 149 32.5t164 12.5q137 0 231.5 -24.5t151 -75.5t81 -129 t24.5 -184v-537q0 -82 -59 -96q-80 -23 -188.5 -35t-217.5 -12q-129 0 -215 20.5t-139.5 62.5t-76 103t-22.5 143zM279 313q0 -98 65 -139t217 -41q76 0 146.5 5t136.5 20v311q-115 25 -283 25q-152 0 -217 -41t-65 -140zM455 1262l233 282q20 25 45 6l94 -61q23 -16 0 -39 q-59 -61 -130.5 -133t-145.5 -125q-23 -14 -41 -4l-53 35q-25 14 -2 39z" />
<glyph unicode="&#xe2;" horiz-adv-x="1173" d="M102 313q0 166 100.5 248t286.5 82q98 0 192.5 -18.5t162.5 -49.5v54q0 86 -14.5 144t-53.5 92t-104.5 48.5t-169.5 14.5q-66 0 -135.5 -6.5t-128.5 -16.5q-16 -4 -26.5 2t-10.5 23v74q0 23 18 28q66 20 149 32.5t164 12.5q137 0 231.5 -24.5t151 -75.5t81 -129 t24.5 -184v-537q0 -82 -59 -96q-80 -23 -188.5 -35t-217.5 -12q-129 0 -215 20.5t-139.5 62.5t-76 103t-22.5 143zM274 1260q51 74 103.5 137t111.5 119q20 20 50 20h106q29 0 49 -20q59 -55 111.5 -119t103.5 -137q16 -25 -4 -37l-53 -35q-23 -14 -41 4l-219 223l-219 -223 q-18 -18 -41 -4l-53 35q-20 12 -5 37zM279 313q0 -98 65 -139t217 -41q76 0 146.5 5t136.5 20v311q-115 25 -283 25q-152 0 -217 -41t-65 -140z" />
<glyph unicode="&#xe3;" horiz-adv-x="1173" d="M102 313q0 166 100.5 248t286.5 82q98 0 192.5 -18.5t162.5 -49.5v54q0 86 -14.5 144t-53.5 92t-104.5 48.5t-169.5 14.5q-66 0 -135.5 -6.5t-128.5 -16.5q-16 -4 -26.5 2t-10.5 23v74q0 23 18 28q66 20 149 32.5t164 12.5q137 0 231.5 -24.5t151 -75.5t81 -129 t24.5 -184v-537q0 -82 -59 -96q-80 -23 -188.5 -35t-217.5 -12q-129 0 -215 20.5t-139.5 62.5t-76 103t-22.5 143zM238 1337q0 94 50 135t130 41q53 0 99 -21.5t95 -61.5q47 -39 75 -57.5t54 -18.5q25 0 39.5 21.5t14.5 84.5v23q0 27 26 26h64q20 0 30 -24q6 -16 10.5 -39 t4.5 -45q0 -94 -50.5 -135t-129.5 -41q-55 0 -101.5 21.5t-97.5 62.5q-47 41 -73.5 58t-51.5 17t-39 -21.5t-14 -84.5v-23q0 -27 -27 -26h-63q-20 0 -31 24q-6 16 -10 39t-4 45zM279 313q0 -98 65 -139t217 -41q76 0 146.5 5t136.5 20v311q-115 25 -283 25q-152 0 -217 -41 t-65 -140z" />
<glyph unicode="&#xe4;" horiz-adv-x="1173" d="M102 313q0 166 100.5 248t286.5 82q98 0 192.5 -18.5t162.5 -49.5v54q0 86 -14.5 144t-53.5 92t-104.5 48.5t-169.5 14.5q-66 0 -135.5 -6.5t-128.5 -16.5q-16 -4 -26.5 2t-10.5 23v74q0 23 18 28q66 20 149 32.5t164 12.5q137 0 231.5 -24.5t151 -75.5t81 -129 t24.5 -184v-537q0 -82 -59 -96q-80 -23 -188.5 -35t-217.5 -12q-129 0 -215 20.5t-139.5 62.5t-76 103t-22.5 143zM276 1284v12q0 31 7.5 71t17.5 79q12 37 39 37h96q29 0 29 -29v-170q0 -29 -29 -29h-131q-29 0 -29 29zM279 313q0 -98 65 -139t217 -41q76 0 146.5 5 t136.5 20v311q-115 25 -283 25q-152 0 -217 -41t-65 -140zM682 1284v170q0 29 29 29h131q29 0 28 -29v-12q0 -31 -7 -71t-17 -79q-12 -37 -39 -37h-96q-29 0 -29 29z" />
<glyph unicode="&#xe5;" horiz-adv-x="1173" d="M102 313q0 166 100.5 248t286.5 82q98 0 192.5 -18.5t162.5 -49.5v54q0 86 -14.5 144t-53.5 92t-104.5 48.5t-169.5 14.5q-66 0 -135.5 -6.5t-128.5 -16.5q-16 -4 -26.5 2t-10.5 23v74q0 23 18 28q66 20 149 32.5t164 12.5q137 0 231.5 -24.5t151 -75.5t81 -129 t24.5 -184v-537q0 -82 -59 -96q-80 -23 -188.5 -35t-217.5 -12q-129 0 -215 20.5t-139.5 62.5t-76 103t-22.5 143zM279 313q0 -98 65 -139t217 -41q76 0 146.5 5t136.5 20v311q-115 25 -283 25q-152 0 -217 -41t-65 -140zM381 1370q0 117 60.5 166t152.5 49t152.5 -49 t60.5 -166t-60.5 -166t-152.5 -49t-152.5 49t-60.5 166zM510 1370q0 -100 84 -100t84 100t-84 100t-84 -100z" />
<glyph unicode="&#xe6;" horiz-adv-x="1753" d="M102 313q0 166 90.5 248t260.5 82q88 0 173 -18.5t144 -49.5v54q0 86 -13.5 144t-47 92t-94 48.5t-154.5 14.5q-59 0 -120.5 -6.5t-117.5 -16.5q-33 -8 -33 25v74q0 23 17 28q59 20 134 32.5t151 12.5q152 0 242.5 -35.5t137.5 -119.5q117 156 353 155q106 0 187 -30.5 t133 -87t79 -134t27 -172.5q0 -119 -61.5 -172t-188.5 -53h-463q16 -166 98 -230.5t248 -64.5q63 0 137 5t133 16q31 6 31 -25v-80q0 -20 -22 -26q-68 -20 -148 -29.5t-153 -9.5q-217 0 -340 106q-18 -25 -48 -42t-65 -28q-78 -23 -148.5 -29.5t-150.5 -6.5 q-117 0 -194.5 20.5t-125 62.5t-68 103t-20.5 143zM262 313q0 -98 59.5 -139t194.5 -41q70 0 132.5 5t121.5 20v311q-102 25 -254 25q-135 0 -194.5 -41t-59.5 -140zM934 578h481q39 0 56.5 14t17.5 59q0 131 -66.5 204t-197.5 73t-210 -81t-81 -269z" />
<glyph unicode="&#xe7;" horiz-adv-x="1034" d="M102 494v73q0 115 31 209t94.5 161t160.5 103.5t230 36.5q74 0 153 -11t136 -28q25 -6 25 -26v-80q0 -27 -27 -25q-66 10 -129 15.5t-133 5.5q-193 0 -278.5 -91.5t-85.5 -277.5v-57q0 -186 86 -277.5t278 -91.5q70 0 135.5 5t136.5 16q27 2 27 -25v-80q0 -20 -24 -26 q-41 -10 -90.5 -19.5t-100.5 -13.5l-57 -107q80 -16 123 -63t43 -115q0 -98 -64.5 -150.5t-157.5 -52.5q-35 0 -74.5 7.5t-66.5 21.5q-25 12 -24 33v49q0 25 26 18q31 -8 80 -8q123 0 123 82q0 41 -38 71.5t-116 30.5q-18 0 -25 10.5t3 26.5l80 140q-125 6 -215.5 45 t-148.5 105.5t-87 157.5t-29 202z" />
<glyph unicode="&#xe8;" horiz-adv-x="1150" d="M102 522v45q0 254 129 382t359 128q117 0 203 -30.5t142 -87t85 -134t29 -172.5q0 -119 -67 -172t-202 -53h-497q16 -166 106 -230.5t266 -64.5q68 0 148 5t143 16q33 6 33 -25v-80q0 -20 -25 -26q-72 -20 -158.5 -29.5t-164.5 -9.5q-270 0 -399.5 136t-129.5 402z M279 578h516q41 0 60 14t19 59q0 131 -71.5 204t-212.5 73q-70 0 -127 -19.5t-98 -61.5t-63.5 -108.5t-22.5 -160.5zM336 1450q-23 23 0 39l94 61q25 18 45 -6l234 -282q23 -25 -2 -39l-54 -35q-18 -10 -41 4q-74 53 -145.5 125t-130.5 133z" />
<glyph unicode="&#xe9;" horiz-adv-x="1150" d="M102 522v45q0 254 129 382t359 128q117 0 203 -30.5t142 -87t85 -134t29 -172.5q0 -119 -67 -172t-202 -53h-497q16 -166 106 -230.5t266 -64.5q68 0 148 5t143 16q33 6 33 -25v-80q0 -20 -25 -26q-72 -20 -158.5 -29.5t-164.5 -9.5q-270 0 -399.5 136t-129.5 402z M279 578h516q41 0 60 14t19 59q0 131 -71.5 204t-212.5 73q-70 0 -127 -19.5t-98 -61.5t-63.5 -108.5t-22.5 -160.5zM430 1262l234 282q20 25 45 6l94 -61q23 -16 0 -39q-59 -61 -131 -133t-146 -125q-23 -14 -41 -4l-53 35q-25 14 -2 39z" />
<glyph unicode="&#xea;" horiz-adv-x="1150" d="M102 522v45q0 254 129 382t359 128q117 0 203 -30.5t142 -87t85 -134t29 -172.5q0 -119 -67 -172t-202 -53h-497q16 -166 106 -230.5t266 -64.5q68 0 148 5t143 16q33 6 33 -25v-80q0 -20 -25 -26q-72 -20 -158.5 -29.5t-164.5 -9.5q-270 0 -399.5 136t-129.5 402z M260 1260q51 74 103.5 137t111.5 119q20 20 49 20h107q29 0 49 -20q59 -55 111.5 -119t103.5 -137q16 -25 -4 -37l-53 -35q-23 -14 -41 4l-219 223l-220 -223q-18 -18 -41 -4l-53 35q-20 12 -4 37zM279 578h516q41 0 60 14t19 59q0 131 -71.5 204t-212.5 73 q-70 0 -127 -19.5t-98 -61.5t-63.5 -108.5t-22.5 -160.5z" />
<glyph unicode="&#xeb;" horiz-adv-x="1150" d="M102 522v45q0 254 129 382t359 128q117 0 203 -30.5t142 -87t85 -134t29 -172.5q0 -119 -67 -172t-202 -53h-497q16 -166 106 -230.5t266 -64.5q68 0 148 5t143 16q33 6 33 -25v-80q0 -20 -25 -26q-72 -20 -158.5 -29.5t-164.5 -9.5q-270 0 -399.5 136t-129.5 402z M279 578h516q41 0 60 14t19 59q0 131 -71.5 204t-212.5 73q-70 0 -127 -19.5t-98 -61.5t-63.5 -108.5t-22.5 -160.5zM287 1284v12q0 31 7 71t17 79q12 37 39 37h96q29 0 29 -29v-170q0 -29 -29 -29h-131q-29 0 -28 29zM692 1284v170q0 29 29 29h131q29 0 29 -29v-12 q0 -31 -7.5 -71t-17.5 -79q-12 -37 -39 -37h-96q-29 0 -29 29z" />
<glyph unicode="&#xec;" horiz-adv-x="544" d="M-25 1450q-23 23 0 39l95 61q25 18 45 -6l233 -282q23 -25 -2 -39l-53 -35q-18 -10 -41 4q-74 53 -145.5 125t-131.5 133zM184 29v1003q0 29 29 29h119q29 0 28 -29v-1003q0 -29 -28 -29h-119q-29 0 -29 29z" />
<glyph unicode="&#xed;" horiz-adv-x="544" d="M184 29v1003q0 29 29 29h119q29 0 28 -29v-1003q0 -29 -28 -29h-119q-29 0 -29 29zM197 1262l233 282q20 25 45 6l94 -61q23 -16 0 -39q-59 -61 -130.5 -133t-145.5 -125q-23 -14 -41 -4l-53 35q-25 14 -2 39z" />
<glyph unicode="&#xee;" horiz-adv-x="544" d="M-45 1260q51 74 103.5 137t111.5 119q20 20 49 20h107q29 0 49 -20q59 -55 111.5 -119t103.5 -137q16 -25 -4 -37l-54 -35q-23 -14 -40 4l-220 223l-219 -223q-18 -18 -41 -4l-53 35q-20 12 -4 37zM184 29v1003q0 29 29 29h119q29 0 28 -29v-1003q0 -29 -28 -29h-119 q-29 0 -29 29z" />
<glyph unicode="&#xef;" horiz-adv-x="544" d="M-25 1284v12q0 31 7.5 71t17.5 79q12 37 39 37h96q29 0 29 -29v-170q0 -29 -29 -29h-131q-29 0 -29 29zM184 29v1003q0 29 29 29h119q29 0 28 -29v-1003q0 -29 -28 -29h-119q-29 0 -29 29zM381 1284v170q0 29 29 29h131q29 0 28 -29v-12q0 -31 -7 -71t-17 -79 q-12 -37 -39 -37h-96q-29 0 -29 29z" />
<glyph unicode="&#xf0;" horiz-adv-x="1257" d="M102 496v32q0 111 35 201t96.5 153.5t147.5 97.5t190 34q86 0 171 -13.5t149 -42.5q-18 162 -62 252l-233 -123q-25 -12 -39 11l-35 65q-12 27 13 39l213 111q-35 27 -80 38t-99 11q-47 0 -112.5 -5t-116.5 -16q-27 -6 -27 25v82q0 18 19 25q57 16 121.5 27t130.5 11 q207 0 321 -114l170 90q29 12 41 -12l35 -66q12 -27 -14 -39l-154 -80q51 -100 72.5 -245.5t21.5 -337.5q0 -172 -25.5 -307.5t-85 -227.5t-157.5 -140t-244 -48q-223 0 -343 122.5t-120 389.5zM279 496q0 -86 14 -153t47 -114t88 -71.5t137 -24.5q94 0 157.5 32 t103.5 101.5t57.5 180t17.5 268.5q0 35 -1 68.5t-3 66.5q-45 6 -113 10t-127 4q-178 0 -278 -81t-100 -263v-24z" />
<glyph unicode="&#xf1;" horiz-adv-x="1216" d="M164 29v905q0 43 14.5 64.5t44.5 31.5q86 25 183.5 36t207.5 11q238 0 343.5 -98t105.5 -303v-647q0 -29 -29 -29h-119q-29 0 -28 29v628q0 145 -64.5 208t-230.5 63q-70 0 -130.5 -5t-121.5 -20v-874q0 -29 -29 -29h-118q-29 0 -29 29zM246 1337q0 94 50 135t130 41 q53 0 99 -21.5t96 -61.5q47 -39 74.5 -57.5t54.5 -18.5q25 0 39 21.5t14 84.5v23q0 27 26 26h64q20 0 31 -24q6 -16 10 -39t4 -45q0 -94 -50 -135t-130 -41q-55 0 -101.5 21.5t-97.5 62.5q-47 41 -73.5 58t-51.5 17t-39 -21.5t-14 -84.5v-23q0 -27 -27 -26h-63q-20 0 -31 24 q-6 16 -10 39t-4 45z" />
<glyph unicode="&#xf2;" horiz-adv-x="1179" d="M102 496v69q0 256 129 384t359 128q229 0 358 -128t129 -384v-69q0 -256 -129 -384t-358 -128t-358.5 128t-129.5 384zM279 506q0 -88 17 -156.5t54 -117t96.5 -74t143.5 -25.5q168 0 239.5 98.5t71.5 274.5v49q0 88 -17.5 156.5t-54 117t-96 74t-143.5 25.5 q-170 0 -240.5 -99.5t-70.5 -273.5v-49zM356 1450q-23 23 0 39l95 61q25 18 45 -6l233 -282q23 -25 -2 -39l-53 -35q-18 -10 -41 4q-74 53 -145.5 125t-131.5 133z" />
<glyph unicode="&#xf3;" horiz-adv-x="1179" d="M102 496v69q0 256 129 384t359 128q229 0 358 -128t129 -384v-69q0 -256 -129 -384t-358 -128t-358.5 128t-129.5 384zM279 506q0 -88 17 -156.5t54 -117t96.5 -74t143.5 -25.5q168 0 239.5 98.5t71.5 274.5v49q0 88 -17.5 156.5t-54 117t-96 74t-143.5 25.5 q-170 0 -240.5 -99.5t-70.5 -273.5v-49zM451 1262l233 282q20 25 45 6l94 -61q23 -16 0 -39q-59 -61 -130.5 -133t-145.5 -125q-23 -14 -41 -4l-53 35q-25 14 -2 39z" />
<glyph unicode="&#xf4;" horiz-adv-x="1179" d="M102 496v69q0 256 129 384t359 128q229 0 358 -128t129 -384v-69q0 -256 -129 -384t-358 -128t-358.5 128t-129.5 384zM272 1260q51 74 103.5 137t111.5 119q20 20 50 20h106q29 0 49 -20q59 -55 111.5 -119t103.5 -137q16 -25 -4 -37l-53 -35q-23 -14 -41 4l-219 223 l-219 -223q-18 -18 -41 -4l-54 35q-20 12 -4 37zM279 506q0 -88 17 -156.5t54 -117t96.5 -74t143.5 -25.5q168 0 239.5 98.5t71.5 274.5v49q0 88 -17.5 156.5t-54 117t-96 74t-143.5 25.5q-170 0 -240.5 -99.5t-70.5 -273.5v-49z" />
<glyph unicode="&#xf5;" horiz-adv-x="1179" d="M102 496v69q0 256 129 384t359 128q229 0 358 -128t129 -384v-69q0 -256 -129 -384t-358 -128t-358.5 128t-129.5 384zM244 1337q0 94 50 135t130 41q53 0 99 -21.5t95 -61.5q47 -39 75 -57.5t55 -18.5q25 0 39 21.5t14 84.5v23q0 27 26 26h64q20 0 31 -24q6 -16 10 -39 t4 -45q0 -94 -50 -135t-130 -41q-55 0 -101.5 21.5t-97.5 62.5q-47 41 -73.5 58t-51.5 17t-39 -21.5t-14 -84.5v-23q0 -27 -27 -26h-63q-20 0 -31 24q-6 16 -10 39t-4 45zM279 506q0 -88 17 -156.5t54 -117t96.5 -74t143.5 -25.5q168 0 239.5 98.5t71.5 274.5v49 q0 88 -17.5 156.5t-54 117t-96 74t-143.5 25.5q-170 0 -240.5 -99.5t-70.5 -273.5v-49z" />
<glyph unicode="&#xf6;" horiz-adv-x="1179" d="M102 496v69q0 256 129 384t359 128q229 0 358 -128t129 -384v-69q0 -256 -129 -384t-358 -128t-358.5 128t-129.5 384zM279 506q0 -88 17 -156.5t54 -117t96.5 -74t143.5 -25.5q168 0 239.5 98.5t71.5 274.5v49q0 88 -17.5 156.5t-54 117t-96 74t-143.5 25.5 q-170 0 -240.5 -99.5t-70.5 -273.5v-49zM293 1284v12q0 31 7 71t17 79q12 37 39 37h97q29 0 28 -29v-170q0 -29 -28 -29h-131q-29 0 -29 29zM698 1284v170q0 29 29 29h131q29 0 29 -29v-12q0 -31 -7.5 -71t-17.5 -79q-12 -37 -39 -37h-96q-29 0 -29 29z" />
<glyph unicode="&#xf7;" horiz-adv-x="1269" d="M145 629v102q0 29 29 29h922q29 0 28 -29v-102q0 -29 -28 -29h-922q-29 0 -29 29zM532 350v17q0 29 29 28h152q29 0 28 -28v-193q0 -29 -28 -29h-117q-27 0 -39 37q-10 39 -16 86t-9 82zM532 993v193q0 29 29 28h117q27 0 39 -36q10 -39 16 -86.5t8 -81.5v-17 q0 -29 -28 -28h-152q-29 0 -29 28z" />
<glyph unicode="&#xf8;" horiz-adv-x="1200" d="M94.5 -217q-4.5 8 3.5 20l166 287q-74 66 -112.5 166t-38.5 240v69q0 256 129 384t358 128q121 0 213 -37l129 224q14 23 39 22h109q12 0 16 -8t-4 -21l-168 -288q74 -63 113.5 -163.5t39.5 -240.5v-69q0 -256 -129 -384t-358 -128q-117 0 -215 34l-127 -221 q-8 -14 -17.5 -18t-23.5 -4h-106q-12 0 -16.5 8zM289 506q0 -84 14 -150.5t49 -113.5l383 663q-61 23 -135 23q-170 0 -240.5 -99.5t-70.5 -273.5v-49zM465 156q57 -23 135 -23q168 0 239.5 98.5t71.5 274.5v49q0 170 -63 264z" />
<glyph unicode="&#xf9;" horiz-adv-x="1226" d="M164 385v647q0 29 29 29h118q29 0 29 -29v-629q0 -145 64.5 -207.5t230.5 -62.5q70 0 130 5t122 20v874q0 29 28 29h119q29 0 29 -29v-905q0 -43 -14.5 -64.5t-44.5 -31.5q-86 -25 -183.5 -36t-208.5 -11q-238 0 -343 97t-105 304zM367 1450q-23 23 0 39l94 61 q25 18 45 -6l233 -282q23 -25 -2 -39l-53 -35q-18 -10 -41 4q-74 53 -145.5 125t-130.5 133z" />
<glyph unicode="&#xfa;" horiz-adv-x="1226" d="M164 385v647q0 29 29 29h118q29 0 29 -29v-629q0 -145 64.5 -207.5t230.5 -62.5q70 0 130 5t122 20v874q0 29 28 29h119q29 0 29 -29v-905q0 -43 -14.5 -64.5t-44.5 -31.5q-86 -25 -183.5 -36t-208.5 -11q-238 0 -343 97t-105 304zM477 1262l234 282q20 25 45 6l94 -61 q23 -16 0 -39q-59 -61 -131 -133t-146 -125q-23 -14 -41 -4l-53 35q-25 14 -2 39z" />
<glyph unicode="&#xfb;" horiz-adv-x="1226" d="M164 385v647q0 29 29 29h118q29 0 29 -29v-629q0 -145 64.5 -207.5t230.5 -62.5q70 0 130 5t122 20v874q0 29 28 29h119q29 0 29 -29v-905q0 -43 -14.5 -64.5t-44.5 -31.5q-86 -25 -183.5 -36t-208.5 -11q-238 0 -343 97t-105 304zM295 1260q51 74 103.5 137t111.5 119 q20 20 49 20h107q29 0 49 -20q59 -55 111.5 -119t103.5 -137q16 -25 -4 -37l-54 -35q-23 -14 -41 4l-219 223l-219 -223q-18 -18 -41 -4l-53 35q-20 12 -4 37z" />
<glyph unicode="&#xfc;" horiz-adv-x="1226" d="M164 385v647q0 29 29 29h118q29 0 29 -29v-629q0 -145 64.5 -207.5t230.5 -62.5q70 0 130 5t122 20v874q0 29 28 29h119q29 0 29 -29v-905q0 -43 -14.5 -64.5t-44.5 -31.5q-86 -25 -183.5 -36t-208.5 -11q-238 0 -343 97t-105 304zM315 1284v12q0 31 7.5 71t17.5 79 q12 37 39 37h96q29 0 29 -29v-170q0 -29 -29 -29h-131q-29 0 -29 29zM721 1284v170q0 29 29 29h131q29 0 28 -29v-12q0 -31 -7 -71t-17 -79q-12 -37 -39 -37h-96q-29 0 -29 29z" />
<glyph unicode="&#xfd;" horiz-adv-x="1226" d="M164 401v631q0 29 29 29h118q29 0 29 -29v-612q0 -145 65.5 -207.5t229.5 -62.5q57 0 122.5 2t129.5 10v870q0 29 28 29h119q29 0 29 -29v-1042q0 -104 -23.5 -180t-77 -125.5t-138.5 -72t-208 -22.5q-39 0 -84 2t-90 7.5t-88 12.5t-78 17q-25 6 -24 27v80q0 31 33 24 q63 -10 141 -15t166 -5t145.5 16.5t90 50t46 84t13.5 115.5v51q-63 -29 -149.5 -43t-172.5 -14q-90 0 -163.5 21.5t-126 68.5t-82 124t-29.5 187zM510 1262l233 282q20 25 45 6l95 -61q23 -16 0 -39q-59 -61 -131 -133t-146 -125q-23 -14 -41 -4l-53 35q-25 14 -2 39z" />
<glyph unicode="&#xfe;" horiz-adv-x="1202" d="M164 -367v1833q0 29 29 29h118q29 0 29 -29v-446q61 29 141 43t166 14q104 0 187.5 -33.5t142.5 -97t91 -154t32 -200.5v-82q0 -113 -32 -209t-97.5 -167t-165.5 -110.5t-238 -39.5q-57 0 -114.5 7t-112.5 17v-375q0 -29 -29 -28h-118q-29 0 -29 28zM340 158 q51 -14 102.5 -19.5t108.5 -5.5q174 0 273.5 101.5t99.5 289.5v54q0 188 -91.5 269t-271.5 81q-57 0 -116.5 -4t-104.5 -11v-755z" />
<glyph unicode="&#xff;" horiz-adv-x="1226" d="M164 401v631q0 29 29 29h118q29 0 29 -29v-612q0 -145 65.5 -207.5t229.5 -62.5q57 0 122.5 2t129.5 10v870q0 29 28 29h119q29 0 29 -29v-1042q0 -104 -23.5 -180t-77 -125.5t-138.5 -72t-208 -22.5q-39 0 -84 2t-90 7.5t-88 12.5t-78 17q-25 6 -24 27v80q0 31 33 24 q63 -10 141 -15t166 -5t145.5 16.5t90 50t46 84t13.5 115.5v51q-63 -29 -149.5 -43t-172.5 -14q-90 0 -163.5 21.5t-126 68.5t-82 124t-29.5 187zM317 1284v12q0 31 7.5 71t17.5 79q12 37 39 37h96q29 0 29 -29v-170q0 -29 -29 -29h-131q-29 0 -29 29zM723 1284v170 q0 29 29 29h131q29 0 28 -29v-12q0 -31 -7 -71t-17 -79q-12 -37 -39 -37h-96q-29 0 -29 29z" />
<glyph unicode="&#x152;" horiz-adv-x="1779" d="M123 684v66q0 160 31.5 285.5t102.5 214.5t181.5 136.5t270.5 47.5h901q29 0 28 -29v-102q0 -29 -28 -29h-574v-469h531q29 0 28 -29v-102q0 -29 -28 -29h-531v-383q0 -61 24.5 -94t92.5 -33h475q29 0 29 -29v-77q0 -29 -27 -31q-63 -6 -117.5 -10t-106.5 -7.5 t-104.5 -4.5t-111.5 -1q-74 0 -133.5 8.5t-106.5 30.5q-61 -23 -118.5 -31t-122.5 -8q-160 0 -270.5 51.5t-181.5 144.5t-102.5 223t-31.5 290zM307 692q0 -137 22.5 -241.5t73 -174t131 -105.5t199.5 -36q33 0 64.5 3t64.5 7q-6 27 -8 56.5t-2 66.5v1006h-143 q-111 0 -188 -33t-125 -99.5t-68.5 -167t-20.5 -233.5v-49z" />
<glyph unicode="&#x153;" horiz-adv-x="1855" d="M102 496v69q0 256 119 384t348 128q270 0 385 -180q119 180 373 180q106 0 187 -30.5t133.5 -87t79 -134t26.5 -172.5q0 -119 -61.5 -172t-188.5 -53h-463q16 -166 98 -230.5t248 -64.5q63 0 137 5t134 16q31 6 31 -25v-80q0 -20 -23 -26q-68 -20 -147.5 -29.5 t-153.5 -9.5q-289 0 -406 182q-115 -182 -389 -182q-229 0 -348 128t-119 384zM279 506q0 -88 13 -156.5t47 -117t90 -74t140 -25.5t140.5 25.5t90.5 74t47 117t13 156.5v49q0 88 -13 156.5t-47 117t-90.5 74t-140.5 25.5t-140 -25.5t-90 -74t-47 -117t-13 -156.5v-49z M1036 578h482q39 0 56 14t17 59q0 131 -66.5 204t-197.5 73q-129 0 -208 -78t-83 -262v-10z" />
<glyph unicode="&#x178;" horiz-adv-x="1204" d="M44 1422.5q5 11.5 24 11.5h131q25 0 37 -23l366 -725l367 725q12 23 37 23h131q18 0 23 -11.5t-1 -23.5l-465 -897v-473q0 -29 -28 -29h-127q-29 0 -29 29v473l-465 897q-6 12 -1 23.5zM305 1640v13q0 31 7 70.5t18 78.5q12 37 39 37h96q29 0 29 -29v-170q0 -29 -29 -28 h-131q-29 0 -29 28zM711 1640v170q0 29 28 29h131q29 0 29 -29v-12q0 -31 -7 -70.5t-18 -78.5q-12 -37 -38 -37h-97q-29 0 -28 28z" />
<glyph unicode="&#x2c6;" horiz-adv-x="819" d="M92 1219q51 74 103.5 137t111.5 119q20 20 49 20h107q29 0 49 -20q59 -55 111.5 -119t103.5 -137q16 -25 -4 -37l-53 -35q-23 -14 -41 4l-219 223l-220 -223q-18 -18 -40 -4l-54 35q-20 12 -4 37z" />
<glyph unicode="&#x2dc;" horiz-adv-x="819" d="M63 1298q0 94 50.5 135.5t130.5 41.5q53 0 99 -21.5t95 -62.5q47 -39 75 -57.5t54 -18.5q25 0 39.5 21.5t14.5 84.5v23q0 27 26 26h64q20 0 30 -24q6 -16 10.5 -39t4.5 -45q0 -94 -50.5 -135t-130.5 -41q-55 0 -101 21.5t-97 62.5q-47 41 -74 58.5t-51 17.5 q-25 0 -39 -21.5t-14 -85.5v-22q0 -27 -27 -27h-63q-20 0 -31 24q-6 16 -10.5 39t-4.5 45z" />
<glyph unicode="&#x2000;" horiz-adv-x="971" />
<glyph unicode="&#x2001;" horiz-adv-x="1942" />
<glyph unicode="&#x2002;" horiz-adv-x="971" />
<glyph unicode="&#x2003;" horiz-adv-x="1942" />
<glyph unicode="&#x2004;" horiz-adv-x="647" />
<glyph unicode="&#x2005;" horiz-adv-x="485" />
<glyph unicode="&#x2006;" horiz-adv-x="323" />
<glyph unicode="&#x2007;" horiz-adv-x="323" />
<glyph unicode="&#x2008;" horiz-adv-x="242" />
<glyph unicode="&#x2009;" horiz-adv-x="388" />
<glyph unicode="&#x200a;" horiz-adv-x="107" />
<glyph unicode="&#x2010;" horiz-adv-x="872" d="M143 621v118q0 29 29 29h528q29 0 29 -29v-118q0 -29 -29 -29h-528q-29 0 -29 29z" />
<glyph unicode="&#x2011;" horiz-adv-x="872" d="M143 621v118q0 29 29 29h528q29 0 29 -29v-118q0 -29 -29 -29h-528q-29 0 -29 29z" />
<glyph unicode="&#x2012;" horiz-adv-x="872" d="M143 621v118q0 29 29 29h528q29 0 29 -29v-118q0 -29 -29 -29h-528q-29 0 -29 29z" />
<glyph unicode="&#x2013;" horiz-adv-x="1024" d="M0 629v102q0 29 29 29h966q29 0 29 -29v-102q0 -29 -29 -29h-966q-29 0 -29 29z" />
<glyph unicode="&#x2014;" horiz-adv-x="2048" d="M0 629v102q0 29 29 29h1990q29 0 29 -29v-102q0 -29 -29 -29h-1990q-29 0 -29 29z" />
<glyph unicode="&#x2018;" horiz-adv-x="552" d="M176 1098v51q0 88 36 195.5t120 211.5q10 10 24 3l62 -35q14 -8 6 -23q-31 -53 -45 -110.5t-14 -116.5q0 -16 2 -30.5t6 -33.5q6 -35 9 -59.5t3 -52.5q0 -29 -29 -29h-151q-29 0 -29 29z" />
<glyph unicode="&#x2019;" horiz-adv-x="552" d="M129 1133q31 53 45 110t14 117q0 16 -2 30.5t-6 32.5q-6 35 -9 59.5t-3 53.5t29 29h151q29 0 29 -29v-51q0 -88 -36 -195.5t-120 -212.5q-10 -10 -24 -2l-62 35q-14 8 -6 23z" />
<glyph unicode="&#x201a;" horiz-adv-x="552" d="M129 -182q31 53 45 110.5t14 116.5q0 16 -2 30.5t-6 33.5q-6 35 -9 59.5t-3 52.5q0 29 29 29h151q29 0 29 -29v-51q0 -88 -36 -195.5t-120 -212.5q-10 -10 -24 -2l-62 35q-14 8 -6 23z" />
<glyph unicode="&#x201c;" horiz-adv-x="897" d="M176 1098v51q0 88 36 195.5t120 211.5q10 10 24 3l62 -35q14 -8 6 -23q-31 -53 -45 -110.5t-14 -116.5q0 -16 2 -30.5t6 -33.5q6 -35 9 -59.5t3 -52.5q0 -29 -29 -29h-151q-29 0 -29 29zM520 1098v51q0 88 36 195.5t120 211.5q10 10 24 3l62 -35q14 -8 6 -23 q-31 -53 -45 -110.5t-14 -116.5q0 -16 2 -30.5t6 -33.5q6 -35 9 -59.5t3 -52.5q0 -29 -29 -29h-151q-29 0 -29 29z" />
<glyph unicode="&#x201d;" horiz-adv-x="897" d="M129 1133q31 53 45 110t14 117q0 16 -2 30.5t-6 32.5q-6 35 -9 59.5t-3 53.5t29 29h151q29 0 29 -29v-51q0 -88 -36 -195.5t-120 -212.5q-10 -10 -24 -2l-62 35q-14 8 -6 23zM473 1133q31 53 45 110t14 117q0 16 -2 30.5t-6 32.5q-6 35 -9 59.5t-3 53.5t29 29h151 q29 0 29 -29v-51q0 -88 -36 -195.5t-120 -212.5q-10 -10 -24 -2l-62 35q-14 8 -6 23z" />
<glyph unicode="&#x201e;" horiz-adv-x="897" d="M129 -182q31 53 45 110.5t14 116.5q0 16 -2 30.5t-6 33.5q-6 35 -9 59.5t-3 52.5q0 29 29 29h151q29 0 29 -29v-51q0 -88 -36 -195.5t-120 -212.5q-10 -10 -24 -2l-62 35q-14 8 -6 23zM473 -182q31 53 45 110.5t14 116.5q0 16 -2 30.5t-6 33.5q-6 35 -9 59.5t-3 52.5 q0 29 29 29h151q29 0 29 -29v-51q0 -88 -36 -195.5t-120 -212.5q-10 -10 -24 -2l-62 35q-14 8 -6 23z" />
<glyph unicode="&#x2022;" horiz-adv-x="917" d="M205 680q0 123 65.5 188.5t188.5 65.5t188.5 -65.5t65.5 -188.5t-65.5 -188.5t-188.5 -65.5t-188.5 65.5t-65.5 188.5z" />
<glyph unicode="&#x2026;" horiz-adv-x="1658" d="M168 205v16q0 29 29 29h151q29 0 29 -29v-192q0 -29 -29 -29h-117q-27 0 -38 37q-10 39 -16.5 86t-8.5 82zM721 205v16q0 29 29 29h151q29 0 29 -29v-192q0 -29 -29 -29h-117q-27 0 -39 37q-10 39 -16 86t-8 82zM1274 205v16q0 29 29 29h151q29 0 29 -29v-192 q0 -29 -29 -29h-117q-27 0 -39 37q-10 39 -16 86t-8 82z" />
<glyph unicode="&#x202f;" horiz-adv-x="388" />
<glyph unicode="&#x2039;" horiz-adv-x="706" d="M143 616v46q0 16 13 28q72 74 167 152t187 137q25 16 39 -4l29 -41q12 -16 -3 -31l-301 -264l301 -264q14 -14 3 -31l-29 -41q-14 -20 -39 -4q-92 59 -187.5 137t-166.5 152q-12 12 -13 28z" />
<glyph unicode="&#x203a;" horiz-adv-x="706" d="M129 344q-12 16 2 31l301 264l-301 264q-14 14 -2 31l29 41q14 20 39 4q92 -59 187 -137t167 -152q12 -12 12 -28v-46q0 -16 -12 -28q-72 -74 -167 -152t-187 -137q-25 -16 -39 4z" />
<glyph unicode="&#x205f;" horiz-adv-x="485" />
<glyph unicode="&#x20ac;" horiz-adv-x="1150" d="M41 559v62q0 29 29 28h114v135h-114q-29 0 -29 29v61q0 29 29 29h120q12 127 50.5 229.5t105 175t163.5 111.5t230 39q82 0 152 -10t135 -29q23 -6 23 -26v-90q0 -31 -33 -25q-66 10 -122 15t-130 5q-186 0 -275.5 -99t-111.5 -296h536q29 0 29 -29v-61q0 -29 -29 -29 h-544v-135h544q29 0 29 -28v-62q0 -29 -29 -29h-536q23 -197 112 -296t275 -99q74 0 140.5 5t131.5 16q33 6 33 -25v-90q0 -20 -22 -27q-78 -16 -152 -27.5t-156 -11.5q-133 0 -230 39t-163.5 112t-104.5 175t-51 229h-120q-29 0 -29 29z" />
<glyph unicode="&#x2122;" horiz-adv-x="1347" d="M25 1358v45q0 31 32 31h428q31 0 31 -31v-45q0 -35 -31 -35h-153v-516q0 -31 -33 -31h-57q-33 0 -33 31v516h-152q-33 0 -32 35zM578 805v598q0 31 30 31h76q29 0 41 -25l184 -313l185 313q14 25 41 25h75q31 0 31 -31v-598q0 -31 -31 -31h-61q-31 0 -31 31v430 l-143 -242q-16 -25 -45 -24h-41q-31 0 -45 24l-144 242v-430q0 -31 -30 -31h-62q-31 0 -30 31z" />
<glyph unicode="&#x25fc;" horiz-adv-x="1064" d="M0 0v1065h1065v-1065h-1065z" />
</font>
</defs>
</svg>
